<?xml version="1.0" encoding="utf-8" standalone="no"?>
<!DOCTYPE svg PUBLIC "-//W3C//DTD SVG 1.1//EN"
  "http://www.w3.org/Graphics/SVG/1.1/DTD/svg11.dtd">
<svg xmlns:xlink="http://www.w3.org/1999/xlink" width="570.584062pt" height="281.57125pt" viewBox="0 0 570.584062 281.57125" xmlns="http://www.w3.org/2000/svg" version="1.1">
 <metadata>
  <rdf:RDF xmlns:dc="http://purl.org/dc/elements/1.1/" xmlns:cc="http://creativecommons.org/ns#" xmlns:rdf="http://www.w3.org/1999/02/22-rdf-syntax-ns#">
   <cc:Work>
    <dc:type rdf:resource="http://purl.org/dc/dcmitype/StillImage"/>
    <dc:date>2026-05-13T07:37:28.816462</dc:date>
    <dc:format>image/svg+xml</dc:format>
    <dc:creator>
     <cc:Agent>
      <dc:title>Matplotlib v3.10.8, https://matplotlib.org/</dc:title>
     </cc:Agent>
    </dc:creator>
   </cc:Work>
  </rdf:RDF>
 </metadata>
 <defs>
  <style type="text/css">*{stroke-linejoin: round; stroke-linecap: butt}</style>
 </defs>
 <g id="figure_1">
  <g id="patch_1">
   <path d="M 0 281.57125 
L 570.584062 281.57125 
L 570.584062 0 
L 0 0 
z
" style="fill: #ffffff"/>
  </g>
  <g id="axes_1">
   <g id="patch_2">
    <path d="M 38.204063 247.418437 
L 563.384063 247.418437 
L 563.384063 20.798437 
L 38.204063 20.798437 
z
" style="fill: #ffffff"/>
   </g>
   <g id="matplotlib.axis_1">
    <g id="xtick_1">
     <g id="line2d_1">
      <path d="M 62.075881 247.418437 
L 62.075881 20.798437 
" clip-path="url(#p3035b4e116)" style="fill: none; stroke: #b0b0b0; stroke-opacity: 0.15; stroke-width: 0.8; stroke-linecap: square"/>
     </g>
     <g id="line2d_2">
      <defs>
       <path id="m23e62a6553" d="M 0 0 
L 0 3 
" style="stroke: #000000; stroke-width: 0.8"/>
      </defs>
      <g>
       <use xlink:href="#m23e62a6553" x="62.075881" y="247.418437" style="stroke: #000000; stroke-width: 0.8"/>
      </g>
     </g>
     <g id="text_1">
      <text style="font-size: 8px; font-family: 'Arial', 'Helvetica', 'DejaVu Sans', sans-serif; text-anchor: middle" x="62.075881" y="259.997187" transform="rotate(-0 62.075881 259.997187)">−100</text>
     </g>
    </g>
    <g id="xtick_2">
     <g id="line2d_3">
      <path d="M 149.199305 247.418437 
L 149.199305 20.798437 
" clip-path="url(#p3035b4e116)" style="fill: none; stroke: #b0b0b0; stroke-opacity: 0.15; stroke-width: 0.8; stroke-linecap: square"/>
     </g>
     <g id="line2d_4">
      <g>
       <use xlink:href="#m23e62a6553" x="149.199305" y="247.418437" style="stroke: #000000; stroke-width: 0.8"/>
      </g>
     </g>
     <g id="text_2">
      <text style="font-size: 8px; font-family: 'Arial', 'Helvetica', 'DejaVu Sans', sans-serif; text-anchor: middle" x="149.199305" y="259.997187" transform="rotate(-0 149.199305 259.997187)">0</text>
     </g>
    </g>
    <g id="xtick_3">
     <g id="line2d_5">
      <path d="M 236.322729 247.418437 
L 236.322729 20.798437 
" clip-path="url(#p3035b4e116)" style="fill: none; stroke: #b0b0b0; stroke-opacity: 0.15; stroke-width: 0.8; stroke-linecap: square"/>
     </g>
     <g id="line2d_6">
      <g>
       <use xlink:href="#m23e62a6553" x="236.322729" y="247.418437" style="stroke: #000000; stroke-width: 0.8"/>
      </g>
     </g>
     <g id="text_3">
      <text style="font-size: 8px; font-family: 'Arial', 'Helvetica', 'DejaVu Sans', sans-serif; text-anchor: middle" x="236.322729" y="259.997187" transform="rotate(-0 236.322729 259.997187)">100</text>
     </g>
    </g>
    <g id="xtick_4">
     <g id="line2d_7">
      <path d="M 323.446153 247.418437 
L 323.446153 20.798437 
" clip-path="url(#p3035b4e116)" style="fill: none; stroke: #b0b0b0; stroke-opacity: 0.15; stroke-width: 0.8; stroke-linecap: square"/>
     </g>
     <g id="line2d_8">
      <g>
       <use xlink:href="#m23e62a6553" x="323.446153" y="247.418437" style="stroke: #000000; stroke-width: 0.8"/>
      </g>
     </g>
     <g id="text_4">
      <text style="font-size: 8px; font-family: 'Arial', 'Helvetica', 'DejaVu Sans', sans-serif; text-anchor: middle" x="323.446153" y="259.997187" transform="rotate(-0 323.446153 259.997187)">200</text>
     </g>
    </g>
    <g id="xtick_5">
     <g id="line2d_9">
      <path d="M 410.569577 247.418437 
L 410.569577 20.798437 
" clip-path="url(#p3035b4e116)" style="fill: none; stroke: #b0b0b0; stroke-opacity: 0.15; stroke-width: 0.8; stroke-linecap: square"/>
     </g>
     <g id="line2d_10">
      <g>
       <use xlink:href="#m23e62a6553" x="410.569577" y="247.418437" style="stroke: #000000; stroke-width: 0.8"/>
      </g>
     </g>
     <g id="text_5">
      <text style="font-size: 8px; font-family: 'Arial', 'Helvetica', 'DejaVu Sans', sans-serif; text-anchor: middle" x="410.569577" y="259.997187" transform="rotate(-0 410.569577 259.997187)">300</text>
     </g>
    </g>
    <g id="xtick_6">
     <g id="line2d_11">
      <path d="M 497.693001 247.418437 
L 497.693001 20.798437 
" clip-path="url(#p3035b4e116)" style="fill: none; stroke: #b0b0b0; stroke-opacity: 0.15; stroke-width: 0.8; stroke-linecap: square"/>
     </g>
     <g id="line2d_12">
      <g>
       <use xlink:href="#m23e62a6553" x="497.693001" y="247.418437" style="stroke: #000000; stroke-width: 0.8"/>
      </g>
     </g>
     <g id="text_6">
      <text style="font-size: 8px; font-family: 'Arial', 'Helvetica', 'DejaVu Sans', sans-serif; text-anchor: middle" x="497.693001" y="259.997187" transform="rotate(-0 497.693001 259.997187)">400</text>
     </g>
    </g>
    <g id="text_7">
     <text style="font-size: 9px; font-family: 'Arial', 'Helvetica', 'DejaVu Sans', sans-serif; text-anchor: middle" x="300.794063" y="272.499531" transform="rotate(-0 300.794063 272.499531)">Time (ms)</text>
    </g>
   </g>
   <g id="matplotlib.axis_2">
    <g id="ytick_1">
     <g id="line2d_13">
      <path d="M 38.204063 211.12459 
L 563.384063 211.12459 
" clip-path="url(#p3035b4e116)" style="fill: none; stroke: #b0b0b0; stroke-opacity: 0.15; stroke-width: 0.8; stroke-linecap: square"/>
     </g>
     <g id="line2d_14">
      <defs>
       <path id="ma778dba7f5" d="M 0 0 
L -3 0 
" style="stroke: #000000; stroke-width: 0.8"/>
      </defs>
      <g>
       <use xlink:href="#ma778dba7f5" x="38.204063" y="211.12459" style="stroke: #000000; stroke-width: 0.8"/>
      </g>
     </g>
     <g id="text_8">
      <text style="font-size: 8px; font-family: 'Arial', 'Helvetica', 'DejaVu Sans', sans-serif; text-anchor: end" x="31.704063" y="214.163965" transform="rotate(-0 31.704063 214.163965)">−2</text>
     </g>
    </g>
    <g id="ytick_2">
     <g id="line2d_15">
      <path d="M 38.204063 172.967453 
L 563.384063 172.967453 
" clip-path="url(#p3035b4e116)" style="fill: none; stroke: #b0b0b0; stroke-opacity: 0.15; stroke-width: 0.8; stroke-linecap: square"/>
     </g>
     <g id="line2d_16">
      <g>
       <use xlink:href="#ma778dba7f5" x="38.204063" y="172.967453" style="stroke: #000000; stroke-width: 0.8"/>
      </g>
     </g>
     <g id="text_9">
      <text style="font-size: 8px; font-family: 'Arial', 'Helvetica', 'DejaVu Sans', sans-serif; text-anchor: end" x="31.704063" y="176.006828" transform="rotate(-0 31.704063 176.006828)">0</text>
     </g>
    </g>
    <g id="ytick_3">
     <g id="line2d_17">
      <path d="M 38.204063 134.810316 
L 563.384063 134.810316 
" clip-path="url(#p3035b4e116)" style="fill: none; stroke: #b0b0b0; stroke-opacity: 0.15; stroke-width: 0.8; stroke-linecap: square"/>
     </g>
     <g id="line2d_18">
      <g>
       <use xlink:href="#ma778dba7f5" x="38.204063" y="134.810316" style="stroke: #000000; stroke-width: 0.8"/>
      </g>
     </g>
     <g id="text_10">
      <text style="font-size: 8px; font-family: 'Arial', 'Helvetica', 'DejaVu Sans', sans-serif; text-anchor: end" x="31.704063" y="137.849691" transform="rotate(-0 31.704063 137.849691)">2</text>
     </g>
    </g>
    <g id="ytick_4">
     <g id="line2d_19">
      <path d="M 38.204063 96.653178 
L 563.384063 96.653178 
" clip-path="url(#p3035b4e116)" style="fill: none; stroke: #b0b0b0; stroke-opacity: 0.15; stroke-width: 0.8; stroke-linecap: square"/>
     </g>
     <g id="line2d_20">
      <g>
       <use xlink:href="#ma778dba7f5" x="38.204063" y="96.653178" style="stroke: #000000; stroke-width: 0.8"/>
      </g>
     </g>
     <g id="text_11">
      <text style="font-size: 8px; font-family: 'Arial', 'Helvetica', 'DejaVu Sans', sans-serif; text-anchor: end" x="31.704063" y="99.692553" transform="rotate(-0 31.704063 99.692553)">4</text>
     </g>
    </g>
    <g id="ytick_5">
     <g id="line2d_21">
      <path d="M 38.204063 58.496041 
L 563.384063 58.496041 
" clip-path="url(#p3035b4e116)" style="fill: none; stroke: #b0b0b0; stroke-opacity: 0.15; stroke-width: 0.8; stroke-linecap: square"/>
     </g>
     <g id="line2d_22">
      <g>
       <use xlink:href="#ma778dba7f5" x="38.204063" y="58.496041" style="stroke: #000000; stroke-width: 0.8"/>
      </g>
     </g>
     <g id="text_12">
      <text style="font-size: 8px; font-family: 'Arial', 'Helvetica', 'DejaVu Sans', sans-serif; text-anchor: end" x="31.704063" y="61.535416" transform="rotate(-0 31.704063 61.535416)">6</text>
     </g>
    </g>
    <g id="text_13">
     <text style="font-size: 9px; font-family: 'Arial', 'Helvetica', 'DejaVu Sans', sans-serif; text-anchor: middle" x="14.038594" y="134.108437" transform="rotate(-90 14.038594 134.108437)">Amplitude (µV)</text>
    </g>
   </g>
   <g id="line2d_23">
    <path d="M 62.075881 172.735021 
L 65.560818 180.214634 
L 69.045755 181.592609 
L 72.530692 179.568216 
L 76.015629 176.118167 
L 79.500565 168.186916 
L 82.985502 159.183209 
L 86.470439 157.644008 
L 89.955376 161.040199 
L 93.440313 168.45786 
L 96.92525 172.582235 
L 100.410187 180.68904 
L 103.895124 187.198019 
L 107.380061 188.987376 
L 110.864998 184.005322 
L 114.349935 182.061495 
L 117.834872 173.850669 
L 121.319809 168.549023 
L 124.804746 165.776518 
L 128.289683 164.262278 
L 131.77462 165.228883 
L 135.259557 167.340428 
L 138.744494 170.28596 
L 142.229431 171.854373 
L 145.714368 174.338116 
L 152.684242 176.362521 
L 156.169179 175.189748 
L 159.654116 174.158376 
L 163.139053 176.262296 
L 166.62399 188.548674 
L 170.108926 203.557554 
L 173.593863 212.948517 
L 177.0788 215.151054 
L 180.563737 210.617336 
L 184.048674 199.897218 
L 187.533611 187.894557 
L 191.018548 173.102231 
L 194.503485 159.864021 
L 197.988422 148.393699 
L 201.473359 138.563695 
L 204.958296 134.341815 
L 208.443233 130.543385 
L 211.92817 125.240637 
L 215.413107 116.937153 
L 218.898044 104.705948 
L 222.382981 95.728613 
L 225.867918 86.136955 
L 229.352855 81.284381 
L 232.837792 80.252221 
L 236.322729 83.834465 
L 239.807666 92.773759 
L 243.292603 99.371059 
L 246.77754 102.960181 
L 250.262477 100.937403 
L 253.747414 95.072438 
L 257.23235 91.994269 
L 260.717287 95.521948 
L 264.202224 107.661683 
L 267.687161 124.866653 
L 271.172098 144.434226 
L 274.657035 160.987671 
L 278.141972 172.598751 
L 281.626909 181.101528 
L 285.111846 185.254709 
L 288.596783 187.37888 
L 292.08172 187.681277 
L 295.566657 187.091684 
L 299.051594 181.11929 
L 302.536531 173.216495 
L 306.021468 159.732459 
L 309.506405 142.099984 
L 312.991342 126.99421 
L 316.476279 113.19464 
L 319.961216 98.739615 
L 323.446153 88.008657 
L 333.900964 60.310812 
L 337.385901 56.809589 
L 340.870838 54.036137 
L 344.355775 56.775628 
L 347.840711 53.421337 
L 351.325648 54.869083 
L 354.810585 57.651924 
L 358.295522 58.686158 
L 361.780459 59.060096 
L 365.265396 65.807407 
L 368.750333 69.168085 
L 372.23527 73.486015 
L 375.720207 83.488847 
L 379.205144 88.894204 
L 382.690081 98.489137 
L 386.175018 104.403669 
L 389.659955 109.612051 
L 393.144892 114.283255 
L 396.629829 118.15238 
L 400.114766 121.356806 
L 403.599703 123.582796 
L 407.08464 123.673428 
L 410.569577 127.146673 
L 414.054514 129.563985 
L 417.539451 134.412169 
L 421.024388 137.991075 
L 424.509325 144.871832 
L 427.994262 145.339073 
L 431.479199 144.509516 
L 434.964135 148.955407 
L 438.449072 147.18165 
L 445.418946 148.580032 
L 448.903883 145.851321 
L 452.38882 149.165402 
L 455.873757 148.939703 
L 459.358694 147.917759 
L 462.843631 145.480021 
L 466.328568 144.302248 
L 469.813505 141.374348 
L 473.298442 141.164858 
L 476.783379 140.659863 
L 480.268316 139.287516 
L 483.753253 135.223106 
L 487.23819 133.429535 
L 490.723127 132.416775 
L 494.208064 140.896645 
L 497.693001 150.884202 
L 501.177938 159.264053 
L 504.662875 163.875289 
L 508.147812 165.847054 
L 511.632749 168.577116 
L 515.117686 171.703777 
L 518.602623 165.505445 
L 522.08756 160.448761 
L 525.572496 158.160685 
L 529.057433 152.351742 
L 532.54237 147.435337 
L 536.027307 150.555255 
L 539.512244 160.410548 
L 539.512244 160.410548 
" clip-path="url(#p3035b4e116)" style="fill: none; stroke: #1f77b4; stroke-width: 1.4; stroke-linecap: square"/>
   </g>
   <g id="line2d_24">
    <path d="M 62.075881 175.99992 
L 65.560818 181.458003 
L 69.045755 176.432932 
L 72.530692 169.301921 
L 76.015629 163.418643 
L 79.500565 159.929259 
L 82.985502 152.592029 
L 86.470439 153.81344 
L 89.955376 164.631412 
L 93.440313 178.298494 
L 96.92525 188.116856 
L 100.410187 191.81941 
L 103.895124 196.994552 
L 107.380061 194.376231 
L 110.864998 192.202787 
L 114.349935 184.822367 
L 117.834872 177.99406 
L 121.319809 171.854524 
L 124.804746 163.847415 
L 128.289683 157.501754 
L 131.77462 156.991641 
L 135.259557 156.998362 
L 138.744494 163.130442 
L 142.229431 170.530414 
L 145.714368 172.988276 
L 149.199305 181.108819 
L 152.684242 184.912158 
L 156.169179 189.532839 
L 159.654116 188.347521 
L 163.139053 187.472595 
L 166.62399 196.342746 
L 170.108926 213.211217 
L 173.593863 225.52343 
L 177.0788 236.545654 
L 180.563737 237.117528 
L 184.048674 228.693109 
L 187.533611 213.986795 
L 191.018548 196.88053 
L 194.503485 180.480998 
L 197.988422 163.357055 
L 201.473359 149.82999 
L 204.958296 139.032617 
L 211.92817 131.142565 
L 215.413107 120.85262 
L 218.898044 106.558718 
L 222.382981 95.742331 
L 225.867918 87.927181 
L 229.352855 88.504591 
L 232.837792 95.981483 
L 236.322729 114.059359 
L 239.807666 130.978121 
L 243.292603 143.620127 
L 246.77754 146.604517 
L 250.262477 146.455234 
L 257.23235 138.344517 
L 260.717287 136.09995 
L 264.202224 141.695642 
L 267.687161 149.48048 
L 271.172098 163.335235 
L 274.657035 172.364216 
L 278.141972 178.019924 
L 281.626909 181.224818 
L 285.111846 180.727522 
L 288.596783 177.7701 
L 292.08172 170.599178 
L 295.566657 162.682377 
L 299.051594 158.284163 
L 302.536531 151.249155 
L 306.021468 141.809032 
L 309.506405 126.633526 
L 312.991342 110.630124 
L 316.476279 93.623608 
L 319.961216 84.369172 
L 323.446153 79.665859 
L 326.93109 75.606184 
L 330.416027 73.457104 
L 333.900964 69.412294 
L 337.385901 64.590552 
L 340.870838 62.195187 
L 344.355775 61.991187 
L 347.840711 64.020638 
L 351.325648 66.869634 
L 354.810585 70.752464 
L 358.295522 75.373992 
L 361.780459 79.439589 
L 365.265396 80.55993 
L 368.750333 83.954632 
L 372.23527 84.944753 
L 375.720207 94.684289 
L 379.205144 100.764608 
L 382.690081 109.81771 
L 386.175018 116.375991 
L 389.659955 120.273937 
L 393.144892 123.363877 
L 396.629829 124.158346 
L 400.114766 124.188663 
L 403.599703 127.261882 
L 407.08464 128.015913 
L 410.569577 130.362215 
L 414.054514 131.155238 
L 417.539451 134.587826 
L 421.024388 136.900803 
L 424.509325 135.49048 
L 427.994262 138.977748 
L 434.964135 146.430239 
L 438.449072 149.342844 
L 441.934009 151.548304 
L 445.418946 151.735546 
L 448.903883 149.09192 
L 452.38882 149.249562 
L 455.873757 152.652843 
L 459.358694 154.751968 
L 462.843631 153.37642 
L 466.328568 152.226092 
L 469.813505 152.595118 
L 473.298442 153.215454 
L 476.783379 154.279995 
L 480.268316 153.469591 
L 483.753253 145.889903 
L 487.23819 135.926024 
L 490.723127 126.605402 
L 494.208064 133.773961 
L 497.693001 139.159473 
L 501.177938 147.90497 
L 504.662875 151.357295 
L 508.147812 153.520575 
L 511.632749 156.922091 
L 515.117686 161.592863 
L 518.602623 155.981343 
L 522.08756 146.147354 
L 525.572496 139.885058 
L 529.057433 141.271361 
L 532.54237 138.770192 
L 536.027307 140.938077 
L 539.512244 158.477268 
L 539.512244 158.477268 
" clip-path="url(#p3035b4e116)" style="fill: none; stroke: #ff7f0e; stroke-width: 1.4; stroke-linecap: square"/>
   </g>
   <g id="line2d_25">
    <path d="M 62.075881 199.901728 
L 65.560818 200.373324 
L 69.045755 196.664297 
L 72.530692 186.737717 
L 76.015629 174.410635 
L 79.500565 164.225864 
L 82.985502 162.940259 
L 86.470439 163.600125 
L 89.955376 171.371798 
L 93.440313 182.788088 
L 96.92525 186.178866 
L 100.410187 187.000236 
L 103.895124 181.788166 
L 107.380061 181.196104 
L 110.864998 180.016541 
L 114.349935 174.317757 
L 117.834872 168.075247 
L 121.319809 161.018167 
L 124.804746 155.473125 
L 128.289683 152.203962 
L 135.259557 153.794872 
L 138.744494 154.733426 
L 142.229431 159.134569 
L 145.714368 168.878617 
L 149.199305 177.343676 
L 152.684242 182.895957 
L 156.169179 184.692049 
L 159.654116 189.840468 
L 163.139053 192.419409 
L 166.62399 200.431386 
L 170.108926 208.752903 
L 173.593863 213.413816 
L 177.0788 213.825981 
L 180.563737 211.408701 
L 184.048674 205.922045 
L 191.018548 183.718052 
L 194.503485 169.715475 
L 197.988422 160.194369 
L 201.473359 149.113488 
L 204.958296 138.915117 
L 208.443233 133.895202 
L 211.92817 125.332184 
L 215.413107 113.485338 
L 222.382981 88.455365 
L 225.867918 82.297783 
L 229.352855 81.1313 
L 232.837792 88.090624 
L 236.322729 96.049977 
L 239.807666 103.195962 
L 243.292603 112.403342 
L 246.77754 113.022159 
L 250.262477 112.17311 
L 253.747414 107.272416 
L 257.23235 103.140268 
L 260.717287 106.949987 
L 264.202224 116.202786 
L 267.687161 129.04488 
L 271.172098 143.724617 
L 274.657035 162.95682 
L 278.141972 173.472059 
L 281.626909 185.214721 
L 285.111846 192.133026 
L 288.596783 192.810446 
L 292.08172 194.078654 
L 295.566657 190.371219 
L 299.051594 176.761736 
L 302.536531 167.795707 
L 306.021468 154.572926 
L 312.991342 114.174382 
L 316.476279 102.063485 
L 319.961216 92.323112 
L 323.446153 83.453904 
L 326.93109 71.716222 
L 330.416027 60.461246 
L 333.900964 54.396957 
L 340.870838 50.573951 
L 344.355775 47.116796 
L 347.840711 45.547445 
L 351.325648 45.726017 
L 354.810585 41.07928 
L 358.295522 40.279749 
L 361.780459 40.483985 
L 365.265396 39.749818 
L 368.750333 41.074195 
L 372.23527 43.401348 
L 375.720207 52.261413 
L 379.205144 58.942349 
L 382.690081 65.077134 
L 386.175018 70.5595 
L 393.144892 81.127097 
L 396.629829 90.096367 
L 400.114766 91.117065 
L 403.599703 94.944365 
L 407.08464 102.120098 
L 410.569577 110.244682 
L 414.054514 116.764722 
L 417.539451 118.052327 
L 421.024388 124.697306 
L 424.509325 132.560113 
L 427.994262 140.714029 
L 434.964135 150.84409 
L 438.449072 152.841995 
L 441.934009 151.307719 
L 445.418946 151.024159 
L 448.903883 149.849247 
L 452.38882 146.408212 
L 459.358694 141.263503 
L 462.843631 140.265663 
L 466.328568 137.01361 
L 469.813505 136.338153 
L 473.298442 138.063935 
L 476.783379 134.097077 
L 480.268316 134.577823 
L 483.753253 128.48773 
L 487.23819 129.486462 
L 490.723127 131.002839 
L 494.208064 143.841368 
L 497.693001 154.021757 
L 504.662875 164.844002 
L 508.147812 171.56516 
L 511.632749 175.736217 
L 515.117686 176.900342 
L 518.602623 173.030085 
L 522.08756 161.097163 
L 525.572496 154.075435 
L 529.057433 152.182124 
L 536.027307 163.453861 
L 539.512244 170.965992 
L 539.512244 170.965992 
" clip-path="url(#p3035b4e116)" style="fill: none; stroke: #2ca02c; stroke-width: 1.4; stroke-linecap: square"/>
   </g>
   <g id="line2d_26">
    <path d="M 62.075881 155.96627 
L 65.560818 166.808881 
L 69.045755 174.449592 
L 72.530692 175.403479 
L 76.015629 168.257726 
L 79.500565 157.19097 
L 82.985502 147.677677 
L 86.470439 143.71416 
L 89.955376 150.115158 
L 93.440313 160.674066 
L 96.92525 172.268852 
L 100.410187 188.043952 
L 103.895124 200.574824 
L 107.380061 203.267489 
L 110.864998 199.204519 
L 114.349935 191.418062 
L 117.834872 186.472127 
L 121.319809 177.432356 
L 124.804746 168.768355 
L 128.289683 166.400429 
L 131.77462 165.395093 
L 135.259557 166.926029 
L 138.744494 173.527653 
L 142.229431 175.458386 
L 145.714368 180.982966 
L 149.199305 180.754516 
L 152.684242 179.151548 
L 156.169179 179.617878 
L 159.654116 187.652801 
L 163.139053 187.372618 
L 166.62399 197.073278 
L 170.108926 211.873535 
L 173.593863 224.271659 
L 177.0788 228.429262 
L 180.563737 223.096643 
L 184.048674 217.077381 
L 191.018548 196.72952 
L 194.503485 189.551393 
L 197.988422 180.40423 
L 201.473359 173.735813 
L 204.958296 169.128708 
L 208.443233 166.434983 
L 211.92817 164.280243 
L 215.413107 158.41553 
L 218.898044 147.813221 
L 222.382981 135.499928 
L 225.867918 124.241559 
L 229.352855 113.607484 
L 232.837792 108.722209 
L 236.322729 111.582746 
L 239.807666 120.612768 
L 243.292603 124.640706 
L 246.77754 126.375284 
L 250.262477 123.086775 
L 253.747414 113.80254 
L 257.23235 107.016225 
L 260.717287 105.469163 
L 264.202224 107.283924 
L 267.687161 116.372548 
L 271.172098 135.576892 
L 274.657035 155.538096 
L 278.141972 170.004236 
L 281.626909 180.190075 
L 285.111846 185.359752 
L 288.596783 180.143045 
L 292.08172 171.115001 
L 295.566657 170.441007 
L 299.051594 162.701747 
L 302.536531 160.992274 
L 306.021468 151.615069 
L 312.991342 122.525822 
L 316.476279 101.46853 
L 319.961216 89.609412 
L 323.446153 80.380166 
L 330.416027 75.925575 
L 333.900964 74.384262 
L 337.385901 63.573739 
L 340.870838 58.025725 
L 344.355775 50.297063 
L 347.840711 48.490098 
L 351.325648 48.101577 
L 354.810585 49.841449 
L 358.295522 56.478863 
L 361.780459 54.83041 
L 365.265396 55.841228 
L 368.750333 57.682627 
L 372.23527 59.830089 
L 375.720207 63.692177 
L 379.205144 67.229044 
L 382.690081 69.299523 
L 386.175018 81.160429 
L 389.659955 82.489664 
L 393.144892 86.226773 
L 396.629829 89.140497 
L 400.114766 95.28527 
L 403.599703 102.177334 
L 407.08464 105.390784 
L 410.569577 108.29864 
L 414.054514 111.406752 
L 417.539451 114.092451 
L 421.024388 114.876144 
L 424.509325 117.485938 
L 427.994262 117.624077 
L 431.479199 119.131962 
L 434.964135 118.303305 
L 438.449072 119.207006 
L 445.418946 114.708074 
L 448.903883 115.474132 
L 452.38882 119.123201 
L 455.873757 120.099986 
L 459.358694 120.395732 
L 462.843631 119.384359 
L 466.328568 119.254008 
L 469.813505 119.965477 
L 473.298442 122.553624 
L 476.783379 123.338586 
L 480.268316 124.349017 
L 483.753253 122.960522 
L 487.23819 117.578636 
L 490.723127 115.184986 
L 494.208064 118.761922 
L 501.177938 139.026731 
L 504.662875 142.157507 
L 508.147812 147.094386 
L 511.632749 148.096111 
L 515.117686 150.050435 
L 518.602623 148.977116 
L 522.08756 145.005857 
L 525.572496 142.413022 
L 529.057433 137.073641 
L 532.54237 134.672054 
L 536.027307 139.76158 
L 539.512244 148.591094 
L 539.512244 148.591094 
" clip-path="url(#p3035b4e116)" style="fill: none; stroke: #d62728; stroke-width: 1.4; stroke-linecap: square"/>
   </g>
   <g id="line2d_27">
    <path d="M 62.075881 183.519268 
L 65.560818 187.746312 
L 69.045755 188.952876 
L 72.530692 184.335959 
L 76.015629 172.901181 
L 79.500565 163.951521 
L 82.985502 158.178351 
L 89.955376 170.657842 
L 93.440313 177.194943 
L 96.92525 183.444364 
L 100.410187 186.756546 
L 103.895124 190.349425 
L 107.380061 190.279666 
L 110.864998 181.874293 
L 114.349935 176.036777 
L 117.834872 170.895399 
L 121.319809 164.076122 
L 124.804746 159.245339 
L 128.289683 158.005893 
L 131.77462 159.395517 
L 135.259557 161.651884 
L 142.229431 163.673628 
L 145.714368 166.698857 
L 149.199305 170.304067 
L 152.684242 171.230819 
L 156.169179 168.650488 
L 159.654116 166.755104 
L 163.139053 173.731423 
L 166.62399 184.899569 
L 170.108926 198.335507 
L 173.593863 206.541912 
L 177.0788 206.559927 
L 180.563737 200.92137 
L 184.048674 192.249473 
L 187.533611 181.497267 
L 191.018548 168.982777 
L 197.988422 146.760396 
L 201.473359 139.455779 
L 204.958296 129.965893 
L 208.443233 123.444534 
L 211.92817 116.30479 
L 215.413107 110.136955 
L 218.898044 97.129599 
L 222.382981 87.314937 
L 225.867918 86.849279 
L 229.352855 87.663539 
L 232.837792 95.600249 
L 236.322729 111.492905 
L 239.807666 126.389489 
L 243.292603 133.844484 
L 246.77754 136.690223 
L 250.262477 131.389045 
L 253.747414 130.503243 
L 257.23235 129.028996 
L 260.717287 127.261991 
L 264.202224 131.260426 
L 267.687161 137.812393 
L 271.172098 147.095045 
L 274.657035 155.275834 
L 278.141972 158.159903 
L 281.626909 156.721837 
L 285.111846 151.964097 
L 288.596783 151.361921 
L 292.08172 142.614483 
L 295.566657 135.917632 
L 299.051594 123.560162 
L 302.536531 114.344712 
L 306.021468 100.563369 
L 309.506405 89.068646 
L 316.476279 52.935192 
L 319.961216 43.107239 
L 323.446153 35.970297 
L 326.93109 31.157888 
L 330.416027 31.099347 
L 333.900964 32.260926 
L 337.385901 32.981201 
L 340.870838 36.318126 
L 344.355775 42.257462 
L 347.840711 46.160735 
L 351.325648 50.716116 
L 354.810585 57.875319 
L 358.295522 61.236051 
L 365.265396 67.292016 
L 368.750333 69.974967 
L 372.23527 73.167834 
L 375.720207 79.593371 
L 379.205144 85.491851 
L 382.690081 89.723611 
L 386.175018 93.28757 
L 389.659955 97.136867 
L 393.144892 101.823992 
L 396.629829 105.135426 
L 400.114766 109.143222 
L 403.599703 112.345214 
L 407.08464 111.63355 
L 410.569577 113.640089 
L 414.054514 114.86051 
L 417.539451 119.35341 
L 421.024388 124.369709 
L 424.509325 128.777604 
L 427.994262 134.553347 
L 431.479199 141.883992 
L 434.964135 147.506144 
L 438.449072 146.963111 
L 441.934009 149.384342 
L 445.418946 154.009772 
L 448.903883 157.383694 
L 452.38882 162.501186 
L 455.873757 165.27734 
L 459.358694 164.656933 
L 462.843631 159.476333 
L 466.328568 157.031565 
L 469.813505 155.536967 
L 473.298442 153.719298 
L 476.783379 151.229618 
L 480.268316 146.992952 
L 483.753253 142.366585 
L 487.23819 138.037212 
L 490.723127 138.348767 
L 494.208064 146.179181 
L 497.693001 154.626431 
L 501.177938 159.505594 
L 504.662875 159.396549 
L 508.147812 165.364889 
L 511.632749 168.28766 
L 515.117686 168.245816 
L 518.602623 164.034414 
L 522.08756 158.513047 
L 525.572496 149.913413 
L 532.54237 143.089032 
L 536.027307 149.203006 
L 539.512244 159.373915 
L 539.512244 159.373915 
" clip-path="url(#p3035b4e116)" style="fill: none; stroke: #9467bd; stroke-width: 1.4; stroke-linecap: square"/>
   </g>
   <g id="line2d_28">
    <path d="M 62.075881 163.401726 
L 65.560818 166.424199 
L 69.045755 165.247623 
L 72.530692 160.981676 
L 76.015629 158.523428 
L 79.500565 156.551466 
L 82.985502 151.4447 
L 86.470439 150.881996 
L 89.955376 159.485147 
L 93.440313 172.619715 
L 96.92525 180.207093 
L 103.895124 199.588062 
L 107.380061 203.03663 
L 110.864998 204.831561 
L 114.349935 201.129864 
L 117.834872 194.888579 
L 124.804746 175.574131 
L 128.289683 167.89852 
L 131.77462 162.735831 
L 135.259557 162.562083 
L 138.744494 159.121585 
L 142.229431 159.697304 
L 145.714368 168.59116 
L 149.199305 176.611 
L 152.684242 182.603702 
L 156.169179 185.666134 
L 159.654116 190.243957 
L 163.139053 190.295094 
L 166.62399 190.078278 
L 170.108926 198.146884 
L 173.593863 202.506164 
L 177.0788 208.157057 
L 180.563737 210.816532 
L 184.048674 204.93407 
L 187.533611 200.290995 
L 191.018548 197.890461 
L 194.503485 190.216531 
L 201.473359 163.017321 
L 204.958296 155.336965 
L 208.443233 149.038903 
L 211.92817 138.556465 
L 215.413107 131.876345 
L 218.898044 127.908027 
L 222.382981 121.016191 
L 225.867918 116.529404 
L 229.352855 105.75925 
L 232.837792 105.89622 
L 236.322729 108.926591 
L 239.807666 113.479625 
L 243.292603 118.333763 
L 246.77754 116.081495 
L 250.262477 112.666916 
L 253.747414 109.622563 
L 257.23235 105.503915 
L 260.717287 112.523668 
L 264.202224 121.077799 
L 267.687161 131.656112 
L 271.172098 148.049887 
L 274.657035 161.186368 
L 278.141972 172.681311 
L 281.626909 181.929635 
L 285.111846 185.186642 
L 288.596783 183.293945 
L 292.08172 179.020147 
L 295.566657 174.196746 
L 299.051594 172.720416 
L 306.021468 155.963393 
L 309.506405 143.806605 
L 312.991342 131.038305 
L 319.961216 109.488936 
L 323.446153 99.483812 
L 326.93109 91.056958 
L 330.416027 83.071851 
L 333.900964 72.475888 
L 337.385901 68.467014 
L 340.870838 61.895601 
L 344.355775 59.291397 
L 347.840711 54.966362 
L 351.325648 52.127645 
L 354.810585 50.127234 
L 358.295522 49.872662 
L 361.780459 50.206144 
L 365.265396 50.076525 
L 368.750333 54.215255 
L 375.720207 66.519549 
L 379.205144 74.68624 
L 382.690081 80.755942 
L 386.175018 88.873353 
L 389.659955 94.045672 
L 393.144892 98.370471 
L 396.629829 104.261587 
L 400.114766 104.846989 
L 403.599703 105.991893 
L 407.08464 108.150685 
L 410.569577 112.695163 
L 414.054514 116.575951 
L 417.539451 118.389648 
L 421.024388 119.4924 
L 424.509325 127.676358 
L 427.994262 131.140418 
L 431.479199 134.872921 
L 434.964135 135.368144 
L 438.449072 136.783401 
L 441.934009 139.637644 
L 445.418946 144.168462 
L 448.903883 143.54967 
L 452.38882 141.201764 
L 455.873757 143.177151 
L 459.358694 144.185815 
L 462.843631 144.566256 
L 466.328568 143.475083 
L 469.813505 141.43503 
L 473.298442 145.026915 
L 476.783379 143.436119 
L 480.268316 141.977649 
L 483.753253 132.48344 
L 487.23819 124.497905 
L 490.723127 120.064747 
L 494.208064 128.226239 
L 497.693001 142.403552 
L 501.177938 153.700025 
L 504.662875 161.586481 
L 508.147812 162.504767 
L 511.632749 159.516522 
L 515.117686 156.144432 
L 518.602623 150.725699 
L 522.08756 142.874852 
L 525.572496 140.736675 
L 529.057433 144.245148 
L 532.54237 144.566711 
L 536.027307 149.404945 
L 539.512244 160.902868 
L 539.512244 160.902868 
" clip-path="url(#p3035b4e116)" style="fill: none; stroke: #8c564b; stroke-width: 1.4; stroke-linecap: square"/>
   </g>
   <g id="line2d_29">
    <path d="M 62.075881 167.105218 
L 65.560818 171.343882 
L 69.045755 167.147949 
L 72.530692 167.270321 
L 76.015629 165.009543 
L 79.500565 159.531354 
L 82.985502 154.796623 
L 86.470439 156.790581 
L 89.955376 168.308603 
L 93.440313 182.918454 
L 96.92525 191.648136 
L 100.410187 201.228225 
L 103.895124 203.23959 
L 107.380061 204.080153 
L 114.349935 196.204998 
L 117.834872 185.011226 
L 121.319809 174.793517 
L 124.804746 161.662046 
L 128.289683 152.812495 
L 131.77462 150.024119 
L 135.259557 154.72322 
L 138.744494 157.299032 
L 142.229431 164.403998 
L 145.714368 169.925757 
L 149.199305 169.798175 
L 156.169179 168.120174 
L 159.654116 167.657951 
L 163.139053 174.393991 
L 166.62399 184.05243 
L 170.108926 198.753672 
L 173.593863 208.98343 
L 177.0788 213.578778 
L 180.563737 213.343088 
L 187.533611 206.136549 
L 191.018548 197.580236 
L 194.503485 194.720196 
L 197.988422 184.117928 
L 201.473359 175.284141 
L 204.958296 162.43682 
L 208.443233 151.873011 
L 211.92817 140.814967 
L 215.413107 128.534781 
L 218.898044 113.821495 
L 222.382981 101.301803 
L 225.867918 93.250662 
L 229.352855 100.85852 
L 232.837792 114.798166 
L 236.322729 135.666637 
L 239.807666 145.825098 
L 243.292603 146.780592 
L 246.77754 140.464202 
L 250.262477 131.779404 
L 253.747414 122.171289 
L 257.23235 117.887464 
L 260.717287 117.406073 
L 264.202224 127.537414 
L 267.687161 142.438381 
L 271.172098 156.260926 
L 274.657035 167.192352 
L 278.141972 175.281862 
L 281.626909 180.741093 
L 285.111846 188.377684 
L 288.596783 190.869176 
L 292.08172 199.784549 
L 295.566657 198.819803 
L 299.051594 192.334144 
L 302.536531 183.132479 
L 306.021468 170.612161 
L 309.506405 153.223575 
L 312.991342 136.823882 
L 316.476279 126.99078 
L 319.961216 113.775407 
L 323.446153 104.621379 
L 326.93109 94.465752 
L 330.416027 87.615414 
L 333.900964 82.650961 
L 337.385901 78.232168 
L 340.870838 75.283947 
L 344.355775 76.221121 
L 347.840711 76.588391 
L 351.325648 74.103736 
L 354.810585 70.537676 
L 358.295522 67.328705 
L 361.780459 67.446034 
L 365.265396 68.922001 
L 372.23527 82.882662 
L 375.720207 92.780919 
L 382.690081 102.844339 
L 386.175018 106.176028 
L 389.659955 112.241486 
L 396.629829 119.952836 
L 400.114766 126.948127 
L 403.599703 133.099628 
L 407.08464 136.598242 
L 410.569577 141.724547 
L 414.054514 146.195766 
L 417.539451 148.875169 
L 421.024388 150.096668 
L 424.509325 155.81423 
L 427.994262 163.502266 
L 431.479199 165.935894 
L 434.964135 163.427197 
L 441.934009 164.04588 
L 445.418946 165.070186 
L 448.903883 162.170767 
L 452.38882 159.613333 
L 455.873757 163.387335 
L 459.358694 161.949102 
L 462.843631 156.245701 
L 466.328568 152.942723 
L 469.813505 148.517203 
L 473.298442 152.394475 
L 476.783379 155.536024 
L 480.268316 160.694994 
L 483.753253 153.943534 
L 487.23819 149.29519 
L 490.723127 147.045494 
L 494.208064 150.522921 
L 497.693001 158.216827 
L 501.177938 164.754433 
L 504.662875 165.127751 
L 508.147812 162.653042 
L 511.632749 163.246345 
L 515.117686 165.575542 
L 518.602623 160.19308 
L 522.08756 161.088104 
L 525.572496 162.457513 
L 529.057433 159.015542 
L 532.54237 161.23472 
L 536.027307 167.92411 
L 539.512244 175.44559 
L 539.512244 175.44559 
" clip-path="url(#p3035b4e116)" style="fill: none; stroke: #e377c2; stroke-width: 1.4; stroke-linecap: square"/>
   </g>
   <g id="line2d_30">
    <path d="M 149.199305 247.418437 
L 149.199305 20.798437 
" clip-path="url(#p3035b4e116)" style="fill: none; stroke-dasharray: 2.96,1.28; stroke-dashoffset: 0; stroke: #000000; stroke-width: 0.8"/>
   </g>
   <g id="line2d_31">
    <path d="M 38.204063 172.967453 
L 563.384063 172.967453 
" clip-path="url(#p3035b4e116)" style="fill: none; stroke: #808080; stroke-opacity: 0.3; stroke-width: 0.5; stroke-linecap: square"/>
   </g>
   <g id="patch_3">
    <path d="M 38.204063 247.418437 
L 38.204063 20.798437 
" style="fill: none; stroke: #000000; stroke-width: 0.8; stroke-linejoin: miter; stroke-linecap: square"/>
   </g>
   <g id="patch_4">
    <path d="M 38.204063 247.418437 
L 563.384063 247.418437 
" style="fill: none; stroke: #000000; stroke-width: 0.8; stroke-linejoin: miter; stroke-linecap: square"/>
   </g>
   <g id="text_14">
    <text style="font-weight: 700; font-size: 10px; font-family: 'Arial', 'Helvetica', 'DejaVu Sans', sans-serif; text-anchor: middle" x="300.794063" y="14.798437" transform="rotate(-0 300.794063 14.798437)">Per-Superclass HINT ERP — channel mean</text>
   </g>
   <g id="legend_1">
    <g id="line2d_32">
     <path d="M 371.614688 29.967344 
L 378.614688 29.967344 
L 385.614688 29.967344 
" style="fill: none; stroke: #1f77b4; stroke-width: 1.4; stroke-linecap: square"/>
    </g>
    <g id="text_15">
     <text style="font-size: 7px; font-family: 'Arial', 'Helvetica', 'DejaVu Sans', sans-serif; text-anchor: start" x="391.214688" y="32.417344" transform="rotate(-0 391.214688 32.417344)">Animal (n=1417)</text>
    </g>
    <g id="line2d_33">
     <path d="M 371.614688 40.242031 
L 378.614688 40.242031 
L 385.614688 40.242031 
" style="fill: none; stroke: #ff7f0e; stroke-width: 1.4; stroke-linecap: square"/>
    </g>
    <g id="text_16">
     <text style="font-size: 7px; font-family: 'Arial', 'Helvetica', 'DejaVu Sans', sans-serif; text-anchor: start" x="391.214688" y="42.692031" transform="rotate(-0 391.214688 42.692031)">Food (n=969)</text>
    </g>
    <g id="line2d_34">
     <path d="M 371.614688 50.516719 
L 378.614688 50.516719 
L 385.614688 50.516719 
" style="fill: none; stroke: #2ca02c; stroke-width: 1.4; stroke-linecap: square"/>
    </g>
    <g id="text_17">
     <text style="font-size: 7px; font-family: 'Arial', 'Helvetica', 'DejaVu Sans', sans-serif; text-anchor: start" x="391.214688" y="52.966719" transform="rotate(-0 391.214688 52.966719)">Vehicle (n=789)</text>
    </g>
    <g id="line2d_35">
     <path d="M 371.614688 60.791406 
L 378.614688 60.791406 
L 385.614688 60.791406 
" style="fill: none; stroke: #d62728; stroke-width: 1.4; stroke-linecap: square"/>
    </g>
    <g id="text_18">
     <text style="font-size: 7px; font-family: 'Arial', 'Helvetica', 'DejaVu Sans', sans-serif; text-anchor: start" x="391.214688" y="63.241406" transform="rotate(-0 391.214688 63.241406)">Furniture (n=804)</text>
    </g>
    <g id="line2d_36">
     <path d="M 467.986094 29.967344 
L 474.986094 29.967344 
L 481.986094 29.967344 
" style="fill: none; stroke: #9467bd; stroke-width: 1.4; stroke-linecap: square"/>
    </g>
    <g id="text_19">
     <text style="font-size: 7px; font-family: 'Arial', 'Helvetica', 'DejaVu Sans', sans-serif; text-anchor: start" x="487.586094" y="32.417344" transform="rotate(-0 487.586094 32.417344)">Kitchen (n=984)</text>
    </g>
    <g id="line2d_37">
     <path d="M 467.986094 40.242031 
L 474.986094 40.242031 
L 481.986094 40.242031 
" style="fill: none; stroke: #8c564b; stroke-width: 1.4; stroke-linecap: square"/>
    </g>
    <g id="text_20">
     <text style="font-size: 7px; font-family: 'Arial', 'Helvetica', 'DejaVu Sans', sans-serif; text-anchor: start" x="487.586094" y="42.692031" transform="rotate(-0 487.586094 42.692031)">Wearable (n=583)</text>
    </g>
    <g id="line2d_38">
     <path d="M 467.986094 50.516719 
L 474.986094 50.516719 
L 481.986094 50.516719 
" style="fill: none; stroke: #e377c2; stroke-width: 1.4; stroke-linecap: square"/>
    </g>
    <g id="text_21">
     <text style="font-size: 7px; font-family: 'Arial', 'Helvetica', 'DejaVu Sans', sans-serif; text-anchor: start" x="487.586094" y="52.966719" transform="rotate(-0 487.586094 52.966719)">Electronics (n=719)</text>
    </g>
   </g>
  </g>
 </g>
 <defs>
  <clipPath id="p3035b4e116">
   <rect x="38.204063" y="20.798437" width="525.18" height="226.62"/>
  </clipPath>
 </defs>
</svg>
