<?xml version="1.0" encoding="utf-8" standalone="no"?>
<!DOCTYPE svg PUBLIC "-//W3C//DTD SVG 1.1//EN"
  "http://www.w3.org/Graphics/SVG/1.1/DTD/svg11.dtd">
<svg xmlns:xlink="http://www.w3.org/1999/xlink" width="498.552812pt" height="252.77125pt" viewBox="0 0 498.552812 252.77125" xmlns="http://www.w3.org/2000/svg" version="1.1">
 <metadata>
  <rdf:RDF xmlns:dc="http://purl.org/dc/elements/1.1/" xmlns:cc="http://creativecommons.org/ns#" xmlns:rdf="http://www.w3.org/1999/02/22-rdf-syntax-ns#">
   <cc:Work>
    <dc:type rdf:resource="http://purl.org/dc/dcmitype/StillImage"/>
    <dc:date>2026-05-13T07:37:32.011403</dc:date>
    <dc:format>image/svg+xml</dc:format>
    <dc:creator>
     <cc:Agent>
      <dc:title>Matplotlib v3.10.8, https://matplotlib.org/</dc:title>
     </cc:Agent>
    </dc:creator>
   </cc:Work>
  </rdf:RDF>
 </metadata>
 <defs>
  <style type="text/css">*{stroke-linejoin: round; stroke-linecap: butt}</style>
 </defs>
 <g id="figure_1">
  <g id="patch_1">
   <path d="M 0 252.77125 
L 498.552812 252.77125 
L 498.552812 0 
L 0 0 
z
" style="fill: #ffffff"/>
  </g>
  <g id="axes_1">
   <g id="patch_2">
    <path d="M 39.132813 218.618437 
L 491.352812 218.618437 
L 491.352812 20.798438 
L 39.132813 20.798438 
z
" style="fill: #ffffff"/>
   </g>
   <g id="FillBetweenPolyCollection_1">
    <defs>
     <path id="mb6a64c44d0" d="M 59.688267 -82.418273 
L 59.688267 -80.824162 
L 62.689063 -107.293956 
L 65.68986 -116.896854 
L 68.690656 -131.562487 
L 71.691452 -139.669481 
L 74.692248 -149.797471 
L 77.693045 -156.401798 
L 80.693841 -163.346609 
L 83.694637 -168.420991 
L 86.695434 -172.802511 
L 89.69623 -176.415388 
L 92.697026 -178.754289 
L 95.697822 -181.086918 
L 98.698619 -181.911972 
L 101.699415 -183.186344 
L 104.700211 -182.988153 
L 107.701008 -183.539581 
L 110.701804 -183.006529 
L 113.7026 -183.338423 
L 116.703396 -183.056384 
L 119.704193 -183.539194 
L 122.704989 -183.868427 
L 125.705785 -184.720335 
L 128.706582 -185.788657 
L 131.707378 -187.071413 
L 134.708174 -188.784384 
L 137.70897 -190.416389 
L 140.709767 -192.540652 
L 143.710563 -194.358394 
L 146.711359 -196.608345 
L 149.712156 -198.433674 
L 152.712952 -200.559572 
L 155.713748 -202.250837 
L 158.714544 -204.080537 
L 161.715341 -205.550201 
L 164.716137 -207.003074 
L 167.716933 -208.220584 
L 170.71773 -209.295318 
L 173.718526 -210.266526 
L 176.719322 -211.007876 
L 179.720118 -211.759062 
L 182.720915 -212.239249 
L 185.721711 -212.802001 
L 188.722507 -213.092938 
L 191.723304 -213.492575 
L 194.7241 -213.649624 
L 197.724896 -213.898161 
L 200.725692 -213.952665 
L 203.726489 -214.054777 
L 206.727285 -214.024025 
L 209.728081 -213.985359 
L 212.728878 -213.872317 
L 215.729674 -213.704198 
L 218.73047 -213.513185 
L 221.731266 -213.231066 
L 224.732063 -212.961896 
L 227.732859 -212.589148 
L 230.733655 -212.249918 
L 233.734452 -211.813799 
L 236.735248 -211.41138 
L 239.736044 -210.924849 
L 242.73684 -210.459287 
L 245.737637 -209.933904 
L 248.738433 -209.412645 
L 251.739229 -208.852769 
L 254.740026 -208.282827 
L 257.740822 -207.692895 
L 260.741618 -207.087643 
L 263.742414 -206.475021 
L 266.743211 -205.851647 
L 269.744007 -205.221238 
L 272.744803 -204.596965 
L 275.745599 -203.960758 
L 278.746396 -203.350608 
L 281.747192 -202.718678 
L 284.747988 -202.12539 
L 287.748785 -201.501978 
L 290.749581 -200.912917 
L 293.750377 -200.290062 
L 296.751173 -199.676067 
L 299.75197 -199.03406 
L 302.752766 -198.352478 
L 305.753562 -197.657456 
L 308.754359 -196.861276 
L 311.755155 -196.072882 
L 314.755951 -195.120293 
L 317.756747 -194.192313 
L 320.757544 -193.054543 
L 323.75834 -191.945202 
L 326.759136 -190.611377 
L 329.759933 -189.288761 
L 332.760729 -187.76805 
L 335.761525 -186.213091 
L 338.762321 -184.524484 
L 341.763118 -182.732694 
L 344.763914 -180.894298 
L 347.76471 -178.866771 
L 350.765507 -176.879717 
L 353.766303 -174.62504 
L 356.767099 -172.472596 
L 359.767895 -170.000086 
L 362.768692 -167.641317 
L 365.769488 -164.954752 
L 368.770284 -162.328831 
L 371.771081 -159.422936 
L 374.771877 -156.464734 
L 377.772673 -153.326664 
L 380.773469 -149.981844 
L 383.774266 -146.591484 
L 386.775062 -142.833918 
L 389.775858 -139.170758 
L 392.776655 -135.017378 
L 395.777451 -131.070567 
L 398.778247 -126.586121 
L 401.779043 -122.360339 
L 404.77984 -117.649991 
L 407.780636 -113.167549 
L 410.781432 -108.358684 
L 413.782229 -103.665 
L 416.783025 -98.896482 
L 419.783821 -94.071242 
L 422.784617 -89.475795 
L 425.785414 -84.643057 
L 428.78621 -80.333644 
L 431.787006 -75.674131 
L 434.787803 -71.730059 
L 437.788599 -67.46855 
L 440.789395 -63.907788 
L 443.790191 -60.281103 
L 446.790988 -57.042541 
L 449.791784 -54.257749 
L 452.79258 -51.197748 
L 455.793377 -49.430532 
L 458.794173 -46.448315 
L 461.794969 -46.185573 
L 464.795765 -43.700443 
L 467.796562 -47.249343 
L 470.797358 -49.519559 
L 470.797358 -51.13678 
L 470.797358 -51.13678 
L 467.796562 -48.86684 
L 464.795765 -45.433411 
L 461.794969 -48.119611 
L 458.794173 -48.582883 
L 455.793377 -51.801822 
L 452.79258 -53.817349 
L 449.791784 -57.126178 
L 446.790988 -60.169825 
L 443.790191 -63.652399 
L 440.789395 -67.529068 
L 437.788599 -71.32089 
L 434.787803 -75.816757 
L 431.787006 -79.976997 
L 428.78621 -84.854407 
L 425.785414 -89.366975 
L 422.784617 -94.403592 
L 419.783821 -99.193166 
L 416.783025 -104.211884 
L 413.782229 -109.169357 
L 410.781432 -114.049276 
L 407.780636 -119.04437 
L 404.77984 -123.708121 
L 401.779043 -128.602881 
L 398.778247 -133.006462 
L 395.777451 -137.672816 
L 392.776655 -141.794375 
L 389.775858 -146.125493 
L 386.775062 -149.959676 
L 383.774266 -153.888246 
L 380.773469 -157.44383 
L 377.772673 -160.949892 
L 374.771877 -164.244526 
L 371.771081 -167.351479 
L 368.770284 -170.402324 
L 365.769488 -173.162642 
L 362.768692 -175.980346 
L 359.767895 -178.458657 
L 356.767099 -181.047453 
L 353.766303 -183.305186 
L 350.765507 -185.661503 
L 347.76471 -187.741311 
L 344.763914 -189.85722 
L 341.763118 -191.777786 
L 338.762321 -193.64645 
L 335.761525 -195.408312 
L 332.760729 -197.030659 
L 329.759933 -198.617271 
L 326.759136 -199.99984 
L 323.75834 -201.3933 
L 320.757544 -202.556832 
L 317.756747 -203.748603 
L 314.755951 -204.726052 
L 311.755155 -205.727108 
L 308.754359 -206.560413 
L 305.753562 -207.399371 
L 302.752766 -208.134529 
L 299.75197 -208.853208 
L 296.751173 -209.530536 
L 293.750377 -210.176162 
L 290.749581 -210.82903 
L 287.748785 -211.444147 
L 284.747988 -212.091724 
L 281.747192 -212.705234 
L 278.746396 -213.354731 
L 275.745599 -213.978467 
L 272.744803 -214.624744 
L 269.744007 -215.254854 
L 266.743211 -215.886813 
L 263.742414 -216.507129 
L 260.741618 -217.111912 
L 257.740822 -217.703907 
L 254.740026 -218.275386 
L 251.739229 -218.820624 
L 248.738433 -219.350403 
L 245.737637 -219.834493 
L 242.73684 -220.317035 
L 239.736044 -220.732072 
L 236.735248 -221.162017 
L 233.734452 -221.500065 
L 230.733655 -221.864843 
L 227.732859 -222.124976 
L 224.732063 -222.410459 
L 221.731266 -222.58518 
L 218.73047 -222.763222 
L 215.729674 -222.84343 
L 212.728878 -222.889564 
L 209.728081 -222.873973 
L 206.727285 -222.771622 
L 203.726489 -222.654746 
L 200.725692 -222.392202 
L 197.724896 -222.170204 
L 194.7241 -221.74234 
L 191.723304 -221.398531 
L 188.722507 -220.80254 
L 185.721711 -220.307497 
L 182.720915 -219.534772 
L 179.720118 -218.836771 
L 176.719322 -217.866399 
L 173.718526 -216.897854 
L 170.71773 -215.702219 
L 167.716933 -214.395051 
L 164.716137 -212.950777 
L 161.715341 -211.263196 
L 158.714544 -209.565274 
L 155.713748 -207.500318 
L 152.712952 -205.578163 
L 149.712156 -203.215747 
L 146.711359 -201.152885 
L 143.710563 -198.661812 
L 140.709767 -196.594407 
L 137.70897 -194.219875 
L 134.708174 -192.321119 
L 131.707378 -190.344433 
L 128.706582 -188.774646 
L 125.705785 -187.426203 
L 122.704989 -186.267627 
L 119.704193 -185.642392 
L 116.703396 -184.840563 
L 113.7026 -184.819221 
L 110.701804 -184.174377 
L 107.701008 -184.425911 
L 104.700211 -183.626099 
L 101.699415 -183.698282 
L 98.698619 -182.453242 
L 95.697822 -181.817223 
L 92.697026 -179.678781 
L 89.69623 -177.581388 
L 86.695434 -174.142716 
L 83.694637 -169.966312 
L 80.693841 -165.005662 
L 77.693045 -158.199879 
L 74.692248 -151.636347 
L 71.691452 -141.559126 
L 68.690656 -133.421596 
L 65.68986 -118.691242 
L 62.689063 -109.013224 
L 59.688267 -82.418273 
z
"/>
    </defs>
    <g clip-path="url(#p553038a501)">
     <use xlink:href="#mb6a64c44d0" x="0" y="252.77125" style="fill: #d62728; fill-opacity: 0.18"/>
    </g>
   </g>
   <g id="FillBetweenPolyCollection_2">
    <defs>
     <path id="m1b50ec9e46" d="M 59.688267 -83.111543 
L 59.688267 -81.477568 
L 62.689063 -108.128862 
L 65.68986 -117.981937 
L 68.690656 -132.63078 
L 71.691452 -140.826437 
L 74.692248 -150.882315 
L 77.693045 -157.462152 
L 80.693841 -164.289408 
L 83.694637 -169.254259 
L 86.695434 -173.479501 
L 89.69623 -176.920609 
L 92.697026 -179.076724 
L 95.697822 -181.196444 
L 98.698619 -181.825537 
L 101.699415 -182.876398 
L 104.700211 -182.495138 
L 107.701008 -182.846503 
L 110.701804 -182.165615 
L 113.7026 -182.344182 
L 116.703396 -181.954482 
L 119.704193 -182.341058 
L 122.704989 -182.623881 
L 125.705785 -183.454829 
L 128.706582 -184.525761 
L 131.707378 -185.837125 
L 134.708174 -187.580833 
L 137.70897 -189.26686 
L 140.709767 -191.432388 
L 143.710563 -193.31084 
L 146.711359 -195.603981 
L 149.712156 -197.488553 
L 152.712952 -199.658329 
L 155.713748 -201.404491 
L 158.714544 -203.281295 
L 161.715341 -204.804398 
L 164.716137 -206.314538 
L 167.716933 -207.590929 
L 170.71773 -208.733525 
L 173.718526 -209.771761 
L 176.719322 -210.59466 
L 179.720118 -211.42141 
L 182.720915 -211.987042 
L 185.721711 -212.6279 
L 188.722507 -212.999109 
L 191.723304 -213.466124 
L 194.7241 -213.688223 
L 197.724896 -213.991009 
L 200.725692 -214.09236 
L 203.726489 -214.230212 
L 206.727285 -214.222753 
L 209.728081 -214.199068 
L 212.728878 -214.093986 
L 215.729674 -213.925622 
L 218.73047 -213.725267 
L 221.731266 -213.428629 
L 224.732063 -213.135927 
L 227.732859 -212.736602 
L 230.733655 -212.363787 
L 233.734452 -211.889463 
L 236.735248 -211.441695 
L 239.736044 -210.909957 
L 242.73684 -210.393215 
L 245.737637 -209.814625 
L 248.738433 -209.236379 
L 251.739229 -208.620023 
L 254.740026 -207.987992 
L 257.740822 -207.335812 
L 260.741618 -206.663421 
L 263.742414 -205.978182 
L 266.743211 -205.28049 
L 269.744007 -204.576813 
L 272.744803 -203.881066 
L 275.745599 -203.176283 
L 278.746396 -202.498475 
L 281.747192 -201.80227 
L 284.747988 -201.144812 
L 287.748785 -200.462843 
L 290.749581 -199.816485 
L 293.750377 -199.140277 
L 296.751173 -198.475082 
L 299.75197 -197.785827 
L 302.752766 -197.058562 
L 305.753562 -196.318662 
L 308.754359 -195.477453 
L 311.755155 -194.639873 
L 314.755951 -193.638804 
L 317.756747 -192.660384 
L 320.757544 -191.476795 
L 323.75834 -190.322255 
L 326.759136 -188.950566 
L 329.759933 -187.591018 
L 332.760729 -186.038994 
L 335.761525 -184.454334 
L 338.762321 -182.738274 
L 341.763118 -180.919293 
L 344.763914 -179.053431 
L 347.76471 -176.999328 
L 350.765507 -174.985602 
L 353.766303 -172.703362 
L 356.767099 -170.521329 
L 359.767895 -168.017893 
L 362.768692 -165.62644 
L 365.769488 -162.908839 
L 368.770284 -160.251907 
L 371.771081 -157.319032 
L 374.771877 -154.33688 
L 377.772673 -151.180242 
L 380.773469 -147.821502 
L 383.774266 -144.423592 
L 386.775062 -140.665538 
L 389.775858 -137.008907 
L 392.776655 -132.869827 
L 395.777451 -128.942059 
L 398.778247 -124.484791 
L 401.779043 -120.288966 
L 404.77984 -115.617667 
L 407.780636 -111.177882 
L 410.781432 -106.422814 
L 413.782229 -101.788033 
L 416.783025 -97.083034 
L 419.783821 -92.328604 
L 422.784617 -87.794215 
L 425.785414 -83.031249 
L 428.78621 -78.765672 
L 431.787006 -74.156061 
L 434.787803 -70.233288 
L 437.788599 -66.000749 
L 440.789395 -62.456034 
L 443.790191 -58.848084 
L 446.790988 -55.645504 
L 449.791784 -52.891974 
L 452.79258 -49.920538 
L 455.793377 -48.231661 
L 458.794173 -45.409209 
L 461.794969 -45.341204 
L 464.795765 -43.144631 
L 467.796562 -47.030175 
L 470.797358 -49.774644 
L 470.797358 -51.419602 
L 470.797358 -51.419602 
L 467.796562 -48.608774 
L 464.795765 -44.832693 
L 461.794969 -47.222813 
L 458.794173 -47.490981 
L 455.793377 -50.549349 
L 452.79258 -52.481034 
L 449.791784 -55.700095 
L 446.790988 -58.707834 
L 443.790191 -62.152467 
L 440.789395 -66.008062 
L 437.788599 -69.781532 
L 434.787803 -74.247819 
L 431.787006 -78.384723 
L 428.78621 -83.213084 
L 425.785414 -87.681103 
L 422.784617 -92.649874 
L 419.783821 -97.378652 
L 416.783025 -102.328026 
L 413.782229 -107.222198 
L 410.781432 -112.043413 
L 407.780636 -116.984501 
L 404.77984 -121.604785 
L 401.779043 -126.460055 
L 398.778247 -130.832739 
L 395.777451 -135.471756 
L 392.776655 -139.573713 
L 389.775858 -143.890628 
L 386.775062 -147.717964 
L 383.774266 -151.647018 
L 380.773469 -155.2098 
L 377.772673 -158.729473 
L 374.771877 -162.042053 
L 371.771081 -165.172069 
L 368.770284 -168.248926 
L 365.769488 -171.038875 
L 362.768692 -173.886269 
L 359.767895 -176.395454 
L 356.767099 -179.013545 
L 353.766303 -181.298908 
L 350.765507 -183.680992 
L 347.76471 -185.785304 
L 344.763914 -187.925645 
L 341.763118 -189.871357 
L 338.762321 -191.764852 
L 335.761525 -193.551831 
L 332.760729 -195.201273 
L 329.759933 -196.81658 
L 326.759136 -198.233001 
L 323.75834 -199.661115 
L 320.757544 -200.86591 
L 317.756747 -202.099509 
L 314.755951 -203.122784 
L 311.755155 -204.167993 
L 308.754359 -205.04597 
L 305.753562 -205.925812 
L 302.752766 -206.701751 
L 299.75197 -207.462139 
L 296.751173 -208.182695 
L 293.750377 -208.875374 
L 290.749581 -209.577495 
L 287.748785 -210.245696 
L 284.747988 -210.947845 
L 281.747192 -211.621511 
L 278.746396 -212.331821 
L 275.745599 -213.020001 
L 272.744803 -213.732213 
L 269.744007 -214.431487 
L 266.743211 -215.134705 
L 263.742414 -215.827597 
L 260.741618 -216.503613 
L 257.740822 -217.162009 
L 254.740026 -217.795567 
L 251.739229 -218.403127 
L 248.738433 -218.990272 
L 245.737637 -219.532531 
L 242.73684 -220.070135 
L 239.736044 -220.538541 
L 236.735248 -221.016756 
L 233.734452 -221.403567 
L 230.733655 -221.810898 
L 227.732859 -222.109498 
L 224.732063 -222.427186 
L 221.731266 -222.631538 
L 218.73047 -222.83077 
L 215.729674 -222.927413 
L 212.728878 -222.980994 
L 209.728081 -222.965037 
L 206.727285 -222.854975 
L 203.726489 -222.722344 
L 200.725692 -222.431348 
L 197.724896 -222.170157 
L 194.7241 -221.695077 
L 191.723304 -221.293429 
L 188.722507 -220.636475 
L 185.721711 -220.067626 
L 182.720915 -219.222564 
L 179.720118 -218.444562 
L 176.719322 -217.403369 
L 173.718526 -216.357859 
L 170.71773 -215.0996 
L 167.716933 -213.728911 
L 164.716137 -212.230474 
L 161.715341 -210.490369 
L 158.714544 -208.744211 
L 155.713748 -206.637066 
L 152.712952 -204.665722 
L 149.712156 -202.264695 
L 146.711359 -200.148667 
L 143.710563 -197.619687 
L 140.709767 -195.497624 
L 137.70897 -193.086812 
L 134.708174 -191.139218 
L 131.707378 -189.135797 
L 128.706582 -187.541668 
L 125.705785 -186.193679 
L 122.704989 -185.059107 
L 119.704193 -184.481616 
L 116.703396 -183.776213 
L 113.7026 -183.861718 
L 110.701804 -183.370265 
L 107.701008 -183.77096 
L 104.700211 -183.172929 
L 101.699415 -183.425769 
L 98.698619 -182.393967 
L 95.697822 -181.943209 
L 92.697026 -180.013815 
L 89.69623 -178.098039 
L 86.695434 -174.833785 
L 83.694637 -170.816696 
L 80.693841 -165.970741 
L 77.693045 -159.287268 
L 74.692248 -152.753379 
L 71.691452 -142.753412 
L 68.690656 -134.530459 
L 65.68986 -119.822742 
L 62.689063 -109.893706 
L 59.688267 -83.111543 
z
"/>
    </defs>
    <g clip-path="url(#p553038a501)">
     <use xlink:href="#m1b50ec9e46" x="0" y="252.77125" style="fill: #1f77b4; fill-opacity: 0.18"/>
    </g>
   </g>
   <g id="matplotlib.axis_1">
    <g id="xtick_1">
     <g id="line2d_1">
      <path d="M 59.688267 218.618437 
L 59.688267 20.798438 
" clip-path="url(#p553038a501)" style="fill: none; stroke: #b0b0b0; stroke-opacity: 0.15; stroke-width: 0.8; stroke-linecap: square"/>
     </g>
     <g id="line2d_2">
      <defs>
       <path id="me254b359f8" d="M 0 0 
L 0 3 
" style="stroke: #000000; stroke-width: 0.8"/>
      </defs>
      <g>
       <use xlink:href="#me254b359f8" x="59.688267" y="218.618437" style="stroke: #000000; stroke-width: 0.8"/>
      </g>
     </g>
     <g id="text_1">
      <text style="font-size: 8px; font-family: 'Arial', 'Helvetica', 'DejaVu Sans', sans-serif; text-anchor: middle" x="59.688267" y="231.197188" transform="rotate(-0 59.688267 231.197188)">−100</text>
     </g>
    </g>
    <g id="xtick_2">
     <g id="line2d_3">
      <path d="M 134.708174 218.618437 
L 134.708174 20.798438 
" clip-path="url(#p553038a501)" style="fill: none; stroke: #b0b0b0; stroke-opacity: 0.15; stroke-width: 0.8; stroke-linecap: square"/>
     </g>
     <g id="line2d_4">
      <g>
       <use xlink:href="#me254b359f8" x="134.708174" y="218.618437" style="stroke: #000000; stroke-width: 0.8"/>
      </g>
     </g>
     <g id="text_2">
      <text style="font-size: 8px; font-family: 'Arial', 'Helvetica', 'DejaVu Sans', sans-serif; text-anchor: middle" x="134.708174" y="231.197188" transform="rotate(-0 134.708174 231.197188)">0</text>
     </g>
    </g>
    <g id="xtick_3">
     <g id="line2d_5">
      <path d="M 209.728081 218.618437 
L 209.728081 20.798438 
" clip-path="url(#p553038a501)" style="fill: none; stroke: #b0b0b0; stroke-opacity: 0.15; stroke-width: 0.8; stroke-linecap: square"/>
     </g>
     <g id="line2d_6">
      <g>
       <use xlink:href="#me254b359f8" x="209.728081" y="218.618437" style="stroke: #000000; stroke-width: 0.8"/>
      </g>
     </g>
     <g id="text_3">
      <text style="font-size: 8px; font-family: 'Arial', 'Helvetica', 'DejaVu Sans', sans-serif; text-anchor: middle" x="209.728081" y="231.197188" transform="rotate(-0 209.728081 231.197188)">100</text>
     </g>
    </g>
    <g id="xtick_4">
     <g id="line2d_7">
      <path d="M 284.747988 218.618437 
L 284.747988 20.798438 
" clip-path="url(#p553038a501)" style="fill: none; stroke: #b0b0b0; stroke-opacity: 0.15; stroke-width: 0.8; stroke-linecap: square"/>
     </g>
     <g id="line2d_8">
      <g>
       <use xlink:href="#me254b359f8" x="284.747988" y="218.618437" style="stroke: #000000; stroke-width: 0.8"/>
      </g>
     </g>
     <g id="text_4">
      <text style="font-size: 8px; font-family: 'Arial', 'Helvetica', 'DejaVu Sans', sans-serif; text-anchor: middle" x="284.747988" y="231.197188" transform="rotate(-0 284.747988 231.197188)">200</text>
     </g>
    </g>
    <g id="xtick_5">
     <g id="line2d_9">
      <path d="M 359.767895 218.618437 
L 359.767895 20.798438 
" clip-path="url(#p553038a501)" style="fill: none; stroke: #b0b0b0; stroke-opacity: 0.15; stroke-width: 0.8; stroke-linecap: square"/>
     </g>
     <g id="line2d_10">
      <g>
       <use xlink:href="#me254b359f8" x="359.767895" y="218.618437" style="stroke: #000000; stroke-width: 0.8"/>
      </g>
     </g>
     <g id="text_5">
      <text style="font-size: 8px; font-family: 'Arial', 'Helvetica', 'DejaVu Sans', sans-serif; text-anchor: middle" x="359.767895" y="231.197188" transform="rotate(-0 359.767895 231.197188)">300</text>
     </g>
    </g>
    <g id="xtick_6">
     <g id="line2d_11">
      <path d="M 434.787803 218.618437 
L 434.787803 20.798438 
" clip-path="url(#p553038a501)" style="fill: none; stroke: #b0b0b0; stroke-opacity: 0.15; stroke-width: 0.8; stroke-linecap: square"/>
     </g>
     <g id="line2d_12">
      <g>
       <use xlink:href="#me254b359f8" x="434.787803" y="218.618437" style="stroke: #000000; stroke-width: 0.8"/>
      </g>
     </g>
     <g id="text_6">
      <text style="font-size: 8px; font-family: 'Arial', 'Helvetica', 'DejaVu Sans', sans-serif; text-anchor: middle" x="434.787803" y="231.197188" transform="rotate(-0 434.787803 231.197188)">400</text>
     </g>
    </g>
    <g id="text_7">
     <text style="font-size: 9px; font-family: 'Arial', 'Helvetica', 'DejaVu Sans', sans-serif; text-anchor: middle" x="265.242813" y="243.699531" transform="rotate(-0 265.242813 243.699531)">Time (ms)</text>
    </g>
   </g>
   <g id="matplotlib.axis_2">
    <g id="ytick_1">
     <g id="line2d_13">
      <path d="M 39.132813 193.141939 
L 491.352812 193.141939 
" clip-path="url(#p553038a501)" style="fill: none; stroke: #b0b0b0; stroke-opacity: 0.15; stroke-width: 0.8; stroke-linecap: square"/>
     </g>
     <g id="line2d_14">
      <defs>
       <path id="m578106d645" d="M 0 0 
L -3 0 
" style="stroke: #000000; stroke-width: 0.8"/>
      </defs>
      <g>
       <use xlink:href="#m578106d645" x="39.132813" y="193.141939" style="stroke: #000000; stroke-width: 0.8"/>
      </g>
     </g>
     <g id="text_8">
      <text style="font-size: 8px; font-family: 'Arial', 'Helvetica', 'DejaVu Sans', sans-serif; text-anchor: end" x="32.632813" y="196.181314" transform="rotate(-0 32.632813 196.181314)">0.4</text>
     </g>
    </g>
    <g id="ytick_2">
     <g id="line2d_15">
      <path d="M 39.132813 157.6923 
L 491.352812 157.6923 
" clip-path="url(#p553038a501)" style="fill: none; stroke: #b0b0b0; stroke-opacity: 0.15; stroke-width: 0.8; stroke-linecap: square"/>
     </g>
     <g id="line2d_16">
      <g>
       <use xlink:href="#m578106d645" x="39.132813" y="157.6923" style="stroke: #000000; stroke-width: 0.8"/>
      </g>
     </g>
     <g id="text_9">
      <text style="font-size: 8px; font-family: 'Arial', 'Helvetica', 'DejaVu Sans', sans-serif; text-anchor: end" x="32.632813" y="160.731675" transform="rotate(-0 32.632813 160.731675)">0.6</text>
     </g>
    </g>
    <g id="ytick_3">
     <g id="line2d_17">
      <path d="M 39.132813 122.24266 
L 491.352812 122.24266 
" clip-path="url(#p553038a501)" style="fill: none; stroke: #b0b0b0; stroke-opacity: 0.15; stroke-width: 0.8; stroke-linecap: square"/>
     </g>
     <g id="line2d_18">
      <g>
       <use xlink:href="#m578106d645" x="39.132813" y="122.24266" style="stroke: #000000; stroke-width: 0.8"/>
      </g>
     </g>
     <g id="text_10">
      <text style="font-size: 8px; font-family: 'Arial', 'Helvetica', 'DejaVu Sans', sans-serif; text-anchor: end" x="32.632813" y="125.282035" transform="rotate(-0 32.632813 125.282035)">0.8</text>
     </g>
    </g>
    <g id="ytick_4">
     <g id="line2d_19">
      <path d="M 39.132813 86.793021 
L 491.352812 86.793021 
" clip-path="url(#p553038a501)" style="fill: none; stroke: #b0b0b0; stroke-opacity: 0.15; stroke-width: 0.8; stroke-linecap: square"/>
     </g>
     <g id="line2d_20">
      <g>
       <use xlink:href="#m578106d645" x="39.132813" y="86.793021" style="stroke: #000000; stroke-width: 0.8"/>
      </g>
     </g>
     <g id="text_11">
      <text style="font-size: 8px; font-family: 'Arial', 'Helvetica', 'DejaVu Sans', sans-serif; text-anchor: end" x="32.632813" y="89.832396" transform="rotate(-0 32.632813 89.832396)">1.0</text>
     </g>
    </g>
    <g id="ytick_5">
     <g id="line2d_21">
      <path d="M 39.132813 51.343382 
L 491.352812 51.343382 
" clip-path="url(#p553038a501)" style="fill: none; stroke: #b0b0b0; stroke-opacity: 0.15; stroke-width: 0.8; stroke-linecap: square"/>
     </g>
     <g id="line2d_22">
      <g>
       <use xlink:href="#m578106d645" x="39.132813" y="51.343382" style="stroke: #000000; stroke-width: 0.8"/>
      </g>
     </g>
     <g id="text_12">
      <text style="font-size: 8px; font-family: 'Arial', 'Helvetica', 'DejaVu Sans', sans-serif; text-anchor: end" x="32.632813" y="54.382757" transform="rotate(-0 32.632813 54.382757)">1.2</text>
     </g>
    </g>
    <g id="text_13">
     <text style="font-size: 9px; font-family: 'Arial', 'Helvetica', 'DejaVu Sans', sans-serif; text-anchor: middle" x="14.038594" y="119.708438" transform="rotate(-90 14.038594 119.708438)">α-band envelope / baseline</text>
    </g>
   </g>
   <g id="line2d_23">
    <path d="M 59.688267 171.150033 
L 62.689063 144.61766 
L 65.68986 134.977202 
L 68.690656 120.279208 
L 71.691452 112.156946 
L 74.692248 102.054341 
L 77.693045 95.470411 
L 80.693841 88.595115 
L 83.694637 83.577598 
L 86.695434 79.298637 
L 89.69623 75.772862 
L 95.697822 71.319179 
L 98.698619 70.588643 
L 101.699415 69.328937 
L 104.700211 69.464124 
L 107.701008 68.788504 
L 110.701804 69.180797 
L 113.7026 68.692428 
L 116.703396 68.822777 
L 119.704193 68.180457 
L 122.704989 67.703223 
L 125.705785 66.697981 
L 128.706582 65.489598 
L 131.707378 64.063327 
L 137.70897 60.453118 
L 140.709767 58.203721 
L 143.710563 56.261147 
L 146.711359 53.890635 
L 149.712156 51.94654 
L 152.712952 49.702383 
L 155.713748 47.895672 
L 158.714544 45.948344 
L 164.716137 42.794324 
L 167.716933 41.463432 
L 173.718526 39.18906 
L 179.720118 37.473334 
L 185.721711 36.216501 
L 197.724896 34.737068 
L 206.727285 34.373427 
L 212.728878 34.390309 
L 218.73047 34.633046 
L 227.732859 35.414188 
L 233.734452 36.114318 
L 239.736044 36.94279 
L 245.737637 37.887052 
L 254.740026 39.492143 
L 266.743211 41.90202 
L 302.752766 49.527746 
L 308.754359 51.060405 
L 311.755155 51.871255 
L 317.756747 53.800792 
L 323.75834 56.101999 
L 329.759933 58.818234 
L 335.761525 61.960548 
L 341.763118 65.51601 
L 344.763914 67.395491 
L 350.765507 71.50064 
L 359.767895 78.541879 
L 362.768692 80.960419 
L 368.770284 86.405673 
L 374.771877 92.41662 
L 377.772673 95.632972 
L 383.774266 102.531385 
L 389.775858 110.123124 
L 392.776655 114.365373 
L 395.777451 118.399559 
L 398.778247 122.974959 
L 401.779043 127.28964 
L 404.77984 132.092194 
L 407.780636 136.665291 
L 419.783821 156.139046 
L 422.784617 160.831557 
L 425.785414 165.766234 
L 428.78621 170.177224 
L 431.787006 174.945686 
L 434.787803 178.997842 
L 437.788599 183.37653 
L 443.790191 190.804499 
L 446.790988 194.165067 
L 449.791784 197.079287 
L 452.79258 200.263702 
L 455.793377 202.155073 
L 458.794173 205.255651 
L 461.794969 205.618658 
L 464.795765 208.204323 
L 467.796562 204.713158 
L 470.797358 202.443081 
L 470.797358 202.443081 
" clip-path="url(#p553038a501)" style="fill: none; stroke: #d62728; stroke-width: 1.6; stroke-linecap: square"/>
   </g>
   <g id="line2d_24">
    <path d="M 59.688267 170.476695 
L 62.689063 143.759966 
L 65.68986 133.868911 
L 68.690656 119.190631 
L 71.691452 110.981325 
L 74.692248 100.953403 
L 80.693841 87.641175 
L 83.694637 82.735773 
L 86.695434 78.614607 
L 89.69623 75.261926 
L 95.697822 71.201424 
L 98.698619 70.661498 
L 101.699415 69.620167 
L 104.700211 69.937217 
L 107.701008 69.462518 
L 110.701804 70.00331 
L 113.7026 69.6683 
L 116.703396 69.905903 
L 119.704193 69.359913 
L 122.704989 68.929756 
L 125.705785 67.946996 
L 128.706582 66.737535 
L 131.707378 65.284789 
L 137.70897 61.594414 
L 140.709767 59.306244 
L 143.710563 57.305986 
L 146.711359 54.894926 
L 149.712156 52.894626 
L 152.712952 50.609224 
L 155.713748 48.750472 
L 158.714544 46.758497 
L 164.716137 43.498744 
L 167.716933 42.11133 
L 173.718526 39.70644 
L 179.720118 37.838264 
L 185.721711 36.423487 
L 194.7241 35.0796 
L 197.724896 34.690667 
L 206.727285 34.232386 
L 212.728878 34.23376 
L 218.73047 34.493232 
L 227.732859 35.3482 
L 233.734452 36.124735 
L 239.736044 37.047001 
L 245.737637 38.097672 
L 254.740026 39.879471 
L 266.743211 42.563652 
L 287.748785 47.416981 
L 299.75197 50.147267 
L 305.753562 51.649013 
L 311.755155 53.367317 
L 317.756747 55.391304 
L 323.75834 57.779565 
L 329.759933 60.567451 
L 335.761525 63.768167 
L 341.763118 67.375925 
L 344.763914 69.281712 
L 350.765507 73.437953 
L 359.767895 80.564576 
L 362.768692 83.014895 
L 368.770284 88.520833 
L 374.771877 94.581784 
L 377.772673 97.816392 
L 383.774266 104.735945 
L 389.775858 112.321483 
L 392.776655 116.54948 
L 395.777451 120.564342 
L 398.778247 125.112485 
L 401.779043 129.39674 
L 404.77984 134.160024 
L 407.780636 138.690059 
L 419.783821 157.917622 
L 422.784617 162.549206 
L 425.785414 167.415074 
L 428.78621 171.781872 
L 431.787006 176.500858 
L 434.787803 180.530696 
L 437.788599 184.88011 
L 443.790191 192.270975 
L 446.790988 195.594581 
L 449.791784 198.475216 
L 452.79258 201.570464 
L 455.793377 203.380745 
L 458.794173 206.321155 
L 461.794969 206.489241 
L 464.795765 208.782588 
L 467.796562 204.951775 
L 470.797358 202.174127 
L 470.797358 202.174127 
" clip-path="url(#p553038a501)" style="fill: none; stroke: #1f77b4; stroke-width: 1.6; stroke-linecap: square"/>
   </g>
   <g id="line2d_25">
    <path d="M 134.708174 218.618437 
L 134.708174 20.798438 
" clip-path="url(#p553038a501)" style="fill: none; stroke-dasharray: 2.96,1.28; stroke-dashoffset: 0; stroke: #000000; stroke-width: 0.8"/>
   </g>
   <g id="line2d_26">
    <path d="M 39.132813 86.793021 
L 491.352812 86.793021 
" clip-path="url(#p553038a501)" style="fill: none; stroke: #808080; stroke-opacity: 0.4; stroke-width: 0.5; stroke-linecap: square"/>
   </g>
   <g id="patch_3">
    <path d="M 39.132813 218.618437 
L 39.132813 20.798438 
" style="fill: none; stroke: #000000; stroke-width: 0.8; stroke-linejoin: miter; stroke-linecap: square"/>
   </g>
   <g id="patch_4">
    <path d="M 39.132813 218.618437 
L 491.352812 218.618437 
" style="fill: none; stroke: #000000; stroke-width: 0.8; stroke-linejoin: miter; stroke-linecap: square"/>
   </g>
   <g id="text_14">
    <text style="font-weight: 700; font-size: 10px; font-family: 'Arial', 'Helvetica', 'DejaVu Sans', sans-serif; text-anchor: middle" x="265.242813" y="14.798438" transform="rotate(-0 265.242813 14.798438)">α-band (8-13 Hz) desync — salient vs non-salient</text>
   </g>
   <g id="legend_1">
    <g id="line2d_27">
     <path d="M 375.354062 31.277188 
L 383.354062 31.277188 
L 391.354062 31.277188 
" style="fill: none; stroke: #d62728; stroke-width: 1.6; stroke-linecap: square"/>
    </g>
    <g id="text_15">
     <text style="font-size: 8px; font-family: 'Arial', 'Helvetica', 'DejaVu Sans', sans-serif; text-anchor: start" x="397.754062" y="34.077188" transform="rotate(-0 397.754062 34.077188)">Salient (n=3189)</text>
    </g>
    <g id="line2d_28">
     <path d="M 375.354062 43.019688 
L 383.354062 43.019688 
L 391.354062 43.019688 
" style="fill: none; stroke: #1f77b4; stroke-width: 1.6; stroke-linecap: square"/>
    </g>
    <g id="text_16">
     <text style="font-size: 8px; font-family: 'Arial', 'Helvetica', 'DejaVu Sans', sans-serif; text-anchor: start" x="397.754062" y="45.819688" transform="rotate(-0 397.754062 45.819688)">Non-salient (n=3187)</text>
    </g>
   </g>
  </g>
 </g>
 <defs>
  <clipPath id="p553038a501">
   <rect x="39.132813" y="20.798438" width="452.22" height="197.82"/>
  </clipPath>
 </defs>
</svg>
