<?xml version="1.0" encoding="utf-8" standalone="no"?>
<!DOCTYPE svg PUBLIC "-//W3C//DTD SVG 1.1//EN"
  "http://www.w3.org/Graphics/SVG/1.1/DTD/svg11.dtd">
<svg xmlns:xlink="http://www.w3.org/1999/xlink" width="534.584062pt" height="252.77125pt" viewBox="0 0 534.584062 252.77125" xmlns="http://www.w3.org/2000/svg" version="1.1">
 <metadata>
  <rdf:RDF xmlns:dc="http://purl.org/dc/elements/1.1/" xmlns:cc="http://creativecommons.org/ns#" xmlns:rdf="http://www.w3.org/1999/02/22-rdf-syntax-ns#">
   <cc:Work>
    <dc:type rdf:resource="http://purl.org/dc/dcmitype/StillImage"/>
    <dc:date>2026-05-13T07:37:33.028293</dc:date>
    <dc:format>image/svg+xml</dc:format>
    <dc:creator>
     <cc:Agent>
      <dc:title>Matplotlib v3.10.8, https://matplotlib.org/</dc:title>
     </cc:Agent>
    </dc:creator>
   </cc:Work>
  </rdf:RDF>
 </metadata>
 <defs>
  <style type="text/css">*{stroke-linejoin: round; stroke-linecap: butt}</style>
 </defs>
 <g id="figure_1">
  <g id="patch_1">
   <path d="M 0 252.77125 
L 534.584062 252.77125 
L 534.584062 0 
L 0 0 
z
" style="fill: #ffffff"/>
  </g>
  <g id="axes_1">
   <g id="patch_2">
    <path d="M 38.204063 218.618437 
L 527.384063 218.618437 
L 527.384063 20.798438 
L 38.204063 20.798438 
z
" style="fill: #ffffff"/>
   </g>
   <g id="matplotlib.axis_1">
    <g id="xtick_1">
     <g id="line2d_1">
      <path d="M 60.439517 218.618437 
L 60.439517 20.798438 
" clip-path="url(#p817b0980f6)" style="fill: none; stroke: #b0b0b0; stroke-opacity: 0.15; stroke-width: 0.8; stroke-linecap: square"/>
     </g>
     <g id="line2d_2">
      <defs>
       <path id="m2465679ebf" d="M 0 0 
L 0 3 
" style="stroke: #000000; stroke-width: 0.8"/>
      </defs>
      <g>
       <use xlink:href="#m2465679ebf" x="60.439517" y="218.618437" style="stroke: #000000; stroke-width: 0.8"/>
      </g>
     </g>
     <g id="text_1">
      <text style="font-size: 8px; font-family: 'Arial', 'Helvetica', 'DejaVu Sans', sans-serif; text-anchor: middle" x="60.439517" y="231.197188" transform="rotate(-0 60.439517 231.197188)">−100</text>
     </g>
    </g>
    <g id="xtick_2">
     <g id="line2d_3">
      <path d="M 141.590811 218.618437 
L 141.590811 20.798438 
" clip-path="url(#p817b0980f6)" style="fill: none; stroke: #b0b0b0; stroke-opacity: 0.15; stroke-width: 0.8; stroke-linecap: square"/>
     </g>
     <g id="line2d_4">
      <g>
       <use xlink:href="#m2465679ebf" x="141.590811" y="218.618437" style="stroke: #000000; stroke-width: 0.8"/>
      </g>
     </g>
     <g id="text_2">
      <text style="font-size: 8px; font-family: 'Arial', 'Helvetica', 'DejaVu Sans', sans-serif; text-anchor: middle" x="141.590811" y="231.197188" transform="rotate(-0 141.590811 231.197188)">0</text>
     </g>
    </g>
    <g id="xtick_3">
     <g id="line2d_5">
      <path d="M 222.742105 218.618437 
L 222.742105 20.798438 
" clip-path="url(#p817b0980f6)" style="fill: none; stroke: #b0b0b0; stroke-opacity: 0.15; stroke-width: 0.8; stroke-linecap: square"/>
     </g>
     <g id="line2d_6">
      <g>
       <use xlink:href="#m2465679ebf" x="222.742105" y="218.618437" style="stroke: #000000; stroke-width: 0.8"/>
      </g>
     </g>
     <g id="text_3">
      <text style="font-size: 8px; font-family: 'Arial', 'Helvetica', 'DejaVu Sans', sans-serif; text-anchor: middle" x="222.742105" y="231.197188" transform="rotate(-0 222.742105 231.197188)">100</text>
     </g>
    </g>
    <g id="xtick_4">
     <g id="line2d_7">
      <path d="M 303.893399 218.618437 
L 303.893399 20.798438 
" clip-path="url(#p817b0980f6)" style="fill: none; stroke: #b0b0b0; stroke-opacity: 0.15; stroke-width: 0.8; stroke-linecap: square"/>
     </g>
     <g id="line2d_8">
      <g>
       <use xlink:href="#m2465679ebf" x="303.893399" y="218.618437" style="stroke: #000000; stroke-width: 0.8"/>
      </g>
     </g>
     <g id="text_4">
      <text style="font-size: 8px; font-family: 'Arial', 'Helvetica', 'DejaVu Sans', sans-serif; text-anchor: middle" x="303.893399" y="231.197188" transform="rotate(-0 303.893399 231.197188)">200</text>
     </g>
    </g>
    <g id="xtick_5">
     <g id="line2d_9">
      <path d="M 385.044693 218.618437 
L 385.044693 20.798438 
" clip-path="url(#p817b0980f6)" style="fill: none; stroke: #b0b0b0; stroke-opacity: 0.15; stroke-width: 0.8; stroke-linecap: square"/>
     </g>
     <g id="line2d_10">
      <g>
       <use xlink:href="#m2465679ebf" x="385.044693" y="218.618437" style="stroke: #000000; stroke-width: 0.8"/>
      </g>
     </g>
     <g id="text_5">
      <text style="font-size: 8px; font-family: 'Arial', 'Helvetica', 'DejaVu Sans', sans-serif; text-anchor: middle" x="385.044693" y="231.197188" transform="rotate(-0 385.044693 231.197188)">300</text>
     </g>
    </g>
    <g id="xtick_6">
     <g id="line2d_11">
      <path d="M 466.195987 218.618437 
L 466.195987 20.798438 
" clip-path="url(#p817b0980f6)" style="fill: none; stroke: #b0b0b0; stroke-opacity: 0.15; stroke-width: 0.8; stroke-linecap: square"/>
     </g>
     <g id="line2d_12">
      <g>
       <use xlink:href="#m2465679ebf" x="466.195987" y="218.618437" style="stroke: #000000; stroke-width: 0.8"/>
      </g>
     </g>
     <g id="text_6">
      <text style="font-size: 8px; font-family: 'Arial', 'Helvetica', 'DejaVu Sans', sans-serif; text-anchor: middle" x="466.195987" y="231.197188" transform="rotate(-0 466.195987 231.197188)">400</text>
     </g>
    </g>
    <g id="text_7">
     <text style="font-size: 9px; font-family: 'Arial', 'Helvetica', 'DejaVu Sans', sans-serif; text-anchor: middle" x="282.794062" y="243.699531" transform="rotate(-0 282.794062 243.699531)">Time (ms)</text>
    </g>
   </g>
   <g id="matplotlib.axis_2">
    <g id="ytick_1">
     <g id="line2d_13">
      <path d="M 38.204063 215.616316 
L 527.384063 215.616316 
" clip-path="url(#p817b0980f6)" style="fill: none; stroke: #b0b0b0; stroke-opacity: 0.15; stroke-width: 0.8; stroke-linecap: square"/>
     </g>
     <g id="line2d_14">
      <defs>
       <path id="mce6ac14d13" d="M 0 0 
L -3 0 
" style="stroke: #000000; stroke-width: 0.8"/>
      </defs>
      <g>
       <use xlink:href="#mce6ac14d13" x="38.204063" y="215.616316" style="stroke: #000000; stroke-width: 0.8"/>
      </g>
     </g>
     <g id="text_8">
      <text style="font-size: 8px; font-family: 'Arial', 'Helvetica', 'DejaVu Sans', sans-serif; text-anchor: end" x="31.704063" y="218.655691" transform="rotate(-0 31.704063 218.655691)">−4</text>
     </g>
    </g>
    <g id="ytick_2">
     <g id="line2d_15">
      <path d="M 38.204063 179.7681 
L 527.384063 179.7681 
" clip-path="url(#p817b0980f6)" style="fill: none; stroke: #b0b0b0; stroke-opacity: 0.15; stroke-width: 0.8; stroke-linecap: square"/>
     </g>
     <g id="line2d_16">
      <g>
       <use xlink:href="#mce6ac14d13" x="38.204063" y="179.7681" style="stroke: #000000; stroke-width: 0.8"/>
      </g>
     </g>
     <g id="text_9">
      <text style="font-size: 8px; font-family: 'Arial', 'Helvetica', 'DejaVu Sans', sans-serif; text-anchor: end" x="31.704063" y="182.807475" transform="rotate(-0 31.704063 182.807475)">−2</text>
     </g>
    </g>
    <g id="ytick_3">
     <g id="line2d_17">
      <path d="M 38.204063 143.919883 
L 527.384063 143.919883 
" clip-path="url(#p817b0980f6)" style="fill: none; stroke: #b0b0b0; stroke-opacity: 0.15; stroke-width: 0.8; stroke-linecap: square"/>
     </g>
     <g id="line2d_18">
      <g>
       <use xlink:href="#mce6ac14d13" x="38.204063" y="143.919883" style="stroke: #000000; stroke-width: 0.8"/>
      </g>
     </g>
     <g id="text_10">
      <text style="font-size: 8px; font-family: 'Arial', 'Helvetica', 'DejaVu Sans', sans-serif; text-anchor: end" x="31.704063" y="146.959258" transform="rotate(-0 31.704063 146.959258)">0</text>
     </g>
    </g>
    <g id="ytick_4">
     <g id="line2d_19">
      <path d="M 38.204063 108.071667 
L 527.384063 108.071667 
" clip-path="url(#p817b0980f6)" style="fill: none; stroke: #b0b0b0; stroke-opacity: 0.15; stroke-width: 0.8; stroke-linecap: square"/>
     </g>
     <g id="line2d_20">
      <g>
       <use xlink:href="#mce6ac14d13" x="38.204063" y="108.071667" style="stroke: #000000; stroke-width: 0.8"/>
      </g>
     </g>
     <g id="text_11">
      <text style="font-size: 8px; font-family: 'Arial', 'Helvetica', 'DejaVu Sans', sans-serif; text-anchor: end" x="31.704063" y="111.111042" transform="rotate(-0 31.704063 111.111042)">2</text>
     </g>
    </g>
    <g id="ytick_5">
     <g id="line2d_21">
      <path d="M 38.204063 72.223451 
L 527.384063 72.223451 
" clip-path="url(#p817b0980f6)" style="fill: none; stroke: #b0b0b0; stroke-opacity: 0.15; stroke-width: 0.8; stroke-linecap: square"/>
     </g>
     <g id="line2d_22">
      <g>
       <use xlink:href="#mce6ac14d13" x="38.204063" y="72.223451" style="stroke: #000000; stroke-width: 0.8"/>
      </g>
     </g>
     <g id="text_12">
      <text style="font-size: 8px; font-family: 'Arial', 'Helvetica', 'DejaVu Sans', sans-serif; text-anchor: end" x="31.704063" y="75.262826" transform="rotate(-0 31.704063 75.262826)">4</text>
     </g>
    </g>
    <g id="ytick_6">
     <g id="line2d_23">
      <path d="M 38.204063 36.375234 
L 527.384063 36.375234 
" clip-path="url(#p817b0980f6)" style="fill: none; stroke: #b0b0b0; stroke-opacity: 0.15; stroke-width: 0.8; stroke-linecap: square"/>
     </g>
     <g id="line2d_24">
      <g>
       <use xlink:href="#mce6ac14d13" x="38.204063" y="36.375234" style="stroke: #000000; stroke-width: 0.8"/>
      </g>
     </g>
     <g id="text_13">
      <text style="font-size: 8px; font-family: 'Arial', 'Helvetica', 'DejaVu Sans', sans-serif; text-anchor: end" x="31.704063" y="39.414609" transform="rotate(-0 31.704063 39.414609)">6</text>
     </g>
    </g>
    <g id="text_14">
     <text style="font-size: 9px; font-family: 'Arial', 'Helvetica', 'DejaVu Sans', sans-serif; text-anchor: middle" x="14.038594" y="119.708438" transform="rotate(-90 14.038594 119.708438)">µV</text>
    </g>
   </g>
   <g id="line2d_25">
    <path d="M 60.439517 152.974578 
L 63.685569 155.845308 
L 66.931621 154.686262 
L 70.177672 149.960375 
L 73.423724 143.561617 
L 76.669776 135.255593 
L 79.915828 127.613174 
L 83.161879 128.132959 
L 86.407931 135.228001 
L 89.653983 145.334698 
L 96.146086 157.102635 
L 102.63819 158.853578 
L 105.884242 157.12039 
L 109.130293 152.896194 
L 115.622397 141.984561 
L 118.868449 135.096565 
L 122.1145 132.55761 
L 125.360552 131.717913 
L 131.852656 133.382565 
L 135.098707 136.011918 
L 138.344759 141.590387 
L 141.590811 145.664961 
L 144.836863 148.49358 
L 148.082915 148.767196 
L 151.328966 149.805269 
L 154.575018 152.281787 
L 157.82107 160.920969 
L 161.067122 171.111904 
L 164.313173 178.262127 
L 167.559225 182.283122 
L 170.805277 181.557936 
L 174.051329 175.33257 
L 177.29738 165.413173 
L 183.789484 142.137274 
L 190.281587 121.260857 
L 193.527639 114.288933 
L 196.773691 108.957252 
L 200.019743 101.184437 
L 203.265794 92.071115 
L 206.511846 80.139341 
L 209.757898 70.454939 
L 213.00395 63.420266 
L 216.250001 61.02108 
L 219.496053 65.265025 
L 222.742105 71.864148 
L 225.988157 79.737159 
L 229.234208 85.379412 
L 232.48026 85.660173 
L 235.726312 82.640966 
L 238.972364 76.916175 
L 242.218416 75.345036 
L 245.464467 77.585281 
L 248.710519 87.199902 
L 251.956571 100.723926 
L 255.202623 116.82878 
L 258.448674 130.350131 
L 261.694726 139.451495 
L 264.940778 146.435935 
L 268.18683 149.710399 
L 271.432881 150.035995 
L 274.678933 148.852044 
L 277.924985 145.316487 
L 281.171037 138.871981 
L 284.417088 129.85982 
L 287.66314 116.186097 
L 294.155244 82.278125 
L 297.401295 71.114843 
L 300.647347 61.730872 
L 303.893399 53.912767 
L 307.139451 46.487972 
L 310.385502 39.915728 
L 313.631554 33.872588 
L 316.877606 31.742765 
L 320.123658 31.509974 
L 323.369709 30.504544 
L 326.615761 29.890109 
L 329.861813 30.120003 
L 333.107865 31.418941 
L 336.353917 33.221794 
L 339.599968 34.474288 
L 342.84602 35.442479 
L 346.092072 38.498989 
L 349.338124 42.112525 
L 352.584175 51.260901 
L 359.076279 66.714319 
L 362.322331 73.930156 
L 365.568382 77.387232 
L 368.814434 79.516111 
L 372.060486 82.734029 
L 381.798641 89.345156 
L 385.044693 93.828717 
L 391.536796 97.809325 
L 394.782848 100.514032 
L 398.0289 106.553399 
L 401.274952 109.958577 
L 404.521003 111.513692 
L 407.767055 115.147307 
L 411.013107 115.801727 
L 414.259159 116.924494 
L 417.50521 120.485875 
L 420.751262 119.838271 
L 423.997314 120.026721 
L 427.243366 122.160548 
L 430.489418 122.035159 
L 433.735469 120.688658 
L 436.981521 118.829703 
L 440.227573 117.557859 
L 443.473625 119.681865 
L 446.719676 120.089169 
L 449.965728 119.286632 
L 453.21178 113.688737 
L 456.457832 109.022928 
L 459.703883 106.644543 
L 462.949935 114.01279 
L 466.195987 122.992117 
L 469.442039 129.786946 
L 472.68809 133.211174 
L 475.934142 135.503914 
L 479.180194 137.160145 
L 482.426246 136.841779 
L 485.672297 128.889735 
L 488.918349 121.379024 
L 492.164401 116.875362 
L 495.410453 116.036554 
L 498.656504 115.352547 
L 501.902556 122.345588 
L 505.148608 133.590512 
L 505.148608 133.590512 
" clip-path="url(#p817b0980f6)" style="fill: none; stroke: #482475; stroke-width: 1.3; stroke-linecap: square"/>
   </g>
   <g id="line2d_26">
    <path d="M 60.439517 139.828179 
L 63.685569 145.202121 
L 66.931621 145.644861 
L 70.177672 143.636949 
L 79.915828 127.669211 
L 83.161879 128.048173 
L 86.407931 135.160747 
L 89.653983 145.309175 
L 92.900035 152.241724 
L 99.392138 167.014446 
L 102.63819 167.672789 
L 109.130293 157.50736 
L 112.376345 149.807499 
L 115.622397 142.915491 
L 118.868449 137.126125 
L 122.1145 132.784744 
L 125.360552 132.920395 
L 128.606604 134.211692 
L 131.852656 136.723575 
L 135.098707 139.378789 
L 138.344759 142.663559 
L 141.590811 145.029745 
L 148.082915 146.987864 
L 154.575018 151.184222 
L 157.82107 158.833351 
L 161.067122 172.594049 
L 164.313173 181.010573 
L 167.559225 184.37324 
L 170.805277 180.222982 
L 174.051329 173.585209 
L 177.29738 165.011929 
L 180.543432 154.830834 
L 183.789484 146.431332 
L 187.035536 135.465325 
L 190.281587 126.516778 
L 193.527639 118.780199 
L 196.773691 114.648727 
L 200.019743 109.409649 
L 203.265794 102.728542 
L 206.511846 92.054958 
L 209.757898 82.000142 
L 213.00395 75.76465 
L 216.250001 73.043908 
L 219.496053 75.827132 
L 225.988157 97.704001 
L 229.234208 104.459777 
L 232.48026 106.024937 
L 235.726312 102.078752 
L 238.972364 95.699275 
L 242.218416 90.09332 
L 245.464467 89.167928 
L 248.710519 93.767838 
L 251.956571 102.698692 
L 258.448674 128.73606 
L 261.694726 137.866201 
L 264.940778 143.430401 
L 268.18683 145.965889 
L 271.432881 144.862455 
L 274.678933 141.396872 
L 277.924985 139.510591 
L 281.171037 133.109982 
L 284.417088 127.506101 
L 287.66314 117.414252 
L 294.155244 90.866783 
L 297.401295 75.355096 
L 300.647347 63.854106 
L 303.893399 56.496634 
L 307.139451 50.58203 
L 313.631554 41.973467 
L 316.877606 36.183707 
L 320.123658 31.046186 
L 323.369709 30.61656 
L 326.615761 29.790256 
L 329.861813 32.085785 
L 333.107865 33.192624 
L 339.599968 35.047852 
L 346.092072 40.326312 
L 349.338124 42.393939 
L 352.584175 48.237236 
L 355.830227 52.391944 
L 362.322331 63.688621 
L 365.568382 68.131623 
L 368.814434 73.200321 
L 372.060486 77.147886 
L 375.306538 80.67397 
L 378.552589 85.84479 
L 381.798641 88.039778 
L 385.044693 92.385927 
L 388.290745 97.996608 
L 391.536796 101.883063 
L 394.782848 104.738255 
L 398.0289 108.736616 
L 401.274952 111.876604 
L 404.521003 114.792985 
L 407.767055 116.811524 
L 411.013107 118.206686 
L 414.259159 118.682808 
L 420.751262 115.902441 
L 423.997314 117.001136 
L 427.243366 117.056084 
L 430.489418 115.828205 
L 433.735469 112.914979 
L 436.981521 111.575021 
L 440.227573 111.323253 
L 443.473625 112.378133 
L 446.719676 111.216293 
L 449.965728 111.27242 
L 453.21178 106.384607 
L 456.457832 102.165268 
L 459.703883 100.224177 
L 462.949935 107.281298 
L 466.195987 116.436587 
L 469.442039 124.559739 
L 472.68809 128.288644 
L 475.934142 131.49731 
L 479.180194 132.16092 
L 482.426246 134.895907 
L 485.672297 133.723781 
L 488.918349 129.791843 
L 492.164401 127.263043 
L 495.410453 123.184377 
L 498.656504 120.769067 
L 501.902556 122.012461 
L 505.148608 129.49631 
L 505.148608 129.49631 
" clip-path="url(#p817b0980f6)" style="fill: none; stroke: #21918c; stroke-width: 1.3; stroke-linecap: square"/>
   </g>
   <g id="line2d_27">
    <path d="M 60.439517 131.969565 
L 63.685569 146.798238 
L 66.931621 150.236057 
L 70.177672 146.666857 
L 73.423724 139.93606 
L 76.669776 133.817335 
L 79.915828 128.559967 
L 83.161879 128.76357 
L 86.407931 133.675163 
L 89.653983 140.151224 
L 92.900035 151.238615 
L 96.146086 158.308389 
L 99.392138 166.103695 
L 102.63819 166.470241 
L 105.884242 162.66721 
L 109.130293 154.097517 
L 112.376345 146.253141 
L 115.622397 133.756624 
L 118.868449 126.519781 
L 122.1145 121.583512 
L 125.360552 123.51384 
L 128.606604 131.530194 
L 131.852656 142.878419 
L 135.098707 152.063747 
L 138.344759 159.087572 
L 141.590811 165.270387 
L 144.836863 167.642601 
L 148.082915 165.532541 
L 151.328966 162.53728 
L 154.575018 165.710547 
L 157.82107 176.709259 
L 161.067122 191.06767 
L 164.313173 205.945602 
L 167.559225 209.626619 
L 170.805277 208.135565 
L 174.051329 195.269778 
L 177.29738 183.71672 
L 180.543432 170.697269 
L 183.789484 153.201113 
L 187.035536 137.009612 
L 190.281587 129.689325 
L 193.527639 119.879888 
L 196.773691 110.601294 
L 200.019743 103.321725 
L 203.265794 89.794786 
L 206.511846 77.604319 
L 209.757898 69.308563 
L 213.00395 63.044938 
L 216.250001 64.904286 
L 219.496053 73.509795 
L 222.742105 90.887894 
L 225.988157 105.754967 
L 229.234208 116.780958 
L 235.726312 121.324715 
L 238.972364 126.887983 
L 242.218416 125.935612 
L 245.464467 131.387391 
L 248.710519 139.40235 
L 251.956571 148.096946 
L 255.202623 161.688522 
L 258.448674 172.953484 
L 261.694726 175.881671 
L 264.940778 177.945574 
L 268.18683 175.90022 
L 271.432881 174.329536 
L 274.678933 168.579504 
L 277.924985 159.647459 
L 281.171037 147.251325 
L 284.417088 142.644456 
L 287.66314 137.823515 
L 290.909192 125.290264 
L 294.155244 105.612905 
L 297.401295 87.50615 
L 300.647347 73.93384 
L 303.893399 62.895077 
L 307.139451 57.722385 
L 310.385502 54.127806 
L 313.631554 52.22492 
L 316.877606 53.243674 
L 320.123658 57.177675 
L 323.369709 62.366982 
L 326.615761 62.90835 
L 329.861813 57.990227 
L 333.107865 58.531467 
L 336.353917 64.375978 
L 339.599968 66.063312 
L 342.84602 68.826758 
L 346.092072 75.06607 
L 349.338124 83.001755 
L 352.584175 93.150253 
L 355.830227 92.356761 
L 359.076279 93.15571 
L 362.322331 91.785034 
L 365.568382 95.299926 
L 372.060486 103.840234 
L 375.306538 105.873238 
L 378.552589 107.153578 
L 385.044693 104.08341 
L 388.290745 96.506588 
L 394.782848 106.009531 
L 398.0289 107.551029 
L 401.274952 113.06771 
L 404.521003 120.218079 
L 407.767055 121.272416 
L 411.013107 118.231261 
L 414.259159 117.397152 
L 417.50521 118.664868 
L 420.751262 117.863388 
L 423.997314 118.318625 
L 427.243366 119.978243 
L 430.489418 123.043971 
L 433.735469 121.451298 
L 436.981521 122.923379 
L 440.227573 114.696809 
L 443.473625 111.941479 
L 446.719676 112.61099 
L 449.965728 109.513887 
L 453.21178 106.143055 
L 456.457832 106.091496 
L 459.703883 103.323464 
L 462.949935 109.506312 
L 466.195987 116.532976 
L 469.442039 123.058956 
L 472.68809 124.838213 
L 475.934142 130.594714 
L 479.180194 138.670555 
L 482.426246 141.373073 
L 485.672297 136.668936 
L 488.918349 129.22148 
L 492.164401 122.287352 
L 495.410453 123.468548 
L 498.656504 125.728773 
L 501.902556 131.676705 
L 505.148608 146.478256 
L 505.148608 146.478256 
" clip-path="url(#p817b0980f6)" style="fill: none; stroke: #bddf26; stroke-width: 1.3; stroke-linecap: square"/>
   </g>
   <g id="line2d_28">
    <path d="M 141.590811 218.618437 
L 141.590811 20.798438 
" clip-path="url(#p817b0980f6)" style="fill: none; stroke-dasharray: 2.96,1.28; stroke-dashoffset: 0; stroke: #000000; stroke-width: 0.8"/>
   </g>
   <g id="line2d_29">
    <path d="M 38.204063 143.919883 
L 527.384063 143.919883 
" clip-path="url(#p817b0980f6)" style="fill: none; stroke: #808080; stroke-opacity: 0.3; stroke-width: 0.5; stroke-linecap: square"/>
   </g>
   <g id="patch_3">
    <path d="M 38.204063 218.618437 
L 38.204063 20.798438 
" style="fill: none; stroke: #000000; stroke-width: 0.8; stroke-linejoin: miter; stroke-linecap: square"/>
   </g>
   <g id="patch_4">
    <path d="M 38.204062 218.618437 
L 527.384063 218.618437 
" style="fill: none; stroke: #000000; stroke-width: 0.8; stroke-linejoin: miter; stroke-linecap: square"/>
   </g>
   <g id="text_15">
    <text style="font-weight: 700; font-size: 10px; font-family: 'Arial', 'Helvetica', 'DejaVu Sans', sans-serif; text-anchor: middle" x="282.794062" y="14.798438" transform="rotate(-0 282.794062 14.798438)">ERP by # targets in image (distractor load)</text>
   </g>
   <g id="legend_1">
    <g id="line2d_30">
     <path d="M 450.770156 29.967344 
L 457.770156 29.967344 
L 464.770156 29.967344 
" style="fill: none; stroke: #482475; stroke-width: 1.3; stroke-linecap: square"/>
    </g>
    <g id="text_16">
     <text style="font-size: 7px; font-family: 'Arial', 'Helvetica', 'DejaVu Sans', sans-serif; text-anchor: start" x="470.370156" y="32.417344" transform="rotate(-0 470.370156 32.417344)">K=2 (n=2650)</text>
    </g>
    <g id="line2d_31">
     <path d="M 450.770156 40.242031 
L 457.770156 40.242031 
L 464.770156 40.242031 
" style="fill: none; stroke: #21918c; stroke-width: 1.3; stroke-linecap: square"/>
    </g>
    <g id="text_17">
     <text style="font-size: 7px; font-family: 'Arial', 'Helvetica', 'DejaVu Sans', sans-serif; text-anchor: start" x="470.370156" y="42.692031" transform="rotate(-0 470.370156 42.692031)">K=3 (n=3176)</text>
    </g>
    <g id="line2d_32">
     <path d="M 450.770156 50.516719 
L 457.770156 50.516719 
L 464.770156 50.516719 
" style="fill: none; stroke: #bddf26; stroke-width: 1.3; stroke-linecap: square"/>
    </g>
    <g id="text_18">
     <text style="font-size: 7px; font-family: 'Arial', 'Helvetica', 'DejaVu Sans', sans-serif; text-anchor: start" x="470.370156" y="52.966719" transform="rotate(-0 470.370156 52.966719)">K=4 (n=550)</text>
    </g>
   </g>
  </g>
 </g>
 <defs>
  <clipPath id="p817b0980f6">
   <rect x="38.204063" y="20.798438" width="489.18" height="197.82"/>
  </clipPath>
 </defs>
</svg>
