<?xml version="1.0" encoding="utf-8" standalone="no"?>
<!DOCTYPE svg PUBLIC "-//W3C//DTD SVG 1.1//EN"
  "http://www.w3.org/Graphics/SVG/1.1/DTD/svg11.dtd">
<svg xmlns:xlink="http://www.w3.org/1999/xlink" width="570.584062pt" height="281.57125pt" viewBox="0 0 570.584062 281.57125" xmlns="http://www.w3.org/2000/svg" version="1.1">
 <metadata>
  <rdf:RDF xmlns:dc="http://purl.org/dc/elements/1.1/" xmlns:cc="http://creativecommons.org/ns#" xmlns:rdf="http://www.w3.org/1999/02/22-rdf-syntax-ns#">
   <cc:Work>
    <dc:type rdf:resource="http://purl.org/dc/dcmitype/StillImage"/>
    <dc:date>2026-05-12T16:40:07.616655</dc:date>
    <dc:format>image/svg+xml</dc:format>
    <dc:creator>
     <cc:Agent>
      <dc:title>Matplotlib v3.10.8, https://matplotlib.org/</dc:title>
     </cc:Agent>
    </dc:creator>
   </cc:Work>
  </rdf:RDF>
 </metadata>
 <defs>
  <style type="text/css">*{stroke-linejoin: round; stroke-linecap: butt}</style>
 </defs>
 <g id="figure_1">
  <g id="patch_1">
   <path d="M 0 281.57125 
L 570.584062 281.57125 
L 570.584062 0 
L 0 0 
z
" style="fill: #ffffff"/>
  </g>
  <g id="axes_1">
   <g id="patch_2">
    <path d="M 38.204063 247.418437 
L 563.384063 247.418437 
L 563.384063 20.798437 
L 38.204063 20.798437 
z
" style="fill: #ffffff"/>
   </g>
   <g id="matplotlib.axis_1">
    <g id="xtick_1">
     <g id="line2d_1">
      <path d="M 93.904972 247.418437 
L 93.904972 20.798437 
" clip-path="url(#pcc52780d80)" style="fill: none; stroke: #b0b0b0; stroke-opacity: 0.15; stroke-width: 0.8; stroke-linecap: square"/>
     </g>
     <g id="line2d_2">
      <defs>
       <path id="ma6db9881cc" d="M 0 0 
L 0 3 
" style="stroke: #000000; stroke-width: 0.8"/>
      </defs>
      <g>
       <use xlink:href="#ma6db9881cc" x="93.904972" y="247.418437" style="stroke: #000000; stroke-width: 0.8"/>
      </g>
     </g>
     <g id="text_1">
      <text style="font-size: 8px; font-family: 'Arial', 'Helvetica', 'DejaVu Sans', sans-serif; text-anchor: middle" x="93.904972" y="259.997187" transform="rotate(-0 93.904972 259.997187)">−400</text>
     </g>
    </g>
    <g id="xtick_2">
     <g id="line2d_3">
      <path d="M 157.563153 247.418437 
L 157.563153 20.798437 
" clip-path="url(#pcc52780d80)" style="fill: none; stroke: #b0b0b0; stroke-opacity: 0.15; stroke-width: 0.8; stroke-linecap: square"/>
     </g>
     <g id="line2d_4">
      <g>
       <use xlink:href="#ma6db9881cc" x="157.563153" y="247.418437" style="stroke: #000000; stroke-width: 0.8"/>
      </g>
     </g>
     <g id="text_2">
      <text style="font-size: 8px; font-family: 'Arial', 'Helvetica', 'DejaVu Sans', sans-serif; text-anchor: middle" x="157.563153" y="259.997187" transform="rotate(-0 157.563153 259.997187)">−200</text>
     </g>
    </g>
    <g id="xtick_3">
     <g id="line2d_5">
      <path d="M 221.221335 247.418437 
L 221.221335 20.798437 
" clip-path="url(#pcc52780d80)" style="fill: none; stroke: #b0b0b0; stroke-opacity: 0.15; stroke-width: 0.8; stroke-linecap: square"/>
     </g>
     <g id="line2d_6">
      <g>
       <use xlink:href="#ma6db9881cc" x="221.221335" y="247.418437" style="stroke: #000000; stroke-width: 0.8"/>
      </g>
     </g>
     <g id="text_3">
      <text style="font-size: 8px; font-family: 'Arial', 'Helvetica', 'DejaVu Sans', sans-serif; text-anchor: middle" x="221.221335" y="259.997187" transform="rotate(-0 221.221335 259.997187)">0</text>
     </g>
    </g>
    <g id="xtick_4">
     <g id="line2d_7">
      <path d="M 284.879517 247.418437 
L 284.879517 20.798437 
" clip-path="url(#pcc52780d80)" style="fill: none; stroke: #b0b0b0; stroke-opacity: 0.15; stroke-width: 0.8; stroke-linecap: square"/>
     </g>
     <g id="line2d_8">
      <g>
       <use xlink:href="#ma6db9881cc" x="284.879517" y="247.418437" style="stroke: #000000; stroke-width: 0.8"/>
      </g>
     </g>
     <g id="text_4">
      <text style="font-size: 8px; font-family: 'Arial', 'Helvetica', 'DejaVu Sans', sans-serif; text-anchor: middle" x="284.879517" y="259.997187" transform="rotate(-0 284.879517 259.997187)">200</text>
     </g>
    </g>
    <g id="xtick_5">
     <g id="line2d_9">
      <path d="M 348.537699 247.418437 
L 348.537699 20.798437 
" clip-path="url(#pcc52780d80)" style="fill: none; stroke: #b0b0b0; stroke-opacity: 0.15; stroke-width: 0.8; stroke-linecap: square"/>
     </g>
     <g id="line2d_10">
      <g>
       <use xlink:href="#ma6db9881cc" x="348.537699" y="247.418437" style="stroke: #000000; stroke-width: 0.8"/>
      </g>
     </g>
     <g id="text_5">
      <text style="font-size: 8px; font-family: 'Arial', 'Helvetica', 'DejaVu Sans', sans-serif; text-anchor: middle" x="348.537699" y="259.997187" transform="rotate(-0 348.537699 259.997187)">400</text>
     </g>
    </g>
    <g id="xtick_6">
     <g id="line2d_11">
      <path d="M 412.195881 247.418437 
L 412.195881 20.798437 
" clip-path="url(#pcc52780d80)" style="fill: none; stroke: #b0b0b0; stroke-opacity: 0.15; stroke-width: 0.8; stroke-linecap: square"/>
     </g>
     <g id="line2d_12">
      <g>
       <use xlink:href="#ma6db9881cc" x="412.195881" y="247.418437" style="stroke: #000000; stroke-width: 0.8"/>
      </g>
     </g>
     <g id="text_6">
      <text style="font-size: 8px; font-family: 'Arial', 'Helvetica', 'DejaVu Sans', sans-serif; text-anchor: middle" x="412.195881" y="259.997187" transform="rotate(-0 412.195881 259.997187)">600</text>
     </g>
    </g>
    <g id="xtick_7">
     <g id="line2d_13">
      <path d="M 475.854063 247.418437 
L 475.854063 20.798437 
" clip-path="url(#pcc52780d80)" style="fill: none; stroke: #b0b0b0; stroke-opacity: 0.15; stroke-width: 0.8; stroke-linecap: square"/>
     </g>
     <g id="line2d_14">
      <g>
       <use xlink:href="#ma6db9881cc" x="475.854063" y="247.418437" style="stroke: #000000; stroke-width: 0.8"/>
      </g>
     </g>
     <g id="text_7">
      <text style="font-size: 8px; font-family: 'Arial', 'Helvetica', 'DejaVu Sans', sans-serif; text-anchor: middle" x="475.854063" y="259.997187" transform="rotate(-0 475.854063 259.997187)">800</text>
     </g>
    </g>
    <g id="xtick_8">
     <g id="line2d_15">
      <path d="M 539.512244 247.418437 
L 539.512244 20.798437 
" clip-path="url(#pcc52780d80)" style="fill: none; stroke: #b0b0b0; stroke-opacity: 0.15; stroke-width: 0.8; stroke-linecap: square"/>
     </g>
     <g id="line2d_16">
      <g>
       <use xlink:href="#ma6db9881cc" x="539.512244" y="247.418437" style="stroke: #000000; stroke-width: 0.8"/>
      </g>
     </g>
     <g id="text_8">
      <text style="font-size: 8px; font-family: 'Arial', 'Helvetica', 'DejaVu Sans', sans-serif; text-anchor: middle" x="539.512244" y="259.997187" transform="rotate(-0 539.512244 259.997187)">1000</text>
     </g>
    </g>
    <g id="text_9">
     <text style="font-size: 9px; font-family: 'Arial', 'Helvetica', 'DejaVu Sans', sans-serif; text-anchor: middle" x="300.794063" y="272.499531" transform="rotate(-0 300.794063 272.499531)">Time (ms)</text>
    </g>
   </g>
   <g id="matplotlib.axis_2">
    <g id="ytick_1">
     <g id="line2d_17">
      <path d="M 38.204063 214.850503 
L 563.384063 214.850503 
" clip-path="url(#pcc52780d80)" style="fill: none; stroke: #b0b0b0; stroke-opacity: 0.15; stroke-width: 0.8; stroke-linecap: square"/>
     </g>
     <g id="line2d_18">
      <defs>
       <path id="me73658865d" d="M 0 0 
L -3 0 
" style="stroke: #000000; stroke-width: 0.8"/>
      </defs>
      <g>
       <use xlink:href="#me73658865d" x="38.204063" y="214.850503" style="stroke: #000000; stroke-width: 0.8"/>
      </g>
     </g>
     <g id="text_10">
      <text style="font-size: 8px; font-family: 'Arial', 'Helvetica', 'DejaVu Sans', sans-serif; text-anchor: end" x="31.704063" y="217.889878" transform="rotate(-0 31.704063 217.889878)">−4</text>
     </g>
    </g>
    <g id="ytick_2">
     <g id="line2d_19">
      <path d="M 38.204063 176.452618 
L 563.384063 176.452618 
" clip-path="url(#pcc52780d80)" style="fill: none; stroke: #b0b0b0; stroke-opacity: 0.15; stroke-width: 0.8; stroke-linecap: square"/>
     </g>
     <g id="line2d_20">
      <g>
       <use xlink:href="#me73658865d" x="38.204063" y="176.452618" style="stroke: #000000; stroke-width: 0.8"/>
      </g>
     </g>
     <g id="text_11">
      <text style="font-size: 8px; font-family: 'Arial', 'Helvetica', 'DejaVu Sans', sans-serif; text-anchor: end" x="31.704063" y="179.491993" transform="rotate(-0 31.704063 179.491993)">−2</text>
     </g>
    </g>
    <g id="ytick_3">
     <g id="line2d_21">
      <path d="M 38.204063 138.054733 
L 563.384063 138.054733 
" clip-path="url(#pcc52780d80)" style="fill: none; stroke: #b0b0b0; stroke-opacity: 0.15; stroke-width: 0.8; stroke-linecap: square"/>
     </g>
     <g id="line2d_22">
      <g>
       <use xlink:href="#me73658865d" x="38.204063" y="138.054733" style="stroke: #000000; stroke-width: 0.8"/>
      </g>
     </g>
     <g id="text_12">
      <text style="font-size: 8px; font-family: 'Arial', 'Helvetica', 'DejaVu Sans', sans-serif; text-anchor: end" x="31.704063" y="141.094108" transform="rotate(-0 31.704063 141.094108)">0</text>
     </g>
    </g>
    <g id="ytick_4">
     <g id="line2d_23">
      <path d="M 38.204063 99.656849 
L 563.384063 99.656849 
" clip-path="url(#pcc52780d80)" style="fill: none; stroke: #b0b0b0; stroke-opacity: 0.15; stroke-width: 0.8; stroke-linecap: square"/>
     </g>
     <g id="line2d_24">
      <g>
       <use xlink:href="#me73658865d" x="38.204063" y="99.656849" style="stroke: #000000; stroke-width: 0.8"/>
      </g>
     </g>
     <g id="text_13">
      <text style="font-size: 8px; font-family: 'Arial', 'Helvetica', 'DejaVu Sans', sans-serif; text-anchor: end" x="31.704063" y="102.696224" transform="rotate(-0 31.704063 102.696224)">2</text>
     </g>
    </g>
    <g id="ytick_5">
     <g id="line2d_25">
      <path d="M 38.204063 61.258964 
L 563.384063 61.258964 
" clip-path="url(#pcc52780d80)" style="fill: none; stroke: #b0b0b0; stroke-opacity: 0.15; stroke-width: 0.8; stroke-linecap: square"/>
     </g>
     <g id="line2d_26">
      <g>
       <use xlink:href="#me73658865d" x="38.204063" y="61.258964" style="stroke: #000000; stroke-width: 0.8"/>
      </g>
     </g>
     <g id="text_14">
      <text style="font-size: 8px; font-family: 'Arial', 'Helvetica', 'DejaVu Sans', sans-serif; text-anchor: end" x="31.704063" y="64.298339" transform="rotate(-0 31.704063 64.298339)">4</text>
     </g>
    </g>
    <g id="ytick_6">
     <g id="line2d_27">
      <path d="M 38.204063 22.86108 
L 563.384063 22.86108 
" clip-path="url(#pcc52780d80)" style="fill: none; stroke: #b0b0b0; stroke-opacity: 0.15; stroke-width: 0.8; stroke-linecap: square"/>
     </g>
     <g id="line2d_28">
      <g>
       <use xlink:href="#me73658865d" x="38.204063" y="22.86108" style="stroke: #000000; stroke-width: 0.8"/>
      </g>
     </g>
     <g id="text_15">
      <text style="font-size: 8px; font-family: 'Arial', 'Helvetica', 'DejaVu Sans', sans-serif; text-anchor: end" x="31.704063" y="25.900455" transform="rotate(-0 31.704063 25.900455)">6</text>
     </g>
    </g>
    <g id="text_16">
     <text style="font-size: 9px; font-family: 'Arial', 'Helvetica', 'DejaVu Sans', sans-serif; text-anchor: middle" x="14.038594" y="134.108437" transform="rotate(-90 14.038594 134.108437)">Amplitude (µV)</text>
    </g>
   </g>
   <g id="line2d_29">
    <path d="M 62.075881 174.939062 
L 63.349044 184.076778 
L 64.622208 194.208219 
L 65.895372 203.061842 
L 67.168535 207.932225 
L 68.441699 207.256219 
L 69.714863 201.877449 
L 70.988026 194.216967 
L 72.26119 184.349879 
L 73.534353 170.444178 
L 76.080681 141.196891 
L 77.353844 132.080759 
L 78.627008 125.357921 
L 79.900172 120.35032 
L 81.173335 113.222081 
L 83.719663 102.438045 
L 84.992826 96.342401 
L 86.26599 94.184934 
L 87.539153 90.714896 
L 88.812317 90.441631 
L 90.085481 94.44638 
L 91.358644 99.176512 
L 92.631808 100.420096 
L 93.904972 99.995479 
L 95.178135 96.059748 
L 96.451299 94.746899 
L 97.724463 97.862423 
L 98.997626 107.220288 
L 100.27079 119.171057 
L 101.543953 133.39649 
L 102.817117 144.966753 
L 105.363444 162.69227 
L 106.636608 168.230303 
L 109.182935 175.24247 
L 110.456099 175.214593 
L 111.729263 169.55807 
L 113.002426 159.859153 
L 115.548753 135.709307 
L 116.821917 122.479063 
L 119.368244 102.495287 
L 120.641408 91.264411 
L 121.914572 84.933632 
L 123.187735 76.532168 
L 124.460899 69.00345 
L 125.734063 63.275966 
L 127.007226 64.421571 
L 128.28039 64.032292 
L 129.553553 60.76544 
L 130.826717 62.745877 
L 132.099881 65.915153 
L 133.373044 66.434174 
L 134.646208 69.621617 
L 135.919372 77.419105 
L 137.192535 82.944726 
L 138.465699 88.970817 
L 141.012026 104.66757 
L 142.28519 111.686813 
L 143.558353 116.445794 
L 144.831517 121.742264 
L 147.377844 135.913665 
L 148.651008 141.860751 
L 149.924172 146.261502 
L 151.197335 149.879287 
L 152.470499 152.89333 
L 153.743663 154.49283 
L 155.016826 158.007999 
L 157.563153 167.447594 
L 158.836317 170.054977 
L 160.109481 173.363668 
L 161.382644 173.365925 
L 162.655808 174.82376 
L 163.928972 175.175354 
L 165.202135 171.877543 
L 166.475299 174.007519 
L 167.748463 175.583705 
L 170.29479 173.466724 
L 171.567953 170.995151 
L 172.841117 166.766026 
L 174.114281 164.897299 
L 175.387444 161.677768 
L 176.660608 160.669959 
L 177.933772 156.517062 
L 179.206935 150.619334 
L 180.480099 148.380293 
L 181.753263 149.054508 
L 184.29959 158.297782 
L 185.572753 159.532417 
L 186.845917 159.753578 
L 188.119081 162.710641 
L 189.392244 171.979717 
L 190.665408 179.50664 
L 191.938572 180.893386 
L 193.211735 178.856427 
L 194.484899 175.384579 
L 195.758063 167.402989 
L 197.031226 158.342512 
L 198.30439 156.793665 
L 199.577553 160.211273 
L 200.850717 167.675778 
L 202.123881 171.826223 
L 203.397044 179.983933 
L 204.670208 186.534248 
L 205.943372 188.334712 
L 207.216535 183.321606 
L 208.489699 181.365085 
L 209.762863 173.102398 
L 211.036026 167.767324 
L 212.30919 164.977417 
L 213.582353 163.453551 
L 214.855517 164.426378 
L 216.128681 166.551394 
L 217.401844 169.515367 
L 218.675008 171.093586 
L 219.948172 173.592915 
L 222.494499 175.630106 
L 225.040826 173.412278 
L 226.31399 175.529394 
L 227.587153 187.892889 
L 228.860317 202.996665 
L 230.133481 212.447737 
L 231.406644 214.663901 
L 232.679808 210.10115 
L 233.952972 199.313166 
L 235.226135 187.235032 
L 236.499299 172.349608 
L 237.772463 159.027675 
L 239.045626 147.485023 
L 240.31879 137.592869 
L 241.591953 133.344363 
L 242.865117 129.521966 
L 244.138281 124.185956 
L 245.411444 115.829875 
L 246.684608 103.521498 
L 249.230935 84.835479 
L 250.504099 79.952788 
L 251.777263 78.914193 
L 253.050426 82.518522 
L 254.32359 91.513815 
L 255.596753 98.152968 
L 256.869917 101.764851 
L 258.143081 99.728924 
L 259.416244 93.827747 
L 260.689408 90.729846 
L 261.962572 94.279644 
L 263.235735 106.495899 
L 264.508899 123.809218 
L 265.782063 143.500428 
L 267.055226 160.158434 
L 268.32839 171.842684 
L 269.601553 180.39917 
L 270.874717 184.578547 
L 272.147881 186.716025 
L 273.421044 187.02027 
L 274.694208 186.427302 
L 275.967372 180.417141 
L 277.240535 172.464368 
L 278.513699 158.895286 
L 279.786863 141.151223 
L 282.33319 112.063994 
L 283.606353 97.517599 
L 284.879517 86.718926 
L 288.699008 58.845905 
L 289.972172 55.322801 
L 291.245335 52.532574 
L 292.518499 55.289469 
L 293.791663 51.912906 
L 295.064826 53.370291 
L 296.33799 56.170872 
L 297.611153 57.211705 
L 298.884317 57.587536 
L 300.157481 64.377372 
L 301.430644 67.759317 
L 302.703808 72.104633 
L 303.976972 82.170865 
L 305.250135 87.610665 
L 306.523299 97.265225 
L 307.796463 103.217184 
L 309.069626 108.458152 
L 310.34279 113.159286 
L 311.615953 117.052798 
L 312.889117 120.277571 
L 314.162281 122.517615 
L 315.435444 122.60877 
L 316.708608 126.103993 
L 317.981772 128.536307 
L 319.254935 133.415184 
L 320.528099 137.016759 
L 321.801263 143.94093 
L 323.074426 144.411011 
L 324.34759 143.576268 
L 325.620753 148.050093 
L 326.893917 146.265172 
L 329.440244 147.67254 
L 330.713408 144.926439 
L 331.986572 148.261522 
L 333.259735 148.034216 
L 334.532899 147.006074 
L 335.806063 144.552897 
L 337.079226 143.367628 
L 338.35239 140.42101 
L 339.625553 140.210349 
L 340.898717 139.702192 
L 342.171881 138.321207 
L 343.445044 134.231207 
L 344.718208 132.426181 
L 345.991372 131.40724 
L 347.264535 139.940597 
L 348.537699 149.9912 
L 349.810863 158.423786 
L 351.084026 163.064125 
L 352.35719 165.048369 
L 353.630353 167.79534 
L 354.903517 170.942168 
L 356.176681 164.704692 
L 357.449844 159.616043 
L 358.723008 157.313438 
L 359.996172 151.46799 
L 361.269335 146.520571 
L 362.542499 149.660136 
L 363.815663 159.577607 
L 365.088826 172.31826 
L 367.635153 183.787144 
L 368.908317 187.571827 
L 370.181481 183.608375 
L 371.454644 173.535863 
L 372.727808 168.506697 
L 374.000972 161.997519 
L 375.274135 160.57645 
L 376.547299 159.846737 
L 377.820463 162.16277 
L 379.093626 161.754206 
L 380.36679 162.103174 
L 381.639953 161.322609 
L 382.913127 156.571745 
L 384.186281 155.150262 
L 385.459444 156.707542 
L 386.732608 163.046077 
L 388.005772 171.641123 
L 390.552099 185.754248 
L 393.098426 203.182044 
L 394.37159 208.8422 
L 395.644753 210.976195 
L 396.917917 210.049311 
L 398.191081 203.863031 
L 399.464244 193.191674 
L 400.737408 179.565217 
L 402.010572 163.474261 
L 403.283735 150.756554 
L 404.556899 135.937251 
L 405.830063 130.180167 
L 407.103226 125.037935 
L 408.37639 118.760826 
L 409.649553 114.724564 
L 412.195881 94.835009 
L 413.469044 87.131912 
L 414.742208 82.465264 
L 416.015372 81.092135 
L 417.288535 82.655491 
L 418.561699 86.625818 
L 419.834863 91.155419 
L 421.108026 92.347535 
L 422.38119 92.740934 
L 423.654353 93.516439 
L 424.927517 92.838304 
L 426.200681 95.936882 
L 427.473844 105.062436 
L 428.747008 118.937075 
L 430.020172 134.211284 
L 431.293335 146.449922 
L 432.566499 154.902468 
L 435.112826 165.528685 
L 436.38599 166.489865 
L 437.659153 166.360279 
L 438.932317 166.033051 
L 440.205481 159.83183 
L 441.478644 150.229677 
L 442.751808 139.285262 
L 445.298135 114.275255 
L 446.571299 105.06393 
L 447.844463 94.797067 
L 449.117626 86.582923 
L 450.39079 79.677719 
L 451.663953 68.985036 
L 452.937117 60.775007 
L 454.210281 53.561708 
L 455.483444 54.742188 
L 456.756608 56.359011 
L 458.029772 58.589864 
L 459.302935 62.376263 
L 460.576099 68.510027 
L 461.849263 67.895133 
L 463.122426 67.859956 
L 464.39559 69.642906 
L 465.668753 73.663887 
L 466.941917 78.44556 
L 468.215081 90.074094 
L 469.488244 98.549113 
L 470.761408 108.961328 
L 472.034572 113.857816 
L 473.307735 117.267926 
L 477.127226 134.83549 
L 478.40039 140.602708 
L 479.673553 145.726794 
L 480.946717 150.348081 
L 482.219881 151.715957 
L 483.493044 152.098994 
L 484.766208 153.009408 
L 486.039372 156.949462 
L 488.585699 166.141457 
L 489.858863 169.53105 
L 491.132026 169.981164 
L 492.40519 168.871529 
L 493.678353 166.901804 
L 494.951517 163.923483 
L 496.224681 164.948673 
L 497.497844 165.66353 
L 498.771008 167.002921 
L 500.044172 164.113461 
L 501.317335 162.088167 
L 502.590499 156.586234 
L 505.136826 148.127694 
L 506.40999 146.544474 
L 508.956317 137.777444 
L 510.229481 134.108826 
L 511.502644 139.110713 
L 514.048972 160.219812 
L 515.322135 165.737531 
L 516.595299 166.271437 
L 517.868463 166.006692 
L 519.141626 162.246259 
L 520.41479 153.340586 
L 521.687953 146.971854 
L 522.961117 146.919923 
L 524.234281 148.503847 
L 525.507444 148.174891 
L 526.780608 154.450019 
L 528.053772 163.362001 
L 529.326935 171.157571 
L 530.600099 174.30417 
L 531.873263 178.593378 
L 533.146426 178.061285 
L 534.41959 169.93225 
L 535.692753 160.410036 
L 536.965917 153.273607 
L 538.239081 148.020902 
L 539.512244 146.304496 
L 539.512244 146.304496 
" clip-path="url(#pcc52780d80)" style="fill: none; stroke: #1f77b4; stroke-width: 1.4; stroke-linecap: square"/>
   </g>
   <g id="line2d_30">
    <path d="M 62.075881 173.165076 
L 63.349044 182.460902 
L 64.622208 195.906933 
L 65.895372 206.592727 
L 67.168535 216.214719 
L 68.441699 219.802546 
L 69.714863 219.529642 
L 70.988026 210.90179 
L 72.26119 198.531257 
L 73.534353 184.820384 
L 76.080681 149.069167 
L 78.627008 121.459826 
L 79.900172 111.736571 
L 81.173335 100.758635 
L 82.446499 87.32667 
L 83.719663 78.473803 
L 84.992826 76.345566 
L 86.26599 78.406126 
L 87.539153 87.666097 
L 88.812317 101.208058 
L 90.085481 110.934776 
L 91.358644 117.925957 
L 92.631808 120.182179 
L 93.904972 121.897515 
L 95.178135 124.189623 
L 96.451299 123.394235 
L 97.724463 125.841609 
L 98.997626 131.032378 
L 101.543953 146.726566 
L 102.817117 156.025109 
L 104.090281 160.237091 
L 105.363444 162.715926 
L 106.636608 162.258528 
L 107.909772 160.838866 
L 109.182935 156.873992 
L 110.456099 151.148285 
L 111.729263 146.036314 
L 113.002426 137.37199 
L 114.27559 127.846574 
L 116.821917 99.520589 
L 118.095081 84.785435 
L 119.368244 74.30072 
L 120.641408 65.160466 
L 121.914572 58.538423 
L 123.187735 51.111818 
L 124.460899 45.008224 
L 125.734063 42.407867 
L 127.007226 38.392539 
L 128.28039 39.878624 
L 129.553553 41.590309 
L 132.099881 58.394565 
L 134.646208 72.130925 
L 135.919372 75.852499 
L 137.192535 79.951359 
L 138.465699 86.34744 
L 139.738863 98.316128 
L 141.012026 105.228412 
L 142.28519 115.214296 
L 143.558353 122.518731 
L 144.831517 126.610782 
L 146.104681 131.446088 
L 147.377844 139.208682 
L 148.651008 140.6639 
L 149.924172 145.160337 
L 151.197335 148.004142 
L 152.470499 150.309249 
L 155.016826 161.226214 
L 156.28999 164.125039 
L 157.563153 163.421994 
L 158.836317 164.395142 
L 160.109481 167.53203 
L 161.382644 169.805466 
L 163.928972 175.148388 
L 165.202135 177.056728 
L 166.475299 176.616173 
L 167.748463 177.314114 
L 169.021626 178.570821 
L 170.29479 180.814046 
L 171.567953 176.493297 
L 172.841117 175.059882 
L 174.114281 175.823987 
L 175.387444 177.325731 
L 176.660608 178.194281 
L 177.933772 177.680094 
L 179.206935 170.006416 
L 180.480099 161.153498 
L 181.753263 155.580658 
L 183.026426 162.953133 
L 184.29959 165.967585 
L 185.572753 167.596491 
L 186.845917 166.922231 
L 188.119081 165.420352 
L 189.392244 169.605716 
L 190.665408 175.098474 
L 191.938572 170.041565 
L 193.211735 162.865572 
L 194.484899 156.945325 
L 195.758063 153.433784 
L 197.031226 146.050235 
L 198.30439 147.279381 
L 199.577553 158.165617 
L 200.850717 171.918902 
L 202.123881 181.799415 
L 203.397044 185.525379 
L 204.670208 190.732753 
L 205.943372 188.098359 
L 207.216535 185.9109 
L 209.762863 171.612519 
L 211.036026 165.434235 
L 212.30919 157.376682 
L 213.582353 150.990982 
L 214.855517 150.477651 
L 216.128681 150.484395 
L 217.401844 156.655217 
L 218.675008 164.101898 
L 219.948172 166.575197 
L 221.221335 174.746966 
L 222.494499 178.574222 
L 223.767663 183.224392 
L 225.040826 182.031232 
L 226.31399 181.151084 
L 227.587153 190.077011 
L 228.860317 207.051857 
L 230.133481 219.442205 
L 231.406644 230.533693 
L 232.679808 231.109876 
L 233.952972 222.631653 
L 235.226135 207.832887 
L 239.045626 156.883227 
L 240.31879 143.270764 
L 241.591953 132.405381 
L 244.138281 124.4655 
L 245.411444 114.110446 
L 246.684608 99.726629 
L 247.957772 88.841945 
L 249.230935 80.977394 
L 250.504099 81.5588 
L 251.777263 89.082875 
L 254.32359 124.300198 
L 255.596753 137.021838 
L 256.869917 140.025054 
L 258.143081 139.874775 
L 260.689408 131.712932 
L 261.962572 129.454147 
L 263.235735 135.085184 
L 264.508899 142.919176 
L 265.782063 156.861242 
L 267.055226 165.94728 
L 268.32839 171.638596 
L 269.601553 174.863984 
L 270.874717 174.363289 
L 272.147881 171.3872 
L 273.421044 164.17099 
L 274.694208 156.204345 
L 275.967372 151.778317 
L 277.240535 144.698873 
L 278.513699 135.199257 
L 281.060026 103.823649 
L 282.33319 86.709872 
L 283.606353 77.396973 
L 284.879517 72.664475 
L 286.152681 68.5785 
L 287.425844 66.416381 
L 288.699008 62.346308 
L 289.972172 57.494038 
L 291.245335 55.083331 
L 292.518499 54.877248 
L 293.791663 56.919915 
L 295.064826 59.786594 
L 296.33799 63.694256 
L 297.611153 68.345026 
L 298.884317 72.436525 
L 300.157481 73.563702 
L 301.430644 76.979891 
L 302.703808 77.976452 
L 303.976972 87.777112 
L 305.250135 93.895423 
L 306.523299 103.006268 
L 307.796463 109.605689 
L 309.069626 113.528276 
L 310.34279 116.637538 
L 311.615953 117.437031 
L 312.889117 117.467608 
L 314.162281 120.560449 
L 315.435444 121.319015 
L 316.708608 123.680214 
L 317.981772 124.47827 
L 319.254935 127.932498 
L 320.528099 130.260159 
L 321.801263 128.840796 
L 324.34759 136.045727 
L 325.620753 139.849683 
L 326.893917 142.780594 
L 328.167081 145.000122 
L 329.440244 145.188456 
L 330.713408 142.528079 
L 331.986572 142.686717 
L 333.259735 146.11146 
L 334.532899 148.223853 
L 335.806063 146.839619 
L 337.079226 145.682065 
L 338.35239 146.053415 
L 339.625553 146.677678 
L 340.898717 147.748932 
L 342.171881 146.933396 
L 343.445044 139.305814 
L 345.991372 119.899985 
L 347.264535 127.113455 
L 348.537699 132.532996 
L 349.810863 141.333635 
L 351.084026 144.807779 
L 352.35719 146.984699 
L 353.630353 150.407663 
L 354.903517 155.107923 
L 356.176681 149.461036 
L 357.449844 139.564923 
L 358.723008 133.263136 
L 359.996172 134.658202 
L 361.269335 132.141268 
L 362.542499 134.322798 
L 365.088826 169.089213 
L 366.36199 182.451029 
L 367.635153 188.98227 
L 368.908317 192.03582 
L 371.454644 175.393773 
L 372.727808 165.82706 
L 374.000972 158.93721 
L 375.274135 153.015037 
L 376.547299 148.779297 
L 377.820463 149.766561 
L 379.093626 152.321256 
L 380.36679 153.88717 
L 382.913127 159.87871 
L 384.186281 160.045901 
L 385.459444 162.32152 
L 386.732608 166.838046 
L 388.005772 172.061636 
L 389.278935 175.803879 
L 390.552099 181.077699 
L 391.825263 190.652145 
L 393.098426 206.269394 
L 394.37159 216.71272 
L 395.644753 221.120613 
L 396.917917 224.490905 
L 398.191081 219.071895 
L 399.464244 209.450283 
L 400.737408 196.575569 
L 402.010572 181.227883 
L 405.830063 130.120799 
L 407.103226 120.883256 
L 408.37639 116.274064 
L 410.922717 100.458262 
L 412.195881 95.720559 
L 413.469044 93.292939 
L 414.742208 94.182196 
L 416.015372 97.827474 
L 417.288535 103.676433 
L 418.561699 115.326291 
L 419.834863 123.210967 
L 421.108026 128.574619 
L 422.38119 131.754809 
L 423.654353 132.511978 
L 424.927517 135.205569 
L 426.200681 136.929355 
L 427.473844 140.490486 
L 428.747008 145.340552 
L 430.020172 152.706111 
L 431.293335 159.295782 
L 432.566499 160.335443 
L 433.839663 161.063643 
L 435.112826 157.301262 
L 436.38599 153.143752 
L 437.659153 144.379267 
L 438.932317 133.643996 
L 441.478644 110.547362 
L 442.751808 101.227734 
L 444.024972 93.924485 
L 446.571299 73.12355 
L 447.844463 65.163295 
L 449.117626 57.919369 
L 450.39079 48.555495 
L 452.937117 39.672092 
L 454.210281 38.087209 
L 455.483444 38.560428 
L 456.756608 42.443387 
L 458.029772 46.845147 
L 459.302935 48.437683 
L 460.576099 51.409669 
L 461.849263 57.559907 
L 463.122426 65.902208 
L 464.39559 70.864862 
L 465.668753 78.03236 
L 466.941917 83.360124 
L 468.215081 95.660403 
L 470.761408 113.577504 
L 472.034572 116.651707 
L 474.580899 120.37321 
L 475.854063 124.874712 
L 477.127226 131.140607 
L 478.40039 136.141437 
L 479.673553 144.290178 
L 480.946717 148.395488 
L 482.219881 151.2204 
L 483.493044 154.807987 
L 486.039372 158.123617 
L 487.312535 159.23986 
L 488.585699 163.686602 
L 489.858863 166.568717 
L 492.40519 171.48522 
L 493.678353 170.721295 
L 494.951517 169.134985 
L 496.224681 168.408853 
L 497.497844 166.416631 
L 498.771008 165.806498 
L 500.044172 160.687003 
L 501.317335 159.89555 
L 502.590499 160.356939 
L 503.863663 161.492741 
L 506.40999 160.438396 
L 507.683153 153.400447 
L 508.956317 141.220906 
L 510.229481 130.697779 
L 512.775808 148.799919 
L 514.048972 161.522547 
L 515.322135 171.508505 
L 516.595299 172.103176 
L 517.868463 169.422982 
L 519.141626 168.512582 
L 520.41479 161.045247 
L 521.687953 151.224284 
L 522.961117 148.300764 
L 524.234281 148.731303 
L 525.507444 149.411741 
L 526.780608 150.227606 
L 529.326935 173.902891 
L 530.600099 182.967623 
L 531.873263 190.690435 
L 533.146426 189.743475 
L 534.41959 178.04211 
L 535.692753 164.332436 
L 536.965917 153.189295 
L 538.239081 146.261062 
L 539.512244 144.933844 
L 539.512244 144.933844 
" clip-path="url(#pcc52780d80)" style="fill: none; stroke: #ff7f0e; stroke-width: 1.4; stroke-linecap: square"/>
   </g>
   <g id="line2d_31">
    <path d="M 62.075881 194.417951 
L 63.349044 204.053308 
L 65.895372 212.200948 
L 67.168535 215.187334 
L 68.441699 214.534242 
L 69.714863 211.636616 
L 70.988026 202.614032 
L 72.26119 196.201263 
L 73.534353 181.268439 
L 74.807517 169.413505 
L 76.080681 154.254296 
L 77.353844 144.238148 
L 78.627008 138.940341 
L 81.173335 118.294178 
L 82.446499 107.988712 
L 83.719663 98.65084 
L 84.992826 92.133396 
L 86.26599 92.018343 
L 88.812317 101.407682 
L 90.085481 105.191802 
L 91.358644 113.533433 
L 92.631808 114.602424 
L 93.904972 114.46526 
L 95.178135 109.96925 
L 96.451299 108.693844 
L 97.724463 111.637153 
L 98.997626 117.517215 
L 100.27079 121.375414 
L 102.817117 141.845503 
L 104.090281 148.579579 
L 105.363444 159.744203 
L 106.636608 166.381699 
L 107.909772 168.418141 
L 109.182935 172.577136 
L 110.456099 166.888223 
L 111.729263 159.176873 
L 113.002426 152.239644 
L 114.27559 141.101415 
L 116.821917 110.871761 
L 118.095081 100.429024 
L 119.368244 91.057074 
L 121.914572 67.707359 
L 123.187735 57.575122 
L 124.460899 51.516523 
L 125.734063 47.748292 
L 127.007226 48.733894 
L 128.28039 48.093271 
L 129.553553 50.652469 
L 130.826717 47.752274 
L 132.099881 48.194431 
L 133.373044 46.490573 
L 134.646208 47.024315 
L 135.919372 48.58664 
L 137.192535 54.338728 
L 138.465699 57.40704 
L 139.738863 64.12335 
L 141.012026 69.677516 
L 142.28519 77.075435 
L 143.558353 86.928282 
L 147.377844 109.684003 
L 148.651008 111.001741 
L 149.924172 115.998041 
L 151.197335 122.318153 
L 152.470499 132.739418 
L 153.743663 138.490759 
L 155.016826 141.006082 
L 156.28999 149.883311 
L 157.563153 157.507483 
L 158.836317 163.326245 
L 161.382644 167.731506 
L 162.655808 168.374704 
L 163.928972 168.181124 
L 165.202135 167.25281 
L 166.475299 171.110002 
L 167.748463 170.685084 
L 169.021626 167.805444 
L 170.29479 167.718579 
L 171.567953 164.055598 
L 172.841117 161.106909 
L 174.114281 159.696825 
L 175.387444 161.214677 
L 176.660608 161.629708 
L 177.933772 162.348463 
L 179.206935 162.231508 
L 180.480099 163.725271 
L 181.753263 167.107228 
L 183.026426 173.379332 
L 184.29959 177.358057 
L 185.572753 178.600945 
L 186.845917 185.687967 
L 189.392244 204.767774 
L 190.665408 205.242435 
L 191.938572 201.509967 
L 193.211735 191.520526 
L 194.484899 179.115965 
L 195.758063 168.867068 
L 197.031226 167.573293 
L 198.30439 168.237298 
L 199.577553 176.057901 
L 200.850717 187.546161 
L 202.123881 190.958221 
L 203.397044 191.784906 
L 204.670208 186.540093 
L 205.943372 185.944154 
L 207.216535 184.757294 
L 208.489699 179.022321 
L 209.762863 172.740609 
L 211.036026 165.63898 
L 212.30919 160.058942 
L 213.582353 156.769166 
L 216.128681 158.370072 
L 217.401844 159.314561 
L 218.675008 163.743411 
L 219.948172 173.549023 
L 221.221335 182.067549 
L 222.494499 187.654906 
L 223.767663 189.462305 
L 225.040826 194.643341 
L 226.31399 197.238187 
L 228.860317 213.675094 
L 230.133481 218.365064 
L 231.406644 218.779995 
L 232.679808 216.347262 
L 233.952972 210.825714 
L 236.499299 188.482268 
L 237.772463 174.391072 
L 239.045626 164.810066 
L 241.591953 143.396574 
L 242.865117 138.344995 
L 244.138281 129.727813 
L 246.684608 105.16777 
L 247.957772 92.618502 
L 249.230935 86.42212 
L 250.504099 85.24803 
L 251.777263 92.251309 
L 253.050426 100.260993 
L 254.32359 107.452032 
L 255.596753 116.717384 
L 256.869917 117.340139 
L 258.143081 116.485754 
L 259.416244 111.554103 
L 260.689408 107.395943 
L 261.962572 111.22964 
L 263.235735 120.540657 
L 264.508899 133.463872 
L 265.782063 148.236224 
L 267.055226 167.589772 
L 268.32839 178.171408 
L 269.601553 189.988242 
L 270.874717 196.950169 
L 272.147881 197.632172 
L 273.421044 198.908063 
L 274.694208 195.177275 
L 275.967372 181.481786 
L 277.240535 172.459237 
L 278.513699 159.1531 
L 281.060026 118.499531 
L 282.33319 106.312052 
L 283.606353 96.510538 
L 284.879517 87.584647 
L 287.425844 64.447886 
L 288.699008 58.345148 
L 291.245335 54.497975 
L 292.518499 51.018531 
L 293.791663 49.439178 
L 295.064826 49.619243 
L 296.33799 44.943289 
L 297.611153 44.138979 
L 298.884317 44.344238 
L 300.157481 43.605375 
L 301.430644 44.938208 
L 302.703808 47.280053 
L 303.976972 56.196615 
L 306.523299 69.09194 
L 310.34279 85.243622 
L 311.615953 94.269688 
L 312.889117 95.29657 
L 314.162281 99.148091 
L 315.435444 106.369471 
L 316.708608 114.544943 
L 317.981772 121.106269 
L 319.254935 122.401988 
L 320.528099 129.08909 
L 323.074426 145.206836 
L 325.620753 155.400728 
L 326.893917 157.41117 
L 328.167081 155.867264 
L 329.440244 155.581915 
L 330.713408 154.399576 
L 331.986572 150.936811 
L 334.532899 145.759669 
L 335.806063 144.755488 
L 337.079226 141.483105 
L 338.35239 140.803279 
L 339.625553 142.540013 
L 340.898717 138.548058 
L 342.171881 139.031572 
L 343.445044 132.903153 
L 344.718208 133.908362 
L 345.991372 135.4343 
L 347.264535 148.353914 
L 348.537699 158.598401 
L 351.084026 169.488965 
L 352.35719 176.252433 
L 353.630353 180.449847 
L 354.903517 181.621305 
L 356.176681 177.726655 
L 357.449844 165.718459 
L 358.723008 158.652442 
L 359.996172 156.747275 
L 362.542499 168.09005 
L 363.815663 175.649722 
L 365.088826 185.65539 
L 366.36199 190.544943 
L 367.635153 192.86381 
L 368.908317 187.63932 
L 371.454644 175.891941 
L 372.727808 169.049818 
L 375.274135 156.930798 
L 376.547299 152.284465 
L 379.093626 145.701412 
L 380.36679 146.665227 
L 381.639953 146.885839 
L 382.913127 150.156459 
L 385.459444 174.929573 
L 386.732608 184.205201 
L 388.005772 189.676362 
L 389.278935 192.916417 
L 390.552099 199.215324 
L 391.825263 207.963416 
L 393.098426 215.10225 
L 394.37159 220.292866 
L 395.644753 224.129355 
L 396.917917 220.13437 
L 398.191081 212.024142 
L 399.464244 199.827737 
L 404.556899 145.090263 
L 405.830063 133.539634 
L 407.103226 125.707527 
L 408.37639 120.587275 
L 410.922717 103.28669 
L 412.195881 96.386184 
L 413.469044 92.232066 
L 414.742208 94.11988 
L 416.015372 101.75403 
L 417.288535 105.511125 
L 419.834863 114.343522 
L 421.108026 115.059034 
L 422.38119 112.279106 
L 423.654353 110.282588 
L 424.927517 109.853209 
L 426.200681 115.874257 
L 427.473844 125.986487 
L 428.747008 137.184963 
L 430.020172 150.732984 
L 431.293335 165.678913 
L 432.566499 175.834033 
L 433.839663 182.277862 
L 435.112826 189.801745 
L 436.38599 191.066495 
L 437.659153 191.160551 
L 438.932317 185.459831 
L 440.205481 169.047682 
L 441.478644 156.70456 
L 442.751808 142.753742 
L 445.298135 110.967243 
L 446.571299 97.434286 
L 447.844463 87.868555 
L 449.117626 79.350216 
L 450.39079 67.15898 
L 451.663953 52.733522 
L 452.937117 45.571251 
L 454.210281 39.946781 
L 455.483444 38.251217 
L 456.756608 37.718602 
L 458.029772 36.198846 
L 459.302935 35.439375 
L 460.576099 32.147687 
L 461.849263 31.853947 
L 465.668753 44.408156 
L 466.941917 51.239024 
L 468.215081 61.264064 
L 469.488244 64.210686 
L 470.761408 70.56042 
L 472.034572 74.523195 
L 473.307735 81.973007 
L 474.580899 91.588224 
L 475.854063 104.113425 
L 477.127226 109.700992 
L 478.40039 112.157945 
L 480.946717 124.749638 
L 482.219881 129.712486 
L 483.493044 131.136631 
L 484.766208 135.07474 
L 486.039372 146.135558 
L 487.312535 155.91684 
L 488.585699 158.775977 
L 489.858863 162.139013 
L 492.40519 152.176789 
L 493.678353 148.575705 
L 494.951517 148.409316 
L 496.224681 149.918709 
L 497.497844 147.590884 
L 498.771008 146.855373 
L 500.044172 144.070329 
L 501.317335 138.682147 
L 502.590499 137.136606 
L 503.863663 136.367087 
L 505.136826 136.937541 
L 506.40999 142.90712 
L 507.683153 145.643772 
L 508.956317 149.86126 
L 511.502644 163.092395 
L 512.775808 174.603071 
L 514.048972 181.958768 
L 515.322135 183.587328 
L 516.595299 187.513758 
L 517.868463 186.281695 
L 519.141626 183.204517 
L 520.41479 180.574026 
L 521.687953 171.461557 
L 522.961117 163.239531 
L 524.234281 161.383317 
L 525.507444 163.846927 
L 526.780608 168.99656 
L 528.053772 176.301951 
L 529.326935 187.108591 
L 530.600099 194.334624 
L 531.873263 195.260807 
L 533.146426 188.437424 
L 534.41959 173.677402 
L 536.965917 154.39982 
L 538.239081 151.376434 
L 539.512244 156.717548 
L 539.512244 156.717548 
" clip-path="url(#pcc52780d80)" style="fill: none; stroke: #2ca02c; stroke-width: 1.4; stroke-linecap: square"/>
   </g>
   <g id="line2d_32">
    <path d="M 62.075881 185.368127 
L 63.349044 191.353566 
L 64.622208 202.062787 
L 65.895372 208.705428 
L 67.168535 210.055175 
L 68.441699 207.079669 
L 69.714863 198.480311 
L 72.26119 185.169798 
L 73.534353 180.639781 
L 74.807517 171.324583 
L 77.353844 161.513319 
L 78.627008 162.369132 
L 81.173335 152.31757 
L 83.719663 133.307689 
L 84.992826 127.191313 
L 86.26599 120.341593 
L 87.539153 116.702006 
L 88.812317 117.454894 
L 90.085481 120.188628 
L 91.358644 118.870925 
L 92.631808 119.403128 
L 93.904972 118.563868 
L 95.178135 112.315844 
L 96.451299 108.74785 
L 97.724463 109.897719 
L 98.997626 109.085801 
L 100.27079 117.960281 
L 101.543953 134.527533 
L 102.817117 146.284434 
L 104.090281 156.912631 
L 106.636608 169.693705 
L 107.909772 166.649536 
L 109.182935 165.360274 
L 110.456099 165.012008 
L 111.729263 161.412351 
L 113.002426 158.260446 
L 114.27559 148.663854 
L 115.548753 139.950911 
L 116.821917 126.687354 
L 118.095081 110.592539 
L 119.368244 98.015413 
L 120.641408 88.446372 
L 121.914572 80.027742 
L 123.187735 76.884457 
L 125.734063 65.194508 
L 127.007226 63.941998 
L 128.28039 56.959107 
L 129.553553 51.701385 
L 130.826717 50.118553 
L 132.099881 50.057665 
L 133.373044 48.425324 
L 134.646208 47.741801 
L 135.919372 50.484479 
L 138.465699 60.909225 
L 139.738863 65.077423 
L 141.012026 71.437305 
L 142.28519 75.312267 
L 143.558353 87.574485 
L 144.831517 91.087738 
L 146.104681 98.857148 
L 147.377844 105.211835 
L 148.651008 110.406077 
L 149.924172 114.903904 
L 151.197335 122.691153 
L 152.470499 125.976304 
L 153.743663 129.819334 
L 155.016826 134.870971 
L 156.28999 138.595135 
L 157.563153 141.603631 
L 160.109481 146.184335 
L 162.655808 149.047523 
L 163.928972 148.102634 
L 165.202135 145.591197 
L 166.475299 147.876352 
L 167.748463 148.694182 
L 169.021626 146.110677 
L 170.29479 146.574357 
L 171.567953 146.734686 
L 172.841117 147.104529 
L 174.114281 145.21127 
L 175.387444 142.443128 
L 176.660608 139.194274 
L 177.933772 138.660446 
L 179.206935 134.735818 
L 181.753263 129.747868 
L 183.026426 133.961715 
L 184.29959 139.045201 
L 185.572753 141.256044 
L 186.845917 140.808555 
L 189.392244 158.300421 
L 190.665408 169.211406 
L 191.938572 176.900346 
L 193.211735 177.860228 
L 194.484899 170.669425 
L 195.758063 159.532856 
L 197.031226 149.95949 
L 198.30439 145.971002 
L 199.577553 152.41239 
L 200.850717 163.037853 
L 202.123881 174.705851 
L 203.397044 190.580628 
L 204.670208 203.190462 
L 205.943372 205.900196 
L 207.216535 201.811434 
L 208.489699 193.975766 
L 209.762863 188.998858 
L 212.30919 171.183334 
L 213.582353 168.80044 
L 214.855517 167.788698 
L 216.128681 169.329292 
L 217.401844 175.972679 
L 218.675008 177.915509 
L 219.948172 183.474839 
L 221.221335 183.245026 
L 222.494499 181.632066 
L 223.767663 182.101381 
L 225.040826 190.186777 
L 226.31399 189.90481 
L 227.587153 199.666815 
L 228.860317 214.560676 
L 230.133481 227.037002 
L 231.406644 231.220365 
L 232.679808 225.854242 
L 233.952972 219.797493 
L 236.499299 199.32076 
L 237.772463 192.097368 
L 239.045626 182.892554 
L 240.31879 176.182214 
L 241.591953 171.545865 
L 242.865117 168.83534 
L 244.138281 166.66687 
L 245.411444 160.765159 
L 246.684608 150.095857 
L 249.230935 126.375629 
L 250.504099 115.674594 
L 251.777263 110.758194 
L 253.050426 113.63695 
L 254.32359 122.72378 
L 255.596753 126.77711 
L 256.869917 128.522762 
L 258.143081 125.213404 
L 259.416244 115.870714 
L 260.689408 109.041686 
L 261.962572 107.484831 
L 263.235735 109.310903 
L 264.508899 118.456639 
L 267.055226 157.869531 
L 268.32839 172.426991 
L 269.601553 182.677078 
L 270.874717 187.879317 
L 272.147881 182.629629 
L 273.421044 173.544741 
L 274.694208 172.866301 
L 275.967372 165.078383 
L 277.240535 163.358071 
L 278.513699 153.921802 
L 281.060026 124.649034 
L 282.33319 103.458703 
L 283.606353 91.52486 
L 284.879517 82.237443 
L 287.425844 77.755112 
L 288.699008 76.20407 
L 289.972172 65.325101 
L 291.245335 59.742184 
L 292.518499 51.964365 
L 293.791663 50.146164 
L 295.064826 49.754734 
L 296.33799 51.505849 
L 297.611153 58.185333 
L 298.884317 56.525583 
L 300.157481 57.543355 
L 301.430644 59.396793 
L 302.703808 61.557625 
L 305.250135 69.003167 
L 306.523299 71.086197 
L 307.796463 83.022423 
L 309.069626 84.360319 
L 310.34279 88.121341 
L 311.615953 91.052986 
L 312.889117 97.236506 
L 314.162281 104.172233 
L 315.435444 107.405732 
L 319.254935 116.162438 
L 320.528099 116.951006 
L 321.801263 119.577248 
L 323.074426 119.71648 
L 324.34759 121.233552 
L 325.620753 120.399679 
L 326.893917 121.309321 
L 329.440244 116.782126 
L 330.713408 117.552928 
L 331.986572 121.224934 
L 333.259735 122.207771 
L 334.532899 122.505335 
L 335.806063 121.487879 
L 337.079226 121.356392 
L 338.35239 122.072762 
L 339.625553 124.676753 
L 340.898717 125.466923 
L 342.171881 126.483777 
L 343.445044 125.086622 
L 344.718208 119.670325 
L 345.991372 117.261964 
L 347.264535 120.861574 
L 349.810863 141.254017 
L 351.084026 144.404543 
L 352.35719 149.372508 
L 353.630353 150.380661 
L 354.903517 152.347318 
L 356.176681 151.2671 
L 357.449844 147.270735 
L 358.723008 144.661763 
L 359.996172 139.288587 
L 361.269335 136.871729 
L 362.542499 141.993518 
L 363.815663 150.87865 
L 365.088826 163.515744 
L 367.635153 191.66404 
L 368.908317 203.130686 
L 370.181481 207.110063 
L 371.454644 202.003968 
L 372.727808 192.858491 
L 374.000972 187.958469 
L 375.274135 183.954658 
L 376.547299 175.957643 
L 377.820463 176.894674 
L 379.093626 175.765402 
L 380.36679 174.942193 
L 381.639953 177.815598 
L 382.913127 177.167944 
L 384.186281 180.582797 
L 385.459444 182.119754 
L 388.005772 189.928438 
L 389.278935 199.086906 
L 390.552099 203.979805 
L 393.098426 223.028687 
L 394.37159 234.075243 
L 395.644753 237.117528 
L 396.917917 233.112775 
L 398.191081 226.540429 
L 400.737408 206.737803 
L 402.010572 193.115419 
L 403.283735 183.708056 
L 404.556899 175.409251 
L 405.830063 171.616582 
L 407.103226 167.233454 
L 408.37639 162.156604 
L 409.649553 161.317205 
L 410.922717 154.282763 
L 412.195881 146.181111 
L 413.469044 138.883423 
L 416.015372 126.406479 
L 417.288535 125.56258 
L 418.561699 129.383932 
L 419.834863 126.886311 
L 421.108026 126.195967 
L 422.38119 122.797949 
L 423.654353 117.805574 
L 424.927517 114.891925 
L 426.200681 113.960166 
L 427.473844 118.476768 
L 428.747008 126.810007 
L 430.020172 142.191655 
L 431.293335 152.702808 
L 432.566499 157.741593 
L 433.839663 165.424902 
L 435.112826 171.645671 
L 436.38599 172.903353 
L 437.659153 168.238815 
L 438.932317 164.107 
L 440.205481 155.726457 
L 442.751808 140.939909 
L 444.024972 125.042594 
L 445.298135 117.202261 
L 446.571299 104.289849 
L 447.844463 93.966405 
L 449.117626 87.841287 
L 450.39079 80.398442 
L 451.663953 75.234122 
L 452.937117 75.374565 
L 454.210281 65.485424 
L 455.483444 57.561207 
L 456.756608 51.049969 
L 458.029772 45.297515 
L 459.302935 43.589583 
L 460.576099 47.098221 
L 461.849263 52.140897 
L 463.122426 53.052913 
L 464.39559 55.891303 
L 465.668753 58.014734 
L 468.215081 67.694291 
L 469.488244 74.657449 
L 470.761408 78.429269 
L 472.034572 87.0462 
L 473.307735 92.570513 
L 474.580899 99.113751 
L 475.854063 101.626051 
L 477.127226 106.012305 
L 478.40039 113.894998 
L 480.946717 125.879856 
L 483.493044 133.366727 
L 484.766208 133.359518 
L 486.039372 135.419689 
L 487.312535 136.334957 
L 488.585699 140.032511 
L 489.858863 142.787179 
L 491.132026 144.78639 
L 492.40519 139.748358 
L 493.678353 135.248654 
L 494.951517 136.537576 
L 496.224681 138.194153 
L 497.497844 140.916577 
L 498.771008 143.183068 
L 500.044172 142.534078 
L 501.317335 142.680066 
L 502.590499 141.564275 
L 503.863663 136.604704 
L 505.136826 134.68473 
L 506.40999 133.098959 
L 507.683153 130.95218 
L 508.956317 128.414157 
L 510.229481 126.979738 
L 511.502644 133.654687 
L 512.775808 148.749723 
L 514.048972 158.402434 
L 515.322135 163.61624 
L 516.595299 166.136086 
L 517.868463 162.641147 
L 519.141626 157.558028 
L 520.41479 156.583367 
L 521.687953 157.273072 
L 522.961117 152.133844 
L 524.234281 152.252057 
L 525.507444 149.852566 
L 526.780608 156.308904 
L 528.053772 164.257864 
L 529.326935 175.762692 
L 531.873263 193.526816 
L 533.146426 201.317928 
L 534.41959 199.580806 
L 535.692753 190.265224 
L 538.239081 168.361125 
L 539.512244 166.207408 
L 539.512244 166.207408 
" clip-path="url(#pcc52780d80)" style="fill: none; stroke: #d62728; stroke-width: 1.4; stroke-linecap: square"/>
   </g>
   <g id="line2d_33">
    <path d="M 62.075881 178.073886 
L 63.349044 190.624059 
L 64.622208 201.445408 
L 65.895372 206.18355 
L 67.168535 210.30478 
L 68.441699 209.690522 
L 69.714863 207.69194 
L 70.988026 201.457918 
L 72.26119 193.759782 
L 73.534353 183.1377 
L 76.080681 157.122628 
L 77.353844 140.815882 
L 78.627008 127.46433 
L 79.900172 117.440404 
L 81.173335 109.989356 
L 82.446499 103.237849 
L 83.719663 100.810608 
L 84.992826 100.82093 
L 86.26599 102.199321 
L 87.539153 106.549156 
L 88.812317 113.872686 
L 90.085481 122.640324 
L 92.631808 137.875405 
L 93.904972 141.476686 
L 95.178135 141.941933 
L 96.451299 139.126537 
L 97.724463 140.859695 
L 98.997626 139.901341 
L 100.27079 143.633226 
L 101.543953 148.469944 
L 102.817117 154.172487 
L 104.090281 157.210969 
L 105.363444 158.471606 
L 106.636608 157.287146 
L 107.909772 155.415216 
L 110.456099 137.47951 
L 111.729263 126.646006 
L 113.002426 119.774761 
L 114.27559 110.421766 
L 115.548753 101.907075 
L 116.821917 86.556503 
L 118.095081 73.099573 
L 120.641408 49.883193 
L 121.914572 40.798074 
L 123.187735 39.798053 
L 125.734063 44.537751 
L 127.007226 48.664474 
L 128.28039 50.967493 
L 129.553553 52.76982 
L 130.826717 57.633136 
L 132.099881 61.893564 
L 133.373044 70.02553 
L 134.646208 72.272257 
L 135.919372 78.821556 
L 137.192535 85.988756 
L 138.465699 87.707106 
L 139.738863 91.274051 
L 141.012026 95.289351 
L 142.28519 100.275258 
L 143.558353 106.925655 
L 144.831517 110.682509 
L 146.104681 117.126975 
L 147.377844 120.418023 
L 151.197335 136.105321 
L 152.470499 139.709858 
L 153.743663 141.947745 
L 156.28999 155.200838 
L 157.563153 158.84093 
L 158.836317 163.334633 
L 160.109481 169.563565 
L 161.382644 171.307178 
L 162.655808 169.350021 
L 165.202135 180.605047 
L 166.475299 184.45428 
L 167.748463 189.09811 
L 169.021626 189.48385 
L 170.29479 182.393102 
L 171.567953 179.013875 
L 172.841117 173.981753 
L 174.114281 172.28729 
L 175.387444 174.190083 
L 176.660608 168.546244 
L 177.933772 164.292487 
L 179.206935 159.299858 
L 180.480099 157.550574 
L 181.753263 160.193284 
L 184.29959 175.006798 
L 185.572753 176.077689 
L 186.845917 177.40519 
L 189.392244 188.980315 
L 190.665408 193.23385 
L 191.938572 194.448175 
L 193.211735 189.802111 
L 194.484899 178.295249 
L 195.758063 169.288988 
L 197.031226 163.479507 
L 202.123881 188.904825 
L 204.670208 195.853441 
L 205.943372 195.783485 
L 207.216535 187.324854 
L 208.489699 181.450545 
L 209.762863 176.276636 
L 211.036026 169.414409 
L 212.30919 164.553112 
L 213.582353 163.305841 
L 214.855517 164.704168 
L 216.128681 166.97486 
L 218.675008 169.009294 
L 219.948172 172.0536 
L 221.221335 175.681619 
L 222.494499 176.61425 
L 223.767663 174.017543 
L 225.040826 172.110351 
L 226.31399 179.130516 
L 227.587153 190.369158 
L 228.860317 203.889974 
L 230.133481 212.148129 
L 231.406644 212.165935 
L 232.679808 206.491947 
L 233.952972 197.765598 
L 235.226135 186.945334 
L 236.499299 174.352139 
L 239.045626 151.989424 
L 240.31879 144.638679 
L 241.591953 135.088861 
L 242.865117 128.526377 
L 244.138281 121.341587 
L 245.411444 115.134959 
L 246.684608 102.045484 
L 247.957772 92.168889 
L 249.230935 91.700384 
L 250.504099 92.520088 
L 251.777263 100.50659 
L 254.32359 131.490088 
L 255.596753 138.992072 
L 256.869917 141.855799 
L 258.143081 136.520932 
L 259.416244 135.629672 
L 260.689408 134.145933 
L 261.962572 132.367932 
L 263.235735 136.391801 
L 264.508899 142.984977 
L 265.782063 152.326151 
L 267.055226 160.558502 
L 268.32839 163.460769 
L 269.601553 162.013529 
L 270.874717 157.226028 
L 272.147881 156.61998 
L 273.421044 147.817398 
L 274.694208 141.078148 
L 275.967372 128.642643 
L 277.240535 119.369204 
L 278.513699 105.500951 
L 279.786863 93.933823 
L 282.33319 57.571927 
L 283.606353 47.682002 
L 284.879517 40.499775 
L 286.152681 35.657222 
L 287.425844 35.598485 
L 288.699008 36.767504 
L 289.972172 37.492497 
L 291.245335 40.850805 
L 292.518499 46.827395 
L 293.791663 50.755423 
L 295.064826 55.338566 
L 296.33799 62.543401 
L 297.611153 65.925365 
L 302.703808 77.932449 
L 305.250135 90.334355 
L 306.523299 94.592948 
L 309.069626 102.052863 
L 310.34279 106.769262 
L 311.615953 110.10198 
L 312.889117 114.134899 
L 314.162281 117.356991 
L 315.435444 116.641044 
L 316.708608 118.660151 
L 317.981772 119.888558 
L 319.254935 124.409475 
L 320.528099 129.45745 
L 321.801263 133.893203 
L 323.074426 139.705454 
L 324.34759 147.082374 
L 325.620753 152.739856 
L 326.893917 152.193385 
L 328.167081 154.629943 
L 329.440244 159.28446 
L 330.713408 162.679643 
L 331.986572 167.829585 
L 333.259735 170.623161 
L 334.532899 169.998888 
L 335.806063 164.785602 
L 337.079226 162.325427 
L 338.35239 160.821392 
L 339.625553 158.992269 
L 340.898717 156.486873 
L 342.171881 152.223424 
L 344.718208 143.21123 
L 345.991372 143.524617 
L 348.537699 159.905146 
L 349.810863 164.815032 
L 351.084026 164.705342 
L 352.35719 170.711143 
L 353.630353 173.652538 
L 354.903517 173.610513 
L 356.176681 169.372212 
L 357.449844 163.816192 
L 358.723008 155.162256 
L 361.269335 148.294886 
L 362.542499 154.447501 
L 365.088826 175.331056 
L 366.36199 182.966786 
L 367.635153 186.370803 
L 368.908317 186.144612 
L 370.181481 183.039232 
L 371.454644 173.096757 
L 372.727808 168.369653 
L 374.000972 168.616321 
L 375.274135 170.118497 
L 376.547299 169.794803 
L 377.820463 165.540172 
L 379.093626 162.251088 
L 380.36679 159.382205 
L 381.639953 155.979896 
L 382.913127 153.108784 
L 384.186281 153.101373 
L 385.459444 156.956076 
L 386.732608 162.644356 
L 388.005772 164.41929 
L 389.278935 168.249581 
L 390.552099 174.297867 
L 393.098426 196.708185 
L 394.37159 201.453418 
L 395.644753 202.938459 
L 396.917917 201.320994 
L 398.191081 196.275169 
L 399.464244 188.486365 
L 403.283735 153.787108 
L 404.556899 144.169393 
L 405.830063 132.545864 
L 407.103226 123.493081 
L 409.649553 108.27535 
L 410.922717 101.811909 
L 412.195881 96.96379 
L 413.469044 96.792175 
L 414.742208 99.617456 
L 416.015372 107.304512 
L 417.288535 115.703401 
L 418.561699 126.16239 
L 419.834863 128.628115 
L 421.108026 132.499549 
L 423.654353 127.822866 
L 424.927517 129.580327 
L 426.200681 130.035722 
L 427.473844 132.47714 
L 428.747008 135.41703 
L 431.293335 146.688046 
L 432.566499 146.410482 
L 433.839663 145.448599 
L 435.112826 140.11946 
L 436.38599 137.368121 
L 438.932317 126.689144 
L 442.751808 95.399158 
L 444.024972 81.610982 
L 445.298135 69.066394 
L 446.571299 53.43323 
L 447.844463 43.157651 
L 449.117626 34.697894 
L 450.39079 31.099347 
L 451.663953 31.31008 
L 452.937117 31.657485 
L 455.483444 34.86961 
L 456.756608 38.708901 
L 458.029772 43.399713 
L 459.302935 49.929123 
L 460.576099 58.084273 
L 461.849263 62.884568 
L 463.122426 66.376979 
L 464.39559 67.775338 
L 466.941917 71.586024 
L 468.215081 73.748912 
L 469.488244 79.006844 
L 470.761408 86.254464 
L 472.034572 91.608196 
L 473.307735 97.95397 
L 474.580899 101.803921 
L 475.854063 107.399126 
L 477.127226 111.8518 
L 478.40039 118.928684 
L 479.673553 124.648747 
L 480.946717 126.78683 
L 482.219881 132.866175 
L 483.493044 140.475598 
L 484.766208 149.12933 
L 486.039372 152.720488 
L 487.312535 158.668156 
L 488.585699 165.59107 
L 489.858863 170.052249 
L 491.132026 169.74791 
L 492.40519 171.758499 
L 493.678353 172.736931 
L 494.951517 174.164253 
L 496.224681 178.364427 
L 497.497844 181.836153 
L 498.771008 180.858955 
L 500.044172 175.628872 
L 501.317335 172.767434 
L 502.590499 168.968397 
L 503.863663 168.227797 
L 505.136826 169.718244 
L 506.40999 165.413147 
L 507.683153 164.49578 
L 508.956317 161.87268 
L 510.229481 161.417143 
L 511.502644 170.26675 
L 514.048972 186.136574 
L 515.322135 188.375107 
L 516.595299 190.094405 
L 517.868463 186.714492 
L 519.141626 181.000634 
L 520.41479 173.622998 
L 521.687953 168.948696 
L 522.961117 162.044197 
L 524.234281 162.515537 
L 525.507444 162.700965 
L 526.780608 169.562601 
L 528.053772 179.666162 
L 529.326935 186.685293 
L 530.600099 186.345422 
L 531.873263 183.216747 
L 533.146426 179.144889 
L 534.41959 173.534483 
L 535.692753 163.544339 
L 536.965917 157.836068 
L 538.239081 158.602489 
L 539.512244 157.536007 
L 539.512244 157.536007 
" clip-path="url(#pcc52780d80)" style="fill: none; stroke: #9467bd; stroke-width: 1.4; stroke-linecap: square"/>
   </g>
   <g id="line2d_34">
    <path d="M 62.075881 190.677788 
L 63.349044 192.164065 
L 64.622208 198.437627 
L 65.895372 200.495111 
L 67.168535 203.499605 
L 68.441699 204.019074 
L 69.714863 201.611585 
L 70.988026 197.184508 
L 72.26119 195.850223 
L 73.534353 188.901992 
L 74.807517 179.839361 
L 76.080681 169.751959 
L 77.353844 165.138614 
L 78.627008 154.5987 
L 79.900172 137.553377 
L 82.446499 117.787844 
L 83.719663 110.491223 
L 84.992826 99.677909 
L 86.26599 89.985687 
L 87.539153 91.42949 
L 88.812317 95.229955 
L 90.085481 101.859374 
L 91.358644 107.060194 
L 92.631808 106.700471 
L 93.904972 110.662312 
L 95.178135 109.198002 
L 96.451299 108.41856 
L 97.724463 118.40943 
L 98.997626 125.571185 
L 100.27079 134.888373 
L 101.543953 146.678606 
L 102.817117 156.622375 
L 104.090281 163.088383 
L 105.363444 168.406821 
L 106.636608 169.396266 
L 107.909772 169.256029 
L 109.182935 166.470022 
L 110.456099 166.085062 
L 111.729263 164.023893 
L 113.002426 158.358521 
L 114.27559 147.007122 
L 115.548753 134.114739 
L 116.821917 123.327121 
L 119.368244 104.875319 
L 123.187735 84.158342 
L 124.460899 72.430424 
L 125.734063 70.061137 
L 127.007226 63.601212 
L 128.28039 61.015219 
L 129.553553 61.796976 
L 130.826717 64.57966 
L 132.099881 65.240726 
L 133.373044 62.926208 
L 135.919372 62.939418 
L 138.465699 76.828778 
L 139.738863 84.602664 
L 141.012026 96.321757 
L 142.28519 100.607853 
L 144.831517 114.161123 
L 146.104681 112.975598 
L 147.377844 114.655833 
L 148.651008 119.240376 
L 149.924172 119.994698 
L 151.197335 126.159164 
L 152.470499 131.165195 
L 153.743663 133.110215 
L 155.016826 136.01401 
L 156.28999 137.322312 
L 157.563153 142.917079 
L 158.836317 145.755366 
L 160.109481 151.03771 
L 161.382644 151.760167 
L 165.202135 160.011106 
L 166.475299 156.618172 
L 167.748463 155.470845 
L 169.021626 156.867292 
L 171.567953 161.9244 
L 172.841117 161.4618 
L 174.114281 162.332387 
L 175.387444 163.587384 
L 176.660608 161.436799 
L 177.933772 156.933801 
L 179.206935 151.066161 
L 180.480099 150.636253 
L 181.753263 146.586337 
L 183.026426 149.398074 
L 184.29959 151.677325 
L 185.572753 157.35108 
L 186.845917 156.845067 
L 188.119081 157.283525 
L 189.392244 160.69827 
L 190.665408 163.739956 
L 191.938572 162.55583 
L 193.211735 158.262959 
L 194.484899 155.789136 
L 195.758063 153.804826 
L 197.031226 148.665746 
L 198.30439 148.099583 
L 199.577553 156.757007 
L 200.850717 169.974534 
L 202.123881 177.609662 
L 204.670208 197.112932 
L 205.943372 200.583349 
L 207.216535 202.389534 
L 208.489699 198.664422 
L 209.762863 192.383898 
L 212.30919 172.947486 
L 213.582353 165.223447 
L 214.855517 160.028237 
L 216.128681 159.853378 
L 217.401844 156.391169 
L 218.675008 156.970462 
L 219.948172 165.920413 
L 221.221335 173.990827 
L 222.494499 180.02138 
L 223.767663 183.103114 
L 225.040826 187.709935 
L 226.31399 187.761422 
L 227.587153 187.543117 
L 228.860317 195.662633 
L 230.133481 200.049488 
L 231.406644 205.735987 
L 232.679808 208.412603 
L 233.952972 202.492672 
L 235.226135 197.820357 
L 236.499299 195.404629 
L 237.772463 187.681963 
L 240.31879 160.31135 
L 241.591953 152.582656 
L 242.865117 146.244893 
L 244.138281 135.696198 
L 245.411444 128.974046 
L 246.684608 124.980705 
L 247.957772 118.045249 
L 249.230935 113.53018 
L 250.504099 102.692131 
L 251.777263 102.829979 
L 253.050426 105.879318 
L 255.596753 115.345848 
L 256.869917 113.079432 
L 258.143081 109.643372 
L 259.416244 106.579896 
L 260.689408 102.43514 
L 261.962572 109.499274 
L 263.235735 118.107327 
L 264.508899 128.752263 
L 265.782063 145.249622 
L 267.055226 158.468877 
L 268.32839 170.036475 
L 269.601553 179.343246 
L 270.874717 182.620712 
L 272.147881 180.716095 
L 273.421044 176.415237 
L 274.694208 171.561458 
L 275.967372 170.075832 
L 278.513699 153.21308 
L 282.33319 117.268194 
L 284.879517 96.376984 
L 287.425844 79.861542 
L 288.699008 69.198877 
L 289.972172 65.165181 
L 291.245335 58.551505 
L 292.518499 55.931246 
L 293.791663 51.579078 
L 295.064826 48.721993 
L 296.33799 46.708722 
L 297.611153 46.452938 
L 298.884317 46.78836 
L 300.157481 46.658316 
L 301.430644 50.822885 
L 303.976972 63.205012 
L 305.250135 71.42323 
L 306.523299 77.53126 
L 307.796463 85.699474 
L 309.069626 90.904894 
L 310.34279 95.256357 
L 311.615953 101.185034 
L 312.889117 101.774287 
L 314.162281 102.926482 
L 315.435444 105.098567 
L 316.708608 109.671615 
L 317.981772 113.576884 
L 319.254935 115.40215 
L 320.528099 116.511967 
L 321.801263 124.747688 
L 324.34759 131.989593 
L 325.620753 132.487825 
L 326.893917 133.91194 
L 328.167081 136.7842 
L 329.440244 141.343625 
L 330.713408 140.721027 
L 331.986572 138.358263 
L 333.259735 140.345972 
L 334.532899 141.361251 
L 335.806063 141.743961 
L 337.079226 140.645985 
L 338.35239 138.59303 
L 339.625553 142.207521 
L 342.171881 139.13907 
L 343.445044 129.584946 
L 344.718208 121.549165 
L 345.991372 117.087802 
L 347.264535 125.30076 
L 348.537699 139.567704 
L 349.810863 150.935348 
L 351.084026 158.871628 
L 352.35719 159.795637 
L 353.630353 156.788537 
L 354.903517 153.395176 
L 356.176681 147.942341 
L 357.449844 140.041848 
L 358.723008 137.890249 
L 359.996172 141.420852 
L 361.269335 141.744387 
L 362.542499 146.613177 
L 363.815663 158.183668 
L 365.088826 171.476481 
L 366.36199 181.596179 
L 367.635153 188.247192 
L 368.908317 191.759877 
L 370.181481 190.577214 
L 371.454644 186.731574 
L 372.727808 180.963974 
L 374.000972 171.689513 
L 375.274135 164.116807 
L 376.547299 157.560157 
L 377.820463 154.61508 
L 379.093626 155.736872 
L 380.36679 153.544223 
L 381.639953 153.700195 
L 382.913127 154.282827 
L 384.186281 164.178469 
L 386.732608 180.357484 
L 388.005772 186.817423 
L 390.552099 200.684065 
L 391.825263 206.116143 
L 393.098426 210.161773 
L 394.37159 213.651132 
L 395.644753 213.565356 
L 396.917917 211.633979 
L 398.191081 205.109425 
L 399.464244 196.312347 
L 400.737408 189.246591 
L 402.010572 181.040453 
L 404.556899 161.736345 
L 407.103226 148.442636 
L 409.649553 125.453484 
L 410.922717 123.698048 
L 412.195881 119.447226 
L 413.469044 117.90556 
L 414.742208 113.224473 
L 416.015372 112.772122 
L 417.288535 111.190437 
L 418.561699 113.432627 
L 419.834863 116.278921 
L 421.108026 116.284043 
L 422.38119 119.544026 
L 423.654353 117.272623 
L 424.927517 115.60212 
L 427.473844 121.591799 
L 428.747008 132.713301 
L 430.020172 145.521388 
L 431.293335 156.670816 
L 432.566499 160.639226 
L 433.839663 167.448367 
L 435.112826 169.264948 
L 436.38599 167.649832 
L 438.932317 157.108785 
L 440.205481 152.875165 
L 441.478644 143.485796 
L 442.751808 131.58903 
L 444.024972 122.885519 
L 445.298135 111.660445 
L 446.571299 102.015758 
L 447.844463 90.987287 
L 451.663953 66.569161 
L 452.937117 57.933128 
L 454.210281 55.389412 
L 455.483444 54.257168 
L 456.756608 55.904422 
L 458.029772 54.013999 
L 459.302935 50.782649 
L 461.849263 48.934503 
L 463.122426 47.367243 
L 464.39559 48.842214 
L 465.668753 58.137335 
L 466.941917 66.261556 
L 468.215081 79.470121 
L 469.488244 91.334276 
L 470.761408 96.79678 
L 472.034572 103.305825 
L 473.307735 108.06501 
L 474.580899 111.978012 
L 475.854063 115.162819 
L 478.40039 125.205863 
L 479.673553 126.595168 
L 482.219881 138.743805 
L 483.493044 141.248434 
L 484.766208 140.078339 
L 486.039372 146.252841 
L 488.585699 154.92725 
L 489.858863 153.588399 
L 491.132026 153.837556 
L 492.40519 151.89477 
L 493.678353 153.746432 
L 494.951517 159.598576 
L 496.224681 158.599532 
L 497.497844 159.598789 
L 498.771008 159.759535 
L 500.044172 161.180323 
L 501.317335 156.595058 
L 502.590499 155.055965 
L 503.863663 157.931829 
L 505.136826 158.357221 
L 506.40999 162.203733 
L 507.683153 159.871846 
L 508.956317 152.326159 
L 510.229481 148.645906 
L 511.502644 151.21219 
L 512.775808 160.12468 
L 514.048972 167.100783 
L 515.322135 176.01689 
L 516.595299 177.140333 
L 517.868463 174.940445 
L 519.141626 170.551101 
L 520.41479 161.39863 
L 521.687953 153.180434 
L 522.961117 148.873255 
L 524.234281 149.223511 
L 525.507444 150.065258 
L 526.780608 150.29809 
L 529.326935 173.131925 
L 531.873263 180.956229 
L 533.146426 182.108933 
L 535.692753 167.204782 
L 536.965917 161.869707 
L 538.239081 152.60643 
L 539.512244 142.450117 
L 539.512244 142.450117 
" clip-path="url(#pcc52780d80)" style="fill: none; stroke: #8c564b; stroke-width: 1.4; stroke-linecap: square"/>
   </g>
   <g id="line2d_35">
    <path d="M 62.075881 157.131807 
L 63.349044 167.727739 
L 64.622208 180.161329 
L 65.895372 189.571608 
L 67.168535 196.261208 
L 68.441699 196.110251 
L 69.714863 193.230051 
L 70.988026 191.700481 
L 72.26119 186.064608 
L 73.534353 182.846657 
L 74.807517 171.904423 
L 77.353844 144.877406 
L 78.627008 134.612735 
L 79.900172 127.026207 
L 82.446499 110.046381 
L 83.719663 103.775689 
L 84.992826 99.732582 
L 86.26599 102.821559 
L 87.539153 107.1884 
L 88.812317 116.570255 
L 90.085481 121.861263 
L 91.358644 126.558811 
L 92.631808 127.143716 
L 93.904972 123.116259 
L 95.178135 121.168078 
L 96.451299 116.882446 
L 97.724463 115.722315 
L 100.27079 125.621938 
L 101.543953 131.042036 
L 104.090281 149.195031 
L 105.363444 159.116607 
L 106.636608 168.107028 
L 107.909772 172.583975 
L 109.182935 177.716818 
L 110.456099 175.423185 
L 111.729263 170.872871 
L 113.002426 161.10839 
L 114.27559 152.801174 
L 115.548753 141.41254 
L 116.821917 127.637178 
L 118.095081 119.887645 
L 119.368244 112.872436 
L 121.914572 96.371687 
L 123.187735 90.94772 
L 124.460899 86.607289 
L 125.734063 85.630186 
L 128.28039 80.477315 
L 129.553553 79.92335 
L 130.826717 77.157832 
L 132.099881 73.080138 
L 133.373044 73.380359 
L 134.646208 73.425771 
L 135.919372 76.622164 
L 138.465699 91.570931 
L 139.738863 93.664274 
L 141.012026 98.759068 
L 142.28519 100.227127 
L 143.558353 103.596 
L 144.831517 111.947085 
L 146.104681 115.784947 
L 147.377844 124.445983 
L 148.651008 129.638204 
L 149.924172 136.144042 
L 151.197335 136.408634 
L 152.470499 136.410554 
L 155.016826 148.788612 
L 156.28999 155.897938 
L 157.563153 165.175643 
L 158.836317 172.57398 
L 160.109481 171.986306 
L 161.382644 169.305565 
L 162.655808 167.942544 
L 163.928972 169.348748 
L 165.202135 168.902804 
L 166.475299 169.20535 
L 167.748463 168.184411 
L 169.021626 174.093768 
L 170.29479 169.935651 
L 172.841117 164.071356 
L 174.114281 163.870802 
L 175.387444 164.046134 
L 176.660608 165.10931 
L 177.933772 160.886794 
L 179.206935 153.083167 
L 180.480099 147.153919 
L 181.753263 146.165965 
L 183.026426 150.662671 
L 184.29959 153.962056 
L 185.572753 153.216554 
L 186.845917 153.569273 
L 188.119081 150.942079 
L 189.392244 154.223535 
L 190.665408 158.488908 
L 191.938572 154.266519 
L 193.211735 154.38969 
L 194.484899 152.114561 
L 195.758063 146.601842 
L 197.031226 141.837206 
L 198.30439 143.84383 
L 199.577553 155.434458 
L 200.850717 170.136539 
L 202.123881 178.921325 
L 203.397044 188.56191 
L 204.670208 190.585879 
L 205.943372 191.431532 
L 208.489699 183.506725 
L 212.30919 148.745977 
L 213.582353 139.840506 
L 214.855517 137.034588 
L 216.128681 141.763318 
L 217.401844 144.355444 
L 218.675008 151.505197 
L 219.948172 157.06181 
L 221.221335 156.93343 
L 223.767663 155.244878 
L 225.040826 154.779677 
L 226.31399 161.558349 
L 227.587153 171.277695 
L 228.860317 186.071593 
L 230.133481 196.366044 
L 231.406644 200.9901 
L 232.679808 200.753065 
L 235.226135 193.500904 
L 236.499299 184.890711 
L 237.772463 182.012827 
L 239.045626 171.34368 
L 240.31879 162.454049 
L 241.591953 149.525669 
L 244.138281 127.767387 
L 245.411444 115.409574 
L 246.684608 100.603665 
L 247.957772 88.004879 
L 249.230935 79.90332 
L 250.504099 87.559055 
L 251.777263 101.586457 
L 253.050426 122.586555 
L 254.32359 132.809126 
L 255.596753 133.770602 
L 256.869917 127.414427 
L 258.143081 118.674785 
L 259.416244 109.006198 
L 260.689408 104.695258 
L 261.962572 104.210726 
L 263.235735 114.405962 
L 265.782063 143.310851 
L 267.055226 154.311199 
L 268.32839 162.451886 
L 269.601553 167.945434 
L 270.874717 175.630124 
L 272.147881 178.137347 
L 273.421044 187.10909 
L 274.694208 186.138359 
L 275.967372 179.611453 
L 277.240535 170.351971 
L 278.513699 157.75256 
L 281.060026 123.750942 
L 282.33319 113.85588 
L 283.606353 100.557385 
L 284.879517 91.345445 
L 286.152681 81.12582 
L 287.425844 74.232439 
L 288.699008 69.236201 
L 289.972172 64.789844 
L 291.245335 61.822674 
L 292.518499 62.765382 
L 293.791663 63.135408 
L 295.064826 60.635589 
L 296.33799 57.046645 
L 297.611153 53.817556 
L 298.884317 53.935387 
L 300.157481 55.420758 
L 302.703808 69.469749 
L 303.976972 79.430636 
L 306.523299 89.55717 
L 307.796463 92.910095 
L 309.069626 99.013557 
L 311.615953 106.77375 
L 312.889117 113.812921 
L 314.162281 120.003124 
L 315.435444 123.523881 
L 316.708608 128.682842 
L 317.981772 133.182058 
L 319.254935 135.87842 
L 320.528099 137.107601 
L 321.801263 142.86127 
L 323.074426 150.597772 
L 324.34759 153.046826 
L 325.620753 150.522317 
L 328.167081 151.144853 
L 329.440244 152.175684 
L 330.713408 149.257935 
L 331.986572 146.684321 
L 333.259735 150.482201 
L 334.532899 149.034857 
L 335.806063 143.295454 
L 337.079226 139.971666 
L 338.35239 135.518143 
L 339.625553 139.420004 
L 340.898717 142.581308 
L 342.171881 147.772779 
L 343.445044 140.97882 
L 344.718208 136.301155 
L 345.991372 134.037202 
L 347.264535 137.536543 
L 348.537699 145.279022 
L 349.810863 151.857895 
L 351.084026 152.233513 
L 352.35719 149.743207 
L 353.630353 150.340312 
L 354.903517 152.684195 
L 356.176681 147.267757 
L 357.449844 148.168455 
L 358.723008 149.54648 
L 359.996172 146.082809 
L 361.269335 148.315948 
L 362.542499 155.047577 
L 363.815663 162.616452 
L 365.088826 171.459758 
L 366.36199 181.154187 
L 367.635153 186.109123 
L 368.908317 184.883661 
L 370.181481 180.784577 
L 372.727808 163.513315 
L 374.000972 157.152728 
L 375.274135 153.823023 
L 376.547299 146.583812 
L 377.820463 144.270296 
L 379.093626 142.902085 
L 380.36679 149.334443 
L 381.639953 151.610364 
L 382.913127 149.485601 
L 384.186281 153.130184 
L 385.459444 151.507359 
L 386.732608 155.125849 
L 388.005772 159.917407 
L 389.278935 165.617045 
L 390.552099 176.018677 
L 391.825263 184.23977 
L 393.098426 194.110822 
L 394.37159 199.962189 
L 395.644753 196.635355 
L 396.917917 196.461959 
L 399.464244 180.074872 
L 402.010572 161.507222 
L 403.283735 149.113156 
L 405.830063 128.052172 
L 407.103226 122.268976 
L 409.649553 112.235467 
L 413.469044 87.18089 
L 414.742208 83.045415 
L 416.015372 90.036757 
L 417.288535 99.031688 
L 418.561699 105.849787 
L 419.834863 106.113531 
L 421.108026 101.517489 
L 422.38119 94.583276 
L 423.654353 90.338036 
L 424.927517 89.492638 
L 426.200681 89.777553 
L 428.747008 111.104501 
L 431.293335 134.027843 
L 432.566499 144.50541 
L 433.839663 149.340389 
L 435.112826 157.714657 
L 436.38599 158.586997 
L 437.659153 166.39675 
L 438.932317 160.49421 
L 440.205481 151.42809 
L 441.478644 140.486862 
L 442.751808 131.27651 
L 445.298135 102.128202 
L 446.571299 93.874349 
L 447.844463 86.37516 
L 449.117626 81.980152 
L 450.39079 75.977517 
L 451.663953 70.804926 
L 452.937117 67.313407 
L 454.210281 67.387341 
L 455.483444 62.633878 
L 456.756608 60.22767 
L 458.029772 56.355917 
L 459.302935 49.737935 
L 460.576099 48.25001 
L 461.849263 50.281078 
L 463.122426 53.032123 
L 464.39559 60.681472 
L 465.668753 69.813922 
L 468.215081 92.472859 
L 469.488244 100.704184 
L 470.761408 104.438987 
L 474.580899 124.619943 
L 475.854063 129.288702 
L 477.127226 138.372113 
L 478.40039 146.060473 
L 479.673553 151.988065 
L 482.219881 173.380907 
L 483.493044 177.405662 
L 484.766208 180.04413 
L 486.039372 181.169324 
L 488.585699 185.88658 
L 489.858863 184.043748 
L 491.132026 180.428022 
L 492.40519 179.928025 
L 493.678353 179.885803 
L 496.224681 174.079652 
L 497.497844 173.948953 
L 498.771008 173.001334 
L 500.044172 169.676878 
L 501.317335 165.683765 
L 502.590499 162.358187 
L 503.863663 161.82554 
L 505.136826 164.426934 
L 506.40999 164.805465 
L 507.683153 163.754601 
L 508.956317 154.96218 
L 510.229481 152.510565 
L 511.502644 151.765708 
L 512.775808 157.847866 
L 514.048972 167.984264 
L 515.322135 170.588831 
L 516.595299 171.947774 
L 517.868463 170.371645 
L 519.141626 167.257673 
L 520.41479 152.895875 
L 521.687953 146.734653 
L 522.961117 143.947881 
L 524.234281 144.379512 
L 525.507444 146.093881 
L 526.780608 153.29572 
L 529.326935 174.463012 
L 530.600099 182.847252 
L 531.873263 185.390465 
L 533.146426 177.780183 
L 534.41959 168.645058 
L 535.692753 153.697997 
L 536.965917 143.181289 
L 538.239081 139.209478 
L 539.512244 139.869396 
L 539.512244 139.869396 
" clip-path="url(#pcc52780d80)" style="fill: none; stroke: #e377c2; stroke-width: 1.4; stroke-linecap: square"/>
   </g>
   <g id="line2d_36">
    <path d="M 221.221335 247.418437 
L 221.221335 20.798437 
" clip-path="url(#pcc52780d80)" style="fill: none; stroke-dasharray: 2.96,1.28; stroke-dashoffset: 0; stroke: #000000; stroke-width: 0.8"/>
   </g>
   <g id="line2d_37">
    <path d="M 38.204063 138.054733 
L 563.384063 138.054733 
" clip-path="url(#pcc52780d80)" style="fill: none; stroke: #808080; stroke-opacity: 0.3; stroke-width: 0.5; stroke-linecap: square"/>
   </g>
   <g id="patch_3">
    <path d="M 38.204063 247.418437 
L 38.204063 20.798437 
" style="fill: none; stroke: #000000; stroke-width: 0.8; stroke-linejoin: miter; stroke-linecap: square"/>
   </g>
   <g id="patch_4">
    <path d="M 38.204063 247.418437 
L 563.384063 247.418437 
" style="fill: none; stroke: #000000; stroke-width: 0.8; stroke-linejoin: miter; stroke-linecap: square"/>
   </g>
   <g id="text_17">
    <text style="font-weight: 700; font-size: 10px; font-family: 'Arial', 'Helvetica', 'DejaVu Sans', sans-serif; text-anchor: middle" x="300.794063" y="14.798437" transform="rotate(-0 300.794063 14.798437)">Per-Superclass HINT ERP — channel mean</text>
   </g>
   <g id="legend_1">
    <g id="line2d_38">
     <path d="M 371.614688 29.967344 
L 378.614688 29.967344 
L 385.614688 29.967344 
" style="fill: none; stroke: #1f77b4; stroke-width: 1.4; stroke-linecap: square"/>
    </g>
    <g id="text_18">
     <text style="font-size: 7px; font-family: 'Arial', 'Helvetica', 'DejaVu Sans', sans-serif; text-anchor: start" x="391.214688" y="32.417344" transform="rotate(-0 391.214688 32.417344)">Animal (n=1417)</text>
    </g>
    <g id="line2d_39">
     <path d="M 371.614688 40.242031 
L 378.614688 40.242031 
L 385.614688 40.242031 
" style="fill: none; stroke: #ff7f0e; stroke-width: 1.4; stroke-linecap: square"/>
    </g>
    <g id="text_19">
     <text style="font-size: 7px; font-family: 'Arial', 'Helvetica', 'DejaVu Sans', sans-serif; text-anchor: start" x="391.214688" y="42.692031" transform="rotate(-0 391.214688 42.692031)">Food (n=969)</text>
    </g>
    <g id="line2d_40">
     <path d="M 371.614688 50.516719 
L 378.614688 50.516719 
L 385.614688 50.516719 
" style="fill: none; stroke: #2ca02c; stroke-width: 1.4; stroke-linecap: square"/>
    </g>
    <g id="text_20">
     <text style="font-size: 7px; font-family: 'Arial', 'Helvetica', 'DejaVu Sans', sans-serif; text-anchor: start" x="391.214688" y="52.966719" transform="rotate(-0 391.214688 52.966719)">Vehicle (n=789)</text>
    </g>
    <g id="line2d_41">
     <path d="M 371.614688 60.791406 
L 378.614688 60.791406 
L 385.614688 60.791406 
" style="fill: none; stroke: #d62728; stroke-width: 1.4; stroke-linecap: square"/>
    </g>
    <g id="text_21">
     <text style="font-size: 7px; font-family: 'Arial', 'Helvetica', 'DejaVu Sans', sans-serif; text-anchor: start" x="391.214688" y="63.241406" transform="rotate(-0 391.214688 63.241406)">Furniture (n=804)</text>
    </g>
    <g id="line2d_42">
     <path d="M 467.986094 29.967344 
L 474.986094 29.967344 
L 481.986094 29.967344 
" style="fill: none; stroke: #9467bd; stroke-width: 1.4; stroke-linecap: square"/>
    </g>
    <g id="text_22">
     <text style="font-size: 7px; font-family: 'Arial', 'Helvetica', 'DejaVu Sans', sans-serif; text-anchor: start" x="487.586094" y="32.417344" transform="rotate(-0 487.586094 32.417344)">Kitchen (n=984)</text>
    </g>
    <g id="line2d_43">
     <path d="M 467.986094 40.242031 
L 474.986094 40.242031 
L 481.986094 40.242031 
" style="fill: none; stroke: #8c564b; stroke-width: 1.4; stroke-linecap: square"/>
    </g>
    <g id="text_23">
     <text style="font-size: 7px; font-family: 'Arial', 'Helvetica', 'DejaVu Sans', sans-serif; text-anchor: start" x="487.586094" y="42.692031" transform="rotate(-0 487.586094 42.692031)">Wearable (n=583)</text>
    </g>
    <g id="line2d_44">
     <path d="M 467.986094 50.516719 
L 474.986094 50.516719 
L 481.986094 50.516719 
" style="fill: none; stroke: #e377c2; stroke-width: 1.4; stroke-linecap: square"/>
    </g>
    <g id="text_24">
     <text style="font-size: 7px; font-family: 'Arial', 'Helvetica', 'DejaVu Sans', sans-serif; text-anchor: start" x="487.586094" y="52.966719" transform="rotate(-0 487.586094 52.966719)">Electronics (n=719)</text>
    </g>
   </g>
  </g>
 </g>
 <defs>
  <clipPath id="pcc52780d80">
   <rect x="38.204063" y="20.798437" width="525.18" height="226.62"/>
  </clipPath>
 </defs>
</svg>
