<?xml version="1.0" encoding="utf-8" standalone="no"?>
<!DOCTYPE svg PUBLIC "-//W3C//DTD SVG 1.1//EN"
  "http://www.w3.org/Graphics/SVG/1.1/DTD/svg11.dtd">
<svg xmlns:xlink="http://www.w3.org/1999/xlink" width="534.584062pt" height="245.57125pt" viewBox="0 0 534.584062 245.57125" xmlns="http://www.w3.org/2000/svg" version="1.1">
 <metadata>
  <rdf:RDF xmlns:dc="http://purl.org/dc/elements/1.1/" xmlns:cc="http://creativecommons.org/ns#" xmlns:rdf="http://www.w3.org/1999/02/22-rdf-syntax-ns#">
   <cc:Work>
    <dc:type rdf:resource="http://purl.org/dc/dcmitype/StillImage"/>
    <dc:date>2026-05-12T16:40:07.875610</dc:date>
    <dc:format>image/svg+xml</dc:format>
    <dc:creator>
     <cc:Agent>
      <dc:title>Matplotlib v3.10.8, https://matplotlib.org/</dc:title>
     </cc:Agent>
    </dc:creator>
   </cc:Work>
  </rdf:RDF>
 </metadata>
 <defs>
  <style type="text/css">*{stroke-linejoin: round; stroke-linecap: butt}</style>
 </defs>
 <g id="figure_1">
  <g id="patch_1">
   <path d="M 0 245.57125 
L 534.584062 245.57125 
L 534.584062 0 
L 0 0 
z
" style="fill: #ffffff"/>
  </g>
  <g id="axes_1">
   <g id="patch_2">
    <path d="M 38.204063 211.418437 
L 527.384063 211.418437 
L 527.384063 20.798437 
L 38.204063 20.798437 
z
" style="fill: #ffffff"/>
   </g>
   <g id="matplotlib.axis_1">
    <g id="xtick_1">
     <g id="line2d_1">
      <path d="M 90.08679 211.418437 
L 90.08679 20.798437 
" clip-path="url(#p329d6316ef)" style="fill: none; stroke: #b0b0b0; stroke-opacity: 0.15; stroke-width: 0.8; stroke-linecap: square"/>
     </g>
     <g id="line2d_2">
      <defs>
       <path id="m62a12b3263" d="M 0 0 
L 0 3 
" style="stroke: #000000; stroke-width: 0.8"/>
      </defs>
      <g>
       <use xlink:href="#m62a12b3263" x="90.08679" y="211.418437" style="stroke: #000000; stroke-width: 0.8"/>
      </g>
     </g>
     <g id="text_1">
      <text style="font-size: 8px; font-family: 'Arial', 'Helvetica', 'DejaVu Sans', sans-serif; text-anchor: middle" x="90.08679" y="223.997187" transform="rotate(-0 90.08679 223.997187)">−400</text>
     </g>
    </g>
    <g id="xtick_2">
     <g id="line2d_3">
      <path d="M 149.381335 211.418437 
L 149.381335 20.798437 
" clip-path="url(#p329d6316ef)" style="fill: none; stroke: #b0b0b0; stroke-opacity: 0.15; stroke-width: 0.8; stroke-linecap: square"/>
     </g>
     <g id="line2d_4">
      <g>
       <use xlink:href="#m62a12b3263" x="149.381335" y="211.418437" style="stroke: #000000; stroke-width: 0.8"/>
      </g>
     </g>
     <g id="text_2">
      <text style="font-size: 8px; font-family: 'Arial', 'Helvetica', 'DejaVu Sans', sans-serif; text-anchor: middle" x="149.381335" y="223.997187" transform="rotate(-0 149.381335 223.997187)">−200</text>
     </g>
    </g>
    <g id="xtick_3">
     <g id="line2d_5">
      <path d="M 208.675881 211.418437 
L 208.675881 20.798437 
" clip-path="url(#p329d6316ef)" style="fill: none; stroke: #b0b0b0; stroke-opacity: 0.15; stroke-width: 0.8; stroke-linecap: square"/>
     </g>
     <g id="line2d_6">
      <g>
       <use xlink:href="#m62a12b3263" x="208.675881" y="211.418437" style="stroke: #000000; stroke-width: 0.8"/>
      </g>
     </g>
     <g id="text_3">
      <text style="font-size: 8px; font-family: 'Arial', 'Helvetica', 'DejaVu Sans', sans-serif; text-anchor: middle" x="208.675881" y="223.997187" transform="rotate(-0 208.675881 223.997187)">0</text>
     </g>
    </g>
    <g id="xtick_4">
     <g id="line2d_7">
      <path d="M 267.970426 211.418437 
L 267.970426 20.798437 
" clip-path="url(#p329d6316ef)" style="fill: none; stroke: #b0b0b0; stroke-opacity: 0.15; stroke-width: 0.8; stroke-linecap: square"/>
     </g>
     <g id="line2d_8">
      <g>
       <use xlink:href="#m62a12b3263" x="267.970426" y="211.418437" style="stroke: #000000; stroke-width: 0.8"/>
      </g>
     </g>
     <g id="text_4">
      <text style="font-size: 8px; font-family: 'Arial', 'Helvetica', 'DejaVu Sans', sans-serif; text-anchor: middle" x="267.970426" y="223.997187" transform="rotate(-0 267.970426 223.997187)">200</text>
     </g>
    </g>
    <g id="xtick_5">
     <g id="line2d_9">
      <path d="M 327.264972 211.418437 
L 327.264972 20.798437 
" clip-path="url(#p329d6316ef)" style="fill: none; stroke: #b0b0b0; stroke-opacity: 0.15; stroke-width: 0.8; stroke-linecap: square"/>
     </g>
     <g id="line2d_10">
      <g>
       <use xlink:href="#m62a12b3263" x="327.264972" y="211.418437" style="stroke: #000000; stroke-width: 0.8"/>
      </g>
     </g>
     <g id="text_5">
      <text style="font-size: 8px; font-family: 'Arial', 'Helvetica', 'DejaVu Sans', sans-serif; text-anchor: middle" x="327.264972" y="223.997187" transform="rotate(-0 327.264972 223.997187)">400</text>
     </g>
    </g>
    <g id="xtick_6">
     <g id="line2d_11">
      <path d="M 386.559517 211.418437 
L 386.559517 20.798437 
" clip-path="url(#p329d6316ef)" style="fill: none; stroke: #b0b0b0; stroke-opacity: 0.15; stroke-width: 0.8; stroke-linecap: square"/>
     </g>
     <g id="line2d_12">
      <g>
       <use xlink:href="#m62a12b3263" x="386.559517" y="211.418437" style="stroke: #000000; stroke-width: 0.8"/>
      </g>
     </g>
     <g id="text_6">
      <text style="font-size: 8px; font-family: 'Arial', 'Helvetica', 'DejaVu Sans', sans-serif; text-anchor: middle" x="386.559517" y="223.997187" transform="rotate(-0 386.559517 223.997187)">600</text>
     </g>
    </g>
    <g id="xtick_7">
     <g id="line2d_13">
      <path d="M 445.854063 211.418437 
L 445.854063 20.798437 
" clip-path="url(#p329d6316ef)" style="fill: none; stroke: #b0b0b0; stroke-opacity: 0.15; stroke-width: 0.8; stroke-linecap: square"/>
     </g>
     <g id="line2d_14">
      <g>
       <use xlink:href="#m62a12b3263" x="445.854063" y="211.418437" style="stroke: #000000; stroke-width: 0.8"/>
      </g>
     </g>
     <g id="text_7">
      <text style="font-size: 8px; font-family: 'Arial', 'Helvetica', 'DejaVu Sans', sans-serif; text-anchor: middle" x="445.854063" y="223.997187" transform="rotate(-0 445.854063 223.997187)">800</text>
     </g>
    </g>
    <g id="xtick_8">
     <g id="line2d_15">
      <path d="M 505.148608 211.418437 
L 505.148608 20.798437 
" clip-path="url(#p329d6316ef)" style="fill: none; stroke: #b0b0b0; stroke-opacity: 0.15; stroke-width: 0.8; stroke-linecap: square"/>
     </g>
     <g id="line2d_16">
      <g>
       <use xlink:href="#m62a12b3263" x="505.148608" y="211.418437" style="stroke: #000000; stroke-width: 0.8"/>
      </g>
     </g>
     <g id="text_8">
      <text style="font-size: 8px; font-family: 'Arial', 'Helvetica', 'DejaVu Sans', sans-serif; text-anchor: middle" x="505.148608" y="223.997187" transform="rotate(-0 505.148608 223.997187)">1000</text>
     </g>
    </g>
    <g id="text_9">
     <text style="font-size: 9px; font-family: 'Arial', 'Helvetica', 'DejaVu Sans', sans-serif; text-anchor: middle" x="282.794062" y="236.499531" transform="rotate(-0 282.794062 236.499531)">Time (ms)</text>
    </g>
   </g>
   <g id="matplotlib.axis_2">
    <g id="ytick_1">
     <g id="line2d_17">
      <path d="M 38.204063 194.383332 
L 527.384063 194.383332 
" clip-path="url(#p329d6316ef)" style="fill: none; stroke: #b0b0b0; stroke-opacity: 0.15; stroke-width: 0.8; stroke-linecap: square"/>
     </g>
     <g id="line2d_18">
      <defs>
       <path id="mbc0b0e50a1" d="M 0 0 
L -3 0 
" style="stroke: #000000; stroke-width: 0.8"/>
      </defs>
      <g>
       <use xlink:href="#mbc0b0e50a1" x="38.204063" y="194.383332" style="stroke: #000000; stroke-width: 0.8"/>
      </g>
     </g>
     <g id="text_10">
      <text style="font-size: 8px; font-family: 'Arial', 'Helvetica', 'DejaVu Sans', sans-serif; text-anchor: end" x="31.704063" y="197.422707" transform="rotate(-0 31.704063 197.422707)">−4</text>
     </g>
    </g>
    <g id="ytick_2">
     <g id="line2d_19">
      <path d="M 38.204063 157.306275 
L 527.384063 157.306275 
" clip-path="url(#p329d6316ef)" style="fill: none; stroke: #b0b0b0; stroke-opacity: 0.15; stroke-width: 0.8; stroke-linecap: square"/>
     </g>
     <g id="line2d_20">
      <g>
       <use xlink:href="#mbc0b0e50a1" x="38.204063" y="157.306275" style="stroke: #000000; stroke-width: 0.8"/>
      </g>
     </g>
     <g id="text_11">
      <text style="font-size: 8px; font-family: 'Arial', 'Helvetica', 'DejaVu Sans', sans-serif; text-anchor: end" x="31.704063" y="160.34565" transform="rotate(-0 31.704063 160.34565)">−2</text>
     </g>
    </g>
    <g id="ytick_3">
     <g id="line2d_21">
      <path d="M 38.204063 120.229217 
L 527.384063 120.229217 
" clip-path="url(#p329d6316ef)" style="fill: none; stroke: #b0b0b0; stroke-opacity: 0.15; stroke-width: 0.8; stroke-linecap: square"/>
     </g>
     <g id="line2d_22">
      <g>
       <use xlink:href="#mbc0b0e50a1" x="38.204063" y="120.229217" style="stroke: #000000; stroke-width: 0.8"/>
      </g>
     </g>
     <g id="text_12">
      <text style="font-size: 8px; font-family: 'Arial', 'Helvetica', 'DejaVu Sans', sans-serif; text-anchor: end" x="31.704063" y="123.268592" transform="rotate(-0 31.704063 123.268592)">0</text>
     </g>
    </g>
    <g id="ytick_4">
     <g id="line2d_23">
      <path d="M 38.204063 83.15216 
L 527.384063 83.15216 
" clip-path="url(#p329d6316ef)" style="fill: none; stroke: #b0b0b0; stroke-opacity: 0.15; stroke-width: 0.8; stroke-linecap: square"/>
     </g>
     <g id="line2d_24">
      <g>
       <use xlink:href="#mbc0b0e50a1" x="38.204063" y="83.15216" style="stroke: #000000; stroke-width: 0.8"/>
      </g>
     </g>
     <g id="text_13">
      <text style="font-size: 8px; font-family: 'Arial', 'Helvetica', 'DejaVu Sans', sans-serif; text-anchor: end" x="31.704063" y="86.191535" transform="rotate(-0 31.704063 86.191535)">2</text>
     </g>
    </g>
    <g id="ytick_5">
     <g id="line2d_25">
      <path d="M 38.204063 46.075103 
L 527.384063 46.075103 
" clip-path="url(#p329d6316ef)" style="fill: none; stroke: #b0b0b0; stroke-opacity: 0.15; stroke-width: 0.8; stroke-linecap: square"/>
     </g>
     <g id="line2d_26">
      <g>
       <use xlink:href="#mbc0b0e50a1" x="38.204063" y="46.075103" style="stroke: #000000; stroke-width: 0.8"/>
      </g>
     </g>
     <g id="text_14">
      <text style="font-size: 8px; font-family: 'Arial', 'Helvetica', 'DejaVu Sans', sans-serif; text-anchor: end" x="31.704063" y="49.114478" transform="rotate(-0 31.704063 49.114478)">4</text>
     </g>
    </g>
    <g id="text_15">
     <text style="font-size: 9px; font-family: 'Arial', 'Helvetica', 'DejaVu Sans', sans-serif; text-anchor: middle" x="14.038594" y="116.108437" transform="rotate(-90 14.038594 116.108437)">µV</text>
    </g>
   </g>
   <g id="line2d_27">
    <path d="M 60.439517 163.024621 
L 61.625408 170.360723 
L 62.811299 179.418529 
L 63.99719 186.44372 
L 65.183081 188.530713 
L 66.368972 185.177237 
L 67.554863 180.1316 
L 68.740753 173.035226 
L 69.926644 164.974579 
L 71.112535 154.874447 
L 72.298426 143.193148 
L 73.484317 133.372531 
L 75.856099 117.219373 
L 79.413772 93.150344 
L 80.599663 86.258856 
L 81.785553 81.510315 
L 82.971444 80.728748 
L 84.157335 82.593742 
L 85.343226 88.723943 
L 86.529117 92.599362 
L 87.715008 97.806386 
L 88.900899 99.93843 
L 90.08679 100.361905 
L 91.272681 98.672149 
L 92.458572 98.834535 
L 93.644463 99.913512 
L 94.830353 103.372909 
L 96.016244 109.193814 
L 98.388026 125.726797 
L 100.759808 140.934597 
L 101.945699 145.348268 
L 103.13159 145.57398 
L 104.317481 144.200631 
L 105.503372 140.299424 
L 106.689263 135.226833 
L 107.875153 126.902311 
L 112.618717 78.907742 
L 113.804608 69.283349 
L 114.990499 57.970986 
L 116.17639 49.183343 
L 118.548172 38.904218 
L 119.734063 37.385857 
L 120.919953 38.753613 
L 122.105844 38.884019 
L 123.291735 39.79837 
L 125.663517 43.433028 
L 126.849408 44.737712 
L 128.035299 47.962422 
L 129.22119 50.36952 
L 131.592972 62.542718 
L 132.778863 69.589977 
L 133.964753 77.629507 
L 135.150644 82.888193 
L 136.336535 88.703442 
L 137.522426 93.799072 
L 139.894208 105.431327 
L 142.26599 116.862698 
L 143.451881 120.993631 
L 145.823663 127.87452 
L 147.009553 129.497681 
L 148.195444 133.820594 
L 149.381335 139.221618 
L 150.567226 141.369111 
L 151.753117 145.154129 
L 152.939008 146.447518 
L 154.124899 148.177356 
L 155.31079 149.191253 
L 157.682572 152.334999 
L 158.868463 152.978319 
L 160.054353 152.525506 
L 161.240244 152.540983 
L 162.426135 151.598725 
L 164.797917 151.3611 
L 165.983808 151.453528 
L 167.169699 149.775011 
L 168.35559 145.145238 
L 169.541481 138.125873 
L 170.727372 135.18161 
L 171.913263 135.019649 
L 174.285044 144.75798 
L 175.470935 146.425628 
L 176.656826 146.482 
L 177.842717 151.022719 
L 179.028608 157.980354 
L 180.214499 163.488302 
L 181.40039 164.900412 
L 182.586281 162.908867 
L 183.772172 156.648158 
L 184.958063 149.322881 
L 186.143953 142.69692 
L 187.329844 143.310919 
L 188.515735 152.28462 
L 189.701626 163.666279 
L 190.887517 170.413603 
L 192.073408 175.4768 
L 193.259299 176.760653 
L 194.44519 175.808542 
L 195.631081 171.674533 
L 199.188753 155.485964 
L 200.374644 148.44272 
L 201.560535 146.143068 
L 202.746426 144.494766 
L 203.932317 143.558198 
L 205.118208 145.311116 
L 206.304099 147.587857 
L 208.675881 158.943377 
L 209.861772 163.19527 
L 212.233553 169.214219 
L 213.419444 169.789871 
L 214.605335 177.103507 
L 215.791226 188.623792 
L 216.977117 197.026114 
L 218.163008 202.753892 
L 219.348899 201.001602 
L 220.53479 195.72425 
L 221.720681 187.616212 
L 226.464244 134.581756 
L 227.650135 126.269152 
L 228.836026 119.976654 
L 230.021917 112.686635 
L 231.207808 103.854225 
L 232.393699 90.365304 
L 233.57959 78.793995 
L 234.765481 70.112908 
L 235.951372 66.198879 
L 237.137263 69.749855 
L 238.323153 77.072322 
L 239.509044 86.359564 
L 240.694935 93.435036 
L 241.880826 95.332536 
L 243.066717 91.188611 
L 244.252608 85.456466 
L 245.438499 84.724347 
L 246.62439 87.949165 
L 247.810281 96.462084 
L 248.996172 108.768246 
L 250.182063 126.155927 
L 251.367953 140.393887 
L 252.553844 151.066587 
L 253.739735 158.194685 
L 254.925626 161.618332 
L 256.111517 162.656803 
L 257.297408 160.816167 
L 258.483299 158.473764 
L 259.66919 151.805076 
L 260.855081 143.751022 
L 262.040972 129.37131 
L 264.412753 95.803866 
L 265.598644 82.00944 
L 267.970426 61.673989 
L 269.156317 54.285776 
L 270.342208 47.627824 
L 271.528099 42.143717 
L 272.71399 37.525739 
L 273.899881 35.423514 
L 275.085772 35.221594 
L 276.271663 35.684944 
L 277.457553 38.143787 
L 278.643444 39.949903 
L 281.015226 42.980542 
L 282.201117 46.175303 
L 284.572899 54.404894 
L 286.944681 70.007926 
L 288.130572 77.390579 
L 289.316463 83.620629 
L 290.502353 85.916722 
L 291.688244 89.843129 
L 292.874135 93.174468 
L 294.060026 95.455521 
L 295.245917 98.139479 
L 296.431808 99.512075 
L 297.617699 102.924029 
L 298.80359 105.084215 
L 299.989481 108.208244 
L 301.175372 109.017867 
L 302.361263 112.7557 
L 303.547153 114.895649 
L 304.733044 117.595304 
L 305.918935 121.973398 
L 307.104826 122.854715 
L 308.290717 124.192264 
L 309.476608 126.086739 
L 310.662499 126.677448 
L 311.84839 127.628312 
L 313.034281 129.194328 
L 314.220172 129.030962 
L 315.406063 127.571563 
L 316.591953 126.717659 
L 317.777844 127.152074 
L 318.963735 129.592209 
L 320.149626 130.119507 
L 321.335517 129.629522 
L 323.707299 116.965786 
L 324.89319 113.961075 
L 326.079081 119.954362 
L 327.264972 129.486556 
L 328.450863 137.576713 
L 329.636753 140.400939 
L 330.822644 144.371662 
L 332.008535 146.78394 
L 333.194426 147.906596 
L 334.380317 142.88676 
L 335.566208 135.58315 
L 336.752099 130.705203 
L 339.123881 124.357441 
L 340.309772 128.843439 
L 341.495663 139.671354 
L 342.681553 152.052468 
L 343.867444 161.638239 
L 345.053335 169.719002 
L 346.239226 172.801364 
L 347.425117 170.749734 
L 348.611008 163.81596 
L 350.98279 154.410317 
L 352.168681 151.267495 
L 353.354572 147.253649 
L 354.540463 147.83763 
L 355.726353 148.060257 
L 356.912244 148.096063 
L 358.098135 147.315483 
L 359.284035 145.22921 
L 360.469917 149.008014 
L 361.655808 153.791151 
L 364.02759 164.256862 
L 365.213481 171.254759 
L 366.399372 175.526308 
L 369.957044 191.615709 
L 371.142935 192.968256 
L 372.328826 192.876145 
L 373.514717 186.929713 
L 374.700608 178.065221 
L 375.886499 165.945045 
L 377.07239 151.084243 
L 379.444172 124.751488 
L 380.630063 115.575092 
L 381.815953 108.584129 
L 383.001844 103.959221 
L 384.187735 100.194156 
L 385.373626 92.04905 
L 386.559517 84.752212 
L 387.745408 78.54129 
L 388.931299 75.601974 
L 390.11719 78.31548 
L 391.303081 81.447376 
L 392.488972 86.287356 
L 393.674863 90.496136 
L 394.860753 91.665159 
L 396.046644 89.035098 
L 397.232535 86.966272 
L 398.418426 86.575192 
L 399.604317 88.595136 
L 400.790208 94.653051 
L 401.976099 102.730145 
L 403.16199 111.643299 
L 404.347881 121.58837 
L 406.719663 132.891835 
L 407.905553 138.882141 
L 409.091444 139.974573 
L 410.277335 138.206542 
L 411.463226 132.631287 
L 412.649117 123.674409 
L 413.835008 113.577286 
L 417.392681 76.209445 
L 418.578572 68.235857 
L 419.764463 61.258812 
L 422.136244 48.72741 
L 423.322135 40.922906 
L 424.508026 35.109638 
L 425.693917 30.271697 
L 426.879808 29.462983 
L 429.25159 32.326982 
L 430.437481 35.506423 
L 431.623372 39.502252 
L 435.181044 48.568456 
L 436.366935 53.423815 
L 437.552826 59.907772 
L 438.738717 70.172696 
L 441.110499 84.911385 
L 442.29639 90.018525 
L 443.482281 93.876828 
L 444.668172 99.820484 
L 445.854063 104.820785 
L 447.039953 110.505029 
L 448.225844 114.968301 
L 449.411735 120.134635 
L 450.597626 124.406063 
L 451.783517 127.461205 
L 454.155299 131.561187 
L 456.527081 141.424811 
L 457.712972 145.766689 
L 458.898863 148.171588 
L 460.084753 147.793961 
L 461.270644 146.468433 
L 462.456535 143.149678 
L 463.642426 141.439331 
L 464.828317 141.531592 
L 466.014208 142.524216 
L 467.200099 144.822281 
L 468.38599 142.509451 
L 469.571881 139.629354 
L 470.757772 137.505432 
L 471.943663 137.980773 
L 473.129553 136.819047 
L 474.315444 136.401273 
L 475.501335 133.003188 
L 476.687226 128.558111 
L 477.873117 125.426147 
L 479.059008 129.993592 
L 480.244899 140.305605 
L 481.43079 149.113296 
L 482.616681 154.199864 
L 483.802572 155.301596 
L 484.988463 152.656546 
L 486.174353 149.282496 
L 487.360244 143.533387 
L 488.546135 139.63251 
L 489.732026 135.254206 
L 490.917917 135.276248 
L 492.103808 136.178457 
L 493.289699 140.219156 
L 494.47559 148.444311 
L 495.661481 159.254345 
L 496.847372 165.033987 
L 498.033263 167.498478 
L 499.219153 164.858065 
L 500.405044 156.094734 
L 501.590935 144.480689 
L 502.776826 136.349449 
L 503.962717 129.890693 
L 505.148608 128.518991 
L 505.148608 128.518991 
" clip-path="url(#p329d6316ef)" style="fill: none; stroke: #4c78a8; stroke-width: 1.4; stroke-linecap: square"/>
   </g>
   <g id="line2d_28">
    <path d="M 60.439517 158.863756 
L 61.625408 167.658665 
L 62.811299 177.512076 
L 65.183081 190.5552 
L 66.368972 192.810602 
L 67.554863 190.610529 
L 68.740753 184.701582 
L 69.926644 177.877896 
L 71.112535 167.765601 
L 72.298426 154.692684 
L 73.484317 139.831093 
L 74.670208 127.424441 
L 75.856099 119.081646 
L 77.04199 109.758796 
L 78.227881 102.018148 
L 79.413772 92.516475 
L 80.599663 86.187587 
L 81.785553 81.898911 
L 82.971444 80.335931 
L 84.157335 82.651736 
L 85.343226 87.212632 
L 86.529117 94.432203 
L 87.715008 99.805341 
L 88.900899 101.783571 
L 90.08679 102.529565 
L 91.272681 99.713245 
L 92.458572 96.223523 
L 93.644463 100.007454 
L 94.830353 105.172113 
L 96.016244 113.307626 
L 98.388026 134.341353 
L 99.573917 140.392786 
L 100.759808 144.589724 
L 101.945699 147.379935 
L 103.13159 148.358733 
L 104.317481 148.596481 
L 105.503372 146.267425 
L 107.875153 133.637281 
L 109.061044 125.423665 
L 110.246935 114.370202 
L 112.618717 88.821158 
L 113.804608 79.161587 
L 114.990499 71.03041 
L 117.362281 58.117325 
L 118.548172 52.941468 
L 119.734063 49.18969 
L 120.919953 46.623453 
L 123.291735 43.011429 
L 124.477626 44.707665 
L 125.663517 47.198795 
L 126.849408 49.362063 
L 128.035299 50.516673 
L 130.407081 60.823533 
L 131.592972 64.661265 
L 132.778863 70.266912 
L 133.964753 74.419984 
L 135.150644 80.147664 
L 136.336535 87.362086 
L 137.522426 92.591954 
L 138.708317 97.060757 
L 139.894208 103.587425 
L 142.26599 109.879824 
L 144.637772 118.880067 
L 145.823663 122.63194 
L 147.009553 129.626581 
L 148.195444 135.146482 
L 149.381335 138.513799 
L 150.567226 143.00039 
L 151.753117 145.701913 
L 152.939008 146.386606 
L 154.124899 146.7733 
L 155.31079 148.805135 
L 156.496681 147.853415 
L 158.868463 149.899609 
L 160.054353 149.858605 
L 161.240244 147.945399 
L 162.426135 145.317826 
L 163.612026 140.99153 
L 164.797917 139.296142 
L 165.983808 138.982667 
L 167.169699 137.739116 
L 168.35559 136.997881 
L 169.541481 133.536469 
L 170.727372 130.658973 
L 171.913263 129.615564 
L 173.099153 135.16035 
L 174.285044 139.387117 
L 176.656826 142.938794 
L 177.842717 145.18527 
L 179.028608 150.903912 
L 180.214499 156.072617 
L 181.40039 154.922783 
L 182.586281 150.338103 
L 183.772172 144.40875 
L 186.143953 131.547751 
L 187.329844 131.831848 
L 188.515735 137.414142 
L 189.701626 146.503653 
L 190.887517 153.900869 
L 193.259299 170.491327 
L 194.44519 172.684492 
L 195.631081 169.350163 
L 196.816972 164.261003 
L 199.188753 147.515845 
L 200.374644 141.31792 
L 201.560535 136.283275 
L 202.746426 137.482959 
L 203.932317 141.570673 
L 205.118208 144.977648 
L 207.48999 153.260364 
L 208.675881 154.744983 
L 209.861772 154.689084 
L 211.047663 152.775703 
L 212.233553 152.668482 
L 213.419444 156.668116 
L 214.605335 166.443834 
L 215.791226 180.255606 
L 216.977117 189.281664 
L 218.163008 191.401347 
L 219.348899 188.100605 
L 220.53479 179.160922 
L 221.720681 168.067902 
L 222.906572 158.417171 
L 224.092463 149.885821 
L 225.278353 139.139641 
L 226.464244 132.541207 
L 227.650135 125.075055 
L 228.836026 120.72729 
L 230.021917 114.555112 
L 231.207808 106.217972 
L 232.393699 96.031126 
L 233.57959 87.231247 
L 234.765481 82.060575 
L 235.951372 81.213827 
L 237.137263 85.649288 
L 239.509044 109.259129 
L 240.694935 115.988308 
L 241.880826 116.456015 
L 243.066717 114.203563 
L 244.252608 109.367731 
L 245.438499 103.204411 
L 246.62439 102.23505 
L 247.810281 108.336653 
L 248.996172 118.564994 
L 251.367953 144.123231 
L 252.553844 151.452423 
L 253.739735 156.57928 
L 254.925626 158.341259 
L 256.111517 156.387252 
L 257.297408 152.746021 
L 258.483299 148.641615 
L 259.66919 141.032392 
L 260.855081 134.620755 
L 262.040972 125.589765 
L 265.598644 81.635086 
L 266.784535 69.865613 
L 269.156317 57.108785 
L 271.528099 48.305015 
L 272.71399 45.197508 
L 273.899881 42.547875 
L 275.085772 42.36908 
L 276.271663 40.773645 
L 277.457553 40.22415 
L 278.643444 40.856837 
L 279.829335 42.778719 
L 282.201117 44.678069 
L 284.572899 49.847699 
L 285.75879 57.574615 
L 286.944681 61.054191 
L 290.502353 77.651522 
L 294.060026 89.247495 
L 295.245917 93.871926 
L 296.431808 96.311429 
L 297.617699 100.878049 
L 298.80359 104.721446 
L 299.989481 108.152104 
L 301.175372 113.146224 
L 302.361263 118.849492 
L 303.547153 123.659653 
L 304.733044 126.56307 
L 305.918935 127.808507 
L 307.104826 128.406101 
L 309.476608 128.607059 
L 310.662499 126.069525 
L 311.84839 126.530189 
L 313.034281 127.216916 
L 314.220172 126.58846 
L 315.406063 123.709485 
L 316.591953 121.91647 
L 317.777844 118.915737 
L 318.963735 119.066643 
L 320.149626 117.934886 
L 321.335517 117.253746 
L 322.521408 112.856104 
L 323.707299 110.650428 
L 324.89319 109.014823 
L 328.450863 133.80496 
L 329.636753 137.984224 
L 330.822644 140.431116 
L 332.008535 141.655189 
L 333.194426 143.505396 
L 334.380317 139.561603 
L 335.566208 134.837099 
L 336.752099 131.859395 
L 337.93799 130.098622 
L 339.123881 130.454672 
L 340.309772 134.366009 
L 341.495663 143.670606 
L 342.681553 155.308029 
L 343.867444 163.344504 
L 345.053335 167.74618 
L 346.239226 169.310035 
L 347.425117 165.454632 
L 349.796899 148.408616 
L 350.98279 142.384941 
L 353.354572 135.545831 
L 354.540463 134.07392 
L 355.726353 133.17358 
L 356.912244 133.94935 
L 358.098135 135.417232 
L 359.284035 135.627911 
L 360.469917 137.919044 
L 361.655808 140.460955 
L 364.02759 151.285257 
L 365.213481 155.310665 
L 366.399372 163.390803 
L 368.771153 185.543694 
L 369.957044 192.877842 
L 371.142935 195.340035 
L 372.328826 193.23107 
L 373.514717 187.433691 
L 375.886499 168.41141 
L 377.07239 157.708718 
L 378.258281 145.444498 
L 379.444172 134.855196 
L 380.630063 125.548445 
L 381.815953 119.039004 
L 385.373626 96.502631 
L 386.559517 89.914531 
L 387.745408 86.673909 
L 388.931299 85.873126 
L 390.11719 87.980158 
L 391.303081 92.478274 
L 392.488972 100.171718 
L 393.674863 102.891931 
L 394.860753 104.187002 
L 396.046644 104.297398 
L 397.232535 102.697821 
L 398.418426 102.50677 
L 399.604317 104.17072 
L 400.790208 110.312026 
L 401.976099 119.908125 
L 403.16199 132.918761 
L 404.347881 142.535433 
L 405.533772 147.984382 
L 406.719663 149.858578 
L 407.905553 149.402764 
L 409.091444 146.992203 
L 410.277335 143.940648 
L 411.463226 139.978383 
L 415.020899 113.341138 
L 417.392681 90.236644 
L 418.578572 76.825415 
L 419.764463 65.910996 
L 422.136244 50.593221 
L 423.322135 45.266848 
L 424.508026 41.937872 
L 425.693917 39.417858 
L 426.879808 37.591729 
L 428.065699 37.284756 
L 429.25159 36.619256 
L 430.437481 35.245214 
L 431.623372 36.758068 
L 432.809263 38.539079 
L 433.995153 40.753605 
L 435.181044 43.698392 
L 437.552826 52.920796 
L 438.738717 60.770781 
L 441.110499 73.823178 
L 443.482281 84.66039 
L 444.668172 88.735813 
L 447.039953 99.828307 
L 448.225844 106.327314 
L 449.411735 111.825353 
L 451.783517 123.78218 
L 452.969408 128.319219 
L 454.155299 131.006008 
L 457.712972 141.621379 
L 458.898863 143.922023 
L 460.084753 143.756408 
L 461.270644 143.150193 
L 463.642426 144.493783 
L 464.828317 145.767321 
L 466.014208 145.585191 
L 467.200099 143.756286 
L 468.38599 140.659673 
L 469.571881 138.834332 
L 471.943663 133.818339 
L 473.129553 133.827671 
L 474.315444 133.049176 
L 475.501335 130.77866 
L 476.687226 126.197407 
L 477.873117 124.518834 
L 479.059008 131.025934 
L 481.43079 150.494686 
L 482.616681 155.576496 
L 483.802572 157.486838 
L 484.988463 155.842487 
L 486.174353 151.433793 
L 488.546135 136.34887 
L 489.732026 132.986991 
L 490.917917 133.99623 
L 492.103808 134.235568 
L 493.289699 139.223779 
L 494.47559 149.152318 
L 495.661481 157.396247 
L 496.847372 162.589509 
L 498.033263 166.800942 
L 499.219153 166.435281 
L 500.405044 159.484752 
L 502.776826 141.771228 
L 503.962717 137.475815 
L 505.148608 135.924151 
L 505.148608 135.924151 
" clip-path="url(#p329d6316ef)" style="fill: none; stroke: #e45756; stroke-width: 1.4; stroke-linecap: square"/>
   </g>
   <g id="line2d_29">
    <path d="M 208.675881 211.418437 
L 208.675881 20.798437 
" clip-path="url(#p329d6316ef)" style="fill: none; stroke-dasharray: 2.96,1.28; stroke-dashoffset: 0; stroke: #000000; stroke-width: 0.8"/>
   </g>
   <g id="patch_3">
    <path d="M 38.204063 211.418437 
L 38.204063 20.798437 
" style="fill: none; stroke: #000000; stroke-width: 0.8; stroke-linejoin: miter; stroke-linecap: square"/>
   </g>
   <g id="patch_4">
    <path d="M 38.204063 211.418437 
L 527.384063 211.418437 
" style="fill: none; stroke: #000000; stroke-width: 0.8; stroke-linejoin: miter; stroke-linecap: square"/>
   </g>
   <g id="text_16">
    <text style="font-weight: 700; font-size: 10px; font-family: 'Arial', 'Helvetica', 'DejaVu Sans', sans-serif; text-anchor: middle" x="282.794062" y="14.798437" transform="rotate(-0 282.794062 14.798437)">ERP by eeg_split  (train/test drift check)</text>
   </g>
   <g id="legend_1">
    <g id="line2d_30">
     <path d="M 438.245313 31.277187 
L 446.245313 31.277187 
L 454.245313 31.277187 
" style="fill: none; stroke: #4c78a8; stroke-width: 1.4; stroke-linecap: square"/>
    </g>
    <g id="text_17">
     <text style="font-size: 8px; font-family: 'Arial', 'Helvetica', 'DejaVu Sans', sans-serif; text-anchor: start" x="460.645312" y="34.077187" transform="rotate(-0 460.645312 34.077187)">train (n=2952)</text>
    </g>
    <g id="line2d_31">
     <path d="M 438.245313 43.019687 
L 446.245313 43.019687 
L 454.245313 43.019687 
" style="fill: none; stroke: #e45756; stroke-width: 1.4; stroke-linecap: square"/>
    </g>
    <g id="text_18">
     <text style="font-size: 8px; font-family: 'Arial', 'Helvetica', 'DejaVu Sans', sans-serif; text-anchor: start" x="460.645312" y="45.819687" transform="rotate(-0 460.645312 45.819687)">test (n=3424)</text>
    </g>
   </g>
  </g>
 </g>
 <defs>
  <clipPath id="p329d6316ef">
   <rect x="38.204063" y="20.798437" width="489.18" height="190.62"/>
  </clipPath>
 </defs>
</svg>
