<?xml version="1.0" encoding="utf-8" standalone="no"?>
<!DOCTYPE svg PUBLIC "-//W3C//DTD SVG 1.1//EN"
  "http://www.w3.org/Graphics/SVG/1.1/DTD/svg11.dtd">
<svg xmlns:xlink="http://www.w3.org/1999/xlink" width="498.552813pt" height="252.77125pt" viewBox="0 0 498.552813 252.77125" xmlns="http://www.w3.org/2000/svg" version="1.1">
 <metadata>
  <rdf:RDF xmlns:dc="http://purl.org/dc/elements/1.1/" xmlns:cc="http://creativecommons.org/ns#" xmlns:rdf="http://www.w3.org/1999/02/22-rdf-syntax-ns#">
   <cc:Work>
    <dc:type rdf:resource="http://purl.org/dc/dcmitype/StillImage"/>
    <dc:date>2026-05-12T16:40:12.428517</dc:date>
    <dc:format>image/svg+xml</dc:format>
    <dc:creator>
     <cc:Agent>
      <dc:title>Matplotlib v3.10.8, https://matplotlib.org/</dc:title>
     </cc:Agent>
    </dc:creator>
   </cc:Work>
  </rdf:RDF>
 </metadata>
 <defs>
  <style type="text/css">*{stroke-linejoin: round; stroke-linecap: butt}</style>
 </defs>
 <g id="figure_1">
  <g id="patch_1">
   <path d="M 0 252.77125 
L 498.552813 252.77125 
L 498.552813 0 
L 0 0 
z
" style="fill: #ffffff"/>
  </g>
  <g id="axes_1">
   <g id="patch_2">
    <path d="M 39.132813 218.618437 
L 491.352813 218.618437 
L 491.352813 20.798438 
L 39.132813 20.798438 
z
" style="fill: #ffffff"/>
   </g>
   <g id="FillBetweenPolyCollection_1">
    <defs>
     <path id="m256d791fa8" d="M 59.688267 -91.020441 
L 59.688267 -88.081733 
L 60.784558 -115.712649 
L 61.880849 -126.509069 
L 62.97714 -141.825855 
L 64.073431 -150.638171 
L 65.169722 -160.914788 
L 66.266013 -167.754234 
L 67.362303 -174.443765 
L 68.458594 -179.298432 
L 69.554885 -183.057641 
L 70.651176 -185.999307 
L 71.747467 -187.355792 
L 72.843758 -188.583132 
L 73.940049 -188.102654 
L 75.03634 -187.944321 
L 76.132631 -186.247883 
L 77.228922 -185.13578 
L 78.325213 -182.868214 
L 79.421503 -181.281072 
L 80.517794 -179.040137 
L 81.614085 -177.439443 
L 82.710376 -175.70164 
L 83.806667 -174.453126 
L 84.902958 -173.484456 
L 85.999249 -172.781539 
L 87.09554 -172.608814 
L 88.191831 -172.457289 
L 89.288122 -172.903022 
L 90.384413 -173.158535 
L 91.480703 -173.931795 
L 92.576994 -174.378889 
L 93.673285 -175.179675 
L 94.769576 -175.608122 
L 95.865867 -176.201974 
L 96.962158 -176.462819 
L 98.058449 -176.720783 
L 99.15474 -176.745259 
L 100.251031 -176.639551 
L 101.347322 -176.430943 
L 102.443613 -176.01612 
L 103.539903 -175.632246 
L 104.636194 -175.006132 
L 105.732485 -174.520832 
L 106.828776 -173.799221 
L 107.925067 -173.292727 
L 109.021358 -172.584543 
L 110.117649 -172.116367 
L 111.21394 -171.502633 
L 112.310231 -171.113832 
L 113.406522 -170.64767 
L 114.502813 -170.362135 
L 115.599103 -170.076455 
L 116.695394 -169.911082 
L 117.791685 -169.821057 
L 118.887976 -169.785641 
L 119.984267 -169.887292 
L 121.080558 -169.98576 
L 122.176849 -170.258594 
L 123.27314 -170.481845 
L 124.369431 -170.892593 
L 125.465722 -171.224376 
L 126.562013 -171.724035 
L 127.658303 -172.13088 
L 128.754594 -172.660576 
L 129.850885 -173.103153 
L 130.947176 -173.608167 
L 132.043467 -174.046019 
L 133.139758 -174.484917 
L 134.236049 -174.892697 
L 135.33234 -175.241365 
L 136.428631 -175.5969 
L 137.524922 -175.852866 
L 138.621213 -176.154669 
L 139.717503 -176.33593 
L 140.813794 -176.590788 
L 141.910085 -176.726645 
L 143.006376 -176.952609 
L 144.102667 -177.085116 
L 145.198958 -177.307894 
L 146.295249 -177.471388 
L 147.39154 -177.703545 
L 148.487831 -177.919681 
L 149.584122 -178.177192 
L 150.680413 -178.455806 
L 151.776703 -178.738265 
L 152.872994 -179.071189 
L 153.969285 -179.375324 
L 155.065576 -179.745417 
L 156.161867 -180.059487 
L 157.258158 -180.442735 
L 158.354449 -180.762722 
L 159.45074 -181.145018 
L 160.547031 -181.466481 
L 161.643322 -181.826823 
L 162.739613 -182.138769 
L 163.835903 -182.465738 
L 164.932194 -182.7658 
L 166.028485 -183.05999 
L 167.124776 -183.354329 
L 168.221067 -183.628809 
L 169.317358 -183.931499 
L 170.413649 -184.210087 
L 171.50994 -184.539616 
L 172.606231 -184.848231 
L 173.702522 -185.22085 
L 174.798813 -185.577783 
L 175.895103 -186.001665 
L 176.991394 -186.41818 
L 178.087685 -186.894117 
L 179.183976 -187.376185 
L 180.280267 -187.909904 
L 181.376558 -188.460782 
L 182.472849 -189.048863 
L 183.56914 -189.663251 
L 184.665431 -190.293201 
L 185.761722 -190.951086 
L 186.858013 -191.61132 
L 187.954303 -192.30263 
L 189.050594 -192.981312 
L 190.146885 -193.691981 
L 191.243176 -194.381786 
L 192.339467 -195.094415 
L 193.435758 -195.782052 
L 194.532049 -196.485525 
L 195.62834 -197.161536 
L 196.724631 -197.839901 
L 197.820922 -198.49103 
L 198.917213 -199.130482 
L 200.013503 -199.746378 
L 201.109794 -200.336348 
L 202.206085 -200.907588 
L 203.302376 -201.43847 
L 204.398667 -201.951596 
L 205.494958 -202.417169 
L 206.591249 -202.868125 
L 207.68754 -203.267118 
L 208.783831 -203.647287 
L 209.880122 -203.972644 
L 210.976413 -204.27554 
L 212.072703 -204.529109 
L 213.168994 -204.752591 
L 214.265285 -204.931607 
L 215.361576 -205.075347 
L 216.457867 -205.179299 
L 217.554158 -205.238326 
L 218.650449 -205.264387 
L 219.74674 -205.242821 
L 220.843031 -205.190523 
L 221.939322 -205.085478 
L 223.035613 -204.946139 
L 224.131903 -204.751616 
L 225.228194 -204.523604 
L 226.324485 -204.244335 
L 227.420776 -203.930784 
L 228.517067 -203.574974 
L 229.613358 -203.187629 
L 230.709649 -202.766312 
L 231.80594 -202.313985 
L 232.902231 -201.838544 
L 233.998522 -201.338921 
L 235.094813 -200.827726 
L 236.191103 -200.300518 
L 237.287394 -199.773808 
L 238.383685 -199.241284 
L 239.479976 -198.71845 
L 240.576267 -198.198258 
L 241.672558 -197.693579 
L 242.768849 -197.201052 
L 243.86514 -196.727862 
L 244.961431 -196.269199 
L 246.057722 -195.829039 
L 247.154013 -195.407722 
L 248.250303 -195.006415 
L 249.346594 -194.625853 
L 250.442885 -194.263515 
L 251.539176 -193.924296 
L 252.635467 -193.609393 
L 253.731758 -193.323854 
L 254.828049 -193.063691 
L 255.92434 -192.834684 
L 257.020631 -192.635905 
L 258.116922 -192.470411 
L 259.213213 -192.340582 
L 260.309503 -192.246713 
L 261.405794 -192.190286 
L 262.502085 -192.170553 
L 263.598376 -192.185888 
L 264.694667 -192.238431 
L 265.790958 -192.328527 
L 266.887249 -192.452696 
L 267.98354 -192.607747 
L 269.079831 -192.790255 
L 270.176122 -192.998115 
L 271.272413 -193.230367 
L 272.368703 -193.485674 
L 273.464994 -193.763305 
L 274.561285 -194.060238 
L 275.657576 -194.371356 
L 276.753867 -194.693441 
L 277.850158 -195.021958 
L 278.946449 -195.355695 
L 280.04274 -195.689774 
L 281.139031 -196.028533 
L 282.235322 -196.364774 
L 283.331613 -196.703048 
L 284.427903 -197.039396 
L 285.524194 -197.379731 
L 286.620485 -197.718211 
L 287.716776 -198.058819 
L 288.813067 -198.401341 
L 289.909358 -198.745145 
L 291.005649 -199.09267 
L 292.10194 -199.440182 
L 293.198231 -199.793567 
L 294.294522 -200.144186 
L 295.390813 -200.497672 
L 296.487103 -200.84304 
L 297.583394 -201.191384 
L 298.679685 -201.530292 
L 299.775976 -201.86978 
L 300.872267 -202.200413 
L 301.968558 -202.528784 
L 303.064849 -202.849711 
L 304.16114 -203.163113 
L 305.257431 -203.470803 
L 306.353722 -203.768679 
L 307.450013 -204.061104 
L 308.546303 -204.340882 
L 309.642594 -204.623249 
L 310.738885 -204.897346 
L 311.835176 -205.178463 
L 312.931467 -205.454073 
L 314.027758 -205.742153 
L 315.124049 -206.02749 
L 316.22034 -206.32592 
L 317.316631 -206.626062 
L 318.412922 -206.935742 
L 319.509213 -207.245692 
L 320.605503 -207.558945 
L 321.701794 -207.87466 
L 322.798085 -208.189124 
L 323.894376 -208.509246 
L 324.990667 -208.818061 
L 326.086958 -209.130384 
L 327.183249 -209.427615 
L 328.27954 -209.732263 
L 329.375831 -210.021661 
L 330.472122 -210.31743 
L 331.568413 -210.592569 
L 332.664703 -210.870448 
L 333.760994 -211.132531 
L 334.857285 -211.390604 
L 335.953585 -211.63496 
L 337.049867 -211.868201 
L 338.146158 -212.092951 
L 339.242449 -212.295293 
L 340.33874 -212.494652 
L 341.435031 -212.661122 
L 342.531322 -212.826577 
L 343.627613 -212.951564 
L 344.723903 -213.078045 
L 345.820194 -213.158773 
L 346.916485 -213.238965 
L 348.012776 -213.276837 
L 349.109067 -213.307128 
L 350.205358 -213.297991 
L 351.301649 -213.271228 
L 352.39794 -213.216234 
L 353.494231 -213.129242 
L 354.590522 -213.023661 
L 355.686813 -212.872163 
L 356.783103 -212.711114 
L 357.879394 -212.492913 
L 358.975685 -212.271608 
L 360.071976 -211.985915 
L 361.168267 -211.694352 
L 362.264558 -211.333486 
L 363.360849 -210.955673 
L 364.45714 -210.511791 
L 365.553431 -210.039601 
L 366.649722 -209.511954 
L 367.746013 -208.93932 
L 368.842303 -208.326723 
L 369.938594 -207.653943 
L 371.034885 -206.960834 
L 372.131176 -206.197705 
L 373.227467 -205.431109 
L 374.323758 -204.59536 
L 375.420049 -203.776405 
L 376.51634 -202.899465 
L 377.612631 -202.054454 
L 378.708922 -201.173001 
L 379.805213 -200.3294 
L 380.901503 -199.471829 
L 381.997794 -198.648377 
L 383.094085 -197.833464 
L 384.190376 -197.042379 
L 385.286667 -196.28005 
L 386.382958 -195.526117 
L 387.479249 -194.817923 
L 388.57554 -194.102989 
L 389.671831 -193.444051 
L 390.768122 -192.767356 
L 391.864413 -192.154522 
L 392.960703 -191.520153 
L 394.056994 -190.94486 
L 395.153285 -190.341552 
L 396.249576 -189.784258 
L 397.345867 -189.200434 
L 398.442158 -188.641711 
L 399.538449 -188.06426 
L 400.63474 -187.48503 
L 401.731031 -186.899237 
L 402.827322 -186.281679 
L 403.923613 -185.673691 
L 405.019903 -185.005691 
L 406.116194 -184.369225 
L 407.212485 -183.648101 
L 408.308776 -182.977288 
L 409.405067 -182.208138 
L 410.501358 -181.498407 
L 411.597649 -180.685229 
L 412.69394 -179.922573 
L 413.790231 -179.061537 
L 414.886522 -178.221791 
L 415.982813 -177.302324 
L 417.079103 -176.356703 
L 418.175394 -175.362859 
L 419.271685 -174.280183 
L 420.367976 -173.178789 
L 421.464267 -171.921773 
L 422.560558 -170.66387 
L 423.656849 -169.187612 
L 424.75314 -167.708307 
L 425.849431 -165.973463 
L 426.945722 -164.206983 
L 428.042013 -162.183453 
L 429.138303 -160.074575 
L 430.234594 -157.744963 
L 431.330885 -155.255662 
L 432.427176 -152.622451 
L 433.523467 -149.748972 
L 434.619758 -146.830888 
L 435.716049 -143.601734 
L 436.81234 -140.431281 
L 437.908631 -136.913013 
L 439.004922 -133.537645 
L 440.101213 -129.830273 
L 441.197503 -126.305465 
L 442.293794 -122.524276 
L 443.390085 -118.907927 
L 444.486376 -115.164763 
L 445.582667 -111.510315 
L 446.678958 -107.88135 
L 447.775249 -104.220118 
L 448.87154 -100.718203 
L 449.967831 -97.047801 
L 451.064122 -93.614098 
L 452.160413 -89.907691 
L 453.256703 -86.44018 
L 454.352994 -82.683122 
L 455.449285 -79.079578 
L 456.545576 -75.310061 
L 457.641867 -71.506964 
L 458.738158 -67.836488 
L 459.834449 -63.833806 
L 460.93074 -60.473733 
L 462.027031 -56.361356 
L 463.123322 -53.620463 
L 464.219613 -49.600342 
L 465.315903 -47.8653 
L 466.412194 -44.367001 
L 467.508485 -44.596089 
L 468.604776 -43.144631 
L 469.701067 -48.520181 
L 470.797358 -55.630347 
L 470.797358 -57.779914 
L 470.797358 -57.779914 
L 469.701067 -50.474879 
L 468.604776 -44.910886 
L 467.508485 -46.456621 
L 466.412194 -46.255569 
L 465.315903 -49.921377 
L 464.219613 -51.792103 
L 463.123322 -56.006131 
L 462.027031 -58.918494 
L 460.93074 -63.216974 
L 459.834449 -66.749683 
L 458.738158 -70.923073 
L 457.641867 -74.76178 
L 456.545576 -78.723199 
L 455.449285 -82.658822 
L 454.352994 -86.415046 
L 453.256703 -90.339125 
L 452.160413 -93.960461 
L 451.064122 -97.836058 
L 449.967831 -101.428634 
L 448.87154 -105.268771 
L 447.775249 -108.934624 
L 446.678958 -112.763075 
L 445.582667 -116.55849 
L 444.486376 -120.375207 
L 443.390085 -124.284179 
L 442.293794 -128.056576 
L 441.197503 -131.999624 
L 440.101213 -135.673387 
L 439.004922 -139.535318 
L 437.908631 -143.051517 
L 436.81234 -146.713938 
L 435.716049 -150.01614 
L 434.619758 -153.376797 
L 433.523467 -156.416721 
L 432.427176 -159.40777 
L 431.330885 -162.152359 
L 430.234594 -164.745265 
L 429.138303 -167.175751 
L 428.042013 -169.375505 
L 426.945722 -171.489671 
L 425.849431 -173.335899 
L 424.75314 -175.151415 
L 423.656849 -176.701243 
L 422.560558 -178.248675 
L 421.464267 -179.56951 
L 420.367976 -180.888806 
L 419.271685 -182.046752 
L 418.175394 -183.183539 
L 417.079103 -184.228647 
L 415.982813 -185.221633 
L 414.886522 -186.188086 
L 413.790231 -187.069904 
L 412.69394 -187.97433 
L 411.597649 -188.775003 
L 410.501358 -189.628167 
L 409.405067 -190.372894 
L 408.308776 -191.178965 
L 407.212485 -191.882946 
L 406.116194 -192.638753 
L 405.019903 -193.307911 
L 403.923613 -194.009327 
L 402.827322 -194.650384 
L 401.731031 -195.300848 
L 400.63474 -195.920378 
L 399.538449 -196.532128 
L 398.442158 -197.143602 
L 397.345867 -197.734586 
L 396.249576 -198.352455 
L 395.153285 -198.941894 
L 394.056994 -199.579018 
L 392.960703 -200.186704 
L 391.864413 -200.855029 
L 390.768122 -201.501034 
L 389.671831 -202.212295 
L 388.57554 -202.906157 
L 387.479249 -203.657355 
L 386.382958 -204.40305 
L 385.286667 -205.195351 
L 384.190376 -205.997619 
L 383.094085 -206.828933 
L 381.997794 -207.685652 
L 380.901503 -208.550491 
L 379.805213 -209.450556 
L 378.708922 -210.335295 
L 377.612631 -211.258393 
L 376.51634 -212.14321 
L 375.420049 -213.059846 
L 374.323758 -213.916589 
L 373.227467 -214.789418 
L 372.131176 -215.591223 
L 371.034885 -216.388319 
L 369.938594 -217.113552 
L 368.842303 -217.816354 
L 367.746013 -218.457174 
L 366.649722 -219.055408 
L 365.553431 -219.606985 
L 364.45714 -220.100163 
L 363.360849 -220.563454 
L 362.264558 -220.957795 
L 361.168267 -221.33393 
L 360.071976 -221.638011 
L 358.975685 -221.934757 
L 357.879394 -222.164458 
L 356.783103 -222.389481 
L 355.686813 -222.555177 
L 354.590522 -222.709567 
L 353.494231 -222.816264 
L 352.39794 -222.902417 
L 351.301649 -222.955112 
L 350.205358 -222.977451 
L 349.109067 -222.980994 
L 348.012776 -222.943033 
L 346.916485 -222.896474 
L 345.820194 -222.805446 
L 344.723903 -222.712811 
L 343.627613 -222.572492 
L 342.531322 -222.432647 
L 341.435031 -222.250545 
L 340.33874 -222.066353 
L 339.242449 -221.847892 
L 338.146158 -221.62533 
L 337.049867 -221.379311 
L 335.953585 -221.123768 
L 334.857285 -220.856516 
L 333.760994 -220.574693 
L 332.664703 -220.288704 
L 331.568413 -219.986199 
L 330.472122 -219.686726 
L 329.375831 -219.366432 
L 328.27954 -219.053192 
L 327.183249 -218.724725 
L 326.086958 -218.404494 
L 324.990667 -218.069755 
L 323.894376 -217.739641 
L 322.798085 -217.399102 
L 321.701794 -217.065018 
L 320.605503 -216.730479 
L 319.509213 -216.39903 
L 318.412922 -216.071713 
L 317.316631 -215.744868 
L 316.22034 -215.427986 
L 315.124049 -215.112365 
L 314.027758 -214.809753 
L 312.931467 -214.503589 
L 311.835176 -214.209397 
L 310.738885 -213.908687 
L 309.642594 -213.614292 
L 308.546303 -213.310723 
L 307.450013 -213.008936 
L 306.353722 -212.693737 
L 305.257431 -212.37214 
L 304.16114 -212.039939 
L 303.064849 -211.700814 
L 301.968558 -211.353385 
L 300.872267 -210.99718 
L 299.775976 -210.637857 
L 298.679685 -210.268459 
L 297.583394 -209.898917 
L 296.487103 -209.519048 
L 295.390813 -209.141538 
L 294.294522 -208.755356 
L 293.198231 -208.371465 
L 292.10194 -207.984308 
L 291.005649 -207.602339 
L 289.909358 -207.220121 
L 288.813067 -206.841178 
L 287.716776 -206.463445 
L 286.620485 -206.087427 
L 285.524194 -205.713784 
L 284.427903 -205.338543 
L 283.331613 -204.96784 
L 282.235322 -204.595916 
L 281.139031 -204.227073 
L 280.04274 -203.856901 
L 278.946449 -203.492587 
L 277.850158 -203.130073 
L 276.753867 -202.774145 
L 275.657576 -202.426125 
L 274.561285 -202.0904 
L 273.464994 -201.770222 
L 272.368703 -201.470573 
L 271.272413 -201.19451 
L 270.176122 -200.942918 
L 269.079831 -200.717349 
L 267.98354 -200.518764 
L 266.887249 -200.349388 
L 265.790958 -200.212528 
L 264.694667 -200.111291 
L 263.598376 -200.04906 
L 262.502085 -200.025569 
L 261.405794 -200.038803 
L 260.309503 -200.090373 
L 259.213213 -200.180929 
L 258.116922 -200.309111 
L 257.020631 -200.474516 
L 255.92434 -200.674975 
L 254.828049 -200.907337 
L 253.731758 -201.172597 
L 252.635467 -201.46495 
L 251.539176 -201.788278 
L 250.442885 -202.137395 
L 249.346594 -202.510966 
L 248.250303 -202.904001 
L 247.154013 -203.318529 
L 246.057722 -203.753621 
L 244.961431 -204.207604 
L 243.86514 -204.680073 
L 242.768849 -205.166437 
L 241.672558 -205.671371 
L 240.576267 -206.186977 
L 239.479976 -206.716802 
L 238.383685 -207.24757 
L 237.287394 -207.7864 
L 236.191103 -208.317576 
L 235.094813 -208.847293 
L 233.998522 -209.359006 
L 232.902231 -209.856932 
L 231.80594 -210.32867 
L 230.709649 -210.774727 
L 229.613358 -211.187652 
L 228.517067 -211.563673 
L 227.420776 -211.905732 
L 226.324485 -212.20221 
L 225.228194 -212.461788 
L 224.131903 -212.666637 
L 223.035613 -212.835062 
L 221.939322 -212.944727 
L 220.843031 -213.01663 
L 219.74674 -213.032147 
L 218.650449 -213.012986 
L 217.554158 -212.942638 
L 216.457867 -212.835035 
L 215.361576 -212.679226 
L 214.265285 -212.479169 
L 213.168994 -212.240627 
L 212.072703 -211.95307 
L 210.976413 -211.63242 
L 209.880122 -211.258173 
L 208.783831 -210.858552 
L 207.68754 -210.400456 
L 206.591249 -209.920741 
L 205.494958 -209.386041 
L 204.398667 -208.833865 
L 203.302376 -208.232133 
L 202.206085 -207.610073 
L 201.109794 -206.946566 
L 200.013503 -206.261737 
L 198.917213 -205.550498 
L 197.820922 -204.813582 
L 196.724631 -204.065038 
L 195.62834 -203.287678 
L 194.532049 -202.513122 
L 193.435758 -201.710412 
L 192.339467 -200.924265 
L 191.243176 -200.113485 
L 190.146885 -199.326709 
L 189.050594 -198.520789 
L 187.954303 -197.748248 
L 186.858013 -196.966256 
L 185.761722 -196.217329 
L 184.665431 -195.474886 
L 183.56914 -194.762703 
L 182.472849 -194.070856 
L 181.376558 -193.407268 
L 180.280267 -192.785353 
L 179.183976 -192.182484 
L 178.087685 -191.635304 
L 176.991394 -191.096247 
L 175.895103 -190.620543 
L 174.798813 -190.140006 
L 173.702522 -189.729551 
L 172.606231 -189.30601 
L 171.50994 -188.948807 
L 170.413649 -188.573646 
L 169.317358 -188.251037 
L 168.221067 -187.90789 
L 167.124776 -187.594072 
L 166.028485 -187.264347 
L 164.932194 -186.935435 
L 163.835903 -186.604569 
L 162.739613 -186.247048 
L 161.643322 -185.908129 
L 160.547031 -185.520583 
L 159.45074 -185.174739 
L 158.354449 -184.767523 
L 157.258158 -184.424313 
L 156.161867 -184.017874 
L 155.065576 -183.681865 
L 153.969285 -183.291215 
L 152.872994 -182.967395 
L 151.776703 -182.617098 
L 150.680413 -182.317249 
L 149.584122 -182.024442 
L 148.487831 -181.751938 
L 147.39154 -181.524195 
L 146.295249 -181.278805 
L 145.198958 -181.105891 
L 144.102667 -180.871739 
L 143.006376 -180.730952 
L 141.910085 -180.494345 
L 140.813794 -180.350264 
L 139.717503 -180.085775 
L 138.621213 -179.896415 
L 137.524922 -179.586113 
L 136.428631 -179.322011 
L 135.33234 -178.959324 
L 134.236049 -178.603127 
L 133.139758 -178.190591 
L 132.043467 -177.745687 
L 130.947176 -177.305814 
L 129.850885 -176.797342 
L 128.754594 -176.356511 
L 127.658303 -175.826746 
L 126.562013 -175.424971 
L 125.465722 -174.928437 
L 124.369431 -174.604107 
L 123.27314 -174.198955 
L 122.176849 -173.983945 
L 121.080558 -173.717932 
L 119.984267 -173.627231 
L 118.887976 -173.532652 
L 117.791685 -173.573839 
L 116.695394 -173.670272 
L 115.599103 -173.83923 
L 114.502813 -174.13048 
L 113.406522 -174.41794 
L 112.310231 -174.889556 
L 111.21394 -175.280015 
L 110.117649 -175.900547 
L 109.021358 -176.371747 
L 107.925067 -177.089141 
L 106.828776 -177.601511 
L 105.732485 -178.335386 
L 104.636194 -178.830057 
L 103.539903 -179.471746 
L 102.443613 -179.868662 
L 101.347322 -180.300805 
L 100.251031 -180.524031 
L 99.15474 -180.645793 
L 98.058449 -180.635706 
L 96.962158 -180.389824 
L 95.865867 -180.14057 
L 94.769576 -179.552383 
L 93.673285 -179.131787 
L 92.576994 -178.330593 
L 91.480703 -177.889906 
L 90.384413 -177.114834 
L 89.288122 -176.871092 
L 88.191831 -176.432235 
L 87.09554 -176.612155 
L 85.999249 -176.814817 
L 84.902958 -177.575824 
L 83.806667 -178.612395 
L 82.710376 -179.958207 
L 81.614085 -181.810858 
L 80.517794 -183.547744 
L 79.421503 -185.948219 
L 78.325213 -187.698176 
L 77.228922 -190.155095 
L 76.132631 -191.433698 
L 75.03634 -193.324194 
L 73.940049 -193.624431 
L 72.843758 -194.273678 
L 71.747467 -193.135715 
L 70.651176 -191.891315 
L 69.554885 -188.962201 
L 68.458594 -185.227706 
L 67.362303 -180.290153 
L 66.266013 -173.50659 
L 65.169722 -166.476874 
L 64.073431 -155.948732 
L 62.97714 -146.832586 
L 61.880849 -131.02498 
L 60.784558 -119.804607 
L 59.688267 -91.020441 
z
"/>
    </defs>
    <g clip-path="url(#p2cf73ed1fb)">
     <use xlink:href="#m256d791fa8" x="0" y="252.77125" style="fill: #d62728; fill-opacity: 0.18"/>
    </g>
   </g>
   <g id="FillBetweenPolyCollection_2">
    <defs>
     <path id="m05ec255eff" d="M 59.688267 -90.977906 
L 59.688267 -88.024776 
L 60.784558 -115.842377 
L 61.880849 -126.881606 
L 62.97714 -142.064542 
L 64.073431 -150.966436 
L 65.169722 -161.09156 
L 66.266013 -167.925207 
L 67.362303 -174.463845 
L 68.458594 -179.246118 
L 69.554885 -182.861245 
L 70.651176 -185.684115 
L 71.747467 -186.913983 
L 72.843758 -187.998898 
L 73.940049 -187.413322 
L 75.03634 -187.109751 
L 76.132631 -185.333688 
L 77.228922 -184.092424 
L 78.325213 -181.776384 
L 79.421503 -180.097021 
L 80.517794 -177.841969 
L 81.614085 -176.19369 
L 82.710376 -174.464467 
L 83.806667 -173.206278 
L 84.902958 -172.257455 
L 85.999249 -171.572907 
L 87.09554 -171.421518 
L 88.191831 -171.308495 
L 89.288122 -171.773445 
L 90.384413 -172.077024 
L 91.480703 -172.859532 
L 92.576994 -173.346787 
L 93.673285 -174.147021 
L 94.769576 -174.603978 
L 95.865867 -175.193717 
L 96.962158 -175.470099 
L 98.058449 -175.723521 
L 99.15474 -175.752418 
L 100.251031 -175.648924 
L 101.347322 -175.436965 
L 102.443613 -175.027542 
L 103.539903 -174.636054 
L 104.636194 -174.02945 
L 105.732485 -173.547233 
L 106.828776 -172.857652 
L 107.925067 -172.361881 
L 109.021358 -171.690646 
L 110.117649 -171.243302 
L 111.21394 -170.671465 
L 112.310231 -170.315008 
L 113.406522 -169.893379 
L 114.502813 -169.647526 
L 115.599103 -169.402548 
L 116.695394 -169.28092 
L 117.791685 -169.227261 
L 118.887976 -169.233797 
L 119.984267 -169.363892 
L 121.080558 -169.495894 
L 122.176849 -169.790565 
L 123.27314 -170.041895 
L 124.369431 -170.468248 
L 125.465722 -170.815174 
L 126.562013 -171.320909 
L 127.658303 -171.731654 
L 128.754594 -172.257889 
L 129.850885 -172.690485 
L 130.947176 -173.183406 
L 132.043467 -173.604974 
L 133.139758 -174.031464 
L 134.236049 -174.423597 
L 135.33234 -174.765128 
L 136.428631 -175.113385 
L 137.524922 -175.373479 
L 138.621213 -175.682687 
L 139.717503 -175.884614 
L 140.813794 -176.167637 
L 141.910085 -176.345817 
L 143.006376 -176.621253 
L 144.102667 -176.808529 
L 145.198958 -177.089783 
L 146.295249 -177.320203 
L 147.39154 -177.629584 
L 148.487831 -177.932022 
L 149.584122 -178.284444 
L 150.680413 -178.668923 
L 151.776703 -179.06768 
L 152.872994 -179.52706 
L 153.969285 -179.963314 
L 155.065576 -180.472181 
L 156.161867 -180.928417 
L 157.258158 -181.452079 
L 158.354449 -181.905797 
L 159.45074 -182.408703 
L 160.547031 -182.839545 
L 161.643322 -183.299016 
L 162.739613 -183.70055 
L 163.835903 -184.103409 
L 164.932194 -184.469942 
L 166.028485 -184.817525 
L 167.124776 -185.157572 
L 168.221067 -185.464595 
L 169.317358 -185.791517 
L 170.413649 -186.083724 
L 171.50994 -186.418276 
L 172.606231 -186.721015 
L 173.702522 -187.078596 
L 174.798813 -187.41498 
L 175.895103 -187.812254 
L 176.991394 -188.204058 
L 178.087685 -188.648131 
L 179.183976 -189.091454 
L 180.280267 -189.569427 
L 181.376558 -190.055815 
L 182.472849 -190.559114 
L 183.56914 -191.077012 
L 184.665431 -191.600035 
L 185.761722 -192.145912 
L 186.858013 -192.685967 
L 187.954303 -193.253274 
L 189.050594 -193.807667 
L 190.146885 -194.387832 
L 191.243176 -194.950149 
L 192.339467 -195.534487 
L 193.435758 -196.099058 
L 194.532049 -196.679426 
L 195.62834 -197.244003 
L 196.724631 -197.820875 
L 197.820922 -198.385176 
L 198.917213 -198.949955 
L 200.013503 -199.501779 
L 201.109794 -200.043788 
L 202.206085 -200.578598 
L 203.302376 -201.089287 
L 204.398667 -201.590447 
L 205.494958 -202.05447 
L 206.591249 -202.508449 
L 207.68754 -202.918896 
L 208.783831 -203.317412 
L 209.880122 -203.672084 
L 210.976413 -204.011775 
L 212.072703 -204.307206 
L 213.168994 -204.578513 
L 214.265285 -204.806023 
L 215.361576 -204.99964 
L 216.457867 -205.153124 
L 217.554158 -205.263137 
L 218.650449 -205.335681 
L 219.74674 -205.35756 
L 220.843031 -205.342611 
L 221.939322 -205.272453 
L 223.035613 -205.166666 
L 224.131903 -205.00577 
L 225.228194 -204.81173 
L 226.324485 -204.567497 
L 227.420776 -204.293097 
L 228.517067 -203.974117 
L 229.613358 -203.624487 
L 230.709649 -203.24069 
L 231.80594 -202.83002 
L 232.902231 -202.397591 
L 233.998522 -201.941544 
L 235.094813 -201.474884 
L 236.191103 -200.991236 
L 237.287394 -200.507175 
L 238.383685 -200.013188 
L 239.479976 -199.524032 
L 240.576267 -199.027586 
L 241.672558 -198.537183 
L 242.768849 -198.045059 
L 243.86514 -197.561305 
L 244.961431 -197.080876 
L 246.057722 -196.608035 
L 247.154013 -196.142317 
L 248.250303 -195.686608 
L 249.346594 -195.244905 
L 250.442885 -194.816477 
L 251.539176 -194.407668 
L 252.635467 -194.016235 
L 253.731758 -193.650097 
L 254.828049 -193.306536 
L 255.92434 -192.990194 
L 257.020631 -192.699636 
L 258.116922 -192.440773 
L 259.213213 -192.211742 
L 260.309503 -192.016155 
L 261.405794 -191.856688 
L 262.502085 -191.73278 
L 263.598376 -191.643243 
L 264.694667 -191.588678 
L 265.790958 -191.569273 
L 266.887249 -191.584178 
L 267.98354 -191.630807 
L 269.079831 -191.706787 
L 270.176122 -191.810042 
L 271.272413 -191.937283 
L 272.368703 -192.085173 
L 273.464994 -192.251634 
L 274.561285 -192.434405 
L 275.657576 -192.633324 
L 276.753867 -192.848068 
L 277.850158 -193.075277 
L 278.946449 -193.315753 
L 280.04274 -193.56608 
L 281.139031 -193.827155 
L 282.235322 -194.092914 
L 283.331613 -194.365356 
L 284.427903 -194.637855 
L 285.524194 -194.915822 
L 286.620485 -195.193903 
L 287.716776 -195.474531 
L 288.813067 -195.755164 
L 289.909358 -196.035936 
L 291.005649 -196.314403 
L 292.10194 -196.589628 
L 293.198231 -196.862838 
L 294.294522 -197.130308 
L 295.390813 -197.400171 
L 296.487103 -197.66346 
L 297.583394 -197.928833 
L 298.679685 -198.184263 
L 299.775976 -198.43939 
L 300.872267 -198.682685 
L 301.968558 -198.919262 
L 303.064849 -199.142961 
L 304.16114 -199.35671 
L 305.257431 -199.557593 
L 306.353722 -199.749428 
L 307.450013 -199.935057 
L 308.546303 -200.114123 
L 309.642594 -200.294906 
L 310.738885 -200.471105 
L 311.835176 -200.654338 
L 312.931467 -200.834335 
L 314.027758 -201.029205 
L 315.124049 -201.224521 
L 316.22034 -201.4351 
L 317.316631 -201.648007 
L 318.412922 -201.876677 
L 319.509213 -202.110929 
L 320.605503 -202.360841 
L 321.701794 -202.621671 
L 322.798085 -202.894329 
L 323.894376 -203.183052 
L 324.990667 -203.481114 
L 326.086958 -203.800388 
L 327.183249 -204.124944 
L 328.27954 -204.474386 
L 329.375831 -204.823058 
L 330.472122 -205.192152 
L 331.568413 -205.557135 
L 332.664703 -205.943238 
L 333.760994 -206.327055 
L 334.857285 -206.723298 
L 335.953585 -207.116774 
L 337.049867 -207.510696 
L 338.146158 -207.901426 
L 339.242449 -208.278352 
L 340.33874 -208.650636 
L 341.435031 -208.997416 
L 342.531322 -209.340932 
L 343.627613 -209.646871 
L 344.723903 -209.945571 
L 345.820194 -210.195733 
L 346.916485 -210.432337 
L 348.012776 -210.61479 
L 349.109067 -210.775873 
L 350.205358 -210.885183 
L 351.301649 -210.96544 
L 352.39794 -211.001303 
L 353.494231 -210.997229 
L 354.590522 -210.958012 
L 355.686813 -210.866945 
L 356.783103 -210.745228 
L 357.879394 -210.557186 
L 358.975685 -210.340674 
L 360.071976 -210.049195 
L 361.168267 -209.726733 
L 362.264558 -209.320437 
L 363.360849 -208.878669 
L 364.45714 -208.355847 
L 365.553431 -207.789068 
L 366.649722 -207.148872 
L 367.746013 -206.457617 
L 368.842303 -205.711531 
L 369.938594 -204.907676 
L 371.034885 -204.071404 
L 372.131176 -203.176195 
L 373.227467 -202.273257 
L 374.323758 -201.319342 
L 375.420049 -200.383297 
L 376.51634 -199.406288 
L 377.612631 -198.463614 
L 378.708922 -197.492747 
L 379.805213 -196.565818 
L 380.901503 -195.631371 
L 381.997794 -194.746788 
L 383.094085 -193.876237 
L 384.190376 -193.048122 
L 385.286667 -192.250315 
L 386.382958 -191.483323 
L 387.479249 -190.761098 
L 388.57554 -190.054342 
L 389.671831 -189.40627 
L 390.768122 -188.757041 
L 391.864413 -188.171375 
L 392.960703 -187.5714 
L 394.056994 -187.032968 
L 395.153285 -186.470863 
L 396.249576 -185.963068 
L 397.345867 -185.435034 
L 398.442158 -184.949184 
L 399.538449 -184.447882 
L 400.63474 -183.969102 
L 401.731031 -183.48738 
L 402.827322 -183.000086 
L 403.923613 -182.525647 
L 405.019903 -182.01334 
L 406.116194 -181.53538 
L 407.212485 -180.989373 
L 408.308776 -180.495009 
L 409.405067 -179.90568 
L 410.501358 -179.376948 
L 411.597649 -178.737629 
L 412.69394 -178.153102 
L 413.790231 -177.45707 
L 414.886522 -176.789101 
L 415.982813 -176.024198 
L 417.079103 -175.240024 
L 418.175394 -174.386683 
L 419.271685 -173.45102 
L 420.367976 -172.473845 
L 421.464267 -171.34432 
L 422.560558 -170.196288 
L 423.656849 -168.829002 
L 424.75314 -167.445089 
L 425.849431 -165.797771 
L 426.945722 -164.116386 
L 428.042013 -162.162322 
L 429.138303 -160.128435 
L 430.234594 -157.855156 
L 431.330885 -155.439427 
L 432.427176 -152.8578 
L 433.523467 -150.05879 
L 434.619758 -147.194348 
L 435.716049 -144.04464 
L 436.81234 -140.938655 
L 437.908631 -137.502686 
L 439.004922 -134.200791 
L 440.101213 -130.569643 
L 441.197503 -127.121959 
L 442.293794 -123.401671 
L 443.390085 -119.857355 
L 444.486376 -116.151831 
L 445.582667 -112.553162 
L 446.678958 -108.932509 
L 447.775249 -105.296178 
L 448.87154 -101.768956 
L 449.967831 -98.082753 
L 451.064122 -94.59516 
L 452.160413 -90.832695 
L 453.256703 -87.293775 
L 454.352994 -83.447447 
L 455.449285 -79.7673 
L 456.545576 -75.885106 
L 457.641867 -72.020832 
L 458.738158 -68.244158 
L 459.834449 -64.235193 
L 460.93074 -60.809076 
L 462.027031 -56.751502 
L 463.123322 -53.967512 
L 464.219613 -50.052034 
L 465.315903 -48.317239 
L 466.412194 -44.969987 
L 467.508485 -45.208808 
L 468.604776 -43.819878 
L 469.701067 -49.155366 
L 470.797358 -56.215128 
L 470.797358 -58.363947 
L 470.797358 -58.363947 
L 469.701067 -51.071414 
L 468.604776 -45.54112 
L 467.508485 -47.0224 
L 466.412194 -46.82038 
L 465.315903 -50.349972 
L 464.219613 -52.228465 
L 463.123322 -56.345801 
L 462.027031 -59.304351 
L 460.93074 -63.550653 
L 459.834449 -67.150532 
L 458.738158 -71.327806 
L 457.641867 -75.270667 
L 456.545576 -79.287695 
L 455.449285 -83.333214 
L 454.352994 -87.161025 
L 453.256703 -91.172662 
L 452.160413 -94.862679 
L 451.064122 -98.794149 
L 449.967831 -102.440636 
L 448.87154 -106.298507 
L 447.775249 -109.992789 
L 446.678958 -113.800865 
L 445.582667 -117.594121 
L 444.486376 -121.361965 
L 443.390085 -125.241724 
L 442.293794 -128.950787 
L 441.197503 -132.842891 
L 440.101213 -136.449491 
L 439.004922 -140.245785 
L 437.908631 -143.698823 
L 436.81234 -147.288892 
L 435.716049 -150.536 
L 434.619758 -153.82539 
L 433.523467 -156.819288 
L 432.427176 -159.741853 
L 431.330885 -162.440544 
L 430.234594 -164.964003 
L 429.138303 -167.342126 
L 428.042013 -169.46961 
L 426.945722 -171.517066 
L 425.849431 -173.280317 
L 424.75314 -175.010367 
L 423.656849 -176.466789 
L 422.560558 -177.907134 
L 421.464267 -179.120338 
L 420.367976 -180.313967 
L 419.271685 -181.350122 
L 418.175394 -182.341741 
L 417.079103 -183.248528 
L 415.982813 -184.081245 
L 414.886522 -184.894186 
L 413.790231 -185.604291 
L 412.69394 -186.343041 
L 411.597649 -186.964055 
L 410.501358 -187.640548 
L 409.405067 -188.20057 
L 408.308776 -188.82133 
L 407.212485 -189.342222 
L 406.116194 -189.914003 
L 405.019903 -190.414179 
L 403.923613 -190.947123 
L 402.827322 -191.440369 
L 401.731031 -191.944372 
L 400.63474 -192.442446 
L 399.538449 -192.935244 
L 398.442158 -193.451603 
L 397.345867 -193.95049 
L 396.249576 -194.493591 
L 395.153285 -195.015175 
L 394.056994 -195.593857 
L 392.960703 -196.148727 
L 391.864413 -196.767936 
L 390.768122 -197.373382 
L 389.671831 -198.044642 
L 388.57554 -198.715792 
L 387.479249 -199.447141 
L 386.382958 -200.195332 
L 385.286667 -200.989177 
L 384.190376 -201.815387 
L 383.094085 -202.671977 
L 381.997794 -203.57231 
L 380.901503 -204.485808 
L 379.805213 -205.449916 
L 378.708922 -206.405103 
L 377.612631 -207.404849 
L 376.51634 -208.374897 
L 375.420049 -209.379388 
L 374.323758 -210.341199 
L 373.227467 -211.320425 
L 372.131176 -212.247179 
L 371.034885 -213.165441 
L 369.938594 -214.023755 
L 368.842303 -214.848464 
L 367.746013 -215.614813 
L 366.649722 -216.324674 
L 365.553431 -216.982887 
L 364.45714 -217.565639 
L 363.360849 -218.103852 
L 362.264558 -218.558632 
L 361.168267 -218.977177 
L 360.071976 -219.309516 
L 358.975685 -219.609877 
L 357.879394 -219.83296 
L 356.783103 -220.026229 
L 355.686813 -220.15133 
L 354.590522 -220.244164 
L 353.494231 -220.283605 
L 352.39794 -220.286002 
L 351.301649 -220.24736 
L 350.205358 -220.162344 
L 349.109067 -220.047484 
L 348.012776 -219.879024 
L 346.916485 -219.688692 
L 345.820194 -219.442327 
L 344.723903 -219.181668 
L 343.627613 -218.870471 
L 342.531322 -218.550992 
L 341.435031 -218.191873 
L 340.33874 -217.827842 
L 339.242449 -217.436279 
L 338.146158 -217.038296 
L 337.049867 -216.624909 
L 335.953585 -216.206451 
L 334.857285 -215.787197 
L 333.760994 -215.363364 
L 332.664703 -214.951154 
L 331.568413 -214.53537 
L 330.472122 -214.14066 
L 329.375831 -213.741316 
L 328.27954 -213.362999 
L 327.183249 -212.984053 
L 326.086958 -212.630591 
L 324.990667 -212.282603 
L 323.894376 -211.95647 
L 322.798085 -211.640281 
L 321.701794 -211.340731 
L 320.605503 -211.053751 
L 319.509213 -210.778195 
L 318.412922 -210.519203 
L 317.316631 -210.266173 
L 316.22034 -210.029778 
L 315.124049 -209.795867 
L 314.027758 -209.577822 
L 312.931467 -209.360248 
L 311.835176 -209.157842 
L 310.738885 -208.95198 
L 309.642594 -208.753251 
L 308.546303 -208.549749 
L 307.450013 -208.347898 
L 306.353722 -208.139492 
L 305.257431 -207.924831 
L 304.16114 -207.701422 
L 303.064849 -207.46517 
L 301.968558 -207.21928 
L 300.872267 -206.960253 
L 299.775976 -206.694651 
L 298.679685 -206.416834 
L 297.583394 -206.138489 
L 296.487103 -205.849712 
L 295.390813 -205.562612 
L 294.294522 -205.268486 
L 293.198231 -204.976385 
L 292.10194 -204.678524 
L 291.005649 -204.378699 
L 289.909358 -204.075995 
L 288.813067 -203.771181 
L 287.716776 -203.467057 
L 286.620485 -203.163234 
L 285.524194 -202.86268 
L 284.427903 -202.562712 
L 283.331613 -202.269081 
L 282.235322 -201.976267 
L 281.139031 -201.690981 
L 280.04274 -201.411198 
L 278.946449 -201.142966 
L 277.850158 -200.885476 
L 276.753867 -200.642178 
L 275.657576 -200.412562 
L 274.561285 -200.200044 
L 273.464994 -200.005219 
L 272.368703 -199.828277 
L 271.272413 -199.671634 
L 270.176122 -199.537146 
L 269.079831 -199.428125 
L 267.98354 -199.347619 
L 266.887249 -199.297619 
L 265.790958 -199.280256 
L 264.694667 -199.297841 
L 263.598376 -199.351185 
L 262.502085 -199.439996 
L 261.405794 -199.56365 
L 260.309503 -199.723276 
L 259.213213 -199.919275 
L 258.116922 -200.149209 
L 257.020631 -200.40943 
L 255.92434 -200.701923 
L 254.828049 -201.02075 
L 253.731758 -201.367363 
L 252.635467 -201.736958 
L 251.539176 -202.132152 
L 250.442885 -202.54508 
L 249.346594 -202.977914 
L 248.250303 -203.424321 
L 247.154013 -203.884791 
L 246.057722 -204.355496 
L 244.961431 -204.833202 
L 243.86514 -205.318447 
L 242.768849 -205.80627 
L 241.672558 -206.301725 
L 240.576267 -206.794137 
L 239.479976 -207.291304 
L 238.383685 -207.779453 
L 237.287394 -208.270466 
L 236.191103 -208.74928 
L 235.094813 -209.225273 
L 233.998522 -209.682138 
L 232.902231 -210.126049 
L 231.80594 -210.544433 
L 230.709649 -210.938711 
L 229.613358 -211.304288 
L 228.517067 -211.633376 
L 227.420776 -211.930152 
L 226.324485 -212.180127 
L 225.228194 -212.398094 
L 224.131903 -212.563635 
L 223.035613 -212.694242 
L 221.939322 -212.767678 
L 220.843031 -212.80368 
L 219.74674 -212.782522 
L 218.650449 -212.722464 
L 217.554158 -212.609795 
L 216.457867 -212.457118 
L 215.361576 -212.259066 
L 214.265285 -212.018161 
L 213.168994 -211.74154 
L 212.072703 -211.41834 
L 210.976413 -211.069376 
L 209.880122 -210.673421 
L 208.783831 -210.26088 
L 207.68754 -209.802112 
L 206.591249 -209.329784 
L 205.494958 -208.812054 
L 204.398667 -208.282508 
L 203.302376 -207.714281 
L 202.206085 -207.134422 
L 201.109794 -206.528971 
L 200.013503 -205.913535 
L 198.917213 -205.286708 
L 197.820922 -204.64411 
L 196.724631 -204.000684 
L 195.62834 -203.341803 
L 194.532049 -202.694149 
L 193.435758 -202.028707 
L 192.339467 -201.378949 
L 191.243176 -200.708907 
L 190.146885 -200.061355 
L 189.050594 -199.396716 
L 187.954303 -198.758685 
L 186.858013 -198.109564 
L 185.761722 -197.488588 
L 184.665431 -196.864735 
L 183.56914 -196.264853 
L 182.472849 -195.673709 
L 181.376558 -195.098396 
L 180.280267 -194.543905 
L 179.183976 -193.998927 
L 178.087685 -193.491965 
L 176.991394 -192.985186 
L 175.895103 -192.532693 
L 174.798813 -192.075087 
L 173.702522 -191.679454 
L 172.606231 -191.263744 
L 171.50994 -190.903768 
L 170.413649 -190.513999 
L 169.317358 -190.167364 
L 168.221067 -189.788809 
L 167.124776 -189.431193 
L 166.028485 -189.044382 
L 164.932194 -188.651248 
L 163.835903 -188.243615 
L 162.739613 -187.801258 
L 161.643322 -187.364964 
L 160.547031 -186.872228 
L 159.45074 -186.412162 
L 158.354449 -185.881666 
L 157.258158 -185.403989 
L 156.161867 -184.857915 
L 155.065576 -184.381794 
L 153.969285 -183.854767 
L 152.872994 -183.401731 
L 151.776703 -182.927706 
L 150.680413 -182.514694 
L 149.584122 -182.118711 
L 148.487831 -181.754463 
L 147.39154 -181.443593 
L 146.295249 -181.124801 
L 145.198958 -180.888955 
L 144.102667 -180.601302 
L 143.006376 -180.41177 
L 141.910085 -180.132903 
L 140.813794 -179.954061 
L 139.717503 -179.668264 
L 138.621213 -179.464744 
L 137.524922 -179.152272 
L 136.428631 -178.888866 
L 135.33234 -178.536718 
L 134.236049 -178.19024 
L 133.139758 -177.794194 
L 132.043467 -177.362001 
L 130.947176 -176.93739 
L 129.850885 -176.439561 
L 128.754594 -176.0065 
L 127.658303 -175.478084 
L 126.562013 -175.069956 
L 125.465722 -174.564741 
L 124.369431 -174.221734 
L 123.27314 -173.797121 
L 122.176849 -173.549173 
L 121.080558 -173.255919 
L 119.984267 -173.125034 
L 118.887976 -172.995237 
L 117.791685 -172.98717 
L 116.695394 -173.039518 
L 115.599103 -173.156576 
L 114.502813 -173.398523 
L 113.406522 -173.637605 
L 112.310231 -174.055947 
L 111.21394 -174.405272 
L 110.117649 -174.97479 
L 109.021358 -175.416429 
L 107.925067 -176.088092 
L 106.828776 -176.581802 
L 105.732485 -177.276482 
L 104.636194 -177.762169 
L 103.539903 -178.379316 
L 102.443613 -178.779834 
L 101.347322 -179.203865 
L 100.251031 -179.429249 
L 99.15474 -179.548963 
L 98.058449 -179.534858 
L 96.962158 -179.294928 
L 95.865867 -179.031173 
L 94.769576 -178.449148 
L 93.673285 -178.000812 
L 92.576994 -177.20193 
L 91.480703 -176.721237 
L 90.384413 -175.93823 
L 89.288122 -175.646209 
L 88.191831 -175.189011 
L 87.09554 -175.330152 
L 85.999249 -175.512088 
L 84.902958 -176.255698 
L 83.806667 -177.274252 
L 82.710376 -178.633628 
L 81.614085 -180.481545 
L 80.517794 -182.272874 
L 79.421503 -184.692681 
L 78.325213 -186.543237 
L 77.228922 -189.053557 
L 76.132631 -190.469624 
L 75.03634 -192.443234 
L 73.940049 -192.896252 
L 72.843758 -193.65224 
L 71.747467 -192.662962 
L 70.651176 -191.545235 
L 69.554885 -188.739552 
L 68.458594 -185.148324 
L 67.362303 -180.285988 
L 66.266013 -173.653399 
L 65.169722 -166.629929 
L 64.073431 -156.257014 
L 62.97714 -147.048185 
L 61.880849 -131.38811 
L 60.784558 -119.913215 
L 59.688267 -90.977906 
z
"/>
    </defs>
    <g clip-path="url(#p2cf73ed1fb)">
     <use xlink:href="#m05ec255eff" x="0" y="252.77125" style="fill: #1f77b4; fill-opacity: 0.18"/>
    </g>
   </g>
   <g id="matplotlib.axis_1">
    <g id="xtick_1">
     <g id="line2d_1">
      <path d="M 87.09554 218.618437 
L 87.09554 20.798438 
" clip-path="url(#p2cf73ed1fb)" style="fill: none; stroke: #b0b0b0; stroke-opacity: 0.15; stroke-width: 0.8; stroke-linecap: square"/>
     </g>
     <g id="line2d_2">
      <defs>
       <path id="mff64fbcfef" d="M 0 0 
L 0 3 
" style="stroke: #000000; stroke-width: 0.8"/>
      </defs>
      <g>
       <use xlink:href="#mff64fbcfef" x="87.09554" y="218.618437" style="stroke: #000000; stroke-width: 0.8"/>
      </g>
     </g>
     <g id="text_1">
      <text style="font-size: 8px; font-family: 'Arial', 'Helvetica', 'DejaVu Sans', sans-serif; text-anchor: middle" x="87.09554" y="231.197188" transform="rotate(-0 87.09554 231.197188)">−400</text>
     </g>
    </g>
    <g id="xtick_2">
     <g id="line2d_3">
      <path d="M 141.910085 218.618437 
L 141.910085 20.798438 
" clip-path="url(#p2cf73ed1fb)" style="fill: none; stroke: #b0b0b0; stroke-opacity: 0.15; stroke-width: 0.8; stroke-linecap: square"/>
     </g>
     <g id="line2d_4">
      <g>
       <use xlink:href="#mff64fbcfef" x="141.910085" y="218.618437" style="stroke: #000000; stroke-width: 0.8"/>
      </g>
     </g>
     <g id="text_2">
      <text style="font-size: 8px; font-family: 'Arial', 'Helvetica', 'DejaVu Sans', sans-serif; text-anchor: middle" x="141.910085" y="231.197188" transform="rotate(-0 141.910085 231.197188)">−200</text>
     </g>
    </g>
    <g id="xtick_3">
     <g id="line2d_5">
      <path d="M 196.724631 218.618437 
L 196.724631 20.798438 
" clip-path="url(#p2cf73ed1fb)" style="fill: none; stroke: #b0b0b0; stroke-opacity: 0.15; stroke-width: 0.8; stroke-linecap: square"/>
     </g>
     <g id="line2d_6">
      <g>
       <use xlink:href="#mff64fbcfef" x="196.724631" y="218.618437" style="stroke: #000000; stroke-width: 0.8"/>
      </g>
     </g>
     <g id="text_3">
      <text style="font-size: 8px; font-family: 'Arial', 'Helvetica', 'DejaVu Sans', sans-serif; text-anchor: middle" x="196.724631" y="231.197188" transform="rotate(-0 196.724631 231.197188)">0</text>
     </g>
    </g>
    <g id="xtick_4">
     <g id="line2d_7">
      <path d="M 251.539176 218.618437 
L 251.539176 20.798438 
" clip-path="url(#p2cf73ed1fb)" style="fill: none; stroke: #b0b0b0; stroke-opacity: 0.15; stroke-width: 0.8; stroke-linecap: square"/>
     </g>
     <g id="line2d_8">
      <g>
       <use xlink:href="#mff64fbcfef" x="251.539176" y="218.618437" style="stroke: #000000; stroke-width: 0.8"/>
      </g>
     </g>
     <g id="text_4">
      <text style="font-size: 8px; font-family: 'Arial', 'Helvetica', 'DejaVu Sans', sans-serif; text-anchor: middle" x="251.539176" y="231.197188" transform="rotate(-0 251.539176 231.197188)">200</text>
     </g>
    </g>
    <g id="xtick_5">
     <g id="line2d_9">
      <path d="M 306.353722 218.618437 
L 306.353722 20.798438 
" clip-path="url(#p2cf73ed1fb)" style="fill: none; stroke: #b0b0b0; stroke-opacity: 0.15; stroke-width: 0.8; stroke-linecap: square"/>
     </g>
     <g id="line2d_10">
      <g>
       <use xlink:href="#mff64fbcfef" x="306.353722" y="218.618437" style="stroke: #000000; stroke-width: 0.8"/>
      </g>
     </g>
     <g id="text_5">
      <text style="font-size: 8px; font-family: 'Arial', 'Helvetica', 'DejaVu Sans', sans-serif; text-anchor: middle" x="306.353722" y="231.197188" transform="rotate(-0 306.353722 231.197188)">400</text>
     </g>
    </g>
    <g id="xtick_6">
     <g id="line2d_11">
      <path d="M 361.168267 218.618437 
L 361.168267 20.798438 
" clip-path="url(#p2cf73ed1fb)" style="fill: none; stroke: #b0b0b0; stroke-opacity: 0.15; stroke-width: 0.8; stroke-linecap: square"/>
     </g>
     <g id="line2d_12">
      <g>
       <use xlink:href="#mff64fbcfef" x="361.168267" y="218.618437" style="stroke: #000000; stroke-width: 0.8"/>
      </g>
     </g>
     <g id="text_6">
      <text style="font-size: 8px; font-family: 'Arial', 'Helvetica', 'DejaVu Sans', sans-serif; text-anchor: middle" x="361.168267" y="231.197188" transform="rotate(-0 361.168267 231.197188)">600</text>
     </g>
    </g>
    <g id="xtick_7">
     <g id="line2d_13">
      <path d="M 415.982813 218.618437 
L 415.982813 20.798438 
" clip-path="url(#p2cf73ed1fb)" style="fill: none; stroke: #b0b0b0; stroke-opacity: 0.15; stroke-width: 0.8; stroke-linecap: square"/>
     </g>
     <g id="line2d_14">
      <g>
       <use xlink:href="#mff64fbcfef" x="415.982813" y="218.618437" style="stroke: #000000; stroke-width: 0.8"/>
      </g>
     </g>
     <g id="text_7">
      <text style="font-size: 8px; font-family: 'Arial', 'Helvetica', 'DejaVu Sans', sans-serif; text-anchor: middle" x="415.982813" y="231.197188" transform="rotate(-0 415.982813 231.197188)">800</text>
     </g>
    </g>
    <g id="xtick_8">
     <g id="line2d_15">
      <path d="M 470.797358 218.618437 
L 470.797358 20.798438 
" clip-path="url(#p2cf73ed1fb)" style="fill: none; stroke: #b0b0b0; stroke-opacity: 0.15; stroke-width: 0.8; stroke-linecap: square"/>
     </g>
     <g id="line2d_16">
      <g>
       <use xlink:href="#mff64fbcfef" x="470.797358" y="218.618437" style="stroke: #000000; stroke-width: 0.8"/>
      </g>
     </g>
     <g id="text_8">
      <text style="font-size: 8px; font-family: 'Arial', 'Helvetica', 'DejaVu Sans', sans-serif; text-anchor: middle" x="470.797358" y="231.197188" transform="rotate(-0 470.797358 231.197188)">1000</text>
     </g>
    </g>
    <g id="text_9">
     <text style="font-size: 9px; font-family: 'Arial', 'Helvetica', 'DejaVu Sans', sans-serif; text-anchor: middle" x="265.242813" y="243.699531" transform="rotate(-0 265.242813 243.699531)">Time (ms)</text>
    </g>
   </g>
   <g id="matplotlib.axis_2">
    <g id="ytick_1">
     <g id="line2d_17">
      <path d="M 39.132813 183.647793 
L 491.352813 183.647793 
" clip-path="url(#p2cf73ed1fb)" style="fill: none; stroke: #b0b0b0; stroke-opacity: 0.15; stroke-width: 0.8; stroke-linecap: square"/>
     </g>
     <g id="line2d_18">
      <defs>
       <path id="m0b84b69a75" d="M 0 0 
L -3 0 
" style="stroke: #000000; stroke-width: 0.8"/>
      </defs>
      <g>
       <use xlink:href="#m0b84b69a75" x="39.132813" y="183.647793" style="stroke: #000000; stroke-width: 0.8"/>
      </g>
     </g>
     <g id="text_10">
      <text style="font-size: 8px; font-family: 'Arial', 'Helvetica', 'DejaVu Sans', sans-serif; text-anchor: end" x="32.632813" y="186.687168" transform="rotate(-0 32.632813 186.687168)">0.4</text>
     </g>
    </g>
    <g id="ytick_2">
     <g id="line2d_19">
      <path d="M 39.132813 146.969973 
L 491.352813 146.969973 
" clip-path="url(#p2cf73ed1fb)" style="fill: none; stroke: #b0b0b0; stroke-opacity: 0.15; stroke-width: 0.8; stroke-linecap: square"/>
     </g>
     <g id="line2d_20">
      <g>
       <use xlink:href="#m0b84b69a75" x="39.132813" y="146.969973" style="stroke: #000000; stroke-width: 0.8"/>
      </g>
     </g>
     <g id="text_11">
      <text style="font-size: 8px; font-family: 'Arial', 'Helvetica', 'DejaVu Sans', sans-serif; text-anchor: end" x="32.632813" y="150.009348" transform="rotate(-0 32.632813 150.009348)">0.6</text>
     </g>
    </g>
    <g id="ytick_3">
     <g id="line2d_21">
      <path d="M 39.132813 110.292153 
L 491.352813 110.292153 
" clip-path="url(#p2cf73ed1fb)" style="fill: none; stroke: #b0b0b0; stroke-opacity: 0.15; stroke-width: 0.8; stroke-linecap: square"/>
     </g>
     <g id="line2d_22">
      <g>
       <use xlink:href="#m0b84b69a75" x="39.132813" y="110.292153" style="stroke: #000000; stroke-width: 0.8"/>
      </g>
     </g>
     <g id="text_12">
      <text style="font-size: 8px; font-family: 'Arial', 'Helvetica', 'DejaVu Sans', sans-serif; text-anchor: end" x="32.632813" y="113.331528" transform="rotate(-0 32.632813 113.331528)">0.8</text>
     </g>
    </g>
    <g id="ytick_4">
     <g id="line2d_23">
      <path d="M 39.132813 73.614333 
L 491.352813 73.614333 
" clip-path="url(#p2cf73ed1fb)" style="fill: none; stroke: #b0b0b0; stroke-opacity: 0.15; stroke-width: 0.8; stroke-linecap: square"/>
     </g>
     <g id="line2d_24">
      <g>
       <use xlink:href="#m0b84b69a75" x="39.132813" y="73.614333" style="stroke: #000000; stroke-width: 0.8"/>
      </g>
     </g>
     <g id="text_13">
      <text style="font-size: 8px; font-family: 'Arial', 'Helvetica', 'DejaVu Sans', sans-serif; text-anchor: end" x="32.632813" y="76.653708" transform="rotate(-0 32.632813 76.653708)">1.0</text>
     </g>
    </g>
    <g id="ytick_5">
     <g id="line2d_25">
      <path d="M 39.132813 36.936513 
L 491.352813 36.936513 
" clip-path="url(#p2cf73ed1fb)" style="fill: none; stroke: #b0b0b0; stroke-opacity: 0.15; stroke-width: 0.8; stroke-linecap: square"/>
     </g>
     <g id="line2d_26">
      <g>
       <use xlink:href="#m0b84b69a75" x="39.132813" y="36.936513" style="stroke: #000000; stroke-width: 0.8"/>
      </g>
     </g>
     <g id="text_14">
      <text style="font-size: 8px; font-family: 'Arial', 'Helvetica', 'DejaVu Sans', sans-serif; text-anchor: end" x="32.632813" y="39.975888" transform="rotate(-0 32.632813 39.975888)">1.2</text>
     </g>
    </g>
    <g id="text_15">
     <text style="font-size: 9px; font-family: 'Arial', 'Helvetica', 'DejaVu Sans', sans-serif; text-anchor: middle" x="14.038594" y="119.708438" transform="rotate(-90 14.038594 119.708438)">α-band envelope / baseline</text>
    </g>
   </g>
   <g id="line2d_27">
    <path d="M 59.688267 163.220163 
L 60.784558 135.012622 
L 61.880849 124.004226 
L 62.97714 108.442029 
L 64.073431 99.477799 
L 65.169722 89.075419 
L 67.362303 75.404291 
L 68.458594 70.508181 
L 69.554885 66.761329 
L 70.651176 63.825939 
L 72.843758 61.342845 
L 73.940049 61.907707 
L 75.03634 62.136993 
L 76.132631 63.93046 
L 77.228922 65.125813 
L 78.325213 67.488055 
L 79.421503 69.156604 
L 80.517794 71.47731 
L 82.710376 74.941326 
L 83.806667 76.238489 
L 84.902958 77.24111 
L 85.999249 77.973072 
L 88.191831 78.326488 
L 89.288122 77.884193 
L 90.384413 77.634566 
L 91.480703 76.8604 
L 92.576994 76.416509 
L 93.673285 75.615519 
L 94.769576 75.190998 
L 95.865867 74.599978 
L 98.058449 74.093006 
L 99.15474 74.075724 
L 101.347322 74.405376 
L 103.539903 75.219254 
L 104.636194 75.853155 
L 105.732485 76.343141 
L 106.828776 77.070884 
L 107.925067 77.580316 
L 109.021358 78.293105 
L 110.117649 78.762793 
L 111.21394 79.379926 
L 114.502813 80.524943 
L 115.599103 80.813408 
L 117.791685 81.073802 
L 118.887976 81.112104 
L 121.080558 80.919404 
L 124.369431 80.0229 
L 125.465722 79.694844 
L 130.947176 77.314259 
L 135.33234 75.670905 
L 137.524922 75.051761 
L 138.621213 74.745708 
L 147.39154 73.15738 
L 150.680413 72.384723 
L 153.969285 71.437981 
L 159.45074 69.611371 
L 174.798813 64.912355 
L 179.183976 62.991916 
L 182.472849 61.211391 
L 186.858013 58.482462 
L 200.013503 49.767192 
L 203.302376 47.935948 
L 206.591249 46.376817 
L 209.880122 45.155842 
L 212.072703 44.53016 
L 214.265285 44.065862 
L 216.457867 43.764083 
L 218.650449 43.632563 
L 220.843031 43.667673 
L 223.035613 43.88065 
L 225.228194 44.278554 
L 227.420776 44.852992 
L 230.709649 46.00073 
L 233.998522 47.422286 
L 246.057722 52.97992 
L 249.346594 54.202841 
L 252.635467 55.234078 
L 255.92434 56.01642 
L 259.213213 56.510495 
L 261.405794 56.656705 
L 264.694667 56.596389 
L 267.98354 56.207994 
L 271.272413 55.558812 
L 274.561285 54.695931 
L 281.139031 52.643447 
L 295.390813 47.951645 
L 304.16114 45.169724 
L 309.642594 43.652479 
L 318.412922 41.267523 
L 333.760994 36.917638 
L 338.146158 35.91211 
L 342.531322 35.141638 
L 346.916485 34.70353 
L 350.205358 34.633529 
L 353.494231 34.798497 
L 356.783103 35.220952 
L 360.071976 35.959287 
L 362.264558 36.625609 
L 364.45714 37.465273 
L 366.649722 38.487569 
L 368.842303 39.699712 
L 372.131176 41.876786 
L 375.420049 44.353124 
L 381.997794 49.604235 
L 385.286667 52.03355 
L 388.57554 54.266677 
L 392.960703 56.917821 
L 403.923613 62.929741 
L 409.405067 66.480734 
L 411.597649 68.041134 
L 413.790231 69.705529 
L 415.982813 71.509271 
L 418.175394 73.498051 
L 420.367976 75.737452 
L 422.560558 78.314978 
L 424.75314 81.341389 
L 426.945722 84.922923 
L 429.138303 89.146087 
L 431.330885 94.06724 
L 433.523467 99.688403 
L 435.716049 105.962313 
L 436.81234 109.19864 
L 442.293794 127.480824 
L 456.545576 175.75462 
L 462.027031 195.131325 
L 463.123322 197.957953 
L 464.219613 202.075027 
L 465.315903 203.877911 
L 466.412194 207.459965 
L 467.508485 207.244895 
L 468.604776 208.743492 
L 469.701067 203.27372 
L 470.797358 196.066119 
L 470.797358 196.066119 
" clip-path="url(#p2cf73ed1fb)" style="fill: none; stroke: #d62728; stroke-width: 1.6; stroke-linecap: square"/>
   </g>
   <g id="line2d_28">
    <path d="M 59.688267 163.269909 
L 60.784558 134.893454 
L 61.880849 123.636392 
L 62.97714 108.214886 
L 64.073431 99.159525 
L 65.169722 88.910505 
L 67.362303 75.396334 
L 68.458594 70.574029 
L 69.554885 66.970851 
L 70.651176 64.156575 
L 72.843758 61.945681 
L 73.940049 62.616463 
L 75.03634 62.994758 
L 76.132631 64.869594 
L 77.228922 66.198259 
L 78.325213 68.61144 
L 79.421503 70.376399 
L 80.517794 72.713828 
L 82.710376 76.222202 
L 83.806667 77.530985 
L 84.902958 78.514673 
L 85.999249 79.228752 
L 88.191831 79.522497 
L 89.288122 79.061423 
L 90.384413 78.763623 
L 91.480703 77.980866 
L 92.576994 77.496892 
L 93.673285 76.697333 
L 94.769576 76.244687 
L 95.865867 75.658805 
L 98.058449 75.14206 
L 99.15474 75.120559 
L 101.347322 75.450835 
L 103.539903 76.263565 
L 104.636194 76.875441 
L 105.732485 77.359393 
L 106.828776 78.051523 
L 107.925067 78.546263 
L 109.021358 79.217712 
L 110.117649 79.662204 
L 111.21394 80.232881 
L 114.502813 81.248226 
L 115.599103 81.491688 
L 117.791685 81.664035 
L 118.887976 81.656733 
L 121.080558 81.395344 
L 124.369431 80.426259 
L 125.465722 80.081293 
L 128.754594 78.639055 
L 135.33234 76.120327 
L 137.524922 75.508375 
L 139.717503 74.994811 
L 143.006376 74.254738 
L 145.198958 73.781881 
L 147.39154 73.234661 
L 149.584122 72.569672 
L 152.872994 71.306854 
L 156.161867 69.878084 
L 159.45074 68.360817 
L 164.932194 66.210655 
L 170.413649 64.472389 
L 175.895103 62.598777 
L 179.183976 61.22606 
L 183.56914 59.100317 
L 189.050594 56.169059 
L 200.013503 50.063593 
L 204.398667 47.834773 
L 207.68754 46.410746 
L 210.976413 45.230674 
L 214.265285 44.359158 
L 216.457867 43.966129 
L 218.650449 43.742178 
L 220.843031 43.698105 
L 223.035613 43.840796 
L 225.228194 44.166338 
L 228.517067 44.967503 
L 231.80594 46.084023 
L 236.191103 47.900992 
L 250.442885 54.090472 
L 253.731758 55.26252 
L 257.020631 56.216717 
L 260.309503 56.901535 
L 263.598376 57.274036 
L 266.887249 57.330351 
L 270.176122 57.097656 
L 273.464994 56.642823 
L 277.850158 55.790873 
L 283.331613 54.454031 
L 303.064849 49.467185 
L 308.546303 48.439314 
L 317.316631 46.81416 
L 322.798085 45.503945 
L 327.183249 44.216751 
L 333.760994 41.92604 
L 340.33874 39.532011 
L 344.723903 38.20763 
L 348.012776 37.524343 
L 350.205358 37.247487 
L 352.39794 37.127597 
L 354.590522 37.170162 
L 356.783103 37.385521 
L 358.975685 37.795975 
L 361.168267 38.419295 
L 363.360849 39.279989 
L 365.553431 40.385272 
L 367.746013 41.735035 
L 369.938594 43.305534 
L 373.227467 45.974409 
L 381.997794 53.611701 
L 385.286667 56.151504 
L 388.57554 58.386183 
L 392.960703 60.911186 
L 399.538449 64.079687 
L 406.116194 67.046558 
L 412.69394 70.523178 
L 415.982813 72.718529 
L 418.175394 74.407038 
L 420.367976 76.377344 
L 422.560558 78.719539 
L 424.75314 81.543522 
L 426.945722 84.954524 
L 429.138303 89.03597 
L 431.330885 93.831264 
L 433.523467 99.332211 
L 435.716049 105.48093 
L 437.908631 112.170496 
L 440.101213 119.261683 
L 442.293794 126.595021 
L 446.678958 141.404563 
L 456.545576 175.18485 
L 462.027031 194.743324 
L 463.123322 197.614593 
L 464.219613 201.631 
L 465.315903 203.437644 
L 466.412194 206.876067 
L 467.508485 206.655646 
L 468.604776 208.090751 
L 469.701067 202.65786 
L 470.797358 195.481713 
L 470.797358 195.481713 
" clip-path="url(#p2cf73ed1fb)" style="fill: none; stroke: #1f77b4; stroke-width: 1.6; stroke-linecap: square"/>
   </g>
   <g id="line2d_29">
    <path d="M 196.724631 218.618437 
L 196.724631 20.798438 
" clip-path="url(#p2cf73ed1fb)" style="fill: none; stroke-dasharray: 2.96,1.28; stroke-dashoffset: 0; stroke: #000000; stroke-width: 0.8"/>
   </g>
   <g id="line2d_30">
    <path d="M 39.132813 73.614333 
L 491.352813 73.614333 
" clip-path="url(#p2cf73ed1fb)" style="fill: none; stroke: #808080; stroke-opacity: 0.4; stroke-width: 0.5; stroke-linecap: square"/>
   </g>
   <g id="patch_3">
    <path d="M 39.132813 218.618437 
L 39.132813 20.798438 
" style="fill: none; stroke: #000000; stroke-width: 0.8; stroke-linejoin: miter; stroke-linecap: square"/>
   </g>
   <g id="patch_4">
    <path d="M 39.132812 218.618437 
L 491.352813 218.618437 
" style="fill: none; stroke: #000000; stroke-width: 0.8; stroke-linejoin: miter; stroke-linecap: square"/>
   </g>
   <g id="text_16">
    <text style="font-weight: 700; font-size: 10px; font-family: 'Arial', 'Helvetica', 'DejaVu Sans', sans-serif; text-anchor: middle" x="265.242813" y="14.798438" transform="rotate(-0 265.242813 14.798438)">α-band (8-13 Hz) desync — salient vs non-salient</text>
   </g>
   <g id="legend_1">
    <g id="line2d_31">
     <path d="M 375.354062 31.277188 
L 383.354062 31.277188 
L 391.354062 31.277188 
" style="fill: none; stroke: #d62728; stroke-width: 1.6; stroke-linecap: square"/>
    </g>
    <g id="text_17">
     <text style="font-size: 8px; font-family: 'Arial', 'Helvetica', 'DejaVu Sans', sans-serif; text-anchor: start" x="397.754062" y="34.077188" transform="rotate(-0 397.754062 34.077188)">Salient (n=3189)</text>
    </g>
    <g id="line2d_32">
     <path d="M 375.354062 43.019688 
L 383.354062 43.019688 
L 391.354062 43.019688 
" style="fill: none; stroke: #1f77b4; stroke-width: 1.6; stroke-linecap: square"/>
    </g>
    <g id="text_18">
     <text style="font-size: 8px; font-family: 'Arial', 'Helvetica', 'DejaVu Sans', sans-serif; text-anchor: start" x="397.754062" y="45.819688" transform="rotate(-0 397.754062 45.819688)">Non-salient (n=3187)</text>
    </g>
   </g>
  </g>
 </g>
 <defs>
  <clipPath id="p2cf73ed1fb">
   <rect x="39.132813" y="20.798438" width="452.22" height="197.82"/>
  </clipPath>
 </defs>
</svg>
