<?xml version="1.0" encoding="utf-8" standalone="no"?>
<!DOCTYPE svg PUBLIC "-//W3C//DTD SVG 1.1//EN"
  "http://www.w3.org/Graphics/SVG/1.1/DTD/svg11.dtd">
<svg xmlns:xlink="http://www.w3.org/1999/xlink" width="534.584062pt" height="252.77125pt" viewBox="0 0 534.584062 252.77125" xmlns="http://www.w3.org/2000/svg" version="1.1">
 <metadata>
  <rdf:RDF xmlns:dc="http://purl.org/dc/elements/1.1/" xmlns:cc="http://creativecommons.org/ns#" xmlns:rdf="http://www.w3.org/1999/02/22-rdf-syntax-ns#">
   <cc:Work>
    <dc:type rdf:resource="http://purl.org/dc/dcmitype/StillImage"/>
    <dc:date>2026-05-12T16:40:13.587811</dc:date>
    <dc:format>image/svg+xml</dc:format>
    <dc:creator>
     <cc:Agent>
      <dc:title>Matplotlib v3.10.8, https://matplotlib.org/</dc:title>
     </cc:Agent>
    </dc:creator>
   </cc:Work>
  </rdf:RDF>
 </metadata>
 <defs>
  <style type="text/css">*{stroke-linejoin: round; stroke-linecap: butt}</style>
 </defs>
 <g id="figure_1">
  <g id="patch_1">
   <path d="M 0 252.77125 
L 534.584062 252.77125 
L 534.584062 0 
L 0 0 
z
" style="fill: #ffffff"/>
  </g>
  <g id="axes_1">
   <g id="patch_2">
    <path d="M 38.204063 218.618437 
L 527.384063 218.618437 
L 527.384063 20.798438 
L 38.204063 20.798438 
z
" style="fill: #ffffff"/>
   </g>
   <g id="matplotlib.axis_1">
    <g id="xtick_1">
     <g id="line2d_1">
      <path d="M 90.08679 218.618437 
L 90.08679 20.798438 
" clip-path="url(#p9ab16c62b1)" style="fill: none; stroke: #b0b0b0; stroke-opacity: 0.15; stroke-width: 0.8; stroke-linecap: square"/>
     </g>
     <g id="line2d_2">
      <defs>
       <path id="mab8af5ca01" d="M 0 0 
L 0 3 
" style="stroke: #000000; stroke-width: 0.8"/>
      </defs>
      <g>
       <use xlink:href="#mab8af5ca01" x="90.08679" y="218.618437" style="stroke: #000000; stroke-width: 0.8"/>
      </g>
     </g>
     <g id="text_1">
      <text style="font-size: 8px; font-family: 'Arial', 'Helvetica', 'DejaVu Sans', sans-serif; text-anchor: middle" x="90.08679" y="231.197188" transform="rotate(-0 90.08679 231.197188)">−400</text>
     </g>
    </g>
    <g id="xtick_2">
     <g id="line2d_3">
      <path d="M 149.381335 218.618437 
L 149.381335 20.798438 
" clip-path="url(#p9ab16c62b1)" style="fill: none; stroke: #b0b0b0; stroke-opacity: 0.15; stroke-width: 0.8; stroke-linecap: square"/>
     </g>
     <g id="line2d_4">
      <g>
       <use xlink:href="#mab8af5ca01" x="149.381335" y="218.618437" style="stroke: #000000; stroke-width: 0.8"/>
      </g>
     </g>
     <g id="text_2">
      <text style="font-size: 8px; font-family: 'Arial', 'Helvetica', 'DejaVu Sans', sans-serif; text-anchor: middle" x="149.381335" y="231.197188" transform="rotate(-0 149.381335 231.197188)">−200</text>
     </g>
    </g>
    <g id="xtick_3">
     <g id="line2d_5">
      <path d="M 208.675881 218.618437 
L 208.675881 20.798438 
" clip-path="url(#p9ab16c62b1)" style="fill: none; stroke: #b0b0b0; stroke-opacity: 0.15; stroke-width: 0.8; stroke-linecap: square"/>
     </g>
     <g id="line2d_6">
      <g>
       <use xlink:href="#mab8af5ca01" x="208.675881" y="218.618437" style="stroke: #000000; stroke-width: 0.8"/>
      </g>
     </g>
     <g id="text_3">
      <text style="font-size: 8px; font-family: 'Arial', 'Helvetica', 'DejaVu Sans', sans-serif; text-anchor: middle" x="208.675881" y="231.197188" transform="rotate(-0 208.675881 231.197188)">0</text>
     </g>
    </g>
    <g id="xtick_4">
     <g id="line2d_7">
      <path d="M 267.970426 218.618437 
L 267.970426 20.798438 
" clip-path="url(#p9ab16c62b1)" style="fill: none; stroke: #b0b0b0; stroke-opacity: 0.15; stroke-width: 0.8; stroke-linecap: square"/>
     </g>
     <g id="line2d_8">
      <g>
       <use xlink:href="#mab8af5ca01" x="267.970426" y="218.618437" style="stroke: #000000; stroke-width: 0.8"/>
      </g>
     </g>
     <g id="text_4">
      <text style="font-size: 8px; font-family: 'Arial', 'Helvetica', 'DejaVu Sans', sans-serif; text-anchor: middle" x="267.970426" y="231.197188" transform="rotate(-0 267.970426 231.197188)">200</text>
     </g>
    </g>
    <g id="xtick_5">
     <g id="line2d_9">
      <path d="M 327.264972 218.618437 
L 327.264972 20.798438 
" clip-path="url(#p9ab16c62b1)" style="fill: none; stroke: #b0b0b0; stroke-opacity: 0.15; stroke-width: 0.8; stroke-linecap: square"/>
     </g>
     <g id="line2d_10">
      <g>
       <use xlink:href="#mab8af5ca01" x="327.264972" y="218.618437" style="stroke: #000000; stroke-width: 0.8"/>
      </g>
     </g>
     <g id="text_5">
      <text style="font-size: 8px; font-family: 'Arial', 'Helvetica', 'DejaVu Sans', sans-serif; text-anchor: middle" x="327.264972" y="231.197188" transform="rotate(-0 327.264972 231.197188)">400</text>
     </g>
    </g>
    <g id="xtick_6">
     <g id="line2d_11">
      <path d="M 386.559517 218.618437 
L 386.559517 20.798438 
" clip-path="url(#p9ab16c62b1)" style="fill: none; stroke: #b0b0b0; stroke-opacity: 0.15; stroke-width: 0.8; stroke-linecap: square"/>
     </g>
     <g id="line2d_12">
      <g>
       <use xlink:href="#mab8af5ca01" x="386.559517" y="218.618437" style="stroke: #000000; stroke-width: 0.8"/>
      </g>
     </g>
     <g id="text_6">
      <text style="font-size: 8px; font-family: 'Arial', 'Helvetica', 'DejaVu Sans', sans-serif; text-anchor: middle" x="386.559517" y="231.197188" transform="rotate(-0 386.559517 231.197188)">600</text>
     </g>
    </g>
    <g id="xtick_7">
     <g id="line2d_13">
      <path d="M 445.854063 218.618437 
L 445.854063 20.798438 
" clip-path="url(#p9ab16c62b1)" style="fill: none; stroke: #b0b0b0; stroke-opacity: 0.15; stroke-width: 0.8; stroke-linecap: square"/>
     </g>
     <g id="line2d_14">
      <g>
       <use xlink:href="#mab8af5ca01" x="445.854063" y="218.618437" style="stroke: #000000; stroke-width: 0.8"/>
      </g>
     </g>
     <g id="text_7">
      <text style="font-size: 8px; font-family: 'Arial', 'Helvetica', 'DejaVu Sans', sans-serif; text-anchor: middle" x="445.854063" y="231.197188" transform="rotate(-0 445.854063 231.197188)">800</text>
     </g>
    </g>
    <g id="xtick_8">
     <g id="line2d_15">
      <path d="M 505.148608 218.618437 
L 505.148608 20.798438 
" clip-path="url(#p9ab16c62b1)" style="fill: none; stroke: #b0b0b0; stroke-opacity: 0.15; stroke-width: 0.8; stroke-linecap: square"/>
     </g>
     <g id="line2d_16">
      <g>
       <use xlink:href="#mab8af5ca01" x="505.148608" y="218.618437" style="stroke: #000000; stroke-width: 0.8"/>
      </g>
     </g>
     <g id="text_8">
      <text style="font-size: 8px; font-family: 'Arial', 'Helvetica', 'DejaVu Sans', sans-serif; text-anchor: middle" x="505.148608" y="231.197188" transform="rotate(-0 505.148608 231.197188)">1000</text>
     </g>
    </g>
    <g id="text_9">
     <text style="font-size: 9px; font-family: 'Arial', 'Helvetica', 'DejaVu Sans', sans-serif; text-anchor: middle" x="282.794062" y="243.699531" transform="rotate(-0 282.794062 243.699531)">Time (ms)</text>
    </g>
   </g>
   <g id="matplotlib.axis_2">
    <g id="ytick_1">
     <g id="line2d_17">
      <path d="M 38.204063 193.735583 
L 527.384063 193.735583 
" clip-path="url(#p9ab16c62b1)" style="fill: none; stroke: #b0b0b0; stroke-opacity: 0.15; stroke-width: 0.8; stroke-linecap: square"/>
     </g>
     <g id="line2d_18">
      <defs>
       <path id="m5711cfa81b" d="M 0 0 
L -3 0 
" style="stroke: #000000; stroke-width: 0.8"/>
      </defs>
      <g>
       <use xlink:href="#m5711cfa81b" x="38.204063" y="193.735583" style="stroke: #000000; stroke-width: 0.8"/>
      </g>
     </g>
     <g id="text_10">
      <text style="font-size: 8px; font-family: 'Arial', 'Helvetica', 'DejaVu Sans', sans-serif; text-anchor: end" x="31.704063" y="196.774958" transform="rotate(-0 31.704063 196.774958)">−4</text>
     </g>
    </g>
    <g id="ytick_2">
     <g id="line2d_19">
      <path d="M 38.204063 156.241927 
L 527.384063 156.241927 
" clip-path="url(#p9ab16c62b1)" style="fill: none; stroke: #b0b0b0; stroke-opacity: 0.15; stroke-width: 0.8; stroke-linecap: square"/>
     </g>
     <g id="line2d_20">
      <g>
       <use xlink:href="#m5711cfa81b" x="38.204063" y="156.241927" style="stroke: #000000; stroke-width: 0.8"/>
      </g>
     </g>
     <g id="text_11">
      <text style="font-size: 8px; font-family: 'Arial', 'Helvetica', 'DejaVu Sans', sans-serif; text-anchor: end" x="31.704063" y="159.281302" transform="rotate(-0 31.704063 159.281302)">−2</text>
     </g>
    </g>
    <g id="ytick_3">
     <g id="line2d_21">
      <path d="M 38.204063 118.748271 
L 527.384063 118.748271 
" clip-path="url(#p9ab16c62b1)" style="fill: none; stroke: #b0b0b0; stroke-opacity: 0.15; stroke-width: 0.8; stroke-linecap: square"/>
     </g>
     <g id="line2d_22">
      <g>
       <use xlink:href="#m5711cfa81b" x="38.204063" y="118.748271" style="stroke: #000000; stroke-width: 0.8"/>
      </g>
     </g>
     <g id="text_12">
      <text style="font-size: 8px; font-family: 'Arial', 'Helvetica', 'DejaVu Sans', sans-serif; text-anchor: end" x="31.704063" y="121.787646" transform="rotate(-0 31.704063 121.787646)">0</text>
     </g>
    </g>
    <g id="ytick_4">
     <g id="line2d_23">
      <path d="M 38.204063 81.254614 
L 527.384063 81.254614 
" clip-path="url(#p9ab16c62b1)" style="fill: none; stroke: #b0b0b0; stroke-opacity: 0.15; stroke-width: 0.8; stroke-linecap: square"/>
     </g>
     <g id="line2d_24">
      <g>
       <use xlink:href="#m5711cfa81b" x="38.204063" y="81.254614" style="stroke: #000000; stroke-width: 0.8"/>
      </g>
     </g>
     <g id="text_13">
      <text style="font-size: 8px; font-family: 'Arial', 'Helvetica', 'DejaVu Sans', sans-serif; text-anchor: end" x="31.704063" y="84.293989" transform="rotate(-0 31.704063 84.293989)">2</text>
     </g>
    </g>
    <g id="ytick_5">
     <g id="line2d_25">
      <path d="M 38.204063 43.760958 
L 527.384063 43.760958 
" clip-path="url(#p9ab16c62b1)" style="fill: none; stroke: #b0b0b0; stroke-opacity: 0.15; stroke-width: 0.8; stroke-linecap: square"/>
     </g>
     <g id="line2d_26">
      <g>
       <use xlink:href="#m5711cfa81b" x="38.204063" y="43.760958" style="stroke: #000000; stroke-width: 0.8"/>
      </g>
     </g>
     <g id="text_14">
      <text style="font-size: 8px; font-family: 'Arial', 'Helvetica', 'DejaVu Sans', sans-serif; text-anchor: end" x="31.704063" y="46.800333" transform="rotate(-0 31.704063 46.800333)">4</text>
     </g>
    </g>
    <g id="text_15">
     <text style="font-size: 9px; font-family: 'Arial', 'Helvetica', 'DejaVu Sans', sans-serif; text-anchor: middle" x="14.038594" y="119.708438" transform="rotate(-90 14.038594 119.708438)">µV</text>
    </g>
   </g>
   <g id="line2d_27">
    <path d="M 60.439517 161.451809 
L 62.811299 180.493237 
L 63.99719 187.980756 
L 65.183081 192.775998 
L 66.368972 190.833146 
L 67.554863 184.67547 
L 68.740753 174.017231 
L 69.926644 165.3106 
L 72.298426 141.035534 
L 73.484317 129.021601 
L 75.856099 112.50908 
L 78.227881 93.522586 
L 79.413772 85.848298 
L 80.599663 79.594027 
L 81.785553 76.987683 
L 82.971444 78.084583 
L 84.157335 83.17103 
L 85.343226 87.660733 
L 87.715008 98.527481 
L 88.900899 99.878929 
L 90.08679 100.008187 
L 91.272681 97.417627 
L 92.458572 95.534852 
L 93.644463 97.349341 
L 96.016244 108.052466 
L 97.202135 117.287433 
L 98.388026 125.124889 
L 99.573917 132.127807 
L 100.759808 140.416132 
L 101.945699 143.321554 
L 103.13159 143.414374 
L 104.317481 142.525962 
L 105.503372 138.387958 
L 106.689263 132.730086 
L 107.875153 124.417347 
L 109.061044 112.926549 
L 111.432826 84.428277 
L 113.804608 66.685487 
L 114.990499 56.173597 
L 116.17639 48.6778 
L 117.362281 42.889897 
L 118.548172 39.584482 
L 119.734063 38.929713 
L 120.919953 39.851191 
L 122.105844 38.176113 
L 123.291735 39.396795 
L 124.477626 40.873745 
L 125.663517 44.915414 
L 126.849408 45.289362 
L 128.035299 46.790577 
L 129.22119 49.619896 
L 130.407081 54.932172 
L 131.592972 59.144727 
L 132.778863 66.74525 
L 133.964753 72.638854 
L 135.150644 77.315755 
L 136.336535 82.787908 
L 137.522426 87.393651 
L 138.708317 92.655932 
L 139.894208 99.12644 
L 142.26599 108.998708 
L 143.451881 113.216196 
L 144.637772 118.83414 
L 145.823663 122.086276 
L 147.009553 124.97455 
L 148.195444 131.281269 
L 149.381335 138.915897 
L 151.753117 147.022265 
L 152.939008 148.616103 
L 155.31079 152.517539 
L 156.496681 152.991702 
L 158.868463 158.457347 
L 160.054353 158.795159 
L 161.240244 158.269906 
L 162.426135 156.250299 
L 163.612026 153.696396 
L 164.797917 152.521351 
L 165.983808 152.443125 
L 167.169699 151.896049 
L 168.35559 148.469163 
L 169.541481 142.516102 
L 170.727372 141.153641 
L 171.913263 141.246732 
L 173.099153 144.50834 
L 174.285044 147.169741 
L 175.470935 147.711451 
L 176.656826 150.602303 
L 177.842717 155.478641 
L 179.028608 164.29076 
L 180.214499 167.292958 
L 181.40039 166.080474 
L 182.586281 161.138102 
L 183.772172 154.445361 
L 186.143953 137.76498 
L 187.329844 138.308527 
L 188.515735 145.729312 
L 189.701626 156.300224 
L 192.073408 168.607742 
L 194.44519 170.439515 
L 195.631081 168.62668 
L 196.816972 164.208296 
L 199.188753 152.796064 
L 200.374644 145.591924 
L 201.560535 142.936595 
L 202.746426 142.058161 
L 205.118208 143.799465 
L 206.304099 146.549281 
L 207.48999 152.383829 
L 208.675881 156.645433 
L 209.861772 159.603789 
L 211.047663 159.890026 
L 212.233553 160.975748 
L 213.419444 163.565917 
L 214.605335 172.601479 
L 215.791226 183.260415 
L 216.977117 190.73895 
L 218.163008 194.945627 
L 219.348899 194.185886 
L 220.53479 187.674642 
L 221.720681 177.300053 
L 224.092463 152.956292 
L 226.464244 131.121105 
L 227.650135 123.829111 
L 228.836026 118.252693 
L 230.021917 110.123435 
L 231.207808 100.591573 
L 232.393699 88.112026 
L 233.57959 77.98332 
L 234.765481 70.624548 
L 235.951372 68.116275 
L 237.137263 72.554866 
L 238.323153 79.458165 
L 239.509044 87.691265 
L 240.694935 93.592637 
L 241.880826 93.886506 
L 243.066717 90.728623 
L 244.252608 84.741473 
L 245.438499 83.098091 
L 246.62439 85.441109 
L 247.810281 95.497068 
L 248.996172 109.641373 
L 250.182063 126.485538 
L 251.367953 140.627608 
L 252.553844 150.146697 
L 253.739735 157.451761 
L 254.925626 160.876349 
L 256.111517 161.217303 
L 257.297408 159.978779 
L 258.483299 156.280875 
L 259.66919 149.540337 
L 260.855081 140.114725 
L 262.040972 125.813208 
L 264.412753 90.34884 
L 265.598644 78.673273 
L 266.784535 68.859345 
L 269.156317 52.916341 
L 271.528099 39.721135 
L 272.71399 37.493991 
L 273.899881 37.251033 
L 275.085772 36.199794 
L 276.271663 35.555985 
L 277.457553 35.79737 
L 278.643444 37.155983 
L 279.829335 39.041328 
L 281.015226 40.352206 
L 282.201117 41.363943 
L 283.387008 44.560358 
L 284.572899 48.339327 
L 285.75879 57.907061 
L 289.316463 81.618066 
L 290.502353 85.233787 
L 291.688244 87.460232 
L 292.874135 90.82522 
L 296.431808 97.740971 
L 297.617699 102.429827 
L 299.989481 106.593267 
L 301.175372 109.421924 
L 302.361263 115.73819 
L 303.547153 119.300069 
L 304.733044 120.926626 
L 305.918935 124.726889 
L 307.104826 125.411353 
L 308.290717 126.585527 
L 309.476608 130.310636 
L 310.662499 129.633165 
L 311.84839 129.830249 
L 313.034281 132.06223 
L 314.220172 131.930912 
L 315.406063 130.522723 
L 316.591953 128.578419 
L 317.777844 127.24816 
L 318.963735 129.469704 
L 320.149626 129.895769 
L 321.335517 129.056349 
L 322.521408 123.201266 
L 323.707299 118.321378 
L 324.89319 115.833885 
L 326.079081 123.540248 
L 327.264972 132.931791 
L 328.450863 140.038478 
L 329.636753 143.62006 
L 330.822644 146.01795 
L 332.008535 147.750252 
L 333.194426 147.4172 
L 335.566208 131.244904 
L 336.752099 126.534414 
L 337.93799 125.65708 
L 339.123881 124.941561 
L 340.309772 132.25564 
L 341.495663 144.016775 
L 342.681553 158.217911 
L 343.867444 166.781789 
L 345.053335 171.86713 
L 346.239226 171.618111 
L 347.425117 167.711607 
L 348.611008 159.231235 
L 349.796899 154.779334 
L 350.98279 149.111663 
L 352.168681 146.867802 
L 353.354572 143.042366 
L 354.540463 143.06763 
L 355.726353 141.942334 
L 356.912244 140.067173 
L 358.098135 138.839237 
L 359.284035 136.665455 
L 360.469917 140.307686 
L 362.841699 153.942619 
L 364.02759 159.551647 
L 365.213481 164.369706 
L 368.771153 184.061933 
L 369.957044 188.015274 
L 371.142935 190.130133 
L 372.328826 190.489037 
L 373.514717 185.190349 
L 374.700608 175.595538 
L 375.886499 162.297398 
L 377.07239 147.261169 
L 379.444172 120.557671 
L 380.630063 112.170605 
L 381.815953 105.688121 
L 383.001844 100.78332 
L 384.187735 96.61536 
L 386.559517 81.242663 
L 387.745408 75.66016 
L 388.931299 71.593493 
L 390.11719 74.208718 
L 391.303081 77.872291 
L 392.488972 83.748917 
L 393.674863 87.27115 
L 394.860753 88.344244 
L 396.046644 87.524388 
L 397.232535 86.115756 
L 398.418426 85.589645 
L 399.604317 88.189059 
L 400.790208 95.324441 
L 403.16199 116.994576 
L 404.347881 125.839652 
L 405.533772 131.755298 
L 407.905553 141.004044 
L 409.091444 142.820441 
L 410.277335 142.567795 
L 411.463226 138.225225 
L 413.835008 118.538458 
L 416.20679 93.20549 
L 417.392681 78.728839 
L 418.578572 69.304069 
L 419.764463 62.483811 
L 420.950353 56.659986 
L 422.136244 50.252558 
L 423.322135 41.802401 
L 424.508026 34.53033 
L 425.693917 29.790256 
L 426.879808 30.452712 
L 429.25159 30.404968 
L 430.437481 31.533727 
L 431.623372 34.936741 
L 432.809263 36.354915 
L 433.995153 40.422137 
L 435.181044 42.341988 
L 436.366935 46.848736 
L 437.552826 53.310117 
L 438.738717 65.302506 
L 439.924608 71.838248 
L 441.110499 79.329941 
L 442.29639 83.926092 
L 443.482281 86.717958 
L 448.225844 108.865085 
L 449.411735 115.593701 
L 450.597626 121.481726 
L 451.783517 125.897563 
L 454.155299 128.539614 
L 456.527081 140.574918 
L 457.712972 144.882045 
L 458.898863 148.236322 
L 461.270644 146.365784 
L 462.456535 143.54639 
L 463.642426 142.093438 
L 464.828317 141.864121 
L 466.014208 142.381849 
L 467.200099 144.89728 
L 468.38599 143.435245 
L 470.757772 138.281387 
L 471.943663 136.427379 
L 473.129553 135.054573 
L 474.315444 135.422425 
L 476.687226 127.453296 
L 477.873117 126.528894 
L 479.059008 131.859338 
L 480.244899 143.515979 
L 481.43079 153.753627 
L 482.616681 157.816864 
L 483.802572 157.891595 
L 486.174353 149.600368 
L 487.360244 143.368092 
L 488.546135 137.999101 
L 489.732026 134.137392 
L 490.917917 134.400063 
L 492.103808 135.827124 
L 493.289699 139.743091 
L 494.47559 147.047513 
L 495.661481 155.968453 
L 496.847372 160.441051 
L 498.033263 162.197274 
L 499.219153 158.859276 
L 500.405044 149.44378 
L 501.590935 138.793022 
L 502.776826 131.053264 
L 503.962717 127.942925 
L 505.148608 127.699321 
L 505.148608 127.699321 
" clip-path="url(#p9ab16c62b1)" style="fill: none; stroke: #482475; stroke-width: 1.3; stroke-linecap: square"/>
   </g>
   <g id="line2d_28">
    <path d="M 60.439517 158.358672 
L 61.625408 166.324125 
L 62.811299 175.85325 
L 63.99719 181.752383 
L 65.183081 185.515838 
L 66.368972 185.666124 
L 67.554863 183.653448 
L 68.740753 179.92441 
L 69.926644 174.121672 
L 71.112535 165.865607 
L 74.670208 130.314604 
L 78.227881 108.104753 
L 79.413772 99.196652 
L 81.785553 85.685744 
L 82.971444 81.879533 
L 84.157335 80.750655 
L 85.343226 85.423343 
L 86.529117 91.451068 
L 87.715008 96.692642 
L 88.900899 98.904451 
L 90.08679 99.171008 
L 91.272681 97.051275 
L 92.458572 95.29848 
L 93.644463 98.797623 
L 94.830353 101.655964 
L 96.016244 109.657988 
L 97.202135 119.849988 
L 98.388026 131.278668 
L 99.573917 137.951987 
L 100.759808 143.412025 
L 101.945699 147.668199 
L 103.13159 148.053999 
L 104.317481 147.45837 
L 105.503372 144.749542 
L 106.689263 139.411986 
L 107.875153 132.599133 
L 110.246935 114.036665 
L 112.618717 87.823648 
L 113.804608 76.921063 
L 114.990499 67.569166 
L 116.17639 60.100021 
L 117.362281 54.713627 
L 118.548172 47.858448 
L 119.734063 42.837737 
L 120.919953 40.481976 
L 122.105844 40.188333 
L 123.291735 37.910128 
L 124.477626 38.918405 
L 125.663517 38.619524 
L 126.849408 40.526243 
L 128.035299 43.392092 
L 129.22119 47.258356 
L 132.778863 64.189287 
L 137.522426 91.33337 
L 139.894208 103.555444 
L 141.080099 107.735566 
L 142.26599 112.728674 
L 143.451881 117.005823 
L 144.637772 119.642158 
L 145.823663 123.971828 
L 147.009553 130.207604 
L 148.195444 134.788019 
L 149.381335 137.11517 
L 151.753117 142.914853 
L 152.939008 143.260294 
L 154.124899 142.994266 
L 155.31079 143.776592 
L 156.496681 142.981481 
L 157.682572 143.207917 
L 158.868463 142.79762 
L 160.054353 142.214463 
L 161.240244 140.850493 
L 163.612026 138.67173 
L 164.797917 137.60706 
L 165.983808 137.640209 
L 167.169699 135.98142 
L 168.35559 133.913331 
L 170.727372 126.167075 
L 171.913263 125.577127 
L 173.099153 132.795537 
L 174.285044 139.018512 
L 175.470935 142.480033 
L 176.656826 142.370076 
L 177.842717 144.407388 
L 179.028608 148.000433 
L 180.214499 153.621501 
L 181.40039 154.084207 
L 182.586281 151.984279 
L 186.143953 135.283567 
L 187.329844 135.680003 
L 188.515735 143.118847 
L 189.701626 153.733286 
L 192.073408 168.725458 
L 193.259299 176.434744 
L 194.44519 177.123379 
L 196.816972 166.491019 
L 198.002863 158.437967 
L 199.188753 151.229519 
L 200.374644 145.174585 
L 201.560535 140.633904 
L 202.746426 140.775847 
L 203.932317 142.12622 
L 206.304099 147.530712 
L 207.48999 150.966356 
L 208.675881 153.440659 
L 211.047663 155.488814 
L 213.419444 159.878012 
L 214.605335 167.878622 
L 215.791226 182.270069 
L 216.977117 191.073056 
L 218.163008 194.59059 
L 219.348899 190.24931 
L 220.53479 183.306206 
L 221.720681 174.340575 
L 222.906572 163.691861 
L 224.092463 154.907066 
L 225.278353 143.437621 
L 226.464244 134.077916 
L 227.650135 125.986426 
L 228.836026 121.665483 
L 230.021917 116.185901 
L 231.207808 109.198413 
L 233.57959 87.518766 
L 234.765481 80.996898 
L 235.951372 78.151466 
L 237.137263 81.061792 
L 239.509044 103.9433 
L 240.694935 111.008898 
L 241.880826 112.645691 
L 243.066717 108.518281 
L 244.252608 101.8464 
L 245.438499 95.982864 
L 246.62439 95.014462 
L 247.810281 99.825852 
L 248.996172 109.16692 
L 251.367953 136.399397 
L 252.553844 145.948342 
L 253.739735 151.768134 
L 254.925626 154.420021 
L 256.111517 153.265874 
L 257.297408 149.641068 
L 258.483299 147.668311 
L 259.66919 140.973905 
L 260.855081 135.112823 
L 262.040972 124.557721 
L 264.412753 96.79211 
L 265.598644 80.568438 
L 266.784535 68.539492 
L 267.970426 60.84403 
L 269.156317 54.658011 
L 271.528099 45.653169 
L 272.71399 39.598534 
L 273.899881 34.224136 
L 275.085772 33.776899 
L 276.271663 32.911855 
L 277.457553 35.312991 
L 278.643444 36.469274 
L 281.015226 38.411053 
L 283.387008 43.931281 
L 284.572899 46.09426 
L 285.75879 52.205073 
L 286.944681 56.550638 
L 289.316463 68.365433 
L 290.502353 73.012704 
L 291.688244 78.313806 
L 292.874135 82.443497 
L 294.060026 86.131219 
L 295.245917 91.539781 
L 296.431808 93.834326 
L 297.617699 98.380695 
L 298.80359 104.248897 
L 299.989481 108.314026 
L 301.175372 111.300071 
L 302.361263 115.48171 
L 304.733044 121.816382 
L 305.918935 123.927332 
L 307.104826 125.386876 
L 308.290717 125.884561 
L 310.662499 122.976609 
L 311.84839 124.125714 
L 313.034281 124.183391 
L 314.220172 122.89902 
L 315.406063 119.852069 
L 316.591953 118.450442 
L 317.777844 118.187312 
L 318.963735 119.290789 
L 320.149626 118.075765 
L 321.335517 118.133913 
L 322.521408 113.022238 
L 323.707299 108.609194 
L 324.89319 106.578826 
L 326.079081 113.959618 
L 327.264972 123.53533 
L 328.450863 132.031092 
L 329.636753 135.931305 
L 330.822644 139.287602 
L 332.008535 139.981265 
L 333.194426 142.841882 
L 334.380317 141.615936 
L 335.566208 137.503596 
L 336.752099 134.858736 
L 337.93799 130.592954 
L 339.123881 128.066745 
L 340.309772 129.367326 
L 341.495663 137.194454 
L 343.867444 156.807402 
L 345.053335 165.157257 
L 346.239226 169.507784 
L 347.425117 167.036511 
L 348.611008 160.328998 
L 349.796899 152.149917 
L 350.98279 145.935736 
L 352.168681 141.547969 
L 353.354572 138.108868 
L 354.540463 137.854968 
L 355.726353 138.462019 
L 356.912244 140.338126 
L 358.098135 141.259872 
L 359.284035 141.837569 
L 360.469917 145.491262 
L 361.655808 146.713796 
L 362.841699 151.06087 
L 364.02759 155.917618 
L 366.399372 169.282248 
L 368.771153 188.328101 
L 369.957044 195.258552 
L 371.142935 196.530348 
L 372.328826 194.251821 
L 373.514717 187.97461 
L 375.886499 169.038293 
L 380.630063 125.884329 
L 383.001844 113.448923 
L 384.187735 106.53683 
L 386.559517 91.633685 
L 387.745408 86.179584 
L 388.931299 85.600667 
L 390.11719 87.634953 
L 391.303081 90.818359 
L 392.488972 95.972304 
L 393.674863 99.091773 
L 394.860753 100.75563 
L 396.046644 99.534169 
L 397.232535 97.448322 
L 398.418426 97.294506 
L 399.604317 98.792089 
L 400.790208 105.08042 
L 401.976099 113.469387 
L 403.16199 124.889706 
L 404.347881 135.227346 
L 405.533772 140.424503 
L 406.719663 144.271349 
L 407.905553 146.571826 
L 409.091444 144.542231 
L 410.277335 140.79164 
L 411.463226 136.375041 
L 412.649117 128.701565 
L 415.020899 109.148892 
L 417.392681 84.897214 
L 419.764463 62.417349 
L 422.136244 46.798935 
L 423.322135 41.315948 
L 425.693917 35.507186 
L 426.879808 31.879629 
L 428.065699 32.281946 
L 429.25159 31.943696 
L 430.437481 32.818968 
L 431.623372 35.788332 
L 432.809263 38.358616 
L 433.995153 39.566246 
L 435.181044 42.783575 
L 437.552826 51.40502 
L 441.110499 73.486727 
L 442.29639 79.802158 
L 443.482281 86.719924 
L 445.854063 95.464731 
L 448.225844 105.700913 
L 449.411735 109.849527 
L 451.783517 119.920653 
L 452.969408 124.256187 
L 455.34119 131.481862 
L 456.527081 133.982307 
L 457.712972 137.159699 
L 458.898863 137.773579 
L 460.084753 137.376483 
L 461.270644 136.483698 
L 462.456535 136.846078 
L 463.642426 137.685868 
L 464.828317 139.421659 
L 466.014208 140.305907 
L 467.200099 139.558873 
L 468.38599 136.468595 
L 469.571881 135.072767 
L 470.757772 133.200724 
L 471.943663 133.124582 
L 473.129553 133.848708 
L 474.315444 132.311334 
L 475.501335 130.579648 
L 476.687226 125.590825 
L 477.873117 122.729345 
L 479.059008 128.482046 
L 480.244899 137.8559 
L 481.43079 145.900806 
L 482.616681 151.501341 
L 483.802572 154.147932 
L 484.988463 153.720715 
L 486.174353 149.444623 
L 488.546135 134.990288 
L 489.732026 131.035275 
L 492.103808 132.787219 
L 493.289699 139.168038 
L 495.661481 160.623209 
L 496.847372 166.781645 
L 498.033263 171.203771 
L 499.219153 170.693669 
L 500.405044 163.501233 
L 501.590935 154.134718 
L 502.776826 145.987697 
L 503.962717 140.338687 
L 505.148608 138.159946 
L 505.148608 138.159946 
" clip-path="url(#p9ab16c62b1)" style="fill: none; stroke: #21918c; stroke-width: 1.3; stroke-linecap: square"/>
   </g>
   <g id="line2d_29">
    <path d="M 60.439517 159.757869 
L 61.625408 162.802006 
L 62.811299 173.368975 
L 63.99719 180.910504 
L 65.183081 189.961527 
L 66.368972 194.445659 
L 67.554863 194.505596 
L 68.740753 191.674896 
L 69.926644 180.425813 
L 71.112535 165.780805 
L 75.856099 100.718332 
L 77.04199 87.396869 
L 78.227881 79.879451 
L 79.413772 68.732096 
L 80.599663 60.615124 
L 81.785553 59.425578 
L 82.971444 62.038314 
L 84.157335 68.749987 
L 85.343226 82.118759 
L 88.900899 98.00033 
L 90.08679 102.83291 
L 91.272681 100.655031 
L 92.458572 98.759558 
L 93.644463 99.488789 
L 97.202135 130.291007 
L 98.388026 134.347933 
L 99.573917 140.919479 
L 100.759808 137.667234 
L 101.945699 140.610481 
L 103.13159 145.322591 
L 104.317481 147.08443 
L 105.503372 146.828135 
L 106.689263 138.879374 
L 109.061044 124.848699 
L 110.246935 112.689872 
L 111.432826 98.697187 
L 112.618717 82.751119 
L 113.804608 76.079739 
L 116.17639 59.681618 
L 117.362281 50.445466 
L 118.548172 44.529898 
L 119.734063 44.812305 
L 120.919953 45.245453 
L 122.105844 43.767023 
L 123.291735 45.21944 
L 126.849408 68.508053 
L 128.035299 69.501447 
L 129.22119 78.397253 
L 130.407081 85.484715 
L 131.592972 89.660248 
L 132.778863 94.980949 
L 133.964753 97.085644 
L 135.150644 101.687221 
L 136.336535 108.007424 
L 137.522426 110.688664 
L 138.708317 111.716772 
L 139.894208 115.937971 
L 141.080099 117.594635 
L 142.26599 117.057811 
L 143.451881 122.925682 
L 144.637772 126.819959 
L 145.823663 129.122998 
L 147.009553 132.042439 
L 148.195444 133.418404 
L 149.381335 133.708748 
L 150.567226 136.484657 
L 151.753117 138.609632 
L 152.939008 140.267922 
L 154.124899 144.073968 
L 156.496681 153.52442 
L 157.682572 153.062496 
L 158.868463 153.083512 
L 160.054353 152.110422 
L 161.240244 150.554315 
L 162.426135 144.563821 
L 163.612026 135.786883 
L 164.797917 136.127606 
L 165.983808 134.840858 
L 167.169699 130.116657 
L 168.35559 128.775205 
L 169.541481 118.974673 
L 171.913263 110.279468 
L 173.099153 115.341464 
L 174.285044 118.495619 
L 175.470935 115.869505 
L 176.656826 114.318334 
L 177.842717 117.846629 
L 179.028608 128.404896 
L 180.214499 143.914193 
L 181.40039 147.50992 
L 182.586281 143.776802 
L 184.958063 130.337463 
L 186.143953 124.838808 
L 187.329844 125.051695 
L 188.515735 130.188737 
L 189.701626 136.962061 
L 190.887517 148.558432 
L 192.073408 155.952519 
L 193.259299 164.105808 
L 194.44519 164.489075 
L 195.631081 160.511492 
L 198.002863 143.344043 
L 199.188753 130.274025 
L 200.374644 122.704954 
L 201.560535 117.542077 
L 202.746426 119.561013 
L 203.932317 127.945308 
L 205.118208 139.814404 
L 206.304099 149.421394 
L 207.48999 156.767556 
L 208.675881 163.23443 
L 209.861772 165.715456 
L 211.047663 163.508152 
L 212.233553 160.375647 
L 213.419444 163.694395 
L 214.605335 175.197972 
L 216.977117 205.776781 
L 218.163008 209.626619 
L 219.348899 208.067107 
L 220.53479 194.610578 
L 221.720681 182.52733 
L 222.906572 168.910181 
L 225.278353 133.676172 
L 226.464244 126.01993 
L 228.836026 106.055772 
L 230.021917 98.442129 
L 231.207808 84.294158 
L 232.393699 71.544291 
L 233.57959 62.867803 
L 234.765481 56.316735 
L 235.951372 58.26133 
L 237.137263 67.261761 
L 238.323153 85.437382 
L 239.509044 100.986999 
L 240.694935 112.519099 
L 243.066717 117.271457 
L 244.252608 123.090028 
L 245.438499 122.093965 
L 246.62439 127.79596 
L 248.996172 145.272435 
L 250.182063 159.487848 
L 251.367953 171.269956 
L 252.553844 174.332521 
L 253.739735 176.491374 
L 254.925626 174.352035 
L 256.111517 172.709143 
L 257.297408 166.695244 
L 258.483299 157.353175 
L 259.66919 144.387972 
L 262.040972 134.527549 
L 263.226863 121.418935 
L 265.598644 81.900721 
L 266.784535 67.705269 
L 267.970426 56.159741 
L 269.156317 50.749666 
L 270.342208 46.990203 
L 271.528099 44.999983 
L 272.71399 46.065466 
L 273.899881 50.180218 
L 275.085772 55.607406 
L 276.271663 56.173851 
L 277.457553 51.030191 
L 278.643444 51.596122 
L 279.829335 57.70917 
L 281.015226 59.473277 
L 282.201117 62.363816 
L 283.387008 68.889403 
L 284.572899 77.189565 
L 285.75879 87.803818 
L 286.944681 86.973954 
L 288.130572 87.809291 
L 289.316463 86.37584 
L 290.502353 90.051932 
L 292.874135 98.984483 
L 294.060026 101.11067 
L 295.245917 102.449808 
L 297.617699 99.238711 
L 298.80359 91.31422 
L 301.175372 101.253398 
L 302.361263 102.865373 
L 303.547153 108.635344 
L 304.733044 116.114042 
L 305.918935 117.216722 
L 307.104826 114.036022 
L 308.290717 113.163607 
L 309.476608 114.489478 
L 310.662499 113.651191 
L 311.84839 114.127366 
L 313.034281 115.863146 
L 314.220172 119.069509 
L 315.406063 117.403864 
L 316.591953 118.94342 
L 317.777844 110.339316 
L 318.963735 107.457509 
L 320.149626 108.157795 
L 322.521408 101.393048 
L 323.707299 101.339068 
L 324.89319 98.443859 
L 326.079081 104.910522 
L 328.450863 119.085291 
L 329.636753 120.946144 
L 330.822644 126.966919 
L 332.008535 135.413434 
L 333.194426 138.240026 
L 334.380317 133.319966 
L 336.752099 118.27828 
L 337.93799 119.513678 
L 339.123881 121.877652 
L 340.309772 128.098555 
L 341.495663 143.579535 
L 342.681553 157.373284 
L 343.867444 163.718746 
L 345.053335 162.57078 
L 346.239226 165.222929 
L 347.425117 162.907787 
L 348.611008 151.367473 
L 349.796899 141.197577 
L 350.98279 140.457098 
L 352.168681 138.471401 
L 353.354572 132.997406 
L 354.540463 128.245494 
L 355.726353 125.702719 
L 356.912244 128.981118 
L 358.098135 134.580012 
L 359.284035 131.720809 
L 360.469917 128.004825 
L 361.655808 129.81756 
L 362.841699 136.36908 
L 364.02759 141.989913 
L 365.213481 141.790743 
L 366.399372 148.180273 
L 367.585263 160.392019 
L 368.771153 175.6693 
L 369.957044 188.004677 
L 371.142935 193.311352 
L 372.328826 190.960588 
L 375.886499 169.968831 
L 377.07239 157.334032 
L 378.258281 142.440647 
L 379.444172 130.760478 
L 381.815953 104.164455 
L 384.187735 81.341155 
L 385.373626 74.813776 
L 386.559517 72.635145 
L 387.745408 76.915695 
L 388.931299 78.856669 
L 390.11719 82.502013 
L 391.303081 91.783494 
L 392.488972 108.410617 
L 393.674863 113.393566 
L 394.860753 113.112596 
L 397.232535 108.070653 
L 398.418426 108.169199 
L 399.604317 108.43457 
L 400.790208 109.283469 
L 401.976099 111.504539 
L 403.16199 125.018607 
L 404.347881 137.224767 
L 405.533772 142.891906 
L 406.719663 142.346291 
L 409.091444 129.468123 
L 410.277335 123.537925 
L 411.463226 114.7613 
L 413.835008 93.081412 
L 415.020899 88.799471 
L 416.20679 82.333205 
L 417.392681 79.307236 
L 418.578572 64.989554 
L 419.764463 53.102987 
L 420.950353 42.785997 
L 422.136244 37.779956 
L 423.322135 34.263209 
L 424.508026 34.099676 
L 425.693917 31.051065 
L 426.879808 32.92049 
L 428.065699 36.672757 
L 429.25159 42.203681 
L 430.437481 40.317531 
L 431.623372 37.987514 
L 432.809263 44.069423 
L 433.995153 48.330262 
L 435.181044 54.808226 
L 436.366935 64.27066 
L 437.552826 71.786034 
L 438.738717 76.965625 
L 439.924608 84.268324 
L 441.110499 86.202685 
L 443.482281 91.07394 
L 444.668172 96.418381 
L 445.854063 105.93636 
L 447.039953 114.510657 
L 448.225844 125.637889 
L 449.411735 131.914527 
L 450.597626 136.785985 
L 451.783517 139.151087 
L 452.969408 146.962692 
L 454.155299 148.229128 
L 455.34119 148.712573 
L 456.527081 151.815791 
L 458.898863 167.621772 
L 460.084753 171.379211 
L 461.270644 169.980224 
L 463.642426 164.784596 
L 464.828317 164.38471 
L 466.014208 161.024797 
L 469.571881 140.665497 
L 471.943663 132.447557 
L 473.129553 128.633429 
L 474.315444 128.5708 
L 475.501335 125.372967 
L 476.687226 120.070934 
L 477.873117 113.482672 
L 479.059008 120.33533 
L 480.244899 128.473741 
L 481.43079 140.597483 
L 482.616681 148.27993 
L 483.802572 150.641586 
L 484.988463 148.153945 
L 486.174353 146.97267 
L 487.360244 142.650568 
L 489.732026 135.514401 
L 490.917917 135.831264 
L 492.103808 130.13132 
L 493.289699 127.751512 
L 496.847372 150.350763 
L 498.033263 156.240542 
L 499.219153 158.63698 
L 500.405044 154.214493 
L 501.590935 138.404256 
L 502.776826 125.274741 
L 503.962717 110.784602 
L 505.148608 107.326987 
L 505.148608 107.326987 
" clip-path="url(#p9ab16c62b1)" style="fill: none; stroke: #bddf26; stroke-width: 1.3; stroke-linecap: square"/>
   </g>
   <g id="line2d_30">
    <path d="M 208.675881 218.618437 
L 208.675881 20.798438 
" clip-path="url(#p9ab16c62b1)" style="fill: none; stroke-dasharray: 2.96,1.28; stroke-dashoffset: 0; stroke: #000000; stroke-width: 0.8"/>
   </g>
   <g id="line2d_31">
    <path d="M 38.204063 118.748271 
L 527.384063 118.748271 
" clip-path="url(#p9ab16c62b1)" style="fill: none; stroke: #808080; stroke-opacity: 0.3; stroke-width: 0.5; stroke-linecap: square"/>
   </g>
   <g id="patch_3">
    <path d="M 38.204063 218.618438 
L 38.204063 20.798438 
" style="fill: none; stroke: #000000; stroke-width: 0.8; stroke-linejoin: miter; stroke-linecap: square"/>
   </g>
   <g id="patch_4">
    <path d="M 38.204063 218.618437 
L 527.384063 218.618437 
" style="fill: none; stroke: #000000; stroke-width: 0.8; stroke-linejoin: miter; stroke-linecap: square"/>
   </g>
   <g id="text_16">
    <text style="font-weight: 700; font-size: 10px; font-family: 'Arial', 'Helvetica', 'DejaVu Sans', sans-serif; text-anchor: middle" x="282.794062" y="14.798438" transform="rotate(-0 282.794062 14.798438)">ERP by # targets in image (distractor load)</text>
   </g>
   <g id="legend_1">
    <g id="line2d_32">
     <path d="M 450.770156 29.967344 
L 457.770156 29.967344 
L 464.770156 29.967344 
" style="fill: none; stroke: #482475; stroke-width: 1.3; stroke-linecap: square"/>
    </g>
    <g id="text_17">
     <text style="font-size: 7px; font-family: 'Arial', 'Helvetica', 'DejaVu Sans', sans-serif; text-anchor: start" x="470.370156" y="32.417344" transform="rotate(-0 470.370156 32.417344)">K=2 (n=2650)</text>
    </g>
    <g id="line2d_33">
     <path d="M 450.770156 40.242031 
L 457.770156 40.242031 
L 464.770156 40.242031 
" style="fill: none; stroke: #21918c; stroke-width: 1.3; stroke-linecap: square"/>
    </g>
    <g id="text_18">
     <text style="font-size: 7px; font-family: 'Arial', 'Helvetica', 'DejaVu Sans', sans-serif; text-anchor: start" x="470.370156" y="42.692031" transform="rotate(-0 470.370156 42.692031)">K=3 (n=3176)</text>
    </g>
    <g id="line2d_34">
     <path d="M 450.770156 50.516719 
L 457.770156 50.516719 
L 464.770156 50.516719 
" style="fill: none; stroke: #bddf26; stroke-width: 1.3; stroke-linecap: square"/>
    </g>
    <g id="text_19">
     <text style="font-size: 7px; font-family: 'Arial', 'Helvetica', 'DejaVu Sans', sans-serif; text-anchor: start" x="470.370156" y="52.966719" transform="rotate(-0 470.370156 52.966719)">K=4 (n=550)</text>
    </g>
   </g>
  </g>
 </g>
 <defs>
  <clipPath id="p9ab16c62b1">
   <rect x="38.204063" y="20.798438" width="489.18" height="197.82"/>
  </clipPath>
 </defs>
</svg>
