<?xml version="1.0" encoding="utf-8" standalone="no"?>
<!DOCTYPE svg PUBLIC "-//W3C//DTD SVG 1.1//EN"
  "http://www.w3.org/Graphics/SVG/1.1/DTD/svg11.dtd">
<svg xmlns:xlink="http://www.w3.org/1999/xlink" width="570.767187pt" height="282.961875pt" viewBox="0 0 570.767187 282.961875" xmlns="http://www.w3.org/2000/svg" version="1.1">
 <metadata>
  <rdf:RDF xmlns:dc="http://purl.org/dc/elements/1.1/" xmlns:cc="http://creativecommons.org/ns#" xmlns:rdf="http://www.w3.org/1999/02/22-rdf-syntax-ns#">
   <cc:Work>
    <dc:type rdf:resource="http://purl.org/dc/dcmitype/StillImage"/>
    <dc:date>2026-05-18T21:05:44.613742</dc:date>
    <dc:format>image/svg+xml</dc:format>
    <dc:creator>
     <cc:Agent>
      <dc:title>Matplotlib v3.10.1, https://matplotlib.org/</dc:title>
     </cc:Agent>
    </dc:creator>
   </cc:Work>
  </rdf:RDF>
 </metadata>
 <defs>
  <style type="text/css">*{stroke-linejoin: round; stroke-linecap: butt}</style>
 </defs>
 <g id="figure_1">
  <g id="patch_1">
   <path d="M 0 282.961875 
L 570.767187 282.961875 
L 570.767187 0 
L 0 0 
z
" style="fill: #ffffff"/>
  </g>
  <g id="axes_1">
   <g id="patch_2">
    <path d="M 35.267188 249.499688 
L 563.567187 249.499688 
L 563.567187 20.479688 
L 35.267188 20.479688 
z
" style="fill: #ffffff"/>
   </g>
   <g id="matplotlib.axis_1">
    <g id="xtick_1">
     <g id="line2d_1">
      <path d="M 59.280824 249.499688 
L 59.280824 20.479688 
" clip-path="url(#p6d6dc2ef03)" style="fill: none; stroke: #b0b0b0; stroke-opacity: 0.15; stroke-width: 0.8; stroke-linecap: square"/>
     </g>
     <g id="line2d_2">
      <defs>
       <path id="mbfda8b9931" d="M 0 0 
L 0 3 
" style="stroke: #000000; stroke-width: 0.8"/>
      </defs>
      <g>
       <use xlink:href="#mbfda8b9931" x="59.280824" y="249.499688" style="stroke: #000000; stroke-width: 0.8"/>
      </g>
     </g>
     <g id="text_1">
      <text style="font-size: 8px; font-family: 'Arial', 'Helvetica', 'DejaVu Sans', sans-serif; text-anchor: middle" x="59.280824" y="261.725938" transform="rotate(-0 59.280824 261.725938)">−100</text>
     </g>
    </g>
    <g id="xtick_2">
     <g id="line2d_3">
      <path d="M 146.921832 249.499688 
L 146.921832 20.479688 
" clip-path="url(#p6d6dc2ef03)" style="fill: none; stroke: #b0b0b0; stroke-opacity: 0.15; stroke-width: 0.8; stroke-linecap: square"/>
     </g>
     <g id="line2d_4">
      <g>
       <use xlink:href="#mbfda8b9931" x="146.921832" y="249.499688" style="stroke: #000000; stroke-width: 0.8"/>
      </g>
     </g>
     <g id="text_2">
      <text style="font-size: 8px; font-family: 'Arial', 'Helvetica', 'DejaVu Sans', sans-serif; text-anchor: middle" x="146.921832" y="261.725938" transform="rotate(-0 146.921832 261.725938)">0</text>
     </g>
    </g>
    <g id="xtick_3">
     <g id="line2d_5">
      <path d="M 234.562841 249.499688 
L 234.562841 20.479688 
" clip-path="url(#p6d6dc2ef03)" style="fill: none; stroke: #b0b0b0; stroke-opacity: 0.15; stroke-width: 0.8; stroke-linecap: square"/>
     </g>
     <g id="line2d_6">
      <g>
       <use xlink:href="#mbfda8b9931" x="234.562841" y="249.499688" style="stroke: #000000; stroke-width: 0.8"/>
      </g>
     </g>
     <g id="text_3">
      <text style="font-size: 8px; font-family: 'Arial', 'Helvetica', 'DejaVu Sans', sans-serif; text-anchor: middle" x="234.562841" y="261.725938" transform="rotate(-0 234.562841 261.725938)">100</text>
     </g>
    </g>
    <g id="xtick_4">
     <g id="line2d_7">
      <path d="M 322.20385 249.499688 
L 322.20385 20.479688 
" clip-path="url(#p6d6dc2ef03)" style="fill: none; stroke: #b0b0b0; stroke-opacity: 0.15; stroke-width: 0.8; stroke-linecap: square"/>
     </g>
     <g id="line2d_8">
      <g>
       <use xlink:href="#mbfda8b9931" x="322.20385" y="249.499688" style="stroke: #000000; stroke-width: 0.8"/>
      </g>
     </g>
     <g id="text_4">
      <text style="font-size: 8px; font-family: 'Arial', 'Helvetica', 'DejaVu Sans', sans-serif; text-anchor: middle" x="322.20385" y="261.725938" transform="rotate(-0 322.20385 261.725938)">200</text>
     </g>
    </g>
    <g id="xtick_5">
     <g id="line2d_9">
      <path d="M 409.844858 249.499688 
L 409.844858 20.479688 
" clip-path="url(#p6d6dc2ef03)" style="fill: none; stroke: #b0b0b0; stroke-opacity: 0.15; stroke-width: 0.8; stroke-linecap: square"/>
     </g>
     <g id="line2d_10">
      <g>
       <use xlink:href="#mbfda8b9931" x="409.844858" y="249.499688" style="stroke: #000000; stroke-width: 0.8"/>
      </g>
     </g>
     <g id="text_5">
      <text style="font-size: 8px; font-family: 'Arial', 'Helvetica', 'DejaVu Sans', sans-serif; text-anchor: middle" x="409.844858" y="261.725938" transform="rotate(-0 409.844858 261.725938)">300</text>
     </g>
    </g>
    <g id="xtick_6">
     <g id="line2d_11">
      <path d="M 497.485867 249.499688 
L 497.485867 20.479688 
" clip-path="url(#p6d6dc2ef03)" style="fill: none; stroke: #b0b0b0; stroke-opacity: 0.15; stroke-width: 0.8; stroke-linecap: square"/>
     </g>
     <g id="line2d_12">
      <g>
       <use xlink:href="#mbfda8b9931" x="497.485867" y="249.499688" style="stroke: #000000; stroke-width: 0.8"/>
      </g>
     </g>
     <g id="text_6">
      <text style="font-size: 8px; font-family: 'Arial', 'Helvetica', 'DejaVu Sans', sans-serif; text-anchor: middle" x="497.485867" y="261.725938" transform="rotate(-0 497.485867 261.725938)">400</text>
     </g>
    </g>
    <g id="text_7">
     <text style="font-size: 9px; font-family: 'Arial', 'Helvetica', 'DejaVu Sans', sans-serif; text-anchor: middle" x="299.417187" y="273.867656" transform="rotate(-0 299.417187 273.867656)">Time (ms)</text>
    </g>
   </g>
   <g id="matplotlib.axis_2">
    <g id="ytick_1">
     <g id="line2d_13">
      <path d="M 35.267188 214.129206 
L 563.567187 214.129206 
" clip-path="url(#p6d6dc2ef03)" style="fill: none; stroke: #b0b0b0; stroke-opacity: 0.15; stroke-width: 0.8; stroke-linecap: square"/>
     </g>
     <g id="line2d_14">
      <defs>
       <path id="m02f8455b8c" d="M 0 0 
L -3 0 
" style="stroke: #000000; stroke-width: 0.8"/>
      </defs>
      <g>
       <use xlink:href="#m02f8455b8c" x="35.267188" y="214.129206" style="stroke: #000000; stroke-width: 0.8"/>
      </g>
     </g>
     <g id="text_8">
      <text style="font-size: 8px; font-family: 'Arial', 'Helvetica', 'DejaVu Sans', sans-serif; text-anchor: end" x="28.767188" y="216.992331" transform="rotate(-0 28.767188 216.992331)">−6</text>
     </g>
    </g>
    <g id="ytick_2">
     <g id="line2d_15">
      <path d="M 35.267188 166.037057 
L 563.567187 166.037057 
" clip-path="url(#p6d6dc2ef03)" style="fill: none; stroke: #b0b0b0; stroke-opacity: 0.15; stroke-width: 0.8; stroke-linecap: square"/>
     </g>
     <g id="line2d_16">
      <g>
       <use xlink:href="#m02f8455b8c" x="35.267188" y="166.037057" style="stroke: #000000; stroke-width: 0.8"/>
      </g>
     </g>
     <g id="text_9">
      <text style="font-size: 8px; font-family: 'Arial', 'Helvetica', 'DejaVu Sans', sans-serif; text-anchor: end" x="28.767188" y="168.900182" transform="rotate(-0 28.767188 168.900182)">−4</text>
     </g>
    </g>
    <g id="ytick_3">
     <g id="line2d_17">
      <path d="M 35.267188 117.944908 
L 563.567187 117.944908 
" clip-path="url(#p6d6dc2ef03)" style="fill: none; stroke: #b0b0b0; stroke-opacity: 0.15; stroke-width: 0.8; stroke-linecap: square"/>
     </g>
     <g id="line2d_18">
      <g>
       <use xlink:href="#m02f8455b8c" x="35.267188" y="117.944908" style="stroke: #000000; stroke-width: 0.8"/>
      </g>
     </g>
     <g id="text_10">
      <text style="font-size: 8px; font-family: 'Arial', 'Helvetica', 'DejaVu Sans', sans-serif; text-anchor: end" x="28.767188" y="120.808033" transform="rotate(-0 28.767188 120.808033)">−2</text>
     </g>
    </g>
    <g id="ytick_4">
     <g id="line2d_19">
      <path d="M 35.267188 69.852759 
L 563.567187 69.852759 
" clip-path="url(#p6d6dc2ef03)" style="fill: none; stroke: #b0b0b0; stroke-opacity: 0.15; stroke-width: 0.8; stroke-linecap: square"/>
     </g>
     <g id="line2d_20">
      <g>
       <use xlink:href="#m02f8455b8c" x="35.267188" y="69.852759" style="stroke: #000000; stroke-width: 0.8"/>
      </g>
     </g>
     <g id="text_11">
      <text style="font-size: 8px; font-family: 'Arial', 'Helvetica', 'DejaVu Sans', sans-serif; text-anchor: end" x="28.767188" y="72.715884" transform="rotate(-0 28.767188 72.715884)">0</text>
     </g>
    </g>
    <g id="ytick_5">
     <g id="line2d_21">
      <path d="M 35.267188 21.76061 
L 563.567187 21.76061 
" clip-path="url(#p6d6dc2ef03)" style="fill: none; stroke: #b0b0b0; stroke-opacity: 0.15; stroke-width: 0.8; stroke-linecap: square"/>
     </g>
     <g id="line2d_22">
      <g>
       <use xlink:href="#m02f8455b8c" x="35.267188" y="21.76061" style="stroke: #000000; stroke-width: 0.8"/>
      </g>
     </g>
     <g id="text_12">
      <text style="font-size: 8px; font-family: 'Arial', 'Helvetica', 'DejaVu Sans', sans-serif; text-anchor: end" x="28.767188" y="24.623735" transform="rotate(-0 28.767188 24.623735)">2</text>
     </g>
    </g>
    <g id="text_13">
     <text style="font-size: 9px; font-family: 'Arial', 'Helvetica', 'DejaVu Sans', sans-serif; text-anchor: middle" x="13.751719" y="134.989688" transform="rotate(-90 13.751719 134.989688)">Amplitude (µV)</text>
    </g>
   </g>
   <g id="line2d_23">
    <path d="M 59.280824 82.621096 
L 62.786464 79.533 
L 66.292105 77.607992 
L 69.797745 77.757238 
L 73.303385 79.5806 
L 76.809026 78.559189 
L 80.314666 78.30774 
L 83.820306 76.303865 
L 87.325947 74.595395 
L 90.831587 73.461087 
L 104.854148 63.263348 
L 108.359789 67.686459 
L 111.865429 70.068349 
L 115.371069 67.916787 
L 118.87671 65.001113 
L 122.38235 65.521711 
L 125.88799 64.14796 
L 129.393631 61.295159 
L 132.899271 60.185246 
L 139.910552 62.059478 
L 143.416192 62.35123 
L 146.921832 62.203793 
L 150.427473 61.457272 
L 153.933113 63.733874 
L 160.944394 62.748654 
L 164.450034 61.915388 
L 167.955675 62.92074 
L 171.461315 61.796942 
L 174.966955 62.181908 
L 178.472596 63.762819 
L 181.978236 70.343514 
L 185.483876 73.265411 
L 188.989517 75.571548 
L 192.495157 79.865257 
L 196.000797 84.527974 
L 199.506438 87.333375 
L 203.012078 87.779984 
L 206.517718 90.158389 
L 210.023359 94.946765 
L 213.528999 103.100531 
L 217.034639 113.645596 
L 220.54028 118.04425 
L 224.04592 123.350136 
L 227.55156 130.352316 
L 231.057201 141.471318 
L 234.562841 149.602722 
L 238.068481 150.608806 
L 241.574122 135.719947 
L 245.079762 105.660456 
L 248.585402 74.311507 
L 252.091043 47.931192 
L 255.596683 41.375943 
L 259.102324 49.8273 
L 262.607964 74.27521 
L 266.113604 94.400625 
L 269.619245 106.295005 
L 273.124885 100.135078 
L 276.630525 83.869999 
L 280.136166 66.061735 
L 283.641806 53.616302 
L 287.147446 54.692868 
L 290.653087 67.883651 
L 294.158727 94.514397 
L 297.664367 129.194714 
L 301.170008 160.376675 
L 304.675648 185.313869 
L 308.181288 193.559561 
L 311.686929 185.996478 
L 318.698209 154.509686 
L 322.20385 148.710496 
L 325.70949 144.138845 
L 329.21513 146.038777 
L 332.720771 153.685322 
L 339.732051 174.689141 
L 343.237692 177.368633 
L 346.743332 179.006709 
L 350.248973 176.324465 
L 353.754613 168.099882 
L 357.260253 160.738595 
L 360.765894 154.542066 
L 364.271534 149.967331 
L 367.777174 148.655086 
L 371.282815 150.18502 
L 374.788455 149.503368 
L 378.294095 143.812051 
L 381.799736 135.991171 
L 385.305376 123.076389 
L 392.316657 89.28276 
L 395.822297 74.330149 
L 399.327937 60.088527 
L 402.833578 50.380773 
L 406.339218 48.074177 
L 409.844858 45.088123 
L 413.350499 39.772592 
L 416.856139 39.012885 
L 420.361779 39.990949 
L 423.86742 41.107502 
L 427.37306 46.267359 
L 430.8787 49.909981 
L 434.384341 60.085266 
L 441.395621 76.216665 
L 444.901262 80.564501 
L 448.406902 83.251117 
L 451.912543 85.09151 
L 455.418183 83.359325 
L 458.923823 78.656481 
L 462.429464 76.621546 
L 469.440744 63.334439 
L 472.946385 59.623107 
L 476.452025 58.809032 
L 479.957665 55.36983 
L 483.463306 51.442804 
L 486.968946 48.58495 
L 490.474586 46.320974 
L 493.980227 47.803407 
L 497.485867 49.160031 
L 500.991507 51.080995 
L 504.497148 52.01189 
L 508.002788 54.85956 
L 511.508428 59.80414 
L 515.014069 65.713441 
L 518.519709 69.842014 
L 522.025349 77.935566 
L 525.53099 84.019498 
L 529.03663 88.400452 
L 532.54227 90.76002 
L 536.047911 94.201096 
L 539.553551 96.091253 
L 539.553551 96.091253 
" clip-path="url(#p6d6dc2ef03)" style="fill: none; stroke: #1f77b4; stroke-width: 1.4; stroke-linecap: square"/>
   </g>
   <g id="line2d_24">
    <path d="M 59.280824 69.516123 
L 62.786464 69.946975 
L 66.292105 71.415838 
L 69.797745 71.200181 
L 73.303385 71.162881 
L 76.809026 69.544161 
L 80.314666 72.616618 
L 83.820306 74.432706 
L 87.325947 71.474802 
L 90.831587 71.658174 
L 94.337227 69.761442 
L 97.842868 71.874947 
L 101.348508 72.851321 
L 104.854148 70.471972 
L 108.359789 71.969952 
L 111.865429 72.219062 
L 115.371069 68.1439 
L 118.87671 68.135555 
L 122.38235 69.186831 
L 125.88799 68.708171 
L 129.393631 69.172615 
L 132.899271 65.708951 
L 136.404911 66.446706 
L 139.910552 66.168562 
L 143.416192 65.081156 
L 146.921832 67.302052 
L 150.427473 69.972119 
L 153.933113 71.298727 
L 157.438754 76.523231 
L 160.944394 76.39279 
L 164.450034 74.075349 
L 167.955675 75.487028 
L 171.461315 76.595414 
L 174.966955 77.33178 
L 178.472596 74.651711 
L 181.978236 76.985311 
L 185.483876 82.211303 
L 188.989517 87.772279 
L 196.000797 102.904221 
L 199.506438 106.709973 
L 203.012078 110.095337 
L 206.517718 116.528508 
L 210.023359 119.448819 
L 213.528999 121.777989 
L 217.034639 131.950548 
L 220.54028 138.200944 
L 224.04592 150.966759 
L 227.55156 151.29748 
L 231.057201 161.288399 
L 234.562841 167.786216 
L 238.068481 169.285943 
L 241.574122 162.042619 
L 245.079762 139.543494 
L 248.585402 106.833397 
L 252.091043 75.958842 
L 255.596683 57.924195 
L 259.102324 59.221645 
L 262.607964 76.076048 
L 266.113604 97.413924 
L 269.619245 114.363114 
L 273.124885 118.122907 
L 276.630525 107.13553 
L 280.136166 90.336496 
L 283.641806 72.074196 
L 287.147446 65.844917 
L 290.653087 70.072431 
L 294.158727 91.177487 
L 297.664367 118.948997 
L 301.170008 149.598674 
L 304.675648 175.308228 
L 308.181288 185.140089 
L 311.686929 191.539574 
L 315.192569 187.177345 
L 318.698209 179.150895 
L 322.20385 173.43676 
L 325.70949 172.035057 
L 329.21513 170.877191 
L 332.720771 175.575055 
L 339.732051 177.902642 
L 343.237692 175.398741 
L 346.743332 172.723456 
L 350.248973 173.582161 
L 357.260253 161.397412 
L 360.765894 158.259478 
L 367.777174 156.990701 
L 371.282815 156.205958 
L 374.788455 149.28267 
L 378.294095 140.794103 
L 381.799736 139.232019 
L 385.305376 132.060175 
L 388.811016 121.85949 
L 392.316657 113.317618 
L 395.822297 97.967124 
L 399.327937 91.489993 
L 402.833578 85.940637 
L 406.339218 78.639952 
L 409.844858 72.776078 
L 413.350499 69.536028 
L 416.856139 67.205304 
L 420.361779 71.203416 
L 423.86742 72.077954 
L 427.37306 72.201845 
L 430.8787 71.099675 
L 437.889981 77.992013 
L 441.395621 79.588999 
L 444.901262 82.400641 
L 448.406902 83.792282 
L 451.912543 88.453419 
L 455.418183 91.14446 
L 458.923823 89.317227 
L 462.429464 83.471624 
L 465.935104 77.195073 
L 469.440744 69.708072 
L 472.946385 64.745638 
L 476.452025 59.205001 
L 479.957665 52.996948 
L 483.463306 50.723519 
L 486.968946 49.268746 
L 490.474586 48.375925 
L 493.980227 45.207044 
L 497.485867 45.920227 
L 500.991507 47.472717 
L 504.497148 50.616024 
L 508.002788 50.177902 
L 511.508428 53.359381 
L 515.014069 60.140824 
L 518.519709 69.226413 
L 525.53099 84.2529 
L 529.03663 85.198047 
L 532.54227 91.167908 
L 536.047911 94.362151 
L 539.553551 95.700117 
L 539.553551 95.700117 
" clip-path="url(#p6d6dc2ef03)" style="fill: none; stroke: #ff7f0e; stroke-width: 1.4; stroke-linecap: square"/>
   </g>
   <g id="line2d_25">
    <path d="M 59.280824 73.157703 
L 62.786464 72.851163 
L 66.292105 72.06186 
L 69.797745 75.660294 
L 73.303385 79.970439 
L 76.809026 77.046985 
L 80.314666 76.864027 
L 83.820306 74.940665 
L 87.325947 73.251753 
L 90.831587 70.854672 
L 94.337227 72.279697 
L 97.842868 68.572889 
L 101.348508 65.159281 
L 104.854148 66.200346 
L 108.359789 67.381386 
L 111.865429 66.82724 
L 115.371069 63.032922 
L 118.87671 63.389831 
L 122.38235 65.410404 
L 125.88799 70.97523 
L 129.393631 69.281067 
L 132.899271 66.506848 
L 136.404911 66.824474 
L 139.910552 66.333646 
L 143.416192 66.145664 
L 146.921832 65.191068 
L 150.427473 65.965686 
L 153.933113 68.385642 
L 157.438754 65.969422 
L 160.944394 61.638404 
L 164.450034 59.793211 
L 167.955675 60.694195 
L 171.461315 58.910767 
L 174.966955 59.089006 
L 178.472596 61.300554 
L 188.989517 73.746693 
L 192.495157 78.84702 
L 196.000797 82.202969 
L 199.506438 84.860856 
L 203.012078 87.000683 
L 206.517718 90.76341 
L 210.023359 93.386308 
L 213.528999 98.190967 
L 217.034639 107.101602 
L 220.54028 117.736495 
L 224.04592 126.364443 
L 227.55156 132.994963 
L 231.057201 141.861875 
L 234.562841 148.755116 
L 238.068481 146.546558 
L 241.574122 133.310285 
L 245.079762 110.294516 
L 252.091043 55.796287 
L 255.596683 45.250683 
L 259.102324 54.595892 
L 262.607964 75.363625 
L 266.113604 97.157052 
L 269.619245 107.882223 
L 273.124885 104.113532 
L 276.630525 87.779764 
L 280.136166 72.821976 
L 283.641806 62.11634 
L 287.147446 60.45007 
L 290.653087 72.974093 
L 294.158727 100.910494 
L 297.664367 136.800141 
L 301.170008 169.399216 
L 304.675648 188.414395 
L 308.181288 191.538702 
L 311.686929 182.455735 
L 315.192569 166.752608 
L 318.698209 147.962513 
L 322.20385 130.138302 
L 325.70949 119.268699 
L 329.21513 123.504509 
L 332.720771 132.545476 
L 336.226411 141.946288 
L 339.732051 150.525436 
L 343.237692 155.419707 
L 346.743332 157.017996 
L 350.248973 155.198527 
L 353.754613 147.875486 
L 357.260253 142.244165 
L 360.765894 139.417482 
L 364.271534 140.167472 
L 371.282815 148.5351 
L 374.788455 151.661413 
L 378.294095 150.485454 
L 381.799736 145.465434 
L 385.305376 136.793422 
L 388.811016 122.118268 
L 395.822297 85.536422 
L 399.327937 68.085151 
L 402.833578 55.546962 
L 406.339218 49.835543 
L 413.350499 33.502921 
L 416.856139 30.927035 
L 420.361779 30.889688 
L 423.86742 31.751695 
L 427.37306 33.895197 
L 430.8787 37.325717 
L 434.384341 44.573911 
L 437.889981 52.620723 
L 441.395621 62.996595 
L 444.901262 69.80873 
L 448.406902 76.373511 
L 451.912543 82.430762 
L 455.418183 86.804943 
L 458.923823 86.142864 
L 462.429464 81.395836 
L 469.440744 64.711791 
L 472.946385 62.354993 
L 476.452025 54.191017 
L 479.957665 47.423377 
L 483.463306 40.324918 
L 486.968946 36.952709 
L 490.474586 35.735483 
L 493.980227 35.483734 
L 497.485867 36.091931 
L 500.991507 36.466935 
L 504.497148 40.839426 
L 508.002788 47.526986 
L 515.014069 56.213607 
L 518.519709 61.898227 
L 522.025349 69.69234 
L 525.53099 76.165628 
L 529.03663 78.299923 
L 532.54227 79.600553 
L 536.047911 81.524444 
L 539.553551 82.715153 
L 539.553551 82.715153 
" clip-path="url(#p6d6dc2ef03)" style="fill: none; stroke: #2ca02c; stroke-width: 1.4; stroke-linecap: square"/>
   </g>
   <g id="line2d_26">
    <path d="M 59.280824 75.699437 
L 62.786464 78.695234 
L 69.797745 80.341198 
L 73.303385 78.005863 
L 76.809026 75.028233 
L 80.314666 73.681275 
L 83.820306 71.312526 
L 87.325947 68.428126 
L 90.831587 63.851819 
L 94.337227 60.452795 
L 97.842868 59.684561 
L 101.348508 63.306912 
L 104.854148 61.664693 
L 108.359789 60.249881 
L 111.865429 61.578705 
L 115.371069 62.743206 
L 118.87671 63.36346 
L 122.38235 64.674751 
L 125.88799 70.284736 
L 129.393631 73.594934 
L 132.899271 69.171647 
L 136.404911 73.400121 
L 139.910552 75.410242 
L 143.416192 77.865204 
L 146.921832 74.17234 
L 150.427473 77.425664 
L 153.933113 83.88337 
L 157.438754 85.841524 
L 160.944394 85.788767 
L 164.450034 84.957352 
L 167.955675 85.131804 
L 171.461315 88.187099 
L 174.966955 85.480765 
L 178.472596 87.384688 
L 181.978236 89.863304 
L 185.483876 96.725166 
L 188.989517 102.146483 
L 192.495157 109.51743 
L 196.000797 111.697323 
L 199.506438 119.765099 
L 203.012078 121.743482 
L 206.517718 127.187844 
L 210.023359 130.033881 
L 213.528999 132.673133 
L 217.034639 139.959156 
L 220.54028 148.994831 
L 224.04592 157.177604 
L 227.55156 165.937222 
L 231.057201 168.271219 
L 234.562841 172.81468 
L 238.068481 171.223157 
L 241.574122 163.589855 
L 245.079762 142.362523 
L 248.585402 112.405218 
L 252.091043 83.928191 
L 255.596683 76.408454 
L 259.102324 84.225595 
L 262.607964 96.927972 
L 266.113604 113.285482 
L 269.619245 120.392201 
L 273.124885 118.5699 
L 276.630525 104.009205 
L 280.136166 88.64488 
L 283.641806 77.467821 
L 287.147446 74.863392 
L 290.653087 85.254516 
L 294.158727 111.071743 
L 301.170008 171.53141 
L 304.675648 194.014259 
L 308.181288 205.630297 
L 311.686929 206.662369 
L 315.192569 195.561822 
L 318.698209 176.143668 
L 322.20385 162.862242 
L 325.70949 155.045071 
L 329.21513 157.629378 
L 332.720771 165.690363 
L 336.226411 173.085589 
L 339.732051 178.413169 
L 343.237692 184.750094 
L 346.743332 184.448949 
L 350.248973 180.302455 
L 353.754613 170.430221 
L 357.260253 162.433646 
L 360.765894 154.133209 
L 364.271534 150.040955 
L 367.777174 151.620015 
L 371.282815 150.752733 
L 374.788455 150.345545 
L 378.294095 150.382609 
L 381.799736 146.278579 
L 385.305376 137.292328 
L 388.811016 124.065962 
L 392.316657 104.060937 
L 399.327937 75.913583 
L 406.339218 51.549285 
L 409.844858 44.975968 
L 413.350499 42.398922 
L 416.856139 45.758656 
L 420.361779 47.572066 
L 423.86742 45.644388 
L 427.37306 46.259971 
L 430.8787 45.681079 
L 434.384341 47.439727 
L 437.889981 51.266118 
L 441.395621 52.149396 
L 444.901262 56.895811 
L 448.406902 59.758006 
L 451.912543 61.777818 
L 455.418183 62.7906 
L 458.923823 63.006152 
L 462.429464 61.961251 
L 465.935104 58.872361 
L 469.440744 58.970509 
L 472.946385 57.439875 
L 479.957665 48.411637 
L 483.463306 45.922502 
L 486.968946 42.863203 
L 490.474586 42.207287 
L 493.980227 42.114678 
L 497.485867 41.679647 
L 500.991507 44.202972 
L 504.497148 49.51833 
L 511.508428 58.989972 
L 518.519709 66.700947 
L 522.025349 73.331616 
L 525.53099 79.436629 
L 529.03663 82.847809 
L 532.54227 86.606892 
L 536.047911 89.299856 
L 539.553551 94.113151 
L 539.553551 94.113151 
" clip-path="url(#p6d6dc2ef03)" style="fill: none; stroke: #d62728; stroke-width: 1.4; stroke-linecap: square"/>
   </g>
   <g id="line2d_27">
    <path d="M 59.280824 70.632146 
L 62.786464 67.188033 
L 66.292105 69.21374 
L 69.797745 70.973209 
L 73.303385 71.863157 
L 76.809026 70.163583 
L 80.314666 73.392404 
L 83.820306 71.406431 
L 87.325947 70.446373 
L 90.831587 68.636282 
L 94.337227 69.606714 
L 97.842868 66.700316 
L 101.348508 65.663533 
L 104.854148 62.977707 
L 108.359789 66.879673 
L 111.865429 68.173168 
L 115.371069 69.918442 
L 118.87671 69.836867 
L 122.38235 71.795946 
L 125.88799 73.57612 
L 129.393631 69.27811 
L 132.899271 68.729256 
L 136.404911 71.21914 
L 139.910552 70.755746 
L 143.416192 73.485714 
L 146.921832 73.659861 
L 150.427473 76.436822 
L 153.933113 82.993036 
L 157.438754 86.569946 
L 160.944394 85.193097 
L 164.450034 90.089317 
L 167.955675 92.570841 
L 171.461315 95.249146 
L 174.966955 95.461852 
L 178.472596 94.022033 
L 181.978236 98.350411 
L 185.483876 100.382221 
L 188.989517 99.694406 
L 192.495157 104.205954 
L 196.000797 110.108118 
L 199.506438 117.447143 
L 203.012078 123.935117 
L 206.517718 129.440627 
L 210.023359 133.366354 
L 213.528999 138.545012 
L 217.034639 147.497668 
L 220.54028 158.752926 
L 224.04592 168.861022 
L 227.55156 176.44628 
L 231.057201 181.674243 
L 234.562841 186.341526 
L 238.068481 188.749686 
L 241.574122 176.482261 
L 245.079762 148.869049 
L 248.585402 116.330231 
L 252.091043 89.237433 
L 255.596683 75.912269 
L 259.102324 79.617585 
L 262.607964 94.069382 
L 266.113604 118.169987 
L 269.619245 133.707825 
L 273.124885 140.089479 
L 276.630525 132.569898 
L 280.136166 117.425094 
L 283.641806 104.387021 
L 287.147446 98.988627 
L 290.653087 107.413895 
L 294.158727 128.181567 
L 297.664367 152.004283 
L 301.170008 174.916123 
L 304.675648 195.280778 
L 308.181288 207.950524 
L 311.686929 205.571167 
L 315.192569 195.979244 
L 318.698209 186.762044 
L 322.20385 176.572843 
L 325.70949 171.838288 
L 329.21513 175.621744 
L 332.720771 176.458927 
L 336.226411 179.518279 
L 339.732051 181.994031 
L 343.237692 178.552103 
L 346.743332 175.495515 
L 350.248973 167.656512 
L 353.754613 155.347116 
L 357.260253 146.709359 
L 360.765894 140.030916 
L 364.271534 133.643443 
L 367.777174 133.172302 
L 371.282815 133.892147 
L 374.788455 134.380837 
L 378.294095 133.18018 
L 381.799736 124.020808 
L 385.305376 113.196301 
L 388.811016 102.885242 
L 395.822297 71.988853 
L 399.327937 59.966123 
L 402.833578 51.799585 
L 406.339218 46.205781 
L 409.844858 39.230826 
L 413.350499 34.880189 
L 416.856139 32.918123 
L 420.361779 33.594262 
L 423.86742 35.959691 
L 427.37306 40.66147 
L 430.8787 42.039438 
L 434.384341 46.50127 
L 441.395621 54.719625 
L 448.406902 68.553967 
L 451.912543 75.047247 
L 455.418183 80.904119 
L 458.923823 80.936306 
L 462.429464 77.796011 
L 465.935104 74.037439 
L 469.440744 69.058371 
L 472.946385 60.464299 
L 476.452025 56.472626 
L 479.957665 51.644919 
L 483.463306 50.459404 
L 490.474586 47.709675 
L 493.980227 45.296341 
L 497.485867 43.685973 
L 500.991507 44.870452 
L 504.497148 45.468834 
L 508.002788 43.586869 
L 511.508428 46.564139 
L 515.014069 51.07189 
L 518.519709 54.65915 
L 525.53099 75.009748 
L 529.03663 80.830337 
L 532.54227 85.988496 
L 536.047911 87.668152 
L 539.553551 91.246901 
L 539.553551 91.246901 
" clip-path="url(#p6d6dc2ef03)" style="fill: none; stroke: #9467bd; stroke-width: 1.4; stroke-linecap: square"/>
   </g>
   <g id="line2d_28">
    <path d="M 59.280824 74.816283 
L 62.786464 75.273112 
L 66.292105 78.053523 
L 69.797745 78.966488 
L 73.303385 83.686307 
L 76.809026 78.580608 
L 80.314666 80.895008 
L 83.820306 77.81727 
L 87.325947 74.242946 
L 90.831587 71.906565 
L 94.337227 70.408038 
L 97.842868 64.690418 
L 101.348508 61.549682 
L 104.854148 60.557177 
L 108.359789 60.64955 
L 111.865429 60.629195 
L 115.371069 59.307316 
L 118.87671 55.247319 
L 122.38235 52.281859 
L 125.88799 56.52167 
L 129.393631 60.492572 
L 132.899271 68.598451 
L 136.404911 75.131262 
L 139.910552 78.686072 
L 143.416192 78.30574 
L 146.921832 78.87742 
L 150.427473 78.895068 
L 153.933113 83.63283 
L 157.438754 84.903046 
L 160.944394 81.483171 
L 164.450034 82.834618 
L 167.955675 86.472414 
L 171.461315 87.749028 
L 174.966955 90.718758 
L 178.472596 94.948167 
L 181.978236 97.825922 
L 185.483876 100.166739 
L 188.989517 107.991738 
L 192.495157 117.193156 
L 196.000797 122.365556 
L 199.506438 128.770923 
L 203.012078 133.516319 
L 206.517718 141.823641 
L 210.023359 146.973904 
L 213.528999 155.315349 
L 217.034639 162.297808 
L 220.54028 168.980234 
L 224.04592 173.209262 
L 227.55156 179.527601 
L 231.057201 189.221228 
L 234.562841 196.822046 
L 238.068481 194.274871 
L 241.574122 183.191077 
L 245.079762 152.874018 
L 248.585402 128.845618 
L 252.091043 102.72044 
L 255.596683 90.530908 
L 259.102324 96.565363 
L 262.607964 117.081485 
L 266.113604 132.970012 
L 269.619245 137.371174 
L 273.124885 137.062708 
L 276.630525 127.610815 
L 280.136166 116.578922 
L 283.641806 111.243307 
L 287.147446 115.132848 
L 290.653087 126.677059 
L 294.158727 153.77646 
L 297.664367 183.529681 
L 301.170008 211.167924 
L 304.675648 232.290061 
L 308.181288 239.089688 
L 311.686929 233.01616 
L 315.192569 222.326167 
L 322.20385 193.626844 
L 325.70949 188.761232 
L 329.21513 192.002791 
L 332.720771 199.278856 
L 336.226411 205.981365 
L 339.732051 211.09821 
L 343.237692 212.479767 
L 346.743332 210.536602 
L 350.248973 201.817637 
L 353.754613 192.793238 
L 357.260253 184.68929 
L 360.765894 173.455748 
L 364.271534 167.828583 
L 367.777174 167.927191 
L 371.282815 161.098905 
L 374.788455 158.044627 
L 378.294095 152.017721 
L 381.799736 143.179652 
L 385.305376 130.472773 
L 388.811016 115.232224 
L 392.316657 97.953706 
L 395.822297 82.063924 
L 399.327937 72.286256 
L 402.833578 60.664668 
L 406.339218 54.705975 
L 409.844858 49.892316 
L 413.350499 49.162822 
L 416.856139 45.240645 
L 420.361779 47.773654 
L 423.86742 43.557175 
L 427.37306 50.698102 
L 430.8787 49.765633 
L 434.384341 55.744868 
L 437.889981 57.697883 
L 441.395621 61.720624 
L 444.901262 64.868393 
L 448.406902 69.870755 
L 451.912543 75.112479 
L 455.418183 74.37636 
L 458.923823 73.512955 
L 462.429464 65.841179 
L 469.440744 58.169182 
L 472.946385 57.692241 
L 476.452025 59.223883 
L 479.957665 53.302267 
L 483.463306 50.324695 
L 486.968946 50.693225 
L 490.474586 48.322457 
L 493.980227 47.941483 
L 497.485867 50.741875 
L 500.991507 54.348766 
L 504.497148 58.38893 
L 511.508428 70.448377 
L 515.014069 74.961275 
L 518.519709 81.173212 
L 522.025349 88.502661 
L 525.53099 94.768887 
L 529.03663 98.206742 
L 532.54227 93.929402 
L 536.047911 95.95745 
L 539.553551 100.204104 
L 539.553551 100.204104 
" clip-path="url(#p6d6dc2ef03)" style="fill: none; stroke: #8c564b; stroke-width: 1.4; stroke-linecap: square"/>
   </g>
   <g id="line2d_29">
    <path d="M 59.280824 83.730528 
L 62.786464 81.579114 
L 66.292105 84.8053 
L 69.797745 85.23502 
L 73.303385 83.547883 
L 76.809026 79.468261 
L 80.314666 78.196424 
L 83.820306 80.688443 
L 87.325947 79.666492 
L 90.831587 74.709453 
L 94.337227 67.904226 
L 97.842868 67.978073 
L 101.348508 70.565245 
L 104.854148 70.527357 
L 108.359789 68.848105 
L 111.865429 65.339476 
L 115.371069 60.884389 
L 118.87671 61.967618 
L 122.38235 62.30734 
L 125.88799 60.790403 
L 129.393631 61.409665 
L 132.899271 56.62742 
L 136.404911 56.505995 
L 139.910552 59.115395 
L 143.416192 57.115774 
L 146.921832 56.658508 
L 150.427473 56.401526 
L 157.438754 62.64396 
L 160.944394 62.278437 
L 167.955675 65.439002 
L 171.461315 63.63449 
L 174.966955 66.517651 
L 178.472596 69.156359 
L 181.978236 68.616219 
L 185.483876 74.612194 
L 188.989517 83.783717 
L 192.495157 92.180837 
L 196.000797 99.894867 
L 199.506438 110.837652 
L 203.012078 112.777466 
L 206.517718 117.467504 
L 210.023359 124.570996 
L 213.528999 125.389317 
L 217.034639 130.50693 
L 224.04592 151.211955 
L 227.55156 163.377808 
L 231.057201 168.181073 
L 234.562841 166.995895 
L 238.068481 160.298734 
L 241.574122 143.459693 
L 245.079762 116.46627 
L 248.585402 85.569581 
L 252.091043 60.511088 
L 255.596683 55.979823 
L 259.102324 72.47409 
L 262.607964 92.955374 
L 266.113604 106.743282 
L 269.619245 108.573601 
L 273.124885 104.160884 
L 276.630525 88.849747 
L 280.136166 72.6919 
L 283.641806 63.028659 
L 287.147446 61.673815 
L 290.653087 74.39656 
L 294.158727 96.107633 
L 297.664367 122.333102 
L 301.170008 144.735144 
L 304.675648 157.389187 
L 308.181288 163.33649 
L 311.686929 160.058262 
L 315.192569 148.261892 
L 318.698209 133.014403 
L 322.20385 124.265746 
L 325.70949 123.954288 
L 329.21513 130.37053 
L 332.720771 143.832289 
L 336.226411 153.514971 
L 339.732051 158.745404 
L 343.237692 157.946288 
L 346.743332 156.177786 
L 350.248973 146.504214 
L 353.754613 134.25917 
L 357.260253 125.354415 
L 360.765894 126.132112 
L 364.271534 131.02937 
L 367.777174 137.132932 
L 371.282815 137.931956 
L 374.788455 136.171171 
L 378.294095 131.685802 
L 381.799736 124.102258 
L 385.305376 113.083839 
L 388.811016 95.087824 
L 395.822297 68.417429 
L 399.327937 60.480966 
L 402.833578 53.310253 
L 406.339218 44.651719 
L 409.844858 41.898744 
L 413.350499 41.400377 
L 416.856139 43.314986 
L 420.361779 49.910292 
L 423.86742 54.802728 
L 427.37306 54.598042 
L 430.8787 62.856452 
L 434.384341 66.662955 
L 437.889981 73.852376 
L 441.395621 80.434724 
L 444.901262 85.832298 
L 448.406902 88.509159 
L 451.912543 92.467293 
L 455.418183 89.015797 
L 458.923823 84.675847 
L 462.429464 76.602462 
L 465.935104 72.067261 
L 472.946385 60.090613 
L 476.452025 54.335065 
L 479.957665 47.294014 
L 483.463306 42.328211 
L 486.968946 43.88828 
L 490.474586 36.637057 
L 493.980227 38.536507 
L 497.485867 41.697371 
L 500.991507 42.229218 
L 504.497148 46.609125 
L 508.002788 52.824651 
L 511.508428 57.904142 
L 515.014069 58.24265 
L 518.519709 64.99496 
L 522.025349 77.512024 
L 525.53099 87.140989 
L 529.03663 86.799541 
L 532.54227 85.271103 
L 536.047911 88.423359 
L 539.553551 95.672324 
L 539.553551 95.672324 
" clip-path="url(#p6d6dc2ef03)" style="fill: none; stroke: #e377c2; stroke-width: 1.4; stroke-linecap: square"/>
   </g>
   <g id="line2d_30">
    <path d="M 146.921832 249.499688 
L 146.921832 20.479688 
" clip-path="url(#p6d6dc2ef03)" style="fill: none; stroke-dasharray: 2.96,1.28; stroke-dashoffset: 0; stroke: #000000; stroke-width: 0.8"/>
   </g>
   <g id="line2d_31">
    <path d="M 35.267188 69.852759 
L 563.567187 69.852759 
" clip-path="url(#p6d6dc2ef03)" style="fill: none; stroke: #808080; stroke-opacity: 0.3; stroke-width: 0.5; stroke-linecap: square"/>
   </g>
   <g id="patch_3">
    <path d="M 35.267188 249.499688 
L 35.267188 20.479688 
" style="fill: none; stroke: #000000; stroke-width: 0.8; stroke-linejoin: miter; stroke-linecap: square"/>
   </g>
   <g id="patch_4">
    <path d="M 35.267187 249.499688 
L 563.567188 249.499688 
" style="fill: none; stroke: #000000; stroke-width: 0.8; stroke-linejoin: miter; stroke-linecap: square"/>
   </g>
   <g id="text_14">
    <text style="font-weight: 700; font-size: 10px; font-family: 'Arial', 'Helvetica', 'DejaVu Sans', sans-serif; text-anchor: middle" x="299.417187" y="14.479688" transform="rotate(-0 299.417187 14.479688)">Per-Superclass HINT ERP — channel mean</text>
   </g>
   <g id="legend_1">
    <g id="line2d_32">
     <path d="M 389.295625 29.425469 
L 396.295625 29.425469 
L 403.295625 29.425469 
" style="fill: none; stroke: #1f77b4; stroke-width: 1.4; stroke-linecap: square"/>
    </g>
    <g id="text_15">
     <text style="font-size: 7px; font-family: 'Arial', 'Helvetica', 'DejaVu Sans', sans-serif; text-anchor: start" x="408.895625" y="31.875469" transform="rotate(-0 408.895625 31.875469)">Animal (n=1250)</text>
    </g>
    <g id="line2d_33">
     <path d="M 389.295625 39.494531 
L 396.295625 39.494531 
L 403.295625 39.494531 
" style="fill: none; stroke: #ff7f0e; stroke-width: 1.4; stroke-linecap: square"/>
    </g>
    <g id="text_16">
     <text style="font-size: 7px; font-family: 'Arial', 'Helvetica', 'DejaVu Sans', sans-serif; text-anchor: start" x="408.895625" y="41.944531" transform="rotate(-0 408.895625 41.944531)">Food (n=847)</text>
    </g>
    <g id="line2d_34">
     <path d="M 389.295625 49.563594 
L 396.295625 49.563594 
L 403.295625 49.563594 
" style="fill: none; stroke: #2ca02c; stroke-width: 1.4; stroke-linecap: square"/>
    </g>
    <g id="text_17">
     <text style="font-size: 7px; font-family: 'Arial', 'Helvetica', 'DejaVu Sans', sans-serif; text-anchor: start" x="408.895625" y="52.013594" transform="rotate(-0 408.895625 52.013594)">Vehicle (n=679)</text>
    </g>
    <g id="line2d_35">
     <path d="M 389.295625 59.632656 
L 396.295625 59.632656 
L 403.295625 59.632656 
" style="fill: none; stroke: #d62728; stroke-width: 1.4; stroke-linecap: square"/>
    </g>
    <g id="text_18">
     <text style="font-size: 7px; font-family: 'Arial', 'Helvetica', 'DejaVu Sans', sans-serif; text-anchor: start" x="408.895625" y="62.082656" transform="rotate(-0 408.895625 62.082656)">Furniture (n=714)</text>
    </g>
    <g id="line2d_36">
     <path d="M 477.168594 29.425469 
L 484.168594 29.425469 
L 491.168594 29.425469 
" style="fill: none; stroke: #9467bd; stroke-width: 1.4; stroke-linecap: square"/>
    </g>
    <g id="text_19">
     <text style="font-size: 7px; font-family: 'Arial', 'Helvetica', 'DejaVu Sans', sans-serif; text-anchor: start" x="496.768594" y="31.875469" transform="rotate(-0 496.768594 31.875469)">Kitchen (n=859)</text>
    </g>
    <g id="line2d_37">
     <path d="M 477.168594 39.494531 
L 484.168594 39.494531 
L 491.168594 39.494531 
" style="fill: none; stroke: #8c564b; stroke-width: 1.4; stroke-linecap: square"/>
    </g>
    <g id="text_20">
     <text style="font-size: 7px; font-family: 'Arial', 'Helvetica', 'DejaVu Sans', sans-serif; text-anchor: start" x="496.768594" y="41.944531" transform="rotate(-0 496.768594 41.944531)">Wearable (n=537)</text>
    </g>
    <g id="line2d_38">
     <path d="M 477.168594 49.563594 
L 484.168594 49.563594 
L 491.168594 49.563594 
" style="fill: none; stroke: #e377c2; stroke-width: 1.4; stroke-linecap: square"/>
    </g>
    <g id="text_21">
     <text style="font-size: 7px; font-family: 'Arial', 'Helvetica', 'DejaVu Sans', sans-serif; text-anchor: start" x="496.768594" y="52.013594" transform="rotate(-0 496.768594 52.013594)">Electronics (n=527)</text>
    </g>
   </g>
  </g>
 </g>
 <defs>
  <clipPath id="p6d6dc2ef03">
   <rect x="35.267188" y="20.479688" width="528.3" height="229.02"/>
  </clipPath>
 </defs>
</svg>
