<?xml version="1.0" encoding="utf-8" standalone="no"?>
<!DOCTYPE svg PUBLIC "-//W3C//DTD SVG 1.1//EN"
  "http://www.w3.org/Graphics/SVG/1.1/DTD/svg11.dtd">
<svg xmlns:xlink="http://www.w3.org/1999/xlink" width="534.552031pt" height="246.961875pt" viewBox="0 0 534.552031 246.961875" xmlns="http://www.w3.org/2000/svg" version="1.1">
 <metadata>
  <rdf:RDF xmlns:dc="http://purl.org/dc/elements/1.1/" xmlns:cc="http://creativecommons.org/ns#" xmlns:rdf="http://www.w3.org/1999/02/22-rdf-syntax-ns#">
   <cc:Work>
    <dc:type rdf:resource="http://purl.org/dc/dcmitype/StillImage"/>
    <dc:date>2026-05-18T21:05:44.873329</dc:date>
    <dc:format>image/svg+xml</dc:format>
    <dc:creator>
     <cc:Agent>
      <dc:title>Matplotlib v3.10.1, https://matplotlib.org/</dc:title>
     </cc:Agent>
    </dc:creator>
   </cc:Work>
  </rdf:RDF>
 </metadata>
 <defs>
  <style type="text/css">*{stroke-linejoin: round; stroke-linecap: butt}</style>
 </defs>
 <g id="figure_1">
  <g id="patch_1">
   <path d="M 0 246.961875 
L 534.552031 246.961875 
L 534.552031 0 
L 0 0 
z
" style="fill: #ffffff"/>
  </g>
  <g id="axes_1">
   <g id="patch_2">
    <path d="M 35.052031 213.499687 
L 527.352031 213.499687 
L 527.352031 20.479687 
L 35.052031 20.479687 
z
" style="fill: #ffffff"/>
   </g>
   <g id="matplotlib.axis_1">
    <g id="xtick_1">
     <g id="line2d_1">
      <path d="M 57.429304 213.499687 
L 57.429304 20.479687 
" clip-path="url(#p293d0f128d)" style="fill: none; stroke: #b0b0b0; stroke-opacity: 0.15; stroke-width: 0.8; stroke-linecap: square"/>
     </g>
     <g id="line2d_2">
      <defs>
       <path id="m44a2c8f740" d="M 0 0 
L 0 3 
" style="stroke: #000000; stroke-width: 0.8"/>
      </defs>
      <g>
       <use xlink:href="#m44a2c8f740" x="57.429304" y="213.499687" style="stroke: #000000; stroke-width: 0.8"/>
      </g>
     </g>
     <g id="text_1">
      <text style="font-size: 8px; font-family: 'Arial', 'Helvetica', 'DejaVu Sans', sans-serif; text-anchor: middle" x="57.429304" y="225.725937" transform="rotate(-0 57.429304 225.725937)">−100</text>
     </g>
    </g>
    <g id="xtick_2">
     <g id="line2d_3">
      <path d="M 139.098183 213.499687 
L 139.098183 20.479687 
" clip-path="url(#p293d0f128d)" style="fill: none; stroke: #b0b0b0; stroke-opacity: 0.15; stroke-width: 0.8; stroke-linecap: square"/>
     </g>
     <g id="line2d_4">
      <g>
       <use xlink:href="#m44a2c8f740" x="139.098183" y="213.499687" style="stroke: #000000; stroke-width: 0.8"/>
      </g>
     </g>
     <g id="text_2">
      <text style="font-size: 8px; font-family: 'Arial', 'Helvetica', 'DejaVu Sans', sans-serif; text-anchor: middle" x="139.098183" y="225.725937" transform="rotate(-0 139.098183 225.725937)">0</text>
     </g>
    </g>
    <g id="xtick_3">
     <g id="line2d_5">
      <path d="M 220.767061 213.499687 
L 220.767061 20.479687 
" clip-path="url(#p293d0f128d)" style="fill: none; stroke: #b0b0b0; stroke-opacity: 0.15; stroke-width: 0.8; stroke-linecap: square"/>
     </g>
     <g id="line2d_6">
      <g>
       <use xlink:href="#m44a2c8f740" x="220.767061" y="213.499687" style="stroke: #000000; stroke-width: 0.8"/>
      </g>
     </g>
     <g id="text_3">
      <text style="font-size: 8px; font-family: 'Arial', 'Helvetica', 'DejaVu Sans', sans-serif; text-anchor: middle" x="220.767061" y="225.725937" transform="rotate(-0 220.767061 225.725937)">100</text>
     </g>
    </g>
    <g id="xtick_4">
     <g id="line2d_7">
      <path d="M 302.43594 213.499687 
L 302.43594 20.479687 
" clip-path="url(#p293d0f128d)" style="fill: none; stroke: #b0b0b0; stroke-opacity: 0.15; stroke-width: 0.8; stroke-linecap: square"/>
     </g>
     <g id="line2d_8">
      <g>
       <use xlink:href="#m44a2c8f740" x="302.43594" y="213.499687" style="stroke: #000000; stroke-width: 0.8"/>
      </g>
     </g>
     <g id="text_4">
      <text style="font-size: 8px; font-family: 'Arial', 'Helvetica', 'DejaVu Sans', sans-serif; text-anchor: middle" x="302.43594" y="225.725937" transform="rotate(-0 302.43594 225.725937)">200</text>
     </g>
    </g>
    <g id="xtick_5">
     <g id="line2d_9">
      <path d="M 384.104818 213.499687 
L 384.104818 20.479687 
" clip-path="url(#p293d0f128d)" style="fill: none; stroke: #b0b0b0; stroke-opacity: 0.15; stroke-width: 0.8; stroke-linecap: square"/>
     </g>
     <g id="line2d_10">
      <g>
       <use xlink:href="#m44a2c8f740" x="384.104818" y="213.499687" style="stroke: #000000; stroke-width: 0.8"/>
      </g>
     </g>
     <g id="text_5">
      <text style="font-size: 8px; font-family: 'Arial', 'Helvetica', 'DejaVu Sans', sans-serif; text-anchor: middle" x="384.104818" y="225.725937" transform="rotate(-0 384.104818 225.725937)">300</text>
     </g>
    </g>
    <g id="xtick_6">
     <g id="line2d_11">
      <path d="M 465.773697 213.499687 
L 465.773697 20.479687 
" clip-path="url(#p293d0f128d)" style="fill: none; stroke: #b0b0b0; stroke-opacity: 0.15; stroke-width: 0.8; stroke-linecap: square"/>
     </g>
     <g id="line2d_12">
      <g>
       <use xlink:href="#m44a2c8f740" x="465.773697" y="213.499687" style="stroke: #000000; stroke-width: 0.8"/>
      </g>
     </g>
     <g id="text_6">
      <text style="font-size: 8px; font-family: 'Arial', 'Helvetica', 'DejaVu Sans', sans-serif; text-anchor: middle" x="465.773697" y="225.725937" transform="rotate(-0 465.773697 225.725937)">400</text>
     </g>
    </g>
    <g id="text_7">
     <text style="font-size: 9px; font-family: 'Arial', 'Helvetica', 'DejaVu Sans', sans-serif; text-anchor: middle" x="281.202031" y="237.867656" transform="rotate(-0 281.202031 237.867656)">Time (ms)</text>
    </g>
   </g>
   <g id="matplotlib.axis_2">
    <g id="ytick_1">
     <g id="line2d_13">
      <path d="M 35.052031 191.566955 
L 527.352031 191.566955 
" clip-path="url(#p293d0f128d)" style="fill: none; stroke: #b0b0b0; stroke-opacity: 0.15; stroke-width: 0.8; stroke-linecap: square"/>
     </g>
     <g id="line2d_14">
      <defs>
       <path id="m8d0e7d6c97" d="M 0 0 
L -3 0 
" style="stroke: #000000; stroke-width: 0.8"/>
      </defs>
      <g>
       <use xlink:href="#m8d0e7d6c97" x="35.052031" y="191.566955" style="stroke: #000000; stroke-width: 0.8"/>
      </g>
     </g>
     <g id="text_8">
      <text style="font-size: 8px; font-family: 'Arial', 'Helvetica', 'DejaVu Sans', sans-serif; text-anchor: end" x="28.552031" y="194.43008" transform="rotate(-0 28.552031 194.43008)">−5</text>
     </g>
    </g>
    <g id="ytick_2">
     <g id="line2d_15">
      <path d="M 35.052031 165.361699 
L 527.352031 165.361699 
" clip-path="url(#p293d0f128d)" style="fill: none; stroke: #b0b0b0; stroke-opacity: 0.15; stroke-width: 0.8; stroke-linecap: square"/>
     </g>
     <g id="line2d_16">
      <g>
       <use xlink:href="#m8d0e7d6c97" x="35.052031" y="165.361699" style="stroke: #000000; stroke-width: 0.8"/>
      </g>
     </g>
     <g id="text_9">
      <text style="font-size: 8px; font-family: 'Arial', 'Helvetica', 'DejaVu Sans', sans-serif; text-anchor: end" x="28.552031" y="168.224824" transform="rotate(-0 28.552031 168.224824)">−4</text>
     </g>
    </g>
    <g id="ytick_3">
     <g id="line2d_17">
      <path d="M 35.052031 139.156443 
L 527.352031 139.156443 
" clip-path="url(#p293d0f128d)" style="fill: none; stroke: #b0b0b0; stroke-opacity: 0.15; stroke-width: 0.8; stroke-linecap: square"/>
     </g>
     <g id="line2d_18">
      <g>
       <use xlink:href="#m8d0e7d6c97" x="35.052031" y="139.156443" style="stroke: #000000; stroke-width: 0.8"/>
      </g>
     </g>
     <g id="text_10">
      <text style="font-size: 8px; font-family: 'Arial', 'Helvetica', 'DejaVu Sans', sans-serif; text-anchor: end" x="28.552031" y="142.019568" transform="rotate(-0 28.552031 142.019568)">−3</text>
     </g>
    </g>
    <g id="ytick_4">
     <g id="line2d_19">
      <path d="M 35.052031 112.951187 
L 527.352031 112.951187 
" clip-path="url(#p293d0f128d)" style="fill: none; stroke: #b0b0b0; stroke-opacity: 0.15; stroke-width: 0.8; stroke-linecap: square"/>
     </g>
     <g id="line2d_20">
      <g>
       <use xlink:href="#m8d0e7d6c97" x="35.052031" y="112.951187" style="stroke: #000000; stroke-width: 0.8"/>
      </g>
     </g>
     <g id="text_11">
      <text style="font-size: 8px; font-family: 'Arial', 'Helvetica', 'DejaVu Sans', sans-serif; text-anchor: end" x="28.552031" y="115.814312" transform="rotate(-0 28.552031 115.814312)">−2</text>
     </g>
    </g>
    <g id="ytick_5">
     <g id="line2d_21">
      <path d="M 35.052031 86.745931 
L 527.352031 86.745931 
" clip-path="url(#p293d0f128d)" style="fill: none; stroke: #b0b0b0; stroke-opacity: 0.15; stroke-width: 0.8; stroke-linecap: square"/>
     </g>
     <g id="line2d_22">
      <g>
       <use xlink:href="#m8d0e7d6c97" x="35.052031" y="86.745931" style="stroke: #000000; stroke-width: 0.8"/>
      </g>
     </g>
     <g id="text_12">
      <text style="font-size: 8px; font-family: 'Arial', 'Helvetica', 'DejaVu Sans', sans-serif; text-anchor: end" x="28.552031" y="89.609056" transform="rotate(-0 28.552031 89.609056)">−1</text>
     </g>
    </g>
    <g id="ytick_6">
     <g id="line2d_23">
      <path d="M 35.052031 60.540675 
L 527.352031 60.540675 
" clip-path="url(#p293d0f128d)" style="fill: none; stroke: #b0b0b0; stroke-opacity: 0.15; stroke-width: 0.8; stroke-linecap: square"/>
     </g>
     <g id="line2d_24">
      <g>
       <use xlink:href="#m8d0e7d6c97" x="35.052031" y="60.540675" style="stroke: #000000; stroke-width: 0.8"/>
      </g>
     </g>
     <g id="text_13">
      <text style="font-size: 8px; font-family: 'Arial', 'Helvetica', 'DejaVu Sans', sans-serif; text-anchor: end" x="28.552031" y="63.4038" transform="rotate(-0 28.552031 63.4038)">0</text>
     </g>
    </g>
    <g id="ytick_7">
     <g id="line2d_25">
      <path d="M 35.052031 34.335419 
L 527.352031 34.335419 
" clip-path="url(#p293d0f128d)" style="fill: none; stroke: #b0b0b0; stroke-opacity: 0.15; stroke-width: 0.8; stroke-linecap: square"/>
     </g>
     <g id="line2d_26">
      <g>
       <use xlink:href="#m8d0e7d6c97" x="35.052031" y="34.335419" style="stroke: #000000; stroke-width: 0.8"/>
      </g>
     </g>
     <g id="text_14">
      <text style="font-size: 8px; font-family: 'Arial', 'Helvetica', 'DejaVu Sans', sans-serif; text-anchor: end" x="28.552031" y="37.198544" transform="rotate(-0 28.552031 37.198544)">1</text>
     </g>
    </g>
    <g id="text_15">
     <text style="font-size: 9px; font-family: 'Arial', 'Helvetica', 'DejaVu Sans', sans-serif; text-anchor: middle" x="13.642031" y="116.989687" transform="rotate(-90 13.642031 116.989687)">µV</text>
    </g>
   </g>
   <g id="line2d_27">
    <path d="M 57.429304 67.135131 
L 67.229569 64.385186 
L 70.496325 66.140498 
L 73.76308 64.726052 
L 77.029835 65.196033 
L 80.29659 62.891314 
L 83.563345 61.28612 
L 86.8301 60.885288 
L 90.096855 59.400272 
L 93.363611 57.71596 
L 96.630366 58.057076 
L 99.897121 57.439562 
L 103.163876 58.944195 
L 106.430631 59.593977 
L 109.697386 56.463291 
L 116.230897 55.646657 
L 119.497652 57.923286 
L 122.764407 57.683299 
L 126.031162 56.415649 
L 129.297917 58.915491 
L 132.564672 58.694595 
L 135.831427 60.387617 
L 139.098183 60.461695 
L 142.364938 59.97768 
L 145.631693 63.504248 
L 148.898448 65.351824 
L 152.165203 64.148122 
L 155.431958 63.98395 
L 158.698713 65.830553 
L 161.965469 67.544495 
L 165.232224 69.409569 
L 168.498979 69.911077 
L 171.765734 75.847778 
L 175.032489 79.485805 
L 178.299244 83.679409 
L 184.832755 93.21796 
L 188.09951 99.292228 
L 191.366265 101.581323 
L 194.63302 105.321412 
L 197.899775 110.83432 
L 201.16653 115.174349 
L 204.433285 124.486356 
L 207.700041 132.647933 
L 210.966796 142.01161 
L 214.233551 148.635311 
L 217.500306 157.330845 
L 220.767061 164.353445 
L 224.033816 163.390431 
L 227.300571 149.492237 
L 230.567327 121.373224 
L 233.834082 88.00825 
L 237.100837 59.702057 
L 240.367592 50.585978 
L 243.634347 60.600962 
L 246.901102 82.936935 
L 250.167857 106.100831 
L 253.434613 116.745201 
L 256.701368 113.493917 
L 259.968123 98.587349 
L 263.234878 80.257356 
L 266.501633 65.985884 
L 269.768388 63.428192 
L 273.035143 73.263704 
L 276.301899 99.968424 
L 279.568654 132.580407 
L 282.835409 162.317555 
L 286.102164 183.959185 
L 289.368919 191.695423 
L 292.635674 186.830158 
L 295.902429 174.973608 
L 299.169185 160.175928 
L 302.43594 150.479105 
L 305.702695 146.084388 
L 308.96945 148.727216 
L 312.236205 156.345627 
L 315.50296 162.964267 
L 318.769715 169.8721 
L 322.036471 171.08464 
L 325.303226 170.091961 
L 328.569981 165.018869 
L 331.836736 155.503489 
L 335.103491 147.158645 
L 338.370246 141.669673 
L 341.637001 139.841104 
L 344.903757 141.286475 
L 348.170512 142.451868 
L 351.437267 142.940617 
L 354.704022 137.94296 
L 357.970777 130.884673 
L 361.237532 119.372166 
L 364.504287 103.789278 
L 371.037798 69.323216 
L 374.304553 55.984457 
L 377.571308 46.747666 
L 380.838063 39.613317 
L 384.104818 33.807835 
L 387.371573 29.952745 
L 390.638329 29.448856 
L 393.905084 32.038999 
L 397.171839 33.753182 
L 400.438594 37.845957 
L 403.705349 40.454676 
L 406.972104 48.363896 
L 410.238859 53.682625 
L 413.505615 60.116851 
L 416.77237 66.127012 
L 420.039125 70.234646 
L 423.30588 75.303474 
L 426.572635 76.995004 
L 429.83939 75.24437 
L 433.106145 70.46067 
L 436.372901 64.686765 
L 439.639656 57.631812 
L 446.173166 47.135948 
L 449.439921 41.105066 
L 452.706676 36.132363 
L 455.973431 34.754999 
L 459.240187 33.742239 
L 462.506942 33.974633 
L 465.773697 34.666413 
L 469.040452 35.971825 
L 472.307207 36.958616 
L 475.573962 39.463502 
L 478.840717 43.769618 
L 482.107473 47.834158 
L 485.374228 54.098494 
L 488.640983 63.728484 
L 491.907738 72.839854 
L 498.441248 80.366346 
L 504.974759 86.614249 
L 504.974759 86.614249 
" clip-path="url(#p293d0f128d)" style="fill: none; stroke: #4c78a8; stroke-width: 1.4; stroke-linecap: square"/>
   </g>
   <g id="line2d_28">
    <path d="M 57.429304 67.613803 
L 60.696059 67.008447 
L 67.229569 71.767484 
L 70.496325 71.801892 
L 73.76308 67.926088 
L 77.029835 69.545811 
L 80.29659 69.313987 
L 83.563345 66.044908 
L 86.8301 61.602984 
L 90.096855 59.49845 
L 93.363611 57.543394 
L 96.630366 55.932971 
L 99.897121 52.672855 
L 103.163876 54.843372 
L 106.430631 55.404981 
L 109.697386 54.972948 
L 112.964141 53.434747 
L 116.230897 55.584445 
L 119.497652 56.749633 
L 122.764407 55.600293 
L 126.031162 54.076766 
L 129.297917 55.520949 
L 132.564672 57.491789 
L 135.831427 56.555476 
L 139.098183 56.188768 
L 142.364938 59.215365 
L 145.631693 63.543502 
L 148.898448 64.898171 
L 152.165203 63.07763 
L 155.431958 63.23828 
L 158.698713 64.791749 
L 161.965469 63.423596 
L 165.232224 61.803272 
L 168.498979 63.192248 
L 171.765734 65.087251 
L 175.032489 70.615746 
L 178.299244 75.847511 
L 181.565999 84.83903 
L 184.832755 91.223341 
L 188.09951 97.287262 
L 191.366265 101.550512 
L 194.63302 108.575317 
L 197.899775 111.748816 
L 201.16653 117.821663 
L 204.433285 128.047676 
L 207.700041 137.708542 
L 210.966796 146.451735 
L 214.233551 154.264359 
L 217.500306 162.975951 
L 220.767061 168.459431 
L 224.033816 168.01916 
L 227.300571 155.74756 
L 230.567327 126.533248 
L 233.834082 93.364459 
L 237.100837 62.375295 
L 240.367592 49.449109 
L 243.634347 55.077754 
L 250.167857 93.411031 
L 253.434613 106.434239 
L 256.701368 107.114436 
L 259.968123 93.091298 
L 263.234878 76.221835 
L 266.501633 64.018017 
L 269.768388 62.916464 
L 273.035143 75.974448 
L 276.301899 102.719923 
L 282.835409 168.131933 
L 286.102164 193.569894 
L 289.368919 204.726051 
L 292.635674 202.840084 
L 295.902429 189.377144 
L 299.169185 173.510981 
L 302.43594 161.372248 
L 305.702695 155.125202 
L 308.96945 158.651628 
L 312.236205 165.73838 
L 315.50296 173.94383 
L 318.769715 179.615726 
L 322.036471 181.4797 
L 325.303226 181.043665 
L 328.569981 176.721136 
L 331.836736 166.26837 
L 335.103491 158.349759 
L 338.370246 151.663623 
L 341.637001 147.432905 
L 344.903757 147.718093 
L 348.170512 147.289074 
L 351.437267 144.721745 
L 354.704022 141.722867 
L 357.970777 135.267207 
L 361.237532 123.910045 
L 364.504287 109.444473 
L 371.037798 77.336749 
L 374.304553 64.240604 
L 377.571308 52.293876 
L 380.838063 45.579985 
L 384.104818 39.891123 
L 387.371573 35.311469 
L 390.638329 33.482264 
L 393.905084 35.206019 
L 397.171839 34.861551 
L 400.438594 37.611856 
L 403.705349 39.968786 
L 406.972104 44.366255 
L 410.238859 50.659667 
L 413.505615 55.837608 
L 416.77237 60.3081 
L 420.039125 65.055566 
L 423.30588 68.67491 
L 426.572635 69.565128 
L 429.83939 67.039029 
L 433.106145 62.738931 
L 436.372901 56.500276 
L 439.639656 51.370313 
L 442.906411 47.581054 
L 446.173166 44.476549 
L 449.439921 38.813021 
L 452.706676 36.322312 
L 455.973431 33.641074 
L 459.240187 30.491389 
L 462.506942 29.253324 
L 465.773697 30.46472 
L 469.040452 33.056653 
L 472.307207 38.458014 
L 475.573962 42.020848 
L 478.840717 46.773375 
L 482.107473 53.183383 
L 485.374228 58.821865 
L 488.640983 67.346522 
L 491.907738 74.172978 
L 495.174493 77.284138 
L 498.441248 79.24008 
L 501.708003 82.163754 
L 504.974759 86.24718 
L 504.974759 86.24718 
" clip-path="url(#p293d0f128d)" style="fill: none; stroke: #e45756; stroke-width: 1.4; stroke-linecap: square"/>
   </g>
   <g id="line2d_29">
    <path d="M 139.098183 213.499687 
L 139.098183 20.479687 
" clip-path="url(#p293d0f128d)" style="fill: none; stroke-dasharray: 2.96,1.28; stroke-dashoffset: 0; stroke: #000000; stroke-width: 0.8"/>
   </g>
   <g id="patch_3">
    <path d="M 35.052031 213.499687 
L 35.052031 20.479687 
" style="fill: none; stroke: #000000; stroke-width: 0.8; stroke-linejoin: miter; stroke-linecap: square"/>
   </g>
   <g id="patch_4">
    <path d="M 35.052031 213.499687 
L 527.352031 213.499687 
" style="fill: none; stroke: #000000; stroke-width: 0.8; stroke-linejoin: miter; stroke-linecap: square"/>
   </g>
   <g id="text_16">
    <text style="font-weight: 700; font-size: 10px; font-family: 'Arial', 'Helvetica', 'DejaVu Sans', sans-serif; text-anchor: middle" x="281.202031" y="14.479687" transform="rotate(-0 281.202031 14.479687)">ERP by eeg_split  (train/test drift check)</text>
   </g>
   <g id="legend_1">
    <g id="line2d_30">
     <path d="M 447.724531 30.703437 
L 455.724531 30.703437 
L 463.724531 30.703437 
" style="fill: none; stroke: #4c78a8; stroke-width: 1.4; stroke-linecap: square"/>
    </g>
    <g id="text_17">
     <text style="font-size: 8px; font-family: 'Arial', 'Helvetica', 'DejaVu Sans', sans-serif; text-anchor: start" x="470.124531" y="33.503437" transform="rotate(-0 470.124531 33.503437)">train (n=2918)</text>
    </g>
    <g id="line2d_31">
     <path d="M 447.724531 42.210937 
L 455.724531 42.210937 
L 463.724531 42.210937 
" style="fill: none; stroke: #e45756; stroke-width: 1.4; stroke-linecap: square"/>
    </g>
    <g id="text_18">
     <text style="font-size: 8px; font-family: 'Arial', 'Helvetica', 'DejaVu Sans', sans-serif; text-anchor: start" x="470.124531" y="45.010937" transform="rotate(-0 470.124531 45.010937)">test (n=2636)</text>
    </g>
   </g>
  </g>
 </g>
 <defs>
  <clipPath id="p293d0f128d">
   <rect x="35.052031" y="20.479687" width="492.3" height="193.02"/>
  </clipPath>
 </defs>
</svg>
