<?xml version="1.0" encoding="utf-8" standalone="no"?>
<!DOCTYPE svg PUBLIC "-//W3C//DTD SVG 1.1//EN"
  "http://www.w3.org/Graphics/SVG/1.1/DTD/svg11.dtd">
<svg xmlns:xlink="http://www.w3.org/1999/xlink" width="498.680469pt" height="254.161875pt" viewBox="0 0 498.680469 254.161875" xmlns="http://www.w3.org/2000/svg" version="1.1">
 <metadata>
  <rdf:RDF xmlns:dc="http://purl.org/dc/elements/1.1/" xmlns:cc="http://creativecommons.org/ns#" xmlns:rdf="http://www.w3.org/1999/02/22-rdf-syntax-ns#">
   <cc:Work>
    <dc:type rdf:resource="http://purl.org/dc/dcmitype/StillImage"/>
    <dc:date>2026-05-18T21:05:47.973560</dc:date>
    <dc:format>image/svg+xml</dc:format>
    <dc:creator>
     <cc:Agent>
      <dc:title>Matplotlib v3.10.1, https://matplotlib.org/</dc:title>
     </cc:Agent>
    </dc:creator>
   </cc:Work>
  </rdf:RDF>
 </metadata>
 <defs>
  <style type="text/css">*{stroke-linejoin: round; stroke-linecap: butt}</style>
 </defs>
 <g id="figure_1">
  <g id="patch_1">
   <path d="M 0 254.161875 
L 498.680469 254.161875 
L 498.680469 0 
L 0 0 
z
" style="fill: #ffffff"/>
  </g>
  <g id="axes_1">
   <g id="patch_2">
    <path d="M 37.160469 220.699687 
L 491.480469 220.699687 
L 491.480469 20.479687 
L 37.160469 20.479687 
z
" style="fill: #ffffff"/>
   </g>
   <g id="FillBetweenPolyCollection_1">
    <defs>
     <path id="mf352cdb5c1" d="M 57.811378 -84.44451 
L 57.811378 -82.561695 
L 60.826109 -106.347955 
L 63.84084 -116.203013 
L 66.855572 -129.872901 
L 69.870303 -137.761781 
L 72.885034 -146.915432 
L 75.899765 -152.920616 
L 78.914497 -158.771129 
L 81.929228 -162.926781 
L 84.943959 -166.096006 
L 87.95869 -168.528273 
L 90.973422 -169.578989 
L 93.988153 -170.542117 
L 97.002884 -170.071417 
L 100.017615 -169.892104 
L 103.032347 -168.491278 
L 106.047078 -167.651349 
L 109.061809 -166.098905 
L 112.07654 -165.227129 
L 115.091272 -164.178134 
L 118.106003 -163.747932 
L 121.120734 -163.577784 
L 124.135465 -163.849679 
L 127.150197 -164.637148 
L 130.164928 -165.642667 
L 133.179659 -167.208942 
L 136.19439 -168.780801 
L 139.209122 -170.805355 
L 142.223853 -172.68942 
L 145.238584 -174.840199 
L 148.253315 -176.788003 
L 151.268047 -178.82306 
L 154.282778 -180.665481 
L 157.297509 -182.458615 
L 160.31224 -184.11912 
L 163.326972 -185.662473 
L 166.341703 -187.148082 
L 169.356434 -188.509441 
L 172.371165 -189.877713 
L 175.385897 -191.145894 
L 178.400628 -192.452562 
L 181.415359 -193.689744 
L 184.430091 -194.972053 
L 187.444822 -196.203479 
L 190.459553 -197.467436 
L 193.474284 -198.684298 
L 196.489016 -199.905838 
L 199.503747 -201.06704 
L 202.518478 -202.208499 
L 205.533209 -203.272307 
L 208.547941 -204.294845 
L 211.562672 -205.227107 
L 214.577403 -206.104306 
L 217.592134 -206.888226 
L 220.606866 -207.608048 
L 223.621597 -208.24261 
L 226.636328 -208.805826 
L 229.651059 -209.299534 
L 232.665791 -209.713799 
L 235.680522 -210.074519 
L 238.695253 -210.352234 
L 241.709984 -210.588021 
L 244.724716 -210.739967 
L 247.739447 -210.850079 
L 250.754178 -210.878829 
L 253.768909 -210.859589 
L 256.783641 -210.77021 
L 259.798372 -210.625173 
L 262.813103 -210.420668 
L 265.827834 -210.16571 
L 268.842566 -209.864405 
L 271.857297 -209.524987 
L 274.872028 -209.144912 
L 277.886759 -208.74113 
L 280.901491 -208.284933 
L 283.916222 -207.820707 
L 286.930953 -207.29548 
L 289.945684 -206.769662 
L 292.960416 -206.170218 
L 295.975147 -205.560822 
L 298.989878 -204.878368 
L 302.004609 -204.152148 
L 305.019341 -203.363812 
L 308.034072 -202.484631 
L 311.048803 -201.569395 
L 314.063534 -200.51277 
L 317.078266 -199.449293 
L 320.092997 -198.205995 
L 323.107728 -196.972817 
L 326.122459 -195.545197 
L 329.137191 -194.126198 
L 332.151922 -192.536527 
L 335.166653 -190.923142 
L 338.181384 -189.194774 
L 341.196116 -187.377783 
L 344.210847 -185.50939 
L 347.225578 -183.466536 
L 350.240309 -181.431421 
L 353.255041 -179.14476 
L 356.269772 -176.895527 
L 359.284503 -174.347535 
L 362.299235 -171.821837 
L 365.313966 -168.998807 
L 368.328697 -166.133143 
L 371.343428 -163.028748 
L 374.35816 -159.780194 
L 377.372891 -156.396328 
L 380.387622 -152.753732 
L 383.402353 -149.101686 
L 386.417085 -145.103035 
L 389.431816 -141.211525 
L 392.446547 -136.93962 
L 395.461278 -132.842971 
L 398.47601 -128.408604 
L 401.490741 -124.149307 
L 404.505472 -119.671391 
L 407.520203 -115.293249 
L 410.534935 -110.864439 
L 413.549666 -106.401227 
L 416.564397 -102.062342 
L 419.579128 -97.5357 
L 422.59386 -93.268714 
L 425.608591 -88.703264 
L 428.623322 -84.459577 
L 431.638053 -79.917316 
L 434.652785 -75.652946 
L 437.667516 -71.258317 
L 440.682247 -66.973547 
L 443.696978 -62.925422 
L 446.71171 -58.685251 
L 449.726441 -55.254061 
L 452.741172 -51.203258 
L 455.755903 -48.74011 
L 458.770635 -45.2197 
L 461.785366 -44.441157 
L 464.800097 -42.595125 
L 467.814828 -46.00051 
L 470.82956 -52.904432 
L 470.82956 -54.803722 
L 470.82956 -54.803722 
L 467.814828 -47.642283 
L 464.800097 -44.398711 
L 461.785366 -46.440833 
L 458.770635 -47.439078 
L 455.755903 -51.224725 
L 452.741172 -53.936868 
L 449.726441 -58.263685 
L 446.71171 -61.948684 
L 443.696978 -66.452912 
L 440.682247 -70.749674 
L 437.667516 -75.280208 
L 434.652785 -79.91689 
L 431.638053 -84.410681 
L 428.623322 -89.189681 
L 425.608591 -93.651874 
L 422.59386 -98.449807 
L 419.579128 -102.929745 
L 416.564397 -107.684303 
L 413.549666 -112.234584 
L 410.534935 -116.919818 
L 407.520203 -121.560199 
L 404.505472 -126.153446 
L 401.490741 -130.843211 
L 398.47601 -135.310306 
L 395.461278 -139.95509 
L 392.446547 -144.252072 
L 389.431816 -148.729723 
L 386.417085 -152.813169 
L 383.402353 -157.008163 
L 380.387622 -160.841944 
L 377.372891 -164.666786 
L 374.35816 -168.220008 
L 371.343428 -171.632857 
L 368.328697 -174.891861 
L 365.313966 -177.901606 
L 362.299235 -180.862626 
L 359.284503 -183.511964 
L 356.269772 -186.180265 
L 353.255041 -188.534107 
L 350.240309 -190.923293 
L 347.225578 -193.046447 
L 344.210847 -195.174789 
L 341.196116 -197.117229 
L 338.181384 -199.004034 
L 335.166653 -200.794703 
L 332.151922 -202.464041 
L 329.137191 -204.105973 
L 326.122459 -205.56949 
L 323.107728 -207.040615 
L 320.092997 -208.309235 
L 317.078266 -209.588208 
L 314.063534 -210.680036 
L 311.048803 -211.764806 
L 308.034072 -212.702589 
L 305.019341 -213.602985 
L 302.004609 -214.408918 
L 298.989878 -215.149968 
L 295.975147 -215.845313 
L 292.960416 -216.463731 
L 289.945684 -217.071157 
L 286.930953 -217.600693 
L 283.916222 -218.128658 
L 280.901491 -218.591451 
L 277.886759 -219.044436 
L 274.872028 -219.441186 
L 271.857297 -219.811269 
L 268.842566 -220.136664 
L 265.827834 -220.42005 
L 262.813103 -220.652846 
L 259.798372 -220.83075 
L 256.783641 -220.944423 
L 253.768909 -220.998073 
L 250.754178 -220.975572 
L 247.739447 -220.900547 
L 244.724716 -220.737253 
L 241.709984 -220.527302 
L 238.695253 -220.225982 
L 235.680522 -219.877157 
L 232.665791 -219.43813 
L 229.651059 -218.938893 
L 226.636328 -218.353985 
L 223.621597 -217.691391 
L 220.606866 -216.952163 
L 217.592134 -216.117717 
L 214.577403 -215.214479 
L 211.562672 -214.206557 
L 208.547941 -213.138724 
L 205.533209 -211.968627 
L 202.518478 -210.75135 
L 199.503747 -209.444961 
L 196.489016 -208.111281 
L 193.474284 -206.707796 
L 190.459553 -205.299792 
L 187.444822 -203.837977 
L 184.430091 -202.398247 
L 181.415359 -200.904055 
L 178.400628 -199.444423 
L 175.385897 -197.914667 
L 172.371165 -196.413969 
L 169.356434 -194.815126 
L 166.341703 -193.215734 
L 163.326972 -191.495478 
L 160.31224 -189.713002 
L 157.297509 -187.817024 
L 154.282778 -185.787105 
L 151.268047 -183.709849 
L 148.253315 -181.441132 
L 145.238584 -179.257544 
L 142.223853 -176.87303 
L 139.209122 -174.748183 
L 136.19439 -172.48468 
L 133.179659 -170.661278 
L 130.164928 -168.844473 
L 127.150197 -167.571894 
L 124.135465 -166.517858 
L 121.120734 -165.961361 
L 118.106003 -165.848071 
L 115.091272 -165.980321 
L 112.07654 -166.736602 
L 109.061809 -167.312489 
L 106.047078 -168.591243 
L 103.032347 -169.191 
L 100.017615 -170.459129 
L 97.002884 -170.642852 
L 93.988153 -171.278626 
L 90.973422 -170.501549 
L 87.95869 -169.682585 
L 84.943959 -167.432247 
L 81.929228 -164.459533 
L 78.914497 -160.432837 
L 75.899765 -154.710003 
L 72.885034 -148.763578 
L 69.870303 -139.650533 
L 66.855572 -131.747895 
L 63.84084 -118.026138 
L 60.826109 -108.103751 
L 57.811378 -84.44451 
z
"/>
    </defs>
    <g clip-path="url(#pcbf020235c)">
     <use xlink:href="#mf352cdb5c1" x="0" y="254.161875" style="fill: #d62728; fill-opacity: 0.18"/>
    </g>
   </g>
   <g id="FillBetweenPolyCollection_2">
    <defs>
     <path id="m12f3153191" d="M 57.811378 -84.761301 
L 57.811378 -82.865982 
L 60.826109 -106.532426 
L 63.84084 -116.253328 
L 66.855572 -129.959681 
L 69.870303 -137.746659 
L 72.885034 -146.925746 
L 75.899765 -152.850265 
L 78.914497 -158.707963 
L 81.929228 -162.806835 
L 84.943959 -165.966536 
L 87.95869 -168.368147 
L 90.973422 -169.404274 
L 93.988153 -170.364501 
L 97.002884 -169.883299 
L 100.017615 -169.728891 
L 103.032347 -168.33748 
L 106.047078 -167.549944 
L 109.061809 -166.029004 
L 112.07654 -165.223949 
L 115.091272 -164.213012 
L 118.106003 -163.845852 
L 121.120734 -163.720943 
L 124.135465 -164.048344 
L 127.150197 -164.876849 
L 130.164928 -165.917859 
L 133.179659 -167.51736 
L 136.19439 -169.109272 
L 139.209122 -171.159748 
L 142.223853 -173.057006 
L 145.238584 -175.232584 
L 148.253315 -177.195825 
L 151.268047 -179.255692 
L 154.282778 -181.121629 
L 157.297509 -182.948839 
L 160.31224 -184.645825 
L 163.326972 -186.234469 
L 166.341703 -187.770359 
L 169.356434 -189.183502 
L 172.371165 -190.607008 
L 175.385897 -191.931221 
L 178.400628 -193.304228 
L 181.415359 -194.60983 
L 184.430091 -195.973216 
L 187.444822 -197.297032 
L 190.459553 -198.659811 
L 193.474284 -199.98423 
L 196.489016 -201.31673 
L 199.503747 -202.598619 
L 202.518478 -203.860948 
L 205.533209 -205.048335 
L 208.547941 -206.19372 
L 211.562672 -207.248801 
L 214.577403 -208.24663 
L 217.592134 -209.144846 
L 220.606866 -209.975722 
L 223.621597 -210.712819 
L 226.636328 -211.375039 
L 229.651059 -211.959025 
L 232.665791 -212.46189 
L 235.680522 -212.904166 
L 238.695253 -213.256232 
L 241.709984 -213.55691 
L 244.724716 -213.764525 
L 247.739447 -213.923783 
L 250.754178 -213.992945 
L 253.768909 -214.003643 
L 256.783641 -213.931509 
L 259.798372 -213.795089 
L 262.813103 -213.5885 
L 265.827834 -213.316337 
L 268.842566 -212.980333 
L 271.857297 -212.586296 
L 274.872028 -212.132314 
L 277.886759 -211.640412 
L 280.901491 -211.083402 
L 283.916222 -210.507794 
L 286.930953 -209.85692 
L 289.945684 -209.197252 
L 292.960416 -208.454044 
L 295.975147 -207.696248 
L 298.989878 -206.859276 
L 302.004609 -205.979176 
L 305.019341 -205.035725 
L 308.034072 -204.005463 
L 311.048803 -202.942815 
L 314.063534 -201.743841 
L 317.078266 -200.546 
L 320.092997 -199.175546 
L 323.107728 -197.828206 
L 326.122459 -196.291964 
L 329.137191 -194.773581 
L 332.151922 -193.088349 
L 335.166653 -191.382623 
L 338.181384 -189.559372 
L 341.196116 -187.648559 
L 344.210847 -185.687852 
L 347.225578 -183.552166 
L 350.240309 -181.429129 
L 353.255041 -179.052055 
L 356.269772 -176.721589 
L 359.284503 -174.08947 
L 362.299235 -171.491639 
L 365.313966 -168.596777 
L 368.328697 -165.67301 
L 371.343428 -162.51524 
L 374.35816 -159.226397 
L 377.372891 -155.811664 
L 380.387622 -152.149904 
L 383.402353 -148.491724 
L 386.417085 -144.489948 
L 389.431816 -140.606264 
L 392.446547 -136.337354 
L 395.461278 -132.252649 
L 398.47601 -127.817682 
L 401.490741 -123.561781 
L 404.505472 -119.065633 
L 407.520203 -114.664958 
L 410.534935 -110.193534 
L 413.549666 -105.675565 
L 416.564397 -101.272788 
L 419.579128 -96.666573 
L 422.59386 -92.33222 
L 425.608591 -87.684621 
L 428.623322 -83.387435 
L 431.638053 -78.781138 
L 434.652785 -74.49888 
L 437.667516 -70.083382 
L 440.682247 -65.83337 
L 443.696978 -61.831701 
L 446.71171 -57.692206 
L 449.726441 -54.382764 
L 452.741172 -50.481193 
L 455.755903 -48.185022 
L 458.770635 -44.837729 
L 461.785366 -44.230843 
L 464.800097 -42.563097 
L 467.814828 -45.996436 
L 470.82956 -53.011237 
L 470.82956 -54.893603 
L 470.82956 -54.893603 
L 467.814828 -47.571257 
L 464.800097 -44.297485 
L 461.785366 -46.16462 
L 458.770635 -46.989297 
L 455.755903 -50.598052 
L 452.741172 -53.135021 
L 449.726441 -57.30666 
L 446.71171 -60.859923 
L 443.696978 -65.256471 
L 440.682247 -69.494411 
L 437.667516 -73.980791 
L 434.652785 -78.625112 
L 431.638053 -83.126576 
L 428.623322 -87.957456 
L 425.608591 -92.463579 
L 422.59386 -97.333946 
L 419.579128 -101.873788 
L 416.564397 -106.701411 
L 413.549666 -111.311143 
L 410.534935 -116.048736 
L 407.520203 -120.731161 
L 404.505472 -125.348477 
L 401.490741 -130.059441 
L 398.47601 -134.527751 
L 395.461278 -139.178733 
L 392.446547 -143.470233 
L 389.431816 -147.952018 
L 386.417085 -152.035432 
L 383.402353 -156.241919 
L 380.387622 -160.090882 
L 377.372891 -163.94442 
L 374.35816 -167.538957 
L 371.343428 -171.003111 
L 368.328697 -174.327801 
L 365.313966 -177.408758 
L 362.299235 -180.456222 
L 359.284503 -183.193353 
L 356.269772 -185.962994 
L 353.255041 -188.416512 
L 350.240309 -190.91588 
L 347.225578 -193.148091 
L 344.210847 -195.39127 
L 341.196116 -197.449298 
L 338.181384 -199.453486 
L 335.166653 -201.36362 
L 332.151922 -203.149857 
L 329.137191 -204.912383 
L 326.122459 -206.499705 
L 323.107728 -208.103786 
L 320.092997 -209.50996 
L 317.078266 -210.938641 
L 314.063534 -212.186172 
L 311.048803 -213.433357 
L 308.034072 -214.537449 
L 305.019341 -215.606341 
L 302.004609 -216.58369 
L 298.989878 -217.493503 
L 295.975147 -218.357207 
L 292.960416 -219.136506 
L 289.945684 -219.899037 
L 286.930953 -220.572451 
L 283.916222 -221.234816 
L 280.901491 -221.816529 
L 277.886759 -222.376564 
L 274.872028 -222.866339 
L 271.857297 -223.314033 
L 268.842566 -223.696834 
L 265.827834 -224.016488 
L 262.813103 -224.266932 
L 259.798372 -224.446169 
L 256.783641 -224.548852 
L 253.768909 -224.581278 
L 250.754178 -224.523409 
L 247.739447 -224.401171 
L 244.724716 -224.180536 
L 241.709984 -223.905309 
L 238.695253 -223.5286 
L 235.680522 -223.094083 
L 232.665791 -222.561558 
L 229.651059 -221.961091 
L 226.636328 -221.272822 
L 223.621597 -220.497831 
L 220.606866 -219.642704 
L 217.592134 -218.68406 
L 214.577403 -217.653657 
L 211.562672 -216.512959 
L 208.547941 -215.31057 
L 205.533209 -214.006536 
L 202.518478 -212.65507 
L 199.503747 -211.217914 
L 196.489016 -209.75399 
L 193.474284 -208.229947 
L 190.459553 -206.704974 
L 187.444822 -205.134666 
L 184.430091 -203.592784 
L 181.415359 -202.00709 
L 178.400628 -200.468448 
L 175.385897 -198.861647 
L 172.371165 -197.294268 
L 169.356434 -195.629554 
L 166.341703 -193.968467 
L 163.326972 -192.188626 
L 160.31224 -190.352145 
L 157.297509 -188.411152 
L 154.282778 -186.338607 
L 151.268047 -184.229464 
L 148.253315 -181.92697 
L 145.238584 -179.719683 
L 142.223853 -177.301342 
L 139.209122 -175.154872 
L 136.19439 -172.856308 
L 133.179659 -171.004431 
L 130.164928 -169.145682 
L 127.150197 -167.829299 
L 124.135465 -166.726238 
L 121.120734 -166.106186 
L 118.106003 -165.941354 
L 115.091272 -166.003991 
L 112.07654 -166.719191 
L 109.061809 -167.226 
L 106.047078 -168.4772 
L 103.032347 -169.028522 
L 100.017615 -170.297893 
L 97.002884 -170.462393 
L 93.988153 -171.110024 
L 90.973422 -170.333896 
L 87.95869 -169.525847 
L 84.943959 -167.302339 
L 81.929228 -164.335779 
L 78.914497 -160.361264 
L 75.899765 -154.629957 
L 72.885034 -148.7591 
L 69.870303 -139.621489 
L 66.855572 -131.815285 
L 63.84084 -118.061287 
L 60.826109 -108.270332 
L 57.811378 -84.761301 
z
"/>
    </defs>
    <g clip-path="url(#pcbf020235c)">
     <use xlink:href="#m12f3153191" x="0" y="254.161875" style="fill: #1f77b4; fill-opacity: 0.18"/>
    </g>
   </g>
   <g id="matplotlib.axis_1">
    <g id="xtick_1">
     <g id="line2d_1">
      <path d="M 57.811378 220.699687 
L 57.811378 20.479687 
" clip-path="url(#pcbf020235c)" style="fill: none; stroke: #b0b0b0; stroke-opacity: 0.15; stroke-width: 0.8; stroke-linecap: square"/>
     </g>
     <g id="line2d_2">
      <defs>
       <path id="m9f2ffb17f8" d="M 0 0 
L 0 3 
" style="stroke: #000000; stroke-width: 0.8"/>
      </defs>
      <g>
       <use xlink:href="#m9f2ffb17f8" x="57.811378" y="220.699687" style="stroke: #000000; stroke-width: 0.8"/>
      </g>
     </g>
     <g id="text_1">
      <text style="font-size: 8px; font-family: 'Arial', 'Helvetica', 'DejaVu Sans', sans-serif; text-anchor: middle" x="57.811378" y="232.925937" transform="rotate(-0 57.811378 232.925937)">−100</text>
     </g>
    </g>
    <g id="xtick_2">
     <g id="line2d_3">
      <path d="M 133.179659 220.699687 
L 133.179659 20.479687 
" clip-path="url(#pcbf020235c)" style="fill: none; stroke: #b0b0b0; stroke-opacity: 0.15; stroke-width: 0.8; stroke-linecap: square"/>
     </g>
     <g id="line2d_4">
      <g>
       <use xlink:href="#m9f2ffb17f8" x="133.179659" y="220.699687" style="stroke: #000000; stroke-width: 0.8"/>
      </g>
     </g>
     <g id="text_2">
      <text style="font-size: 8px; font-family: 'Arial', 'Helvetica', 'DejaVu Sans', sans-serif; text-anchor: middle" x="133.179659" y="232.925937" transform="rotate(-0 133.179659 232.925937)">0</text>
     </g>
    </g>
    <g id="xtick_3">
     <g id="line2d_5">
      <path d="M 208.547941 220.699687 
L 208.547941 20.479687 
" clip-path="url(#pcbf020235c)" style="fill: none; stroke: #b0b0b0; stroke-opacity: 0.15; stroke-width: 0.8; stroke-linecap: square"/>
     </g>
     <g id="line2d_6">
      <g>
       <use xlink:href="#m9f2ffb17f8" x="208.547941" y="220.699687" style="stroke: #000000; stroke-width: 0.8"/>
      </g>
     </g>
     <g id="text_3">
      <text style="font-size: 8px; font-family: 'Arial', 'Helvetica', 'DejaVu Sans', sans-serif; text-anchor: middle" x="208.547941" y="232.925937" transform="rotate(-0 208.547941 232.925937)">100</text>
     </g>
    </g>
    <g id="xtick_4">
     <g id="line2d_7">
      <path d="M 283.916222 220.699687 
L 283.916222 20.479687 
" clip-path="url(#pcbf020235c)" style="fill: none; stroke: #b0b0b0; stroke-opacity: 0.15; stroke-width: 0.8; stroke-linecap: square"/>
     </g>
     <g id="line2d_8">
      <g>
       <use xlink:href="#m9f2ffb17f8" x="283.916222" y="220.699687" style="stroke: #000000; stroke-width: 0.8"/>
      </g>
     </g>
     <g id="text_4">
      <text style="font-size: 8px; font-family: 'Arial', 'Helvetica', 'DejaVu Sans', sans-serif; text-anchor: middle" x="283.916222" y="232.925937" transform="rotate(-0 283.916222 232.925937)">200</text>
     </g>
    </g>
    <g id="xtick_5">
     <g id="line2d_9">
      <path d="M 359.284503 220.699687 
L 359.284503 20.479687 
" clip-path="url(#pcbf020235c)" style="fill: none; stroke: #b0b0b0; stroke-opacity: 0.15; stroke-width: 0.8; stroke-linecap: square"/>
     </g>
     <g id="line2d_10">
      <g>
       <use xlink:href="#m9f2ffb17f8" x="359.284503" y="220.699687" style="stroke: #000000; stroke-width: 0.8"/>
      </g>
     </g>
     <g id="text_5">
      <text style="font-size: 8px; font-family: 'Arial', 'Helvetica', 'DejaVu Sans', sans-serif; text-anchor: middle" x="359.284503" y="232.925937" transform="rotate(-0 359.284503 232.925937)">300</text>
     </g>
    </g>
    <g id="xtick_6">
     <g id="line2d_11">
      <path d="M 434.652785 220.699687 
L 434.652785 20.479687 
" clip-path="url(#pcbf020235c)" style="fill: none; stroke: #b0b0b0; stroke-opacity: 0.15; stroke-width: 0.8; stroke-linecap: square"/>
     </g>
     <g id="line2d_12">
      <g>
       <use xlink:href="#m9f2ffb17f8" x="434.652785" y="220.699687" style="stroke: #000000; stroke-width: 0.8"/>
      </g>
     </g>
     <g id="text_6">
      <text style="font-size: 8px; font-family: 'Arial', 'Helvetica', 'DejaVu Sans', sans-serif; text-anchor: middle" x="434.652785" y="232.925937" transform="rotate(-0 434.652785 232.925937)">400</text>
     </g>
    </g>
    <g id="text_7">
     <text style="font-size: 9px; font-family: 'Arial', 'Helvetica', 'DejaVu Sans', sans-serif; text-anchor: middle" x="264.320469" y="245.067656" transform="rotate(-0 264.320469 245.067656)">Time (ms)</text>
    </g>
   </g>
   <g id="matplotlib.axis_2">
    <g id="ytick_1">
     <g id="line2d_13">
      <path d="M 37.160469 197.748391 
L 491.480469 197.748391 
" clip-path="url(#pcbf020235c)" style="fill: none; stroke: #b0b0b0; stroke-opacity: 0.15; stroke-width: 0.8; stroke-linecap: square"/>
     </g>
     <g id="line2d_14">
      <defs>
       <path id="m482699c5c7" d="M 0 0 
L -3 0 
" style="stroke: #000000; stroke-width: 0.8"/>
      </defs>
      <g>
       <use xlink:href="#m482699c5c7" x="37.160469" y="197.748391" style="stroke: #000000; stroke-width: 0.8"/>
      </g>
     </g>
     <g id="text_8">
      <text style="font-size: 8px; font-family: 'Arial', 'Helvetica', 'DejaVu Sans', sans-serif; text-anchor: end" x="30.660469" y="200.611516" transform="rotate(-0 30.660469 200.611516)">0.4</text>
     </g>
    </g>
    <g id="ytick_2">
     <g id="line2d_15">
      <path d="M 37.160469 164.786344 
L 491.480469 164.786344 
" clip-path="url(#pcbf020235c)" style="fill: none; stroke: #b0b0b0; stroke-opacity: 0.15; stroke-width: 0.8; stroke-linecap: square"/>
     </g>
     <g id="line2d_16">
      <g>
       <use xlink:href="#m482699c5c7" x="37.160469" y="164.786344" style="stroke: #000000; stroke-width: 0.8"/>
      </g>
     </g>
     <g id="text_9">
      <text style="font-size: 8px; font-family: 'Arial', 'Helvetica', 'DejaVu Sans', sans-serif; text-anchor: end" x="30.660469" y="167.649469" transform="rotate(-0 30.660469 167.649469)">0.6</text>
     </g>
    </g>
    <g id="ytick_3">
     <g id="line2d_17">
      <path d="M 37.160469 131.824298 
L 491.480469 131.824298 
" clip-path="url(#pcbf020235c)" style="fill: none; stroke: #b0b0b0; stroke-opacity: 0.15; stroke-width: 0.8; stroke-linecap: square"/>
     </g>
     <g id="line2d_18">
      <g>
       <use xlink:href="#m482699c5c7" x="37.160469" y="131.824298" style="stroke: #000000; stroke-width: 0.8"/>
      </g>
     </g>
     <g id="text_10">
      <text style="font-size: 8px; font-family: 'Arial', 'Helvetica', 'DejaVu Sans', sans-serif; text-anchor: end" x="30.660469" y="134.687423" transform="rotate(-0 30.660469 134.687423)">0.8</text>
     </g>
    </g>
    <g id="ytick_4">
     <g id="line2d_19">
      <path d="M 37.160469 98.862251 
L 491.480469 98.862251 
" clip-path="url(#pcbf020235c)" style="fill: none; stroke: #b0b0b0; stroke-opacity: 0.15; stroke-width: 0.8; stroke-linecap: square"/>
     </g>
     <g id="line2d_20">
      <g>
       <use xlink:href="#m482699c5c7" x="37.160469" y="98.862251" style="stroke: #000000; stroke-width: 0.8"/>
      </g>
     </g>
     <g id="text_11">
      <text style="font-size: 8px; font-family: 'Arial', 'Helvetica', 'DejaVu Sans', sans-serif; text-anchor: end" x="30.660469" y="101.725376" transform="rotate(-0 30.660469 101.725376)">1.0</text>
     </g>
    </g>
    <g id="ytick_5">
     <g id="line2d_21">
      <path d="M 37.160469 65.900205 
L 491.480469 65.900205 
" clip-path="url(#pcbf020235c)" style="fill: none; stroke: #b0b0b0; stroke-opacity: 0.15; stroke-width: 0.8; stroke-linecap: square"/>
     </g>
     <g id="line2d_22">
      <g>
       <use xlink:href="#m482699c5c7" x="37.160469" y="65.900205" style="stroke: #000000; stroke-width: 0.8"/>
      </g>
     </g>
     <g id="text_12">
      <text style="font-size: 8px; font-family: 'Arial', 'Helvetica', 'DejaVu Sans', sans-serif; text-anchor: end" x="30.660469" y="68.76333" transform="rotate(-0 30.660469 68.76333)">1.2</text>
     </g>
    </g>
    <g id="ytick_6">
     <g id="line2d_23">
      <path d="M 37.160469 32.938158 
L 491.480469 32.938158 
" clip-path="url(#pcbf020235c)" style="fill: none; stroke: #b0b0b0; stroke-opacity: 0.15; stroke-width: 0.8; stroke-linecap: square"/>
     </g>
     <g id="line2d_24">
      <g>
       <use xlink:href="#m482699c5c7" x="37.160469" y="32.938158" style="stroke: #000000; stroke-width: 0.8"/>
      </g>
     </g>
     <g id="text_13">
      <text style="font-size: 8px; font-family: 'Arial', 'Helvetica', 'DejaVu Sans', sans-serif; text-anchor: end" x="30.660469" y="35.801283" transform="rotate(-0 30.660469 35.801283)">1.4</text>
     </g>
    </g>
    <g id="text_14">
     <text style="font-size: 9px; font-family: 'Arial', 'Helvetica', 'DejaVu Sans', sans-serif; text-anchor: middle" x="13.751719" y="120.589687" transform="rotate(-90 13.751719 120.589687)">α-band envelope / baseline</text>
    </g>
   </g>
   <g id="line2d_25">
    <path d="M 57.811378 170.658772 
L 60.826109 146.936022 
L 63.84084 137.047299 
L 66.855572 123.351477 
L 69.870303 115.455718 
L 72.885034 106.32237 
L 78.914497 94.559892 
L 81.929228 90.468718 
L 84.943959 87.397748 
L 87.95869 85.056446 
L 93.988153 83.251504 
L 97.002884 83.804741 
L 100.017615 83.986259 
L 103.032347 85.320736 
L 106.047078 86.040579 
L 109.061809 87.456178 
L 112.07654 88.18001 
L 115.091272 89.082648 
L 118.106003 89.363874 
L 121.120734 89.392303 
L 124.135465 88.978106 
L 127.150197 88.057354 
L 130.164928 86.918305 
L 136.19439 83.529134 
L 139.209122 81.385106 
L 142.223853 79.38065 
L 145.238584 77.113003 
L 154.282778 70.935582 
L 157.297509 69.024056 
L 163.326972 65.582899 
L 169.356434 62.499592 
L 175.385897 59.631594 
L 184.430091 55.476725 
L 199.503747 48.905874 
L 205.533209 46.541408 
L 211.562672 44.445043 
L 217.592134 42.658903 
L 223.621597 41.194875 
L 229.651059 40.042662 
L 235.680522 39.186037 
L 241.709984 38.604213 
L 247.739447 38.286562 
L 253.768909 38.233044 
L 259.798372 38.433914 
L 265.827834 38.868995 
L 271.857297 39.493747 
L 280.901491 40.723683 
L 286.930953 41.713789 
L 292.960416 42.844901 
L 298.989878 44.147707 
L 305.019341 45.678476 
L 311.048803 47.494774 
L 317.078266 49.643125 
L 323.107728 52.155159 
L 329.137191 55.045789 
L 335.166653 58.302953 
L 341.196116 61.914369 
L 344.210847 63.819785 
L 350.240309 67.984518 
L 356.269772 72.623979 
L 362.299235 77.819644 
L 368.328697 83.649373 
L 374.35816 90.161774 
L 377.372891 93.630318 
L 383.402353 101.10695 
L 392.446547 113.566029 
L 395.461278 117.762845 
L 413.549666 144.84397 
L 422.59386 158.302614 
L 425.608591 162.984306 
L 428.623322 167.337246 
L 431.638053 171.997876 
L 446.71171 193.844907 
L 449.726441 197.403002 
L 452.741172 201.591812 
L 455.755903 204.179457 
L 458.770635 207.832486 
L 461.785366 208.72088 
L 464.800097 210.664957 
L 467.814828 207.340478 
L 470.82956 200.307798 
L 470.82956 200.307798 
" clip-path="url(#pcbf020235c)" style="fill: none; stroke: #d62728; stroke-width: 1.6; stroke-linecap: square"/>
   </g>
   <g id="line2d_26">
    <path d="M 57.811378 170.348233 
L 60.826109 146.760496 
L 63.84084 137.004567 
L 66.855572 123.274392 
L 69.870303 115.477801 
L 72.885034 106.319452 
L 78.914497 94.627261 
L 81.929228 90.590568 
L 84.943959 87.527438 
L 87.95869 85.214878 
L 93.988153 83.424612 
L 97.002884 83.989029 
L 100.017615 84.148483 
L 103.032347 85.478874 
L 106.047078 86.148303 
L 109.061809 87.534373 
L 112.07654 88.190305 
L 115.091272 89.053374 
L 118.106003 89.268272 
L 121.120734 89.24831 
L 124.135465 88.774584 
L 127.150197 87.808801 
L 130.164928 86.630104 
L 136.19439 83.179085 
L 139.209122 81.004565 
L 142.223853 78.982701 
L 145.238584 76.685742 
L 154.282778 70.431757 
L 160.31224 66.66289 
L 166.341703 63.292462 
L 175.385897 58.765441 
L 184.430091 54.378875 
L 202.518478 45.903866 
L 208.547941 43.40973 
L 214.577403 41.211732 
L 220.606866 39.352662 
L 226.636328 37.837944 
L 232.665791 36.650151 
L 238.695253 35.769459 
L 244.724716 35.189344 
L 250.754178 34.903698 
L 256.783641 34.921694 
L 262.813103 35.234159 
L 268.842566 35.823291 
L 274.872028 36.662548 
L 280.901491 37.711909 
L 286.930953 38.947189 
L 292.960416 40.3666 
L 298.989878 41.985486 
L 305.019341 43.840842 
L 311.048803 45.973789 
L 317.078266 48.419554 
L 323.107728 51.195879 
L 329.137191 54.318893 
L 335.166653 57.788754 
L 341.196116 61.612946 
L 344.210847 63.622314 
L 350.240309 67.989371 
L 356.269772 72.819583 
L 362.299235 78.187945 
L 368.328697 84.16147 
L 374.35816 90.779198 
L 377.372891 94.283833 
L 383.402353 101.795054 
L 392.446547 114.258081 
L 395.461278 118.446184 
L 422.59386 159.328792 
L 425.608591 164.087775 
L 428.623322 168.489429 
L 431.638053 173.208018 
L 443.696978 190.617789 
L 446.71171 194.88581 
L 449.726441 198.317163 
L 452.741172 202.353768 
L 455.755903 204.770338 
L 458.770635 208.248362 
L 461.785366 208.964143 
L 464.800097 210.731584 
L 467.814828 207.378028 
L 470.82956 200.209455 
L 470.82956 200.209455 
" clip-path="url(#pcbf020235c)" style="fill: none; stroke: #1f77b4; stroke-width: 1.6; stroke-linecap: square"/>
   </g>
   <g id="line2d_27">
    <path d="M 133.179659 220.699687 
L 133.179659 20.479687 
" clip-path="url(#pcbf020235c)" style="fill: none; stroke-dasharray: 2.96,1.28; stroke-dashoffset: 0; stroke: #000000; stroke-width: 0.8"/>
   </g>
   <g id="line2d_28">
    <path d="M 37.160469 98.862251 
L 491.480469 98.862251 
" clip-path="url(#pcbf020235c)" style="fill: none; stroke: #808080; stroke-opacity: 0.4; stroke-width: 0.5; stroke-linecap: square"/>
   </g>
   <g id="patch_3">
    <path d="M 37.160469 220.699687 
L 37.160469 20.479687 
" style="fill: none; stroke: #000000; stroke-width: 0.8; stroke-linejoin: miter; stroke-linecap: square"/>
   </g>
   <g id="patch_4">
    <path d="M 37.160469 220.699687 
L 491.480469 220.699687 
" style="fill: none; stroke: #000000; stroke-width: 0.8; stroke-linejoin: miter; stroke-linecap: square"/>
   </g>
   <g id="text_15">
    <text style="font-weight: 700; font-size: 10px; font-family: 'Arial', 'Helvetica', 'DejaVu Sans', sans-serif; text-anchor: middle" x="264.320469" y="14.479687" transform="rotate(-0 264.320469 14.479687)">α-band (8-13 Hz) desync — salient vs non-salient</text>
   </g>
   <g id="legend_1">
    <g id="line2d_29">
     <path d="M 386.951719 30.703437 
L 394.951719 30.703437 
L 402.951719 30.703437 
" style="fill: none; stroke: #d62728; stroke-width: 1.6; stroke-linecap: square"/>
    </g>
    <g id="text_16">
     <text style="font-size: 8px; font-family: 'Arial', 'Helvetica', 'DejaVu Sans', sans-serif; text-anchor: start" x="409.351719" y="33.503437" transform="rotate(-0 409.351719 33.503437)">Salient (n=2785)</text>
    </g>
    <g id="line2d_30">
     <path d="M 386.951719 42.210937 
L 394.951719 42.210937 
L 402.951719 42.210937 
" style="fill: none; stroke: #1f77b4; stroke-width: 1.6; stroke-linecap: square"/>
    </g>
    <g id="text_17">
     <text style="font-size: 8px; font-family: 'Arial', 'Helvetica', 'DejaVu Sans', sans-serif; text-anchor: start" x="409.351719" y="45.010937" transform="rotate(-0 409.351719 45.010937)">Non-salient (n=2769)</text>
    </g>
   </g>
  </g>
 </g>
 <defs>
  <clipPath id="pcbf020235c">
   <rect x="37.160469" y="20.479687" width="454.32" height="200.22"/>
  </clipPath>
 </defs>
</svg>
