<?xml version="1.0" encoding="utf-8" standalone="no"?>
<!DOCTYPE svg PUBLIC "-//W3C//DTD SVG 1.1//EN"
  "http://www.w3.org/Graphics/SVG/1.1/DTD/svg11.dtd">
<svg xmlns:xlink="http://www.w3.org/1999/xlink" width="565.512812pt" height="391.452812pt" viewBox="0 0 565.512812 391.452812" xmlns="http://www.w3.org/2000/svg" version="1.1">
 <metadata>
  <rdf:RDF xmlns:dc="http://purl.org/dc/elements/1.1/" xmlns:cc="http://creativecommons.org/ns#" xmlns:rdf="http://www.w3.org/1999/02/22-rdf-syntax-ns#">
   <cc:Work>
    <dc:type rdf:resource="http://purl.org/dc/dcmitype/StillImage"/>
    <dc:date>2026-05-13T07:32:47.515255</dc:date>
    <dc:format>image/svg+xml</dc:format>
    <dc:creator>
     <cc:Agent>
      <dc:title>Matplotlib v3.10.8, https://matplotlib.org/</dc:title>
     </cc:Agent>
    </dc:creator>
   </cc:Work>
  </rdf:RDF>
 </metadata>
 <defs>
  <style type="text/css">*{stroke-linejoin: round; stroke-linecap: butt}</style>
 </defs>
 <g id="figure_1">
  <g id="patch_1">
   <path d="M 0 391.452812 
L 565.512812 391.452812 
L 565.512812 0 
L 0 0 
z
" style="fill: #ffffff"/>
  </g>
  <g id="axes_1">
   <g id="patch_2">
    <path d="M 39.132812 187.17 
L 558.312812 187.17 
L 558.312812 29.76 
L 39.132812 29.76 
z
" style="fill: #ffffff"/>
   </g>
   <g id="matplotlib.axis_1">
    <g id="xtick_1">
     <g id="line2d_1">
      <path d="M 62.731903 187.17 
L 62.731903 29.76 
" clip-path="url(#p3731901452)" style="fill: none; stroke: #b0b0b0; stroke-opacity: 0.15; stroke-width: 0.8; stroke-linecap: square"/>
     </g>
     <g id="line2d_2">
      <defs>
       <path id="m59a7ca8042" d="M 0 0 
L 0 3 
" style="stroke: #000000; stroke-width: 0.8"/>
      </defs>
      <g>
       <use xlink:href="#m59a7ca8042" x="62.731903" y="187.17" style="stroke: #000000; stroke-width: 0.8"/>
      </g>
     </g>
    </g>
    <g id="xtick_2">
     <g id="line2d_3">
      <path d="M 148.859972 187.17 
L 148.859972 29.76 
" clip-path="url(#p3731901452)" style="fill: none; stroke: #b0b0b0; stroke-opacity: 0.15; stroke-width: 0.8; stroke-linecap: square"/>
     </g>
     <g id="line2d_4">
      <g>
       <use xlink:href="#m59a7ca8042" x="148.859972" y="187.17" style="stroke: #000000; stroke-width: 0.8"/>
      </g>
     </g>
    </g>
    <g id="xtick_3">
     <g id="line2d_5">
      <path d="M 234.988041 187.17 
L 234.988041 29.76 
" clip-path="url(#p3731901452)" style="fill: none; stroke: #b0b0b0; stroke-opacity: 0.15; stroke-width: 0.8; stroke-linecap: square"/>
     </g>
     <g id="line2d_6">
      <g>
       <use xlink:href="#m59a7ca8042" x="234.988041" y="187.17" style="stroke: #000000; stroke-width: 0.8"/>
      </g>
     </g>
    </g>
    <g id="xtick_4">
     <g id="line2d_7">
      <path d="M 321.11611 187.17 
L 321.11611 29.76 
" clip-path="url(#p3731901452)" style="fill: none; stroke: #b0b0b0; stroke-opacity: 0.15; stroke-width: 0.8; stroke-linecap: square"/>
     </g>
     <g id="line2d_8">
      <g>
       <use xlink:href="#m59a7ca8042" x="321.11611" y="187.17" style="stroke: #000000; stroke-width: 0.8"/>
      </g>
     </g>
    </g>
    <g id="xtick_5">
     <g id="line2d_9">
      <path d="M 407.244179 187.17 
L 407.244179 29.76 
" clip-path="url(#p3731901452)" style="fill: none; stroke: #b0b0b0; stroke-opacity: 0.15; stroke-width: 0.8; stroke-linecap: square"/>
     </g>
     <g id="line2d_10">
      <g>
       <use xlink:href="#m59a7ca8042" x="407.244179" y="187.17" style="stroke: #000000; stroke-width: 0.8"/>
      </g>
     </g>
    </g>
    <g id="xtick_6">
     <g id="line2d_11">
      <path d="M 493.372248 187.17 
L 493.372248 29.76 
" clip-path="url(#p3731901452)" style="fill: none; stroke: #b0b0b0; stroke-opacity: 0.15; stroke-width: 0.8; stroke-linecap: square"/>
     </g>
     <g id="line2d_12">
      <g>
       <use xlink:href="#m59a7ca8042" x="493.372248" y="187.17" style="stroke: #000000; stroke-width: 0.8"/>
      </g>
     </g>
    </g>
   </g>
   <g id="matplotlib.axis_2">
    <g id="ytick_1">
     <g id="line2d_13">
      <path d="M 39.132812 185.998472 
L 558.312812 185.998472 
" clip-path="url(#p3731901452)" style="fill: none; stroke: #b0b0b0; stroke-opacity: 0.15; stroke-width: 0.8; stroke-linecap: square"/>
     </g>
     <g id="line2d_14">
      <defs>
       <path id="maf11a744e2" d="M 0 0 
L -3 0 
" style="stroke: #000000; stroke-width: 0.8"/>
      </defs>
      <g>
       <use xlink:href="#maf11a744e2" x="39.132812" y="185.998472" style="stroke: #000000; stroke-width: 0.8"/>
      </g>
     </g>
     <g id="text_1">
      <text style="font-size: 8px; font-family: 'Arial', 'Helvetica', 'DejaVu Sans', sans-serif; text-anchor: end" x="32.632812" y="189.037847" transform="rotate(-0 32.632812 189.037847)">0.2</text>
     </g>
    </g>
    <g id="ytick_2">
     <g id="line2d_15">
      <path d="M 39.132812 167.801052 
L 558.312812 167.801052 
" clip-path="url(#p3731901452)" style="fill: none; stroke: #b0b0b0; stroke-opacity: 0.15; stroke-width: 0.8; stroke-linecap: square"/>
     </g>
     <g id="line2d_16">
      <g>
       <use xlink:href="#maf11a744e2" x="39.132812" y="167.801052" style="stroke: #000000; stroke-width: 0.8"/>
      </g>
     </g>
     <g id="text_2">
      <text style="font-size: 8px; font-family: 'Arial', 'Helvetica', 'DejaVu Sans', sans-serif; text-anchor: end" x="32.632812" y="170.840427" transform="rotate(-0 32.632812 170.840427)">0.4</text>
     </g>
    </g>
    <g id="ytick_3">
     <g id="line2d_17">
      <path d="M 39.132812 149.603632 
L 558.312812 149.603632 
" clip-path="url(#p3731901452)" style="fill: none; stroke: #b0b0b0; stroke-opacity: 0.15; stroke-width: 0.8; stroke-linecap: square"/>
     </g>
     <g id="line2d_18">
      <g>
       <use xlink:href="#maf11a744e2" x="39.132812" y="149.603632" style="stroke: #000000; stroke-width: 0.8"/>
      </g>
     </g>
     <g id="text_3">
      <text style="font-size: 8px; font-family: 'Arial', 'Helvetica', 'DejaVu Sans', sans-serif; text-anchor: end" x="32.632812" y="152.643007" transform="rotate(-0 32.632812 152.643007)">0.6</text>
     </g>
    </g>
    <g id="ytick_4">
     <g id="line2d_19">
      <path d="M 39.132812 131.406212 
L 558.312812 131.406212 
" clip-path="url(#p3731901452)" style="fill: none; stroke: #b0b0b0; stroke-opacity: 0.15; stroke-width: 0.8; stroke-linecap: square"/>
     </g>
     <g id="line2d_20">
      <g>
       <use xlink:href="#maf11a744e2" x="39.132812" y="131.406212" style="stroke: #000000; stroke-width: 0.8"/>
      </g>
     </g>
     <g id="text_4">
      <text style="font-size: 8px; font-family: 'Arial', 'Helvetica', 'DejaVu Sans', sans-serif; text-anchor: end" x="32.632812" y="134.445587" transform="rotate(-0 32.632812 134.445587)">0.8</text>
     </g>
    </g>
    <g id="ytick_5">
     <g id="line2d_21">
      <path d="M 39.132812 113.208792 
L 558.312812 113.208792 
" clip-path="url(#p3731901452)" style="fill: none; stroke: #b0b0b0; stroke-opacity: 0.15; stroke-width: 0.8; stroke-linecap: square"/>
     </g>
     <g id="line2d_22">
      <g>
       <use xlink:href="#maf11a744e2" x="39.132812" y="113.208792" style="stroke: #000000; stroke-width: 0.8"/>
      </g>
     </g>
     <g id="text_5">
      <text style="font-size: 8px; font-family: 'Arial', 'Helvetica', 'DejaVu Sans', sans-serif; text-anchor: end" x="32.632812" y="116.248167" transform="rotate(-0 32.632812 116.248167)">1.0</text>
     </g>
    </g>
    <g id="ytick_6">
     <g id="line2d_23">
      <path d="M 39.132812 95.011372 
L 558.312812 95.011372 
" clip-path="url(#p3731901452)" style="fill: none; stroke: #b0b0b0; stroke-opacity: 0.15; stroke-width: 0.8; stroke-linecap: square"/>
     </g>
     <g id="line2d_24">
      <g>
       <use xlink:href="#maf11a744e2" x="39.132812" y="95.011372" style="stroke: #000000; stroke-width: 0.8"/>
      </g>
     </g>
     <g id="text_6">
      <text style="font-size: 8px; font-family: 'Arial', 'Helvetica', 'DejaVu Sans', sans-serif; text-anchor: end" x="32.632812" y="98.050747" transform="rotate(-0 32.632812 98.050747)">1.2</text>
     </g>
    </g>
    <g id="ytick_7">
     <g id="line2d_25">
      <path d="M 39.132812 76.813952 
L 558.312812 76.813952 
" clip-path="url(#p3731901452)" style="fill: none; stroke: #b0b0b0; stroke-opacity: 0.15; stroke-width: 0.8; stroke-linecap: square"/>
     </g>
     <g id="line2d_26">
      <g>
       <use xlink:href="#maf11a744e2" x="39.132812" y="76.813952" style="stroke: #000000; stroke-width: 0.8"/>
      </g>
     </g>
     <g id="text_7">
      <text style="font-size: 8px; font-family: 'Arial', 'Helvetica', 'DejaVu Sans', sans-serif; text-anchor: end" x="32.632812" y="79.853327" transform="rotate(-0 32.632812 79.853327)">1.4</text>
     </g>
    </g>
    <g id="ytick_8">
     <g id="line2d_27">
      <path d="M 39.132812 58.616532 
L 558.312812 58.616532 
" clip-path="url(#p3731901452)" style="fill: none; stroke: #b0b0b0; stroke-opacity: 0.15; stroke-width: 0.8; stroke-linecap: square"/>
     </g>
     <g id="line2d_28">
      <g>
       <use xlink:href="#maf11a744e2" x="39.132812" y="58.616532" style="stroke: #000000; stroke-width: 0.8"/>
      </g>
     </g>
     <g id="text_8">
      <text style="font-size: 8px; font-family: 'Arial', 'Helvetica', 'DejaVu Sans', sans-serif; text-anchor: end" x="32.632812" y="61.655907" transform="rotate(-0 32.632812 61.655907)">1.6</text>
     </g>
    </g>
    <g id="ytick_9">
     <g id="line2d_29">
      <path d="M 39.132812 40.419112 
L 558.312812 40.419112 
" clip-path="url(#p3731901452)" style="fill: none; stroke: #b0b0b0; stroke-opacity: 0.15; stroke-width: 0.8; stroke-linecap: square"/>
     </g>
     <g id="line2d_30">
      <g>
       <use xlink:href="#maf11a744e2" x="39.132812" y="40.419112" style="stroke: #000000; stroke-width: 0.8"/>
      </g>
     </g>
     <g id="text_9">
      <text style="font-size: 8px; font-family: 'Arial', 'Helvetica', 'DejaVu Sans', sans-serif; text-anchor: end" x="32.632812" y="43.458487" transform="rotate(-0 32.632812 43.458487)">1.8</text>
     </g>
    </g>
    <g id="text_10">
     <text style="font-size: 9px; font-family: 'Arial', 'Helvetica', 'DejaVu Sans', sans-serif; text-anchor: middle" x="14.038594" y="108.465" transform="rotate(-90 14.038594 108.465)">Deconvolved GFP (µV)</text>
    </g>
   </g>
   <g id="line2d_31">
    <path d="M 62.731903 167.287461 
L 66.177026 162.929497 
L 69.622149 161.415512 
L 73.067272 163.174064 
L 76.512394 166.800317 
L 79.957517 169.094674 
L 83.40264 166.576074 
L 86.847763 159.007278 
L 90.292885 149.147469 
L 93.738008 139.732749 
L 97.183131 78.855701 
L 100.628254 72.069225 
L 104.073377 71.686636 
L 107.518499 77.355173 
L 110.963622 87.87903 
L 114.408745 101.508079 
L 117.853868 116.322499 
L 121.29899 130.623885 
L 124.744113 143.239621 
L 128.189236 153.6967 
L 131.634359 152.678864 
L 135.079481 158.777012 
L 138.524604 163.758569 
L 141.969727 167.458299 
L 145.41485 169.29294 
L 148.859972 168.732983 
L 152.305095 165.737935 
L 155.750218 160.595711 
L 159.195341 165.741525 
L 162.640463 155.422374 
L 166.085586 145.502565 
L 172.975832 128.433867 
L 176.420955 117.148981 
L 179.866077 100.9816 
L 186.756323 62.397535 
L 190.201446 48.298941 
L 193.646568 41.772185 
L 197.091691 43.330406 
L 200.536814 51.394914 
L 207.427059 74.492671 
L 210.872182 83.698363 
L 214.317305 90.185811 
L 217.762428 95.4186 
L 221.20755 101.304424 
L 224.652673 108.937058 
L 228.097796 118.190804 
L 231.542919 128.055188 
L 234.988041 137.371448 
L 238.433164 145.546564 
L 241.878287 152.731117 
L 245.32341 159.314034 
L 248.768532 165.289573 
L 252.213655 170.108676 
L 255.658778 173.057082 
L 259.103901 173.721029 
L 262.549024 172.089948 
L 265.994146 168.431513 
L 269.439269 163.262968 
L 272.884392 157.220151 
L 276.329515 150.746337 
L 279.774637 143.911941 
L 283.21976 136.570727 
L 293.555128 113.141999 
L 297.000251 106.625992 
L 300.445374 101.474791 
L 303.890497 97.680932 
L 307.335619 95.016303 
L 310.780742 93.216487 
L 314.225865 92.132477 
L 317.670988 91.782275 
L 321.11611 92.304318 
L 324.561233 93.867169 
L 328.006356 96.583742 
L 331.451479 100.45574 
L 334.896601 105.344195 
L 338.341724 110.965127 
L 345.23197 122.732562 
L 348.677093 128.028668 
L 352.122215 132.597114 
L 355.567338 136.487507 
L 369.347829 150.256779 
L 372.792952 153.650277 
L 376.238075 156.698287 
L 379.683197 159.258833 
L 383.12832 161.313086 
L 386.573443 162.912422 
L 390.018566 164.124262 
L 393.463688 165.035555 
L 400.353934 166.541514 
L 403.799057 167.472535 
L 407.244179 168.653126 
L 417.579548 172.971519 
L 421.02467 174.130805 
L 424.469793 174.899369 
L 427.914916 175.26561 
L 434.805162 175.354041 
L 441.695407 175.361686 
L 445.14053 175.009467 
L 448.585653 173.94245 
L 452.030775 171.827798 
L 455.475898 168.439808 
L 458.921021 163.629333 
L 462.366144 157.328068 
L 465.811266 149.651908 
L 472.701512 132.425436 
L 476.146635 125.101353 
L 479.591757 120.657512 
L 483.03688 120.534404 
L 486.482003 125.458491 
L 489.927126 134.692453 
L 493.372248 145.14001 
L 496.817371 151.067003 
L 500.262494 148.14696 
L 503.707617 167.287461 
L 507.15274 162.929497 
L 510.597862 161.415512 
L 514.042985 163.174064 
L 517.488108 166.800317 
L 520.933231 169.094674 
L 524.378353 166.576074 
L 527.823476 159.007278 
L 531.268599 149.147469 
L 534.713722 139.732749 
L 534.713722 139.732749 
" clip-path="url(#p3731901452)" style="fill: none; stroke: #d62728; stroke-width: 1.6; stroke-linecap: square"/>
   </g>
   <g id="line2d_32">
    <path d="M 62.731903 167.814336 
L 66.177026 163.330227 
L 69.622149 162.137442 
L 73.067272 164.541348 
L 76.512394 169.002942 
L 79.957517 171.903041 
L 83.40264 169.02623 
L 86.847763 160.301632 
L 90.292885 149.265316 
L 93.738008 139.082371 
L 97.183131 77.390468 
L 100.628254 71.287192 
L 104.073377 72.274246 
L 107.518499 79.437876 
L 110.963622 90.97189 
L 117.853868 118.56336 
L 121.29899 131.188158 
L 124.744113 142.001779 
L 128.189236 151.266313 
L 131.634359 149.281201 
L 135.079481 157.26185 
L 138.524604 164.594257 
L 141.969727 170.308173 
L 145.41485 173.097979 
L 148.859972 172.223333 
L 152.305095 167.983558 
L 155.750218 161.046676 
L 159.195341 164.836677 
L 162.640463 152.69784 
L 166.085586 141.970378 
L 169.530709 134.018473 
L 172.975832 127.513557 
L 176.420955 118.323305 
L 179.866077 102.847752 
L 186.756323 61.019172 
L 190.201446 44.814511 
L 193.646568 36.915 
L 197.091691 38.067149 
L 200.536814 46.470459 
L 207.427059 70.728065 
L 210.872182 80.375047 
L 214.317305 87.435494 
L 217.762428 93.511979 
L 221.20755 100.422755 
L 224.652673 109.080622 
L 228.097796 119.23561 
L 231.542919 129.824286 
L 234.988041 139.627408 
L 238.433164 147.945671 
L 241.878287 154.853291 
L 245.32341 160.775991 
L 248.768532 165.834469 
L 252.213655 169.653548 
L 255.658778 171.771809 
L 259.103901 172.09747 
L 262.549024 170.838779 
L 265.994146 168.219377 
L 269.439269 164.491649 
L 272.884392 159.977081 
L 276.329515 154.856946 
L 279.774637 149.015852 
L 283.21976 142.241221 
L 286.664883 134.601652 
L 290.110006 126.592043 
L 293.555128 118.928676 
L 297.000251 112.223766 
L 300.445374 106.771021 
L 303.890497 102.515329 
L 307.335619 99.177587 
L 310.780742 96.45724 
L 314.225865 94.211199 
L 317.670988 92.5246 
L 321.11611 91.656543 
L 324.561233 91.90983 
L 328.006356 93.49713 
L 331.451479 96.453801 
L 334.896601 100.612851 
L 338.341724 105.64242 
L 348.677093 122.155794 
L 352.122215 127.346911 
L 355.567338 132.286416 
L 359.012461 136.975084 
L 362.457584 141.364937 
L 365.902706 145.354966 
L 369.347829 148.841771 
L 372.792952 151.791175 
L 376.238075 154.261462 
L 379.683197 156.343205 
L 383.12832 158.081569 
L 386.573443 159.475058 
L 390.018566 160.548125 
L 396.908811 162.251186 
L 400.353934 163.269427 
L 403.799057 164.616441 
L 407.244179 166.343997 
L 410.689302 168.392005 
L 417.579548 172.84029 
L 421.02467 174.909207 
L 424.469793 176.709714 
L 427.914916 178.166657 
L 431.360039 179.225629 
L 434.805162 179.847478 
L 438.250284 180.015 
L 441.695407 179.717396 
L 445.14053 178.886131 
L 448.585653 177.32521 
L 452.030775 174.716774 
L 455.475898 170.716444 
L 458.921021 165.070538 
L 462.366144 157.720082 
L 465.811266 148.911438 
L 472.701512 129.987488 
L 476.146635 122.463949 
L 479.591757 118.391009 
L 483.03688 119.211585 
L 486.482003 125.555697 
L 489.927126 136.447792 
L 493.372248 148.275486 
L 496.817371 154.35363 
L 500.262494 150.18516 
L 503.707617 167.814336 
L 507.15274 163.330227 
L 510.597862 162.137442 
L 514.042985 164.541348 
L 517.488108 169.002942 
L 520.933231 171.903041 
L 524.378353 169.02623 
L 527.823476 160.301632 
L 531.268599 149.265316 
L 534.713722 139.082371 
L 534.713722 139.082371 
" clip-path="url(#p3731901452)" style="fill: none; stroke: #1f77b4; stroke-width: 1.6; stroke-linecap: square"/>
   </g>
   <g id="line2d_33">
    <path d="M 148.859972 187.17 
L 148.859972 29.76 
" clip-path="url(#p3731901452)" style="fill: none; stroke-dasharray: 2.96,1.28; stroke-dashoffset: 0; stroke: #000000; stroke-width: 0.8"/>
   </g>
   <g id="patch_3">
    <path d="M 39.132812 187.17 
L 39.132812 29.76 
" style="fill: none; stroke: #000000; stroke-width: 0.8; stroke-linejoin: miter; stroke-linecap: square"/>
   </g>
   <g id="patch_4">
    <path d="M 39.132813 187.17 
L 558.312812 187.17 
" style="fill: none; stroke: #000000; stroke-width: 0.8; stroke-linejoin: miter; stroke-linecap: square"/>
   </g>
   <g id="legend_1">
    <g id="line2d_34">
     <path d="M 442.314062 40.23875 
L 450.314062 40.23875 
L 458.314062 40.23875 
" style="fill: none; stroke: #d62728; stroke-width: 1.6; stroke-linecap: square"/>
    </g>
    <g id="text_11">
     <text style="font-size: 8px; font-family: 'Arial', 'Helvetica', 'DejaVu Sans', sans-serif; text-anchor: start" x="464.714062" y="43.03875" transform="rotate(-0 464.714062 43.03875)">Salient (n=3189)</text>
    </g>
    <g id="line2d_35">
     <path d="M 442.314062 51.98125 
L 450.314062 51.98125 
L 458.314062 51.98125 
" style="fill: none; stroke: #1f77b4; stroke-width: 1.6; stroke-linecap: square"/>
    </g>
    <g id="text_12">
     <text style="font-size: 8px; font-family: 'Arial', 'Helvetica', 'DejaVu Sans', sans-serif; text-anchor: start" x="464.714062" y="54.78125" transform="rotate(-0 464.714062 54.78125)">Non-salient (n=3187)</text>
    </g>
   </g>
  </g>
  <g id="axes_2">
   <g id="patch_5">
    <path d="M 39.132812 357.3 
L 558.312812 357.3 
L 558.312812 199.89 
L 39.132812 199.89 
z
" style="fill: #ffffff"/>
   </g>
   <g id="matplotlib.axis_3">
    <g id="xtick_7">
     <g id="line2d_36">
      <path d="M 62.731903 357.3 
L 62.731903 199.89 
" clip-path="url(#pc8b10b70de)" style="fill: none; stroke: #b0b0b0; stroke-opacity: 0.15; stroke-width: 0.8; stroke-linecap: square"/>
     </g>
     <g id="line2d_37">
      <g>
       <use xlink:href="#m59a7ca8042" x="62.731903" y="357.3" style="stroke: #000000; stroke-width: 0.8"/>
      </g>
     </g>
     <g id="text_13">
      <text style="font-size: 8px; font-family: 'Arial', 'Helvetica', 'DejaVu Sans', sans-serif; text-anchor: middle" x="62.731903" y="369.87875" transform="rotate(-0 62.731903 369.87875)">−100</text>
     </g>
    </g>
    <g id="xtick_8">
     <g id="line2d_38">
      <path d="M 148.859972 357.3 
L 148.859972 199.89 
" clip-path="url(#pc8b10b70de)" style="fill: none; stroke: #b0b0b0; stroke-opacity: 0.15; stroke-width: 0.8; stroke-linecap: square"/>
     </g>
     <g id="line2d_39">
      <g>
       <use xlink:href="#m59a7ca8042" x="148.859972" y="357.3" style="stroke: #000000; stroke-width: 0.8"/>
      </g>
     </g>
     <g id="text_14">
      <text style="font-size: 8px; font-family: 'Arial', 'Helvetica', 'DejaVu Sans', sans-serif; text-anchor: middle" x="148.859972" y="369.87875" transform="rotate(-0 148.859972 369.87875)">0</text>
     </g>
    </g>
    <g id="xtick_9">
     <g id="line2d_40">
      <path d="M 234.988041 357.3 
L 234.988041 199.89 
" clip-path="url(#pc8b10b70de)" style="fill: none; stroke: #b0b0b0; stroke-opacity: 0.15; stroke-width: 0.8; stroke-linecap: square"/>
     </g>
     <g id="line2d_41">
      <g>
       <use xlink:href="#m59a7ca8042" x="234.988041" y="357.3" style="stroke: #000000; stroke-width: 0.8"/>
      </g>
     </g>
     <g id="text_15">
      <text style="font-size: 8px; font-family: 'Arial', 'Helvetica', 'DejaVu Sans', sans-serif; text-anchor: middle" x="234.988041" y="369.87875" transform="rotate(-0 234.988041 369.87875)">100</text>
     </g>
    </g>
    <g id="xtick_10">
     <g id="line2d_42">
      <path d="M 321.11611 357.3 
L 321.11611 199.89 
" clip-path="url(#pc8b10b70de)" style="fill: none; stroke: #b0b0b0; stroke-opacity: 0.15; stroke-width: 0.8; stroke-linecap: square"/>
     </g>
     <g id="line2d_43">
      <g>
       <use xlink:href="#m59a7ca8042" x="321.11611" y="357.3" style="stroke: #000000; stroke-width: 0.8"/>
      </g>
     </g>
     <g id="text_16">
      <text style="font-size: 8px; font-family: 'Arial', 'Helvetica', 'DejaVu Sans', sans-serif; text-anchor: middle" x="321.11611" y="369.87875" transform="rotate(-0 321.11611 369.87875)">200</text>
     </g>
    </g>
    <g id="xtick_11">
     <g id="line2d_44">
      <path d="M 407.244179 357.3 
L 407.244179 199.89 
" clip-path="url(#pc8b10b70de)" style="fill: none; stroke: #b0b0b0; stroke-opacity: 0.15; stroke-width: 0.8; stroke-linecap: square"/>
     </g>
     <g id="line2d_45">
      <g>
       <use xlink:href="#m59a7ca8042" x="407.244179" y="357.3" style="stroke: #000000; stroke-width: 0.8"/>
      </g>
     </g>
     <g id="text_17">
      <text style="font-size: 8px; font-family: 'Arial', 'Helvetica', 'DejaVu Sans', sans-serif; text-anchor: middle" x="407.244179" y="369.87875" transform="rotate(-0 407.244179 369.87875)">300</text>
     </g>
    </g>
    <g id="xtick_12">
     <g id="line2d_46">
      <path d="M 493.372248 357.3 
L 493.372248 199.89 
" clip-path="url(#pc8b10b70de)" style="fill: none; stroke: #b0b0b0; stroke-opacity: 0.15; stroke-width: 0.8; stroke-linecap: square"/>
     </g>
     <g id="line2d_47">
      <g>
       <use xlink:href="#m59a7ca8042" x="493.372248" y="357.3" style="stroke: #000000; stroke-width: 0.8"/>
      </g>
     </g>
     <g id="text_18">
      <text style="font-size: 8px; font-family: 'Arial', 'Helvetica', 'DejaVu Sans', sans-serif; text-anchor: middle" x="493.372248" y="369.87875" transform="rotate(-0 493.372248 369.87875)">400</text>
     </g>
    </g>
    <g id="text_19">
     <text style="font-size: 9px; font-family: 'Arial', 'Helvetica', 'DejaVu Sans', sans-serif; text-anchor: middle" x="298.722812" y="382.381094" transform="rotate(-0 298.722812 382.381094)">Time (ms)</text>
    </g>
   </g>
   <g id="matplotlib.axis_4">
    <g id="ytick_10">
     <g id="line2d_48">
      <path d="M 39.132812 339.300209 
L 558.312812 339.300209 
" clip-path="url(#pc8b10b70de)" style="fill: none; stroke: #b0b0b0; stroke-opacity: 0.15; stroke-width: 0.8; stroke-linecap: square"/>
     </g>
     <g id="line2d_49">
      <g>
       <use xlink:href="#maf11a744e2" x="39.132812" y="339.300209" style="stroke: #000000; stroke-width: 0.8"/>
      </g>
     </g>
     <g id="text_20">
      <text style="font-size: 8px; font-family: 'Arial', 'Helvetica', 'DejaVu Sans', sans-serif; text-anchor: end" x="32.632812" y="342.339584" transform="rotate(-0 32.632812 342.339584)">−2</text>
     </g>
    </g>
    <g id="ytick_11">
     <g id="line2d_50">
      <path d="M 39.132812 315.542448 
L 558.312812 315.542448 
" clip-path="url(#pc8b10b70de)" style="fill: none; stroke: #b0b0b0; stroke-opacity: 0.15; stroke-width: 0.8; stroke-linecap: square"/>
     </g>
     <g id="line2d_51">
      <g>
       <use xlink:href="#maf11a744e2" x="39.132812" y="315.542448" style="stroke: #000000; stroke-width: 0.8"/>
      </g>
     </g>
     <g id="text_21">
      <text style="font-size: 8px; font-family: 'Arial', 'Helvetica', 'DejaVu Sans', sans-serif; text-anchor: end" x="32.632812" y="318.581823" transform="rotate(-0 32.632812 318.581823)">−1</text>
     </g>
    </g>
    <g id="ytick_12">
     <g id="line2d_52">
      <path d="M 39.132812 291.784686 
L 558.312812 291.784686 
" clip-path="url(#pc8b10b70de)" style="fill: none; stroke: #b0b0b0; stroke-opacity: 0.15; stroke-width: 0.8; stroke-linecap: square"/>
     </g>
     <g id="line2d_53">
      <g>
       <use xlink:href="#maf11a744e2" x="39.132812" y="291.784686" style="stroke: #000000; stroke-width: 0.8"/>
      </g>
     </g>
     <g id="text_22">
      <text style="font-size: 8px; font-family: 'Arial', 'Helvetica', 'DejaVu Sans', sans-serif; text-anchor: end" x="32.632812" y="294.824061" transform="rotate(-0 32.632812 294.824061)">0</text>
     </g>
    </g>
    <g id="ytick_13">
     <g id="line2d_54">
      <path d="M 39.132812 268.026924 
L 558.312812 268.026924 
" clip-path="url(#pc8b10b70de)" style="fill: none; stroke: #b0b0b0; stroke-opacity: 0.15; stroke-width: 0.8; stroke-linecap: square"/>
     </g>
     <g id="line2d_55">
      <g>
       <use xlink:href="#maf11a744e2" x="39.132812" y="268.026924" style="stroke: #000000; stroke-width: 0.8"/>
      </g>
     </g>
     <g id="text_23">
      <text style="font-size: 8px; font-family: 'Arial', 'Helvetica', 'DejaVu Sans', sans-serif; text-anchor: end" x="32.632812" y="271.066299" transform="rotate(-0 32.632812 271.066299)">1</text>
     </g>
    </g>
    <g id="ytick_14">
     <g id="line2d_56">
      <path d="M 39.132812 244.269162 
L 558.312812 244.269162 
" clip-path="url(#pc8b10b70de)" style="fill: none; stroke: #b0b0b0; stroke-opacity: 0.15; stroke-width: 0.8; stroke-linecap: square"/>
     </g>
     <g id="line2d_57">
      <g>
       <use xlink:href="#maf11a744e2" x="39.132812" y="244.269162" style="stroke: #000000; stroke-width: 0.8"/>
      </g>
     </g>
     <g id="text_24">
      <text style="font-size: 8px; font-family: 'Arial', 'Helvetica', 'DejaVu Sans', sans-serif; text-anchor: end" x="32.632812" y="247.308537" transform="rotate(-0 32.632812 247.308537)">2</text>
     </g>
    </g>
    <g id="ytick_15">
     <g id="line2d_58">
      <path d="M 39.132812 220.511401 
L 558.312812 220.511401 
" clip-path="url(#pc8b10b70de)" style="fill: none; stroke: #b0b0b0; stroke-opacity: 0.15; stroke-width: 0.8; stroke-linecap: square"/>
     </g>
     <g id="line2d_59">
      <g>
       <use xlink:href="#maf11a744e2" x="39.132812" y="220.511401" style="stroke: #000000; stroke-width: 0.8"/>
      </g>
     </g>
     <g id="text_25">
      <text style="font-size: 8px; font-family: 'Arial', 'Helvetica', 'DejaVu Sans', sans-serif; text-anchor: end" x="32.632812" y="223.550776" transform="rotate(-0 32.632812 223.550776)">3</text>
     </g>
    </g>
    <g id="text_26">
     <text style="font-size: 9px; font-family: 'Arial', 'Helvetica', 'DejaVu Sans', sans-serif; text-anchor: middle" x="14.967344" y="278.595" transform="rotate(-90 14.967344 278.595)">Channel-mean (µV)</text>
    </g>
   </g>
   <g id="line2d_60">
    <path d="M 62.731903 306.11997 
L 66.177026 307.708934 
L 69.622149 307.626702 
L 73.067272 305.92171 
L 76.512394 303.138926 
L 79.957517 300.212704 
L 83.40264 298.209569 
L 86.847763 297.994391 
L 90.292885 299.933418 
L 93.738008 303.744355 
L 97.183131 321.135194 
L 100.628254 329.206631 
L 104.073377 334.899318 
L 107.518499 336.879852 
L 110.963622 334.887811 
L 114.408745 329.736098 
L 121.29899 316.165262 
L 124.744113 310.630607 
L 128.189236 306.854483 
L 131.634359 311.320504 
L 135.079481 312.854155 
L 138.524604 315.384041 
L 141.969727 318.185446 
L 145.41485 320.74088 
L 148.859972 322.887692 
L 152.305095 324.851711 
L 155.750218 327.152671 
L 159.195341 317.290873 
L 162.640463 323.755501 
L 166.085586 330.766467 
L 169.530709 337.490915 
L 172.975832 342.842136 
L 176.420955 345.74035 
L 179.866077 345.412433 
L 183.3112 341.614067 
L 186.756323 334.696313 
L 190.201446 325.500839 
L 200.536814 294.655794 
L 203.981937 285.54857 
L 207.427059 277.133565 
L 214.317305 261.346532 
L 217.762428 254.116018 
L 221.20755 248.116887 
L 224.652673 244.225627 
L 228.097796 243.083264 
L 231.542919 244.70817 
L 234.988041 248.346099 
L 238.433164 252.670417 
L 241.878287 256.276198 
L 245.32341 258.257018 
L 248.768532 258.599418 
L 252.213655 258.206801 
L 255.658778 258.535284 
L 259.103901 261.002483 
L 262.549024 266.426651 
L 265.994146 274.723968 
L 269.439269 284.962158 
L 272.884392 295.706815 
L 276.329515 305.480827 
L 279.774637 313.136152 
L 283.21976 318.01239 
L 286.664883 319.880457 
L 290.110006 318.772431 
L 293.555128 314.828505 
L 297.000251 308.245361 
L 300.445374 299.326295 
L 303.890497 288.563863 
L 314.225865 252.863196 
L 317.670988 242.438112 
L 321.11611 233.584099 
L 324.561233 226.398288 
L 328.006356 220.78732 
L 331.451479 216.566085 
L 334.896601 213.528416 
L 338.341724 211.481511 
L 341.786847 210.261598 
L 345.23197 209.747739 
L 348.677093 209.876908 
L 352.122215 210.652316 
L 355.567338 212.135794 
L 359.012461 214.421352 
L 362.457584 217.595599 
L 365.902706 221.694881 
L 369.347829 226.669687 
L 372.792952 232.366129 
L 386.573443 256.84615 
L 390.018566 262.114412 
L 393.463688 266.827992 
L 396.908811 271.058566 
L 400.353934 274.943826 
L 421.02467 297.177656 
L 424.469793 300.305488 
L 427.914916 302.776729 
L 431.360039 304.450828 
L 434.805162 305.317599 
L 438.250284 305.503457 
L 441.695407 305.227885 
L 458.921021 302.686462 
L 462.366144 301.940003 
L 465.811266 300.837109 
L 469.256389 299.275447 
L 472.701512 297.278536 
L 476.146635 295.08209 
L 479.591757 293.169728 
L 483.03688 292.201306 
L 486.482003 292.825385 
L 489.927126 295.43425 
L 493.372248 299.959046 
L 496.817371 305.789824 
L 500.262494 311.858217 
L 503.707617 306.11997 
L 507.15274 307.708934 
L 510.597862 307.626702 
L 514.042985 305.92171 
L 517.488108 303.138926 
L 520.933231 300.212704 
L 524.378353 298.209569 
L 527.823476 297.994391 
L 531.268599 299.933418 
L 534.713722 303.744355 
L 534.713722 303.744355 
" clip-path="url(#pc8b10b70de)" style="fill: none; stroke: #d62728; stroke-width: 1.4; stroke-linecap: square"/>
   </g>
   <g id="line2d_61">
    <path d="M 62.731903 309.603067 
L 66.177026 310.433734 
L 69.622149 309.468896 
L 73.067272 306.992175 
L 76.512394 303.770819 
L 79.957517 300.854625 
L 83.40264 299.269025 
L 86.847763 299.695306 
L 90.292885 302.243925 
L 93.738008 306.402099 
L 97.183131 325.725323 
L 100.628254 333.11934 
L 104.073377 337.791485 
L 107.518499 338.777024 
L 110.963622 336.126778 
L 114.408745 330.794023 
L 121.29899 317.892364 
L 124.744113 312.734797 
L 128.189236 309.072733 
L 131.634359 311.741835 
L 135.079481 311.664356 
L 138.524604 312.491878 
L 141.969727 313.772865 
L 145.41485 315.216513 
L 148.859972 316.799184 
L 152.305095 318.800135 
L 155.750218 321.728874 
L 159.195341 314.896847 
L 162.640463 322.753805 
L 169.530709 339.735176 
L 172.975832 346.447435 
L 176.420955 350.145 
L 179.866077 349.907559 
L 183.3112 345.557779 
L 186.756323 337.704261 
L 190.201446 327.530173 
L 197.091691 305.5616 
L 200.536814 295.646013 
L 203.981937 286.781229 
L 207.427059 278.640517 
L 214.317305 263.158454 
L 217.762428 256.124483 
L 221.20755 250.621521 
L 224.652673 247.69413 
L 228.097796 247.990458 
L 231.542919 251.337646 
L 234.988041 256.648396 
L 238.433164 262.244727 
L 241.878287 266.484319 
L 245.32341 268.417617 
L 248.768532 268.174637 
L 252.213655 266.900891 
L 255.658778 266.271396 
L 259.103901 267.80082 
L 262.549024 272.24647 
L 265.994146 279.342844 
L 272.884392 296.50424 
L 276.329515 303.573967 
L 279.774637 308.235735 
L 283.21976 310.184676 
L 286.664883 309.571652 
L 290.110006 306.719826 
L 293.555128 301.892341 
L 297.000251 295.222139 
L 300.445374 286.805758 
L 303.890497 276.869643 
L 314.225865 243.683027 
L 317.670988 233.930153 
L 321.11611 225.715004 
L 324.561233 219.154219 
L 328.006356 214.155527 
L 331.451479 210.556204 
L 334.896601 208.225909 
L 338.341724 207.083772 
L 341.786847 207.045 
L 345.23197 207.961007 
L 348.677093 209.614816 
L 352.122215 211.786273 
L 355.567338 214.34702 
L 359.012461 217.320932 
L 362.457584 220.862349 
L 365.902706 225.150784 
L 369.347829 230.251315 
L 372.792952 236.018442 
L 379.683197 248.077152 
L 383.12832 253.581014 
L 386.573443 258.465141 
L 390.018566 262.810148 
L 400.353934 275.064859 
L 407.244179 284.00093 
L 414.134425 292.856501 
L 417.579548 296.917008 
L 421.02467 300.643028 
L 424.469793 304.010337 
L 427.914916 306.991998 
L 431.360039 309.541438 
L 434.805162 311.600582 
L 438.250284 313.123631 
L 441.695407 314.098108 
L 445.14053 314.552719 
L 448.585653 314.555007 
L 452.030775 314.203729 
L 455.475898 313.60957 
L 458.921021 312.852902 
L 462.366144 311.927041 
L 465.811266 310.710336 
L 469.256389 309.020234 
L 472.701512 306.761178 
L 479.591757 301.582875 
L 483.03688 300.011767 
L 486.482003 300.215157 
L 489.927126 302.671567 
L 493.372248 307.233628 
L 500.262494 318.796807 
L 503.707617 309.603067 
L 507.15274 310.433734 
L 510.597862 309.468896 
L 514.042985 306.992175 
L 517.488108 303.770819 
L 520.933231 300.854625 
L 524.378353 299.269025 
L 527.823476 299.695306 
L 531.268599 302.243925 
L 534.713722 306.402099 
L 534.713722 306.402099 
" clip-path="url(#pc8b10b70de)" style="fill: none; stroke: #1f77b4; stroke-width: 1.4; stroke-linecap: square"/>
   </g>
   <g id="line2d_62">
    <path d="M 62.731903 288.30159 
L 66.177026 289.059887 
L 73.067272 290.714221 
L 76.512394 291.152793 
L 79.957517 291.142766 
L 83.40264 290.72523 
L 90.292885 289.474179 
L 93.738008 289.126942 
L 97.183131 287.194556 
L 100.628254 287.871977 
L 107.518499 289.887513 
L 110.963622 290.545718 
L 114.408745 290.72676 
L 117.853868 290.493069 
L 124.744113 289.680496 
L 128.189236 289.566436 
L 131.634359 291.363355 
L 141.969727 296.197267 
L 145.41485 297.309053 
L 148.859972 297.873193 
L 152.305095 297.836262 
L 155.750218 297.208483 
L 159.195341 294.178711 
L 162.640463 292.786382 
L 169.530709 289.540425 
L 172.975832 288.179387 
L 176.420955 287.380036 
L 179.866077 287.28956 
L 183.3112 287.840974 
L 190.201446 289.755351 
L 193.646568 290.4852 
L 197.091691 290.822391 
L 200.536814 290.794466 
L 210.872182 290.089386 
L 217.762428 289.776221 
L 221.20755 289.280052 
L 224.652673 288.316182 
L 228.097796 286.877492 
L 234.988041 283.482389 
L 238.433164 282.210376 
L 241.878287 281.576564 
L 245.32341 281.624086 
L 248.768532 282.209467 
L 255.658778 284.048574 
L 262.549024 285.964867 
L 265.994146 287.16581 
L 269.439269 288.798219 
L 272.884392 290.987261 
L 276.329515 293.691546 
L 283.21976 299.6124 
L 286.664883 302.09349 
L 290.110006 303.83729 
L 293.555128 304.720849 
L 297.000251 304.807908 
L 300.445374 304.305223 
L 314.225865 300.964854 
L 324.561233 299.028754 
L 334.896601 297.087194 
L 338.341724 296.182425 
L 341.786847 295.001284 
L 352.122215 290.650729 
L 355.567338 289.57346 
L 359.012461 288.885106 
L 362.457584 288.517936 
L 369.347829 288.203058 
L 372.792952 288.132373 
L 376.238075 288.213792 
L 379.683197 288.571418 
L 383.12832 289.252974 
L 390.018566 291.088949 
L 393.463688 291.756262 
L 396.908811 291.965506 
L 400.353934 291.663653 
L 403.799057 290.96604 
L 410.689302 289.318129 
L 414.134425 288.772443 
L 417.579548 288.481384 
L 424.469793 288.079837 
L 427.914916 287.569417 
L 431.360039 286.694076 
L 434.805162 285.501703 
L 441.695407 282.914463 
L 445.14053 281.960724 
L 448.585653 281.418695 
L 452.030775 281.274282 
L 458.921021 281.618246 
L 465.811266 281.911458 
L 469.256389 282.039899 
L 472.701512 282.302044 
L 476.146635 282.762692 
L 483.03688 283.974226 
L 486.482003 284.394913 
L 489.927126 284.547368 
L 496.817371 284.515237 
L 500.262494 284.846095 
L 503.707617 288.30159 
L 507.15274 289.059887 
L 514.042985 290.714221 
L 517.488108 291.152793 
L 520.933231 291.142766 
L 524.378353 290.72523 
L 531.268599 289.474179 
L 534.713722 289.126942 
L 534.713722 289.126942 
" clip-path="url(#pc8b10b70de)" style="fill: none; stroke: #2ca02c; stroke-width: 1.4; stroke-linecap: square"/>
   </g>
   <g id="line2d_63">
    <path d="M 148.859972 357.3 
L 148.859972 199.89 
" clip-path="url(#pc8b10b70de)" style="fill: none; stroke-dasharray: 2.96,1.28; stroke-dashoffset: 0; stroke: #000000; stroke-width: 0.8"/>
   </g>
   <g id="line2d_64">
    <path d="M 39.132812 291.784686 
L 558.312812 291.784686 
" clip-path="url(#pc8b10b70de)" style="fill: none; stroke: #808080; stroke-opacity: 0.3; stroke-width: 0.4; stroke-linecap: square"/>
   </g>
   <g id="patch_6">
    <path d="M 39.132812 357.3 
L 39.132812 199.89 
" style="fill: none; stroke: #000000; stroke-width: 0.8; stroke-linejoin: miter; stroke-linecap: square"/>
   </g>
   <g id="patch_7">
    <path d="M 39.132813 357.3 
L 558.312812 357.3 
" style="fill: none; stroke: #000000; stroke-width: 0.8; stroke-linejoin: miter; stroke-linecap: square"/>
   </g>
   <g id="legend_2">
    <g id="line2d_65">
     <path d="M 483.232812 210.36875 
L 491.232812 210.36875 
L 499.232812 210.36875 
" style="fill: none; stroke: #d62728; stroke-width: 1.4; stroke-linecap: square"/>
    </g>
    <g id="text_27">
     <text style="font-size: 8px; font-family: 'Arial', 'Helvetica', 'DejaVu Sans', sans-serif; text-anchor: start" x="505.632812" y="213.16875" transform="rotate(-0 505.632812 213.16875)">Salient</text>
    </g>
    <g id="line2d_66">
     <path d="M 483.232812 222.11125 
L 491.232812 222.11125 
L 499.232812 222.11125 
" style="fill: none; stroke: #1f77b4; stroke-width: 1.4; stroke-linecap: square"/>
    </g>
    <g id="text_28">
     <text style="font-size: 8px; font-family: 'Arial', 'Helvetica', 'DejaVu Sans', sans-serif; text-anchor: start" x="505.632812" y="224.91125" transform="rotate(-0 505.632812 224.91125)">Non-salient</text>
    </g>
    <g id="line2d_67">
     <path d="M 483.232812 233.85375 
L 491.232812 233.85375 
L 499.232812 233.85375 
" style="fill: none; stroke: #2ca02c; stroke-width: 1.4; stroke-linecap: square"/>
    </g>
    <g id="text_29">
     <text style="font-size: 8px; font-family: 'Arial', 'Helvetica', 'DejaVu Sans', sans-serif; text-anchor: start" x="505.632812" y="236.65375" transform="rotate(-0 505.632812 236.65375)">Δ (S − NS)</text>
    </g>
   </g>
  </g>
  <g id="text_30">
   <text style="font-weight: 700; font-size: 10.8px; font-family: 'Arial', 'Helvetica', 'DejaVu Sans', sans-serif; text-anchor: middle" x="280.032813" y="15.406313" transform="rotate(-0 280.032813 15.406313)">Plan C — deconvolved salient vs non-salient (area median split)</text>
  </g>
 </g>
 <defs>
  <clipPath id="p3731901452">
   <rect x="39.132812" y="29.76" width="519.18" height="157.41"/>
  </clipPath>
  <clipPath id="pc8b10b70de">
   <rect x="39.132812" y="199.89" width="519.18" height="157.41"/>
  </clipPath>
 </defs>
</svg>
